<svg xmlns="http://www.w3.org/2000/svg" xmlns:xlink="http://www.w3.org/1999/xlink" width="500" zoomAndPan="magnify" viewBox="0 0 375 374.999991" height="500" preserveAspectRatio="xMidYMid meet" version="1.0"><defs><g/><clipPath id="id1"><path d="M 79 172 L 103 172 L 103 199.765625 L 79 199.765625 Z M 79 172 " clip-rule="nonzero"/></clipPath><clipPath id="id2"><path d="M 101 136.015625 L 115 136.015625 L 115 148 L 101 148 Z M 101 136.015625 " clip-rule="nonzero"/></clipPath></defs><g clip-path="url(#id1)"><path fill="#5d32a5" d="M 79.648438 199.757812 C 79.820312 199.265625 80.03125 198.78125 80.332031 198.359375 C 84.394531 192.546875 88.589844 186.835938 92.65625 181.03125 C 94.019531 179.027344 95.480469 177.097656 96.941406 175.171875 C 97.558594 174.445312 98.136719 173.664062 98.882812 173.070312 C 100.003906 172.207031 101.773438 172.605469 102.472656 173.855469 C 103.296875 175.566406 102.757812 177.601562 101.578125 178.972656 C 98.503906 182.515625 95.109375 185.734375 91.71875 188.949219 C 88.488281 192.09375 85.207031 195.179688 81.84375 198.175781 C 81.132812 198.730469 80.5 199.429688 79.648438 199.757812 Z M 79.648438 199.757812 " fill-opacity="1" fill-rule="nonzero"/></g><path fill="#5d32a5" d="M 100.425781 169.734375 C 100.753906 168.585938 102.175781 167.707031 103.523438 167.003906 C 109.359375 167.09375 113.8125 169.515625 117.875 171.789062 C 119.769531 172.929688 121.957031 174.191406 122.035156 176.152344 C 121.816406 177.101562 121.132812 178.019531 120.417969 178.886719 C 117.027344 182.71875 112.097656 185.847656 107.097656 188.730469 C 104.910156 189.945312 102.835938 191.273438 100.566406 192.414062 L 100.058594 192.488281 C 101.28125 190.972656 102.996094 189.644531 104.328125 188.167969 C 107.695312 184.449219 110.945312 180.6875 114.648438 177.097656 C 112.546875 176.488281 110.210938 176.203125 108.171875 175.507812 C 105.789062 174.71875 103.492188 173.761719 101.785156 172.394531 C 100.890625 171.695312 100.25 170.757812 100.425781 169.734375 Z M 100.425781 169.734375 " fill-opacity="1" fill-rule="nonzero"/><path fill="#5d32a5" d="M 110.394531 158.050781 C 109.550781 158.488281 109.195312 159.414062 108.960938 160.257812 C 110.449219 163.160156 113.472656 164.8125 116.285156 166.304688 C 117.660156 166.984375 119.203125 167.777344 120.796875 167.347656 C 121.503906 167.011719 122.074219 166.449219 122.597656 165.882812 C 124.84375 163.269531 126.152344 160.050781 127.246094 156.851562 C 127.691406 155.464844 128.25 154.109375 128.613281 152.699219 L 128.546875 152.425781 C 127.628906 153.402344 126.980469 154.578125 126.125 155.601562 C 123.960938 158.175781 121.734375 160.707031 119.753906 163.421875 C 118.753906 162.511719 117.960938 161.410156 116.90625 160.554688 C 115.695312 159.546875 114.367188 158.625 112.855469 158.097656 C 112.078125 157.816406 111.171875 157.71875 110.394531 158.050781 Z M 110.394531 158.050781 " fill-opacity="1" fill-rule="nonzero"/><path fill="#5d32a5" d="M 114.28125 143.117188 C 116.4375 142.917969 118.71875 143.800781 120.074219 145.511719 C 121.027344 146.582031 121.449219 148.007812 121.601562 149.40625 C 121.515625 151.027344 120.9375 152.667969 119.777344 153.839844 C 118.015625 155.777344 115 156.4375 112.570312 155.453125 C 109.253906 154.324219 107.296875 150.101562 108.957031 146.929688 C 109.875 144.804688 112.003906 143.386719 114.28125 143.117188 Z M 114.28125 143.117188 " fill-opacity="1" fill-rule="nonzero"/><path fill="#5d32a5" d="M 108.597656 157.085938 C 109.589844 156.511719 109.976562 155.652344 110.214844 154.890625 C 108.261719 152.839844 104.515625 152.214844 101.035156 151.671875 C 99.335938 151.453125 97.429688 151.175781 95.523438 151.929688 C 94.683594 152.390625 94.023438 153 93.425781 153.605469 C 90.839844 156.347656 89.425781 159.363281 88.269531 162.300781 C 87.804688 163.570312 87.195312 164.84375 86.832031 166.109375 L 86.925781 166.320312 C 87.984375 165.277344 88.707031 164.132812 89.691406 163.066406 C 92.171875 160.375 94.734375 157.710938 96.988281 154.949219 C 98.246094 155.457031 99.265625 156.179688 100.585938 156.628906 C 102.101562 157.164062 103.757812 157.605469 105.613281 157.667969 C 106.570312 157.707031 107.667969 157.5625 108.597656 157.085938 Z M 108.597656 157.085938 " fill-opacity="1" fill-rule="nonzero"/><g clip-path="url(#id2)"><path fill="#5d32a5" d="M 113.550781 144.914062 C 114.132812 144.675781 114.453125 143.988281 114.691406 143.351562 C 114.027344 140.859375 112.253906 139.164062 110.597656 137.625 C 109.785156 136.914062 108.875 136.085938 107.808594 136.222656 C 107.320312 136.402344 106.898438 136.773438 106.507812 137.15625 C 104.804688 138.941406 103.640625 141.324219 102.617188 143.71875 C 102.195312 144.761719 101.699219 145.765625 101.328125 146.835938 L 101.339844 147.058594 C 102.027344 146.402344 102.558594 145.554688 103.214844 144.855469 C 104.859375 143.085938 106.542969 141.367188 108.082031 139.46875 C 108.632812 140.316406 109.03125 141.292969 109.621094 142.101562 C 110.300781 143.054688 111.058594 143.957031 111.972656 144.566406 C 112.445312 144.886719 113.015625 145.082031 113.550781 144.914062 Z M 113.550781 144.914062 " fill-opacity="1" fill-rule="nonzero"/></g><path fill="#5d32a5" d="M 136.816406 156.082031 C 136.78125 156.128906 136.707031 156.148438 136.589844 156.136719 C 136.472656 156.125 136.316406 156.082031 136.117188 156.011719 C 135.921875 155.9375 135.6875 155.839844 135.417969 155.710938 C 135.148438 155.582031 134.851562 155.429688 134.519531 155.25 C 134.1875 155.070312 133.835938 154.867188 133.453125 154.640625 C 133.074219 154.417969 132.679688 154.175781 132.265625 153.914062 C 131.851562 153.652344 131.429688 153.378906 130.996094 153.089844 C 130.566406 152.804688 130.132812 152.507812 129.699219 152.207031 C 129.265625 151.90625 128.839844 151.601562 128.421875 151.292969 C 128.003906 150.988281 127.601562 150.6875 127.210938 150.390625 C 126.824219 150.089844 126.460938 149.804688 126.117188 149.527344 C 125.777344 149.246094 125.464844 148.984375 125.179688 148.738281 C 124.898438 148.488281 124.652344 148.261719 124.4375 148.054688 C 124.226562 147.84375 124.050781 147.660156 123.917969 147.5 C 123.78125 147.339844 123.6875 147.207031 123.636719 147.101562 C 123.585938 146.996094 123.578125 146.917969 123.609375 146.871094 C 123.644531 146.824219 123.71875 146.804688 123.835938 146.816406 C 123.957031 146.828125 124.113281 146.871094 124.308594 146.941406 C 124.507812 147.015625 124.738281 147.113281 125.007812 147.242188 C 125.277344 147.371094 125.578125 147.523438 125.90625 147.703125 C 126.238281 147.882812 126.59375 148.085938 126.972656 148.308594 C 127.351562 148.535156 127.746094 148.777344 128.160156 149.039062 C 128.574219 149.300781 128.996094 149.574219 129.429688 149.863281 C 129.859375 150.148438 130.292969 150.441406 130.726562 150.746094 C 131.160156 151.046875 131.585938 151.351562 132.003906 151.65625 C 132.425781 151.964844 132.828125 152.265625 133.214844 152.5625 C 133.601562 152.859375 133.96875 153.148438 134.308594 153.425781 C 134.652344 153.707031 134.964844 153.96875 135.246094 154.214844 C 135.527344 154.464844 135.777344 154.691406 135.988281 154.898438 C 136.203125 155.105469 136.375 155.289062 136.511719 155.449219 C 136.644531 155.609375 136.738281 155.742188 136.789062 155.851562 C 136.839844 155.957031 136.851562 156.03125 136.816406 156.082031 Z M 136.816406 156.082031 " fill-opacity="1" fill-rule="nonzero"/><path fill="#5d32a5" d="M 135.019531 154.410156 C 134.722656 154.832031 134.410156 155.210938 134.074219 155.558594 C 133.738281 155.902344 133.410156 156.183594 133.085938 156.398438 C 132.761719 156.617188 132.46875 156.753906 132.207031 156.808594 C 131.945312 156.867188 131.730469 156.835938 131.570312 156.722656 C 131.40625 156.609375 131.308594 156.421875 131.273438 156.15625 C 131.234375 155.890625 131.261719 155.570312 131.359375 155.195312 C 131.453125 154.816406 131.605469 154.414062 131.816406 153.980469 C 132.023438 153.550781 132.277344 153.125 132.574219 152.703125 C 132.867188 152.285156 133.183594 151.902344 133.519531 151.558594 C 133.851562 151.214844 134.183594 150.933594 134.503906 150.714844 C 134.828125 150.5 135.121094 150.363281 135.386719 150.304688 C 135.648438 150.25 135.859375 150.277344 136.023438 150.390625 C 136.183594 150.503906 136.285156 150.695312 136.320312 150.957031 C 136.359375 151.222656 136.328125 151.542969 136.234375 151.921875 C 136.140625 152.296875 135.988281 152.703125 135.777344 153.132812 C 135.566406 153.566406 135.3125 153.992188 135.019531 154.410156 Z M 135.019531 154.410156 " fill-opacity="1" fill-rule="nonzero"/><path fill="#5d32a5" d="M 128.449219 149.949219 C 128.15625 150.371094 127.839844 150.753906 127.507812 151.097656 C 127.171875 151.441406 126.84375 151.722656 126.519531 151.941406 C 126.195312 152.15625 125.902344 152.292969 125.640625 152.347656 C 125.375 152.40625 125.164062 152.378906 125.003906 152.265625 C 124.839844 152.152344 124.742188 151.960938 124.703125 151.695312 C 124.667969 151.429688 124.695312 151.109375 124.789062 150.734375 C 124.882812 150.355469 125.035156 149.953125 125.246094 149.523438 C 125.457031 149.089844 125.710938 148.664062 126.003906 148.246094 C 126.300781 147.824219 126.617188 147.441406 126.949219 147.097656 C 127.285156 146.753906 127.613281 146.472656 127.9375 146.253906 C 128.261719 146.039062 128.554688 145.902344 128.816406 145.847656 C 129.078125 145.789062 129.292969 145.816406 129.453125 145.929688 C 129.617188 146.042969 129.714844 146.234375 129.753906 146.5 C 129.789062 146.765625 129.761719 147.085938 129.667969 147.460938 C 129.574219 147.839844 129.421875 148.242188 129.210938 148.671875 C 129 149.105469 128.746094 149.53125 128.449219 149.949219 Z M 128.449219 149.949219 " fill-opacity="1" fill-rule="nonzero"/><path fill="#5d32a5" d="M 92.332031 172.433594 C 92.300781 172.484375 92.222656 172.5 92.105469 172.488281 C 91.988281 172.476562 91.832031 172.433594 91.632812 172.363281 C 91.4375 172.292969 91.203125 172.191406 90.933594 172.066406 C 90.667969 171.9375 90.367188 171.78125 90.035156 171.601562 C 89.707031 171.421875 89.351562 171.222656 88.972656 170.996094 C 88.59375 170.769531 88.195312 170.527344 87.78125 170.265625 C 87.371094 170.007812 86.945312 169.730469 86.515625 169.445312 C 86.082031 169.15625 85.648438 168.863281 85.214844 168.5625 C 84.78125 168.257812 84.355469 167.953125 83.9375 167.648438 C 83.519531 167.34375 83.117188 167.039062 82.730469 166.742188 C 82.339844 166.445312 81.976562 166.15625 81.636719 165.878906 C 81.292969 165.601562 80.980469 165.339844 80.699219 165.089844 C 80.414062 164.84375 80.167969 164.613281 79.953125 164.40625 C 79.742188 164.199219 79.566406 164.015625 79.433594 163.855469 C 79.296875 163.695312 79.207031 163.5625 79.152344 163.457031 C 79.101562 163.351562 79.09375 163.273438 79.128906 163.226562 C 79.160156 163.175781 79.238281 163.160156 79.355469 163.171875 C 79.472656 163.183594 79.628906 163.226562 79.828125 163.296875 C 80.023438 163.367188 80.257812 163.46875 80.527344 163.59375 C 80.792969 163.722656 81.09375 163.878906 81.425781 164.058594 C 81.753906 164.238281 82.109375 164.441406 82.488281 164.664062 C 82.867188 164.890625 83.265625 165.132812 83.679688 165.394531 C 84.089844 165.652344 84.515625 165.929688 84.945312 166.214844 C 85.378906 166.503906 85.8125 166.796875 86.246094 167.097656 C 86.675781 167.402344 87.105469 167.707031 87.523438 168.011719 C 87.941406 168.316406 88.34375 168.621094 88.730469 168.917969 C 89.121094 169.214844 89.484375 169.503906 89.824219 169.78125 C 90.167969 170.058594 90.480469 170.320312 90.761719 170.570312 C 91.046875 170.816406 91.292969 171.046875 91.507812 171.253906 C 91.71875 171.460938 91.894531 171.644531 92.027344 171.804688 C 92.164062 171.964844 92.253906 172.097656 92.308594 172.203125 C 92.359375 172.308594 92.367188 172.386719 92.332031 172.433594 Z M 92.332031 172.433594 " fill-opacity="1" fill-rule="nonzero"/><path fill="#5d32a5" d="M 90.535156 170.765625 C 90.242188 171.183594 89.925781 171.566406 89.589844 171.910156 C 89.257812 172.253906 88.925781 172.535156 88.605469 172.753906 C 88.28125 172.96875 87.988281 173.105469 87.722656 173.164062 C 87.460938 173.21875 87.25 173.191406 87.085938 173.078125 C 86.925781 172.964844 86.824219 172.777344 86.789062 172.511719 C 86.75 172.246094 86.78125 171.925781 86.875 171.546875 C 86.96875 171.171875 87.121094 170.765625 87.332031 170.335938 C 87.542969 169.902344 87.796875 169.480469 88.089844 169.058594 C 88.386719 168.640625 88.699219 168.257812 89.035156 167.910156 C 89.371094 167.566406 89.699219 167.285156 90.023438 167.070312 C 90.347656 166.851562 90.640625 166.714844 90.902344 166.660156 C 91.164062 166.605469 91.375 166.632812 91.539062 166.746094 C 91.703125 166.859375 91.800781 167.046875 91.835938 167.3125 C 91.875 167.578125 91.847656 167.898438 91.75 168.277344 C 91.65625 168.652344 91.503906 169.054688 91.292969 169.488281 C 91.082031 169.917969 90.832031 170.34375 90.535156 170.765625 Z M 90.535156 170.765625 " fill-opacity="1" fill-rule="nonzero"/><path fill="#5d32a5" d="M 83.96875 166.304688 C 83.671875 166.722656 83.359375 167.105469 83.023438 167.449219 C 82.6875 167.796875 82.359375 168.078125 82.035156 168.292969 C 81.710938 168.511719 81.417969 168.648438 81.15625 168.703125 C 80.894531 168.757812 80.679688 168.730469 80.519531 168.617188 C 80.355469 168.503906 80.257812 168.316406 80.21875 168.050781 C 80.183594 167.785156 80.210938 167.464844 80.304688 167.085938 C 80.398438 166.710938 80.554688 166.304688 80.761719 165.875 C 80.972656 165.445312 81.226562 165.019531 81.523438 164.597656 C 81.816406 164.179688 82.132812 163.796875 82.46875 163.453125 C 82.800781 163.105469 83.132812 162.828125 83.453125 162.609375 C 83.777344 162.390625 84.070312 162.257812 84.332031 162.199219 C 84.597656 162.144531 84.808594 162.171875 84.972656 162.285156 C 85.132812 162.398438 85.234375 162.585938 85.269531 162.851562 C 85.304688 163.117188 85.277344 163.4375 85.183594 163.816406 C 85.089844 164.191406 84.9375 164.597656 84.726562 165.027344 C 84.515625 165.457031 84.261719 165.882812 83.96875 166.304688 Z M 83.96875 166.304688 " fill-opacity="1" fill-rule="nonzero"/><path fill="#5d32a5" d="M 107.300781 163.1875 C 107.082031 163.652344 106.820312 164.070312 106.507812 164.449219 C 106.195312 164.828125 105.863281 165.132812 105.507812 165.367188 C 105.148438 165.601562 104.796875 165.746094 104.449219 165.800781 C 104.101562 165.855469 103.78125 165.816406 103.496094 165.683594 C 103.207031 165.550781 102.972656 165.332031 102.792969 165.03125 C 102.609375 164.730469 102.496094 164.371094 102.445312 163.945312 C 102.394531 163.523438 102.417969 163.074219 102.507812 162.59375 C 102.597656 162.113281 102.753906 161.640625 102.972656 161.175781 C 103.1875 160.710938 103.453125 160.289062 103.765625 159.910156 C 104.074219 159.53125 104.410156 159.226562 104.765625 158.992188 C 105.121094 158.757812 105.472656 158.613281 105.824219 158.558594 C 106.171875 158.503906 106.488281 158.542969 106.777344 158.675781 C 107.0625 158.8125 107.296875 159.027344 107.480469 159.328125 C 107.660156 159.628906 107.777344 159.992188 107.828125 160.414062 C 107.875 160.835938 107.855469 161.289062 107.761719 161.769531 C 107.671875 162.25 107.519531 162.722656 107.300781 163.1875 Z M 107.300781 163.1875 " fill-opacity="1" fill-rule="nonzero"/><g fill="#1c2120" fill-opacity="1"><g transform="translate(130.259591, 190.624471)"><g><path d="M 5.183594 -2.503906 L 5.183594 -24.3125 L 2.679688 -24.3125 L 2.679688 0 L 13.871094 0 L 13.871094 -2.503906 Z M 5.183594 -2.503906 "/></g></g></g><g fill="#1c2120" fill-opacity="1"><g transform="translate(144.842418, 190.624471)"><g><path d="M 5.183594 0 L 5.183594 -11.40625 L 13.371094 0 L 16.589844 0 L 7.652344 -12.15625 L 16.589844 -24.3125 L 13.371094 -24.3125 L 5.183594 -12.871094 L 5.183594 -24.3125 L 2.679688 -24.3125 L 2.679688 0 Z M 5.183594 0 "/></g></g></g><g fill="#1c2120" fill-opacity="1"><g transform="translate(161.784228, 190.624471)"><g><path d="M 21.558594 -12.15625 C 21.558594 -13.90625 21.203125 -15.515625 20.558594 -17.019531 C 19.914062 -18.519531 19.019531 -19.808594 17.910156 -20.878906 C 16.769531 -21.953125 15.445312 -22.773438 13.945312 -23.382812 C 12.40625 -23.988281 10.761719 -24.3125 9.046875 -24.3125 L 2.679688 -24.3125 L 2.679688 0 L 9.046875 0 C 10.761719 0 12.40625 -0.285156 13.945312 -0.894531 C 15.445312 -1.5 16.769531 -2.359375 17.910156 -3.433594 C 19.019531 -4.503906 19.914062 -5.757812 20.558594 -7.257812 C 21.203125 -8.757812 21.558594 -10.367188 21.558594 -12.15625 Z M 19.128906 -12.15625 C 19.128906 -9.367188 18.125 -7.042969 16.195312 -5.21875 C 14.265625 -3.398438 11.90625 -2.503906 9.117188 -2.503906 L 5.183594 -2.503906 L 5.183594 -21.808594 L 9.117188 -21.808594 C 11.90625 -21.808594 14.265625 -20.878906 16.195312 -19.09375 C 18.125 -17.234375 19.128906 -14.910156 19.128906 -12.15625 Z M 19.128906 -12.15625 "/></g></g></g><g fill="#1c2120" fill-opacity="1"><g transform="translate(184.94176, 188.642625)"><g><path d="M 14.683594 -9.027344 L 14.683594 -13.523438 L 6.945312 -13.523438 L 6.945312 -17.988281 L 15.011719 -17.988281 L 15.011719 -22.484375 L 1.984375 -22.484375 L 1.984375 0 L 6.945312 0 L 6.945312 -9.027344 Z M 14.683594 -9.027344 "/></g></g></g><g fill="#1c2120" fill-opacity="1"><g transform="translate(201.603282, 188.642625)"><g><path d="M 6.945312 0 L 6.945312 -22.484375 L 1.984375 -22.484375 L 1.984375 0 Z M 6.945312 0 "/></g></g></g><g fill="#1c2120" fill-opacity="1"><g transform="translate(210.5291, 188.642625)"><g><path d="M 11.539062 -17.988281 L 17.957031 -17.988281 L 17.957031 -22.484375 L 0.164062 -22.484375 L 0.164062 -17.988281 L 6.582031 -17.988281 L 6.582031 0 L 11.539062 0 Z M 11.539062 -17.988281 "/></g></g></g><g fill="#1c2120" fill-opacity="1"><g transform="translate(228.645199, 188.642625)"><g><path d="M 19.640625 0 L 19.640625 -22.484375 L 14.683594 -22.484375 L 14.683594 -8.464844 L 6.945312 -22.484375 L 1.984375 -22.484375 L 1.984375 0 L 6.945312 0 L 6.945312 -14.019531 L 14.683594 0 Z M 19.640625 0 "/></g></g></g><g fill="#1c2120" fill-opacity="1"><g transform="translate(250.265513, 188.642625)"><g><path d="M 15.011719 -4.496094 L 6.945312 -4.496094 L 6.945312 -9.027344 L 14.683594 -9.027344 L 14.683594 -13.523438 L 6.945312 -13.523438 L 6.945312 -17.988281 L 15.011719 -17.988281 L 15.011719 -22.484375 L 1.984375 -22.484375 L 1.984375 0 L 15.011719 0 Z M 15.011719 -4.496094 "/></g></g></g><g fill="#1c2120" fill-opacity="1"><g transform="translate(267.257619, 188.642625)"><g><path d="M 10.714844 -3.503906 C 8.265625 -3.503906 6.152344 -4.730469 6.019531 -7.40625 L 0.992188 -7.40625 C 1.023438 -1.917969 5.554688 0.527344 10.515625 0.527344 C 15.113281 0.527344 19.839844 -1.421875 19.839844 -6.710938 C 19.839844 -15.277344 6.84375 -12.398438 6.84375 -16.402344 C 6.84375 -18.089844 8.796875 -18.75 10.183594 -18.75 C 12.664062 -18.75 14.019531 -17.988281 14.285156 -15.640625 L 19.078125 -15.640625 C 18.914062 -20.765625 14.75 -22.816406 10.117188 -22.816406 C 6.019531 -22.816406 1.71875 -20.632812 1.71875 -16.003906 C 1.71875 -7.703125 14.714844 -10.515625 14.714844 -6.152344 C 14.714844 -4.132812 12.269531 -3.503906 10.714844 -3.503906 Z M 10.714844 -3.503906 "/></g></g></g><g fill="#1c2120" fill-opacity="1"><g transform="translate(288.084526, 188.642625)"><g><path d="M 10.714844 -3.503906 C 8.265625 -3.503906 6.152344 -4.730469 6.019531 -7.40625 L 0.992188 -7.40625 C 1.023438 -1.917969 5.554688 0.527344 10.515625 0.527344 C 15.113281 0.527344 19.839844 -1.421875 19.839844 -6.710938 C 19.839844 -15.277344 6.84375 -12.398438 6.84375 -16.402344 C 6.84375 -18.089844 8.796875 -18.75 10.183594 -18.75 C 12.664062 -18.75 14.019531 -17.988281 14.285156 -15.640625 L 19.078125 -15.640625 C 18.914062 -20.765625 14.75 -22.816406 10.117188 -22.816406 C 6.019531 -22.816406 1.71875 -20.632812 1.71875 -16.003906 C 1.71875 -7.703125 14.714844 -10.515625 14.714844 -6.152344 C 14.714844 -4.132812 12.269531 -3.503906 10.714844 -3.503906 Z M 10.714844 -3.503906 "/></g></g></g></svg>