<svg width="720" height="729" viewBox="0 0 720 729" fill="none" xmlns="http://www.w3.org/2000/svg">
<path d="M347.018 81.8682C342.443 82.4909 337.868 83.9337 333.9 86.508C329.73 89.2949 327.293 93.3196 325.058 97.648C322.313 102.698 321.495 108.682 320.378 114.347C318.653 123.216 315.6 132.389 308.685 138.168C303.495 142.603 296.685 144.562 291.495 148.989C285.908 153.735 282.345 161.056 281.43 168.376C281.228 170.13 281.13 171.983 281.228 173.737C281.43 177.451 282.248 181.263 281.535 184.87C279.6 194.051 268.718 198.068 263.843 206.011C259.973 212.298 260.28 220.34 261.803 227.661C262.215 229.308 262.718 231.268 264.248 232.095C266.385 233.227 268.823 231.685 270.855 230.448C275.738 227.456 281.43 225.595 287.123 225.291C292.313 224.98 297.705 225.906 302.783 224.98C311.738 223.332 318.855 216.528 324.653 209.413C330.443 202.298 335.73 194.461 343.358 189.411C349.155 185.591 355.973 183.632 361.26 179.099C365.22 175.697 368.07 170.951 369.188 165.802C370.305 160.539 369.803 155.072 370.815 149.817C372.443 141.882 377.633 134.971 379.253 127.028C380.88 118.781 378.645 110.428 376.305 102.387C375.188 98.4682 374.07 94.5498 371.423 91.4591C365.933 84.8602 355.973 80.7368 347.018 81.8682Z" fill="#161616"/>
<path d="M375.495 528.624C378.443 532.747 382.71 536.149 387.698 538.002C392.678 539.863 398.37 540.166 403.455 538.518C404.07 538.313 404.678 538.108 404.985 537.592C405.285 537.182 405.285 536.666 405.39 536.149C406.41 522.435 409.05 508.926 413.22 495.735C413.22 495.834 401.73 494.497 400.613 494.497C396.443 494.285 391.965 494.186 387.9 495.006C384.338 495.629 384.848 499.646 384.135 502.433C383.123 506.146 381.795 509.86 380.378 513.467C378.75 517.484 377.018 521.508 375.39 525.632C375.09 526.353 374.783 527.075 374.985 527.796C375.09 528.107 375.293 528.419 375.495 528.624Z" fill="#BC6439"/>
<path d="M509.723 348.5C511.455 350.664 513.383 353.033 516.03 353.755C517.148 354.066 518.363 354.066 519.585 353.96C523.148 353.755 526.605 352.623 529.65 350.664C530.063 350.353 530.573 350.049 530.775 349.533C530.978 349.115 531.075 348.5 531.075 347.984C531.278 341.59 531.585 335.302 531.788 328.908C531.99 323.858 532.193 318.808 533.52 313.956C526.5 312.513 519.285 312.308 512.16 313.546C511.043 313.751 509.618 313.857 509.115 314.989C508.5 316.333 508.605 318.596 508.403 320.039C508.095 323.547 507.998 327.055 506.873 330.457C506.37 331.9 505.755 333.343 505.455 334.786C505.245 335.917 505.245 337.056 504.945 338.188C504.743 339.015 504.33 339.737 504.435 340.557C504.435 341.59 505.148 342.417 505.755 343.237C506.978 344.992 508.298 346.746 509.723 348.5Z" fill="#BC6439"/>
<path d="M374.07 106.411C373.762 106.001 373.357 105.584 372.952 105.378C371.22 104.346 368.782 104.551 367.665 106.206C368.58 102.083 367.05 97.7467 364.005 94.8611C361.057 91.8692 356.985 90.2213 352.815 89.4999C351.495 89.1886 350.07 89.0899 348.645 89.0899C345.39 89.2949 342.345 90.844 339.495 92.5906C336.952 94.1397 334.41 95.7876 332.58 98.1644C330.75 100.534 330.442 103.526 330.547 106.51C330.547 107.444 330.547 108.37 330.652 109.403C330.652 109.502 330.75 109.608 330.75 109.707C330.75 112.388 330.855 115.068 331.057 117.65C331.155 119.298 331.357 121.052 331.665 122.7C332.782 128.684 335.227 137.136 342.547 138.168C347.325 138.89 352.41 138.168 356.782 135.898C361.665 133.323 364.717 128.782 366.345 123.626C366.847 122.085 367.26 120.536 367.56 118.986C368.475 119.503 370.005 118.781 370.717 117.961C372.953 115.584 374.377 112.387 374.58 109.092C374.58 108.165 374.58 107.231 374.07 106.411Z" fill="#BC6439"/>
<path d="M348.953 134.561C349.868 137.447 350.783 140.743 349.058 143.218C348.345 144.35 347.123 145.071 345.9 145.694C340.103 148.579 333.188 148.473 327.495 151.465C318.75 156.006 314.783 166.417 312.653 176.107C310.515 185.804 309.293 196.109 303.495 204.15C300.548 208.175 296.58 211.372 293.123 214.979C289.875 218.381 287.123 222.193 284.378 226.013C276.96 236.219 269.633 246.425 262.215 256.737C259.26 260.861 256.11 264.468 252.143 267.665C251.025 268.591 249.705 269.517 249.098 270.861C248.588 271.788 248.483 272.821 248.385 273.952C248.078 276.116 247.77 278.288 247.568 280.452C247.268 282.412 247.058 284.371 247.47 286.33C247.77 287.978 248.588 289.527 249.3 290.97C250.928 294.167 252.45 297.356 254.078 300.454C254.28 300.758 254.385 301.069 254.685 301.274C255.398 301.897 256.515 301.692 257.13 300.971C257.738 300.249 257.94 299.315 257.94 298.389C257.94 296.946 257.64 295.61 257.13 294.265C256.62 293.134 255.908 291.79 256.418 290.658C257.738 290.863 258.345 291.896 259.058 292.929C259.77 293.954 260.385 295.192 261.3 296.225C261.803 296.847 262.515 297.356 263.333 297.257C264.143 297.151 264.653 296.43 264.96 295.61C265.26 294.675 265.26 293.65 264.96 292.618C264.758 291.896 264.345 291.38 263.94 290.757C262.823 289.011 261.705 287.15 260.483 285.396C262.013 287.461 263.633 289.109 265.365 290.863C265.673 291.175 265.973 291.479 266.385 291.585C267.195 291.79 268.005 291.175 268.215 290.347C268.418 289.527 268.313 288.699 268.005 287.978C267.195 284.887 265.77 281.895 263.843 279.313C264.758 279.625 264.758 281.067 265.365 281.789C265.973 282.51 267.195 283.133 267.908 282.412C268.515 279.526 267.09 276.739 265.77 274.157C264.96 272.509 267.195 271.067 268.515 269.73C282.045 256.532 299.94 247.253 310.718 231.685C319.463 219.102 329.123 207.864 335.025 193.223C337.155 187.763 338.783 175.385 346.92 181.058C349.26 182.706 350.783 185.288 352.305 187.657C354.345 190.747 356.475 193.633 358.815 196.42C360.443 198.379 362.273 200.338 364.508 201.47C365.835 202.191 367.358 202.503 368.678 203.125C374.475 205.7 377.73 211.888 382.305 216.422C382.92 217.045 383.625 217.66 384.548 217.766C385.763 217.971 386.88 217.25 387.9 216.528C393.293 212.709 398.678 208.585 404.475 205.388C407.528 203.74 410.678 202.298 414.03 201.265C415.763 200.748 417.488 200.338 419.325 200.027C420.24 199.928 422.573 200.133 423.285 199.511C425.423 197.863 421.253 194.354 420.03 192.813C417.9 189.927 415.965 186.829 414.24 183.533C413.115 181.468 412.2 179.205 411.9 176.934C411.593 174.664 411.9 172.393 411.593 170.229C411.083 166.728 409.05 163.736 407.115 160.851C406.71 160.334 407.423 159.613 408.038 159.408C408.645 159.203 409.358 159.408 409.965 159.507C416.678 160.745 423.698 160.851 430.403 159.712C434.573 158.99 438.743 157.859 442.913 157.343C445.86 157.031 448.913 156.932 451.86 156.416C454.808 155.9 457.763 154.563 459.69 152.186C461.933 149.506 462.435 145.382 460.913 142.185C460.305 140.849 459.893 139.406 458.775 138.373C446.168 126.725 428.88 122.29 413.115 115.79C409.868 114.453 406.613 113.01 404.07 110.535C401.625 108.264 400.103 105.173 397.868 102.698C395.625 100.222 392.378 98.1644 389.22 98.9845C389.123 98.7795 388.92 98.9845 388.71 98.9845C387.083 98.1644 384.953 98.3694 383.423 99.5009C382.613 97.9594 380.273 97.443 378.848 98.5745C378.645 98.7795 378.338 98.9845 378.038 98.9845C377.835 98.9845 377.633 98.8858 377.423 98.7795C376.508 98.3694 375.293 98.9845 374.88 99.911C374.475 100.845 374.783 102.083 375.293 102.903C375.9 103.829 376.718 104.452 377.528 105.173C376.815 104.862 376.103 104.763 375.39 105.067C374.678 105.378 374.273 106.1 374.475 106.821C374.58 107.133 374.88 107.444 375.09 107.649C376.005 108.682 376.92 109.707 377.528 110.945C378.338 112.494 378.953 114.248 380.07 115.486C381.495 117.134 383.625 118.06 385.763 118.576C387.9 119.093 390.135 119.404 392.168 120.224C399.495 123.11 406.41 126.823 413.115 130.947C415.253 132.291 417.188 133.939 418.913 135.898C419.018 136.103 419.22 136.209 419.115 136.414C419.115 136.619 418.913 136.725 418.71 136.824C417.188 137.546 415.358 136.824 413.828 136.209C404.37 132.389 393.698 133.012 383.835 135.381C380.58 136.209 377.325 137.136 373.965 137.029C373.463 137.029 372.953 136.931 372.548 136.725C372.135 136.513 371.835 136.103 371.528 135.693C368.678 131.364 368.58 125.79 367.05 120.741C366.75 119.609 366.24 118.47 365.123 118.06C364.208 117.749 363.293 118.166 362.475 118.683C358.005 121.568 356.273 127.34 352.208 130.742C350.685 132.184 348.345 133.012 348.953 134.561Z" fill="#BC6439"/>
<path d="M505.148 217.971C506.16 217.143 507.69 218.176 507.285 219.414C505.455 225.808 505.658 232.612 506.16 239.514C507.18 252.925 507.18 266.328 506.978 279.731C506.775 292.306 507.893 305.914 505.455 318.292C506.67 318.079 508.703 319.013 509.828 319.53C510.435 319.735 510.945 320.039 511.455 320.251C512.063 320.456 512.67 320.555 513.383 320.555C518.063 320.973 524.468 321.071 528.84 319.218C531.383 318.079 535.448 319.112 535.86 316.227C536.265 313.341 536.363 308.807 536.775 305.914C538.193 294.265 538.905 282.822 539.415 271.066C539.618 266.115 540.233 260.549 540.533 255.499C541.755 236.735 542.775 217.553 542.978 198.789C543.075 192.502 540.938 185.698 538.5 179.926C535.958 174.147 530.978 169.098 524.775 168.27C522.33 167.966 519.893 168.27 517.448 168.688C507.075 170.434 498.03 175.59 488.573 180.025C470.37 188.583 451.763 196.109 432.945 203.125C431.828 203.535 430.71 203.429 429.593 203.125C427.56 202.609 425.318 200.543 423.285 198.068C419.73 196.731 413.828 199.101 410.273 200.445C400.103 204.257 389.423 208.79 382.815 217.455C389.933 225.595 384.135 240.236 385.358 251.065C386.273 259.008 388.41 264.878 393.495 271.066C396.645 274.886 404.985 277.354 407.325 281.69C412.71 291.585 408.953 303.75 409.56 315.095C409.965 322.309 412.2 329.219 412.913 336.434C415.658 362.624 398.58 386.233 391.763 411.596C389.123 421.392 388.103 431.5 386.985 441.501C384.953 459.953 383.018 478.513 380.985 496.965C382.92 499.137 385.463 501.301 388.208 502.327C390.038 503.056 392.07 503.154 394.103 503.261C400.913 503.671 408.443 503.777 413.73 499.441C416.783 476.455 428.273 455.936 434.07 433.459C437.22 421.081 438.945 408.399 442.2 396.029C444.135 388.709 446.678 381.495 448.305 374.068C450.03 366.133 450.645 357.985 451.253 349.836C453.083 324.678 454.508 299.528 455.52 274.37C455.723 269.624 455.625 265.607 454.403 261.066C454.103 260.139 453.795 259.008 454.305 258.18C454.605 257.557 455.115 257.147 455.625 256.836C458.678 254.672 461.723 252.614 464.573 250.138C467.723 247.351 470.573 244.261 473.625 241.375C481.05 234.26 489.585 228.488 498.233 222.915C500.573 221.168 503.01 219.725 505.148 217.971Z" fill="#1C2120"/>
<path d="M376.005 550.585C386.168 558.832 389.22 570.169 398.37 577.391C405.998 583.58 416.37 585.121 425.423 581.621C425.73 581.104 426.135 580.588 426.338 580.071C427.86 576.669 427.253 572.128 424.2 569.964C423.083 569.144 421.86 568.726 420.645 568.111C415.155 565.119 412.71 558.627 411.795 552.339C410.88 546.15 411.188 539.756 409.253 533.78C408.848 532.641 408.24 531.403 407.115 531.099C406.41 530.993 405.593 531.304 404.985 531.714C403.56 532.747 402.338 534.084 400.913 535.116C399.495 536.248 397.763 537.076 396.038 536.764C393.495 536.248 390.443 536.248 388.103 535.018C385.763 533.78 383.835 531.821 382.815 529.345C381.39 525.525 382.508 521.303 382.005 517.18C381.9 516.041 382.208 516.352 381.188 515.737C379.253 514.499 376.718 516.246 375.09 518C371.123 521.918 366.645 525.525 361.358 527.181C360.848 527.386 360.345 527.485 359.835 527.591C363.09 536.666 367.965 545.224 376.005 550.585Z" fill="#5D32A5"/>
<path d="M399.285 576.669C390.135 569.448 387.082 558.315 376.92 550.068C368.985 544.707 364.507 536.248 361.357 527.386C360.135 527.697 357.495 528.517 356.377 529.034C354.75 529.755 353.325 530.993 352.815 532.747C352.41 534.19 352.717 535.838 353.227 537.281C355.56 545.019 360.442 552.028 366.847 556.766C371.73 560.381 377.422 562.955 381.697 567.283C384.645 570.382 386.782 574.194 389.22 577.801C391.665 581.408 394.612 584.817 398.58 586.359C401.22 587.392 404.07 587.597 406.815 587.703C410.475 587.802 414.24 587.908 417.795 586.875C420.742 586.048 424.102 583.268 425.827 580.793C416.985 584.088 406.912 582.752 399.285 576.669Z" fill="#161616"/>
<path d="M479.723 338.089C478.808 339.114 477.083 341.278 476.468 342.516C474.945 345.303 473.925 348.599 475.05 351.492C475.553 352.935 476.573 354.066 477.593 355.198C485.625 364.789 493.043 374.995 499.658 385.512C506.468 396.341 513.285 405.719 524.363 412.629C526.193 413.761 528.03 414.793 530.063 415.416C532.095 416.031 534.435 415.826 536.16 414.695C537.69 413.662 538.808 411.08 539.213 409.334C506.978 405.62 497.115 362.624 479.723 338.089Z" fill="#161616"/>
<path d="M539.108 406.957C538.808 404.071 537.585 401.292 536.468 398.611C531.69 386.651 529.245 373.142 533.318 360.87C534.233 357.985 535.553 355.099 535.245 352.107C534.84 349.115 531.788 346.229 529.043 347.467C527.213 348.295 526.193 350.664 524.16 351.074C522.638 351.386 521.115 350.459 519.788 349.631C518.16 348.5 516.533 347.467 514.905 346.336C513.69 345.508 512.37 344.582 511.455 343.344C508.5 339.319 511.755 333.859 509.213 330.146C505.958 325.195 499.658 330.769 496.5 332.621C494.573 333.753 492.435 334.474 490.298 334.786C488.37 334.991 486.435 334.892 484.508 335.302C482.168 335.917 480.233 337.261 478.605 339.114C495.998 363.551 506.573 406.752 538.703 410.359C539.213 409.227 539.213 408.096 539.108 406.957Z" fill="#5D32A5"/>
<path d="M346.41 144.661C344.985 145.071 343.462 145.489 342.037 145.899C341.325 146.104 340.612 146.309 340.312 147.03C339.9 147.858 340.515 148.784 341.227 149.407C343.56 151.883 346.717 153.735 348.442 156.727C349.77 159.097 350.07 161.982 350.175 164.769C350.685 173.737 350.377 182.812 353.017 191.37C354.645 196.731 359.932 200.445 364.92 202.814C366.547 203.535 368.272 204.15 369.802 205.289C369.802 205.289 369.802 205.289 369.9 205.289C371.122 206.216 372.75 205.494 372.952 204.052C373.155 202.191 373.26 200.232 373.965 198.584C374.985 196.314 376.92 194.666 378.952 193.223C385.252 188.484 392.07 183.845 399.795 182.394C403.56 181.673 407.422 181.673 411.082 180.746C411.697 180.541 412.41 180.336 412.71 179.714C412.815 179.41 412.815 178.992 412.815 178.689C412.71 176.934 412.612 175.287 412.507 173.532C412.41 171.778 412.305 170.024 411.9 168.376C410.572 163.22 406.2 159.408 404.475 154.351C403.965 152.908 403.665 151.366 402.847 150.128C402.24 149.202 401.325 148.579 400.41 147.964C393.795 143.324 385.762 141.054 379.252 136.209C378.847 135.898 378.037 135.898 377.422 136.103C376.92 136.209 376.41 136.725 376.41 137.242C376.41 137.857 376.815 138.267 377.325 138.578C382.207 142.603 387.795 145.792 393.697 147.858C395.122 148.374 396.75 148.989 396.952 150.645C397.05 151.366 396.75 152.088 396.24 152.604C395.22 153.629 393.795 153.941 392.475 154.146C387.795 154.867 383.122 155.695 378.442 156.416C376.207 156.727 373.965 157.137 371.632 157.031C370.005 156.932 368.377 156.621 366.75 156.105C358.612 153.842 352.305 150.128 346.41 144.661Z" fill="#1C2120"/>
<path d="M237.3 252.409C236.588 256.426 236.79 260.549 236.078 264.673C235.365 268.591 233.94 272.411 231.398 275.395C228.855 278.387 225.3 280.657 221.438 281.174C226.62 285.092 234.15 284.576 239.738 281.174C245.228 277.772 248.993 271.993 251.535 265.91C253.268 261.688 254.588 257.147 256.718 253.024C259.47 247.868 271.875 236.94 263.333 231.473C256.515 227.144 247.47 234.465 243.3 239.514C240.248 243.129 238.11 247.663 237.3 252.409Z" fill="#161616"/>
<path d="M334.613 105.485C336.143 104.247 337.665 102.903 338.58 101.255C340.103 98.5745 340.313 95.1725 342.345 92.8032C342.855 95.2712 343.463 97.7467 344.685 99.911C345.9 102.083 347.633 104.042 349.973 105.067C352.613 106.206 355.665 105.895 358.515 105.789C360.75 105.69 362.985 105.789 365.22 106.1C365.73 106.206 366.345 106.206 366.848 106.1C367.763 105.895 368.58 105.173 368.985 104.247C369.39 103.419 369.495 102.387 369.495 101.46C369.593 97.3367 368.175 93.2133 365.528 90.0163C362.888 86.8193 359.123 84.7614 355.058 84.2451C352.005 83.8274 348.848 84.2451 345.803 84.8602C343.26 85.3765 340.718 85.9992 338.483 87.3357C334.11 89.91 331.463 94.6561 329.325 99.1896C328.613 100.64 328.005 102.083 327.698 103.731C327.495 105.173 327.293 107.649 329.123 107.854C331.155 108.059 333.293 106.51 334.613 105.485Z" fill="#161616"/>
<path d="M341.835 112.805C341.43 116.002 340.92 119.298 340.515 122.495C340.41 123.11 341.43 123.216 341.528 122.601C341.94 119.404 342.443 116.101 342.855 112.904C342.953 112.289 341.94 112.182 341.835 112.805Z" fill="#161616"/>
<path d="M347.017 111.362C347.932 110.33 349.357 109.92 350.685 109.502C353.632 108.682 356.677 108.165 359.73 107.748C359.527 108.78 359.22 109.813 358.92 110.74C358.41 112.182 357.495 113.42 356.175 114.347C354.645 115.379 352.815 115.789 351.09 116.101C350.175 116.207 349.26 116.306 348.345 116.306C347.632 116.306 346.612 116.617 346.102 115.896C344.887 114.658 346.102 112.387 347.017 111.362Z" fill="white"/>
<path d="M337.868 112.388C336.855 111.362 335.528 111.051 334.208 110.74C333.09 110.535 331.867 110.33 330.75 110.125C330.75 112.289 330.953 114.552 331.058 116.724C332.07 117.027 333.09 117.24 334.11 117.339C335.025 117.445 335.94 117.445 336.855 117.445C337.56 117.445 338.58 117.65 339.09 116.929C340.207 115.691 338.888 113.42 337.868 112.388Z" fill="white"/>
<path d="M371.835 106.1C371.22 105.895 370.508 106.001 369.9 106.305C369.39 106.616 368.985 107.133 368.58 107.748C368.475 107.96 368.475 108.37 368.783 108.469C369.09 108.575 369.293 108.575 369.495 108.264C369.593 108.165 369.593 108.059 369.698 107.96C369.698 107.96 369.698 107.854 369.803 107.854L369.9 107.748C370.005 107.649 370.103 107.543 370.208 107.444L370.305 107.338C370.305 107.338 370.41 107.338 370.41 107.231L370.508 107.133H370.718C370.815 107.133 370.815 107.133 370.92 107.133H371.018C371.123 107.133 371.123 107.133 371.22 107.133H371.325C371.423 107.133 371.423 107.133 371.528 107.231C371.73 107.338 372.135 107.133 372.135 106.928C372.24 106.411 372.038 106.206 371.835 106.1Z" fill="#161616"/>
<path d="M371.017 111.461C371.423 111.15 371.423 110.33 371.017 110.018C370.613 109.608 370.005 109.608 369.593 110.018C368.985 110.535 368.377 111.15 367.763 111.772C367.463 112.084 367.26 112.388 367.155 112.805C367.155 113.01 367.26 113.215 367.357 113.42C367.463 113.625 367.665 113.732 367.867 113.937C368.273 114.142 368.58 114.453 368.985 114.658C369.187 114.764 369.495 114.863 369.803 114.764C370.005 114.658 370.305 114.552 370.41 114.248C370.717 113.732 370.507 113.109 370.005 112.805C369.9 112.699 369.803 112.6 369.593 112.494C370.103 112.388 370.507 111.871 371.017 111.461Z" fill="#161616"/>
<path d="M354.038 110.945C353.933 110.945 353.933 110.945 354.038 110.945C353.835 110.535 353.633 110.33 353.325 110.125C353.123 109.92 352.815 109.707 352.41 109.707C352.103 109.608 351.698 109.608 351.39 109.707C351.09 109.707 350.783 109.813 350.475 110.018C350.273 110.125 350.175 110.33 349.973 110.428C349.665 110.74 349.463 111.15 349.358 111.567C349.358 111.772 349.26 111.977 349.26 112.289C349.26 112.805 349.358 113.215 349.56 113.625C349.56 113.625 349.56 113.625 349.56 113.732C349.77 114.043 349.973 114.248 350.175 114.453C350.378 114.658 350.685 114.863 351.09 114.863C351.39 114.969 351.803 114.969 352.103 114.863C352.41 114.863 352.718 114.764 353.018 114.552C353.228 114.453 353.325 114.248 353.528 114.142C353.835 113.83 354.038 113.42 354.143 113.01C354.143 112.805 354.24 112.6 354.24 112.289C354.345 111.772 354.24 111.362 354.038 110.945Z" fill="#161616"/>
<path d="M334.515 111.567C331.868 111.567 331.868 115.691 334.515 115.691C337.155 115.691 337.155 111.567 334.515 111.567Z" fill="#161616"/>
<path d="M351.495 109.707C349.56 109.707 349.56 112.805 351.495 112.805C353.527 112.805 353.527 109.707 351.495 109.707Z" fill="#161616"/>
<path d="M334.613 111.461C332.685 111.461 332.685 114.552 334.613 114.552C336.645 114.552 336.645 111.461 334.613 111.461Z" fill="#161616"/>
<path d="M339.188 127.34C340.005 126.823 340.718 126.208 341.633 126.003C344.175 125.38 346.718 126.618 349.155 127.028C349.56 127.135 350.175 127.241 350.07 127.75C350.07 128.061 349.77 128.167 349.56 128.266C348.75 128.782 347.835 129.094 346.92 129.192C345.6 129.299 344.378 128.889 343.058 128.987C342.143 128.987 341.123 129.094 340.103 129.299C339.6 129.504 338.888 129.504 338.483 129.405C338.273 129.299 337.973 129.094 337.868 128.889C337.665 128.372 338.273 127.962 338.685 127.75C338.888 127.545 339.09 127.446 339.188 127.34Z" fill="#161616"/>
<path d="M346.92 129.921C344.685 130.643 342.345 130.742 340.103 130.02C339.6 129.815 339.398 130.643 339.9 130.947C342.345 131.668 344.783 131.569 347.123 130.742C347.73 130.43 347.43 129.61 346.92 129.921Z" fill="#161616"/>
<path d="M360.848 131.774C361.058 131.463 361.358 131.258 361.665 131.152C362.273 130.947 362.888 131.463 363.09 132.086C363.293 132.701 363.09 133.323 362.888 133.939C361.868 136.513 359.933 138.783 357.6 140.226C356.783 140.644 355.973 141.054 355.155 141.464C353.123 142.39 350.985 143.324 348.75 143.529C348.345 143.529 347.835 143.529 347.633 143.218C347.325 142.907 347.528 142.39 347.633 141.98C347.933 141.054 348.038 139.71 348.645 138.988C349.26 138.267 350.783 138.062 351.6 137.857C353.933 137.242 356.07 136.103 358.005 134.66C359.018 133.734 360.038 132.807 360.848 131.774Z" fill="#161616"/>
<path d="M429.39 202.913C421.155 204.978 413.423 209.208 407.22 215.085C406.71 215.495 407.423 216.217 407.933 215.807C414.03 210.028 421.56 205.905 429.593 203.945C430.305 203.74 429.998 202.708 429.39 202.913Z" fill="#161616"/>
<path d="M452.88 256.942C440.677 268.902 424.815 282.207 406.612 277.665C405.39 277.354 404.782 279.313 406.102 279.625C415.05 281.895 424.305 279.83 432.442 275.706C440.775 271.378 447.795 264.878 454.402 258.385C455.317 257.459 453.892 256.016 452.88 256.942Z" fill="#161616"/>
<path d="M413.115 382.831C410.37 382.938 407.527 382.421 404.985 381.183C404.37 380.872 403.867 381.799 404.475 382.11C407.122 383.348 410.07 384.069 413.115 383.864C413.73 383.864 413.73 382.831 413.115 382.831Z" fill="#161616"/>
<path d="M411.495 172.606C403.358 173.221 395.423 174.77 387.593 177.246C383.933 178.484 380.07 179.714 376.815 181.673C373.665 183.533 371.325 186.313 369.698 189.616C367.665 193.633 366.645 198.068 365.835 202.503C365.73 203.125 366.645 203.429 366.848 202.814C368.273 195.592 370.208 187.452 376.718 183.123C379.868 181.058 383.625 179.82 387.188 178.582C390.953 177.344 394.71 176.312 398.58 175.492C402.953 174.565 407.325 173.942 411.698 173.631C412.103 173.631 412.2 172.606 411.495 172.606Z" fill="#161616"/>
<path d="M440.475 147.653C436.71 147.964 433.358 145.382 430.305 143.423C426.848 141.153 423.39 138.988 419.933 136.725C419.73 136.619 419.528 136.619 419.325 136.824C419.018 137.029 419.018 137.751 419.625 137.751C423.188 140.021 426.645 142.292 430.2 144.661C433.253 146.62 436.605 148.989 440.37 148.686C441.083 148.686 441.083 147.653 440.475 147.653Z" fill="#161616"/>
<path d="M403.965 144.562V151.776C403.965 152.391 404.985 152.391 404.985 151.776V144.562C404.985 143.841 403.965 143.841 403.965 144.562Z" fill="#161616"/>
<path d="M306.653 213.225C305.535 217.25 304.005 221.267 301.973 224.98C301.665 225.595 302.58 226.112 302.888 225.496C304.92 221.684 306.45 217.66 307.665 213.536C307.868 212.914 306.855 212.61 306.653 213.225Z" fill="#161616"/>
<path d="M336.24 174.975C333.697 174.353 331.057 173.844 328.612 175.074C328.005 175.385 328.515 176.312 329.122 176.008C331.26 174.869 333.802 175.492 335.94 176.008C336.645 176.107 336.855 175.18 336.24 174.975Z" fill="#161616"/>
<path d="M263.737 272.821C263.535 274.886 262.62 276.739 261.397 278.387C260.887 279.108 260.28 279.83 259.972 280.657C259.672 281.584 259.567 282.617 259.47 283.543C259.26 284.469 258.96 285.396 258.345 286.224C258.045 286.535 257.737 286.945 257.332 287.15C256.62 287.568 256.62 286.535 256.62 286.019C256.62 284.887 256.717 283.748 256.717 282.715C256.717 281.584 256.515 280.551 256.417 279.518C256.11 277.05 256.417 274.575 257.227 272.198C257.43 271.583 256.417 271.272 256.215 271.894C255.397 274.263 255.097 276.739 255.397 279.215C255.397 279.518 255.502 279.936 255.502 280.247C255.397 280.346 255.397 280.346 255.397 280.452C254.685 282.305 253.972 284.264 253.672 286.117C253.47 287.051 253.77 287.871 254.077 288.798L255.097 291.79C255.3 292.413 256.312 292.101 256.11 291.478L255.195 288.798C254.887 287.773 254.587 286.945 254.79 285.912C255.097 284.674 255.397 283.543 255.802 282.412C255.802 282.617 255.802 282.822 255.802 283.027C255.802 284.371 255.6 285.707 255.802 286.945C256.012 287.871 256.717 288.494 257.64 288.076C258.555 287.773 259.26 286.846 259.77 286.019C260.992 283.953 260.385 281.478 261.802 279.518C262.515 278.493 263.332 277.567 263.94 276.329C264.45 275.19 264.757 273.952 264.96 272.616C264.757 272.198 263.737 272.198 263.737 272.821Z" fill="#161616"/>
<path d="M439.762 393.144C439.455 393.66 438.945 394.48 438.232 394.381C437.52 394.275 437.115 393.455 437.017 392.832C436.912 392.111 437.017 391.291 437.017 390.562C437.017 389.742 437.017 389.02 436.912 388.193C436.71 385.102 435.997 382.11 434.88 379.224C434.677 378.602 433.657 378.913 433.86 379.536C435.285 383.143 435.997 386.955 435.9 390.873C435.9 392.422 435.795 394.275 437.22 395.202C438.645 396.136 439.86 395.103 440.572 393.865C440.977 393.037 440.167 392.521 439.762 393.144Z" fill="#161616"/>
<path d="M433.56 282.1C433.05 297.151 432.338 312.103 431.318 327.154C430.305 341.901 429.39 356.747 426.848 371.388C424.403 385.823 419.528 399.636 415.253 413.662C410.985 427.581 407.22 441.599 403.868 455.83C400.508 469.954 397.56 484.284 395.123 498.621C394.815 500.375 394.508 502.122 394.208 503.876C394.103 504.498 395.123 504.802 395.22 504.187C397.56 489.858 400.41 475.521 403.665 461.396C406.913 447.173 410.678 433.041 414.848 419.023C419.018 404.997 423.998 391.291 426.945 376.954C429.9 362.518 430.913 347.779 431.933 333.138C433.05 318.186 433.86 303.135 434.37 288.183C434.475 286.224 434.475 284.371 434.573 282.412C434.573 281.379 433.56 281.379 433.56 282.1Z" fill="white"/>
<path d="M427.357 205.183C421.657 209.102 416.677 213.946 412.507 219.619C411.285 221.267 410.167 222.915 409.155 224.57C408.847 225.086 409.56 225.595 409.867 225.086C413.422 219.209 417.9 213.848 423.187 209.413C424.71 208.175 426.232 206.937 427.86 205.806C428.272 205.593 427.762 204.872 427.357 205.183Z" fill="#161616"/>
<path d="M475.252 194.567C477.382 191.059 479.422 187.452 482.467 184.566C485.115 182.091 488.265 180.336 491.415 178.787C497.415 175.803 503.722 172.606 510.127 170.54C507.892 171.983 505.552 174.147 503.722 176.213C501.69 178.377 500.37 181.058 498.84 183.632C495.997 188.583 492.84 193.124 489.285 197.551C487.455 199.928 485.52 202.191 483.18 203.945C481.05 205.593 478.71 206.831 476.467 208.175C473.422 210.134 469.965 212.093 466.912 214.151C463.252 216.528 460.507 218.176 455.827 220.234C463.552 212.709 469.552 204.15 475.252 194.567Z" fill="#5D32A5"/>
<path d="M355.973 186.73C356.273 183.845 356.07 180.853 355.56 177.967C357.39 181.984 362.07 184.148 363.803 188.272C364.718 190.444 364.718 192.813 364.305 195.182C364.005 197.453 363.293 199.723 362.985 201.986C361.463 201.166 359.933 200.133 358.515 199.101C357.495 198.379 355.56 196.731 355.058 195.493C354.645 194.354 355.155 193.428 355.26 192.297C355.463 190.444 355.763 188.583 355.973 186.73Z" fill="#5D32A5"/>
<path d="M272.482 212.709C271.057 212.815 269.632 213.946 268.717 214.979C267.6 216.217 266.587 217.66 265.77 219.209C264.96 220.545 264.345 221.988 263.737 223.431C263.535 220.545 263.13 217.66 262.62 214.873C262.215 212.815 261.802 210.856 261.097 208.896C260.587 207.347 259.875 205.806 258.652 204.773C257.43 203.74 255.802 203.634 254.482 204.462C252.96 205.388 252.247 207.142 252.045 208.79C251.535 212.709 252.757 216.627 254.28 220.234C255.907 224.054 258.045 227.554 260.28 231.063C254.685 236.94 247.77 241.474 240.247 244.261C239.025 244.671 239.535 246.736 240.757 246.22C248.385 243.334 255.3 238.899 261.097 233.022C260.28 240.654 257.227 247.974 252.45 253.851C251.64 254.877 253.057 256.327 253.875 255.294C259.162 248.9 262.312 241.064 263.13 232.71C268.11 230.136 271.972 225.39 273.6 220.029C274.215 218.381 275.94 212.503 272.482 212.709ZM256.62 220.447C254.992 216.832 252.855 211.782 254.28 207.765C254.587 206.732 255.502 205.593 256.717 205.905C257.737 206.216 258.345 207.347 258.757 208.274C259.567 210.134 259.972 212.192 260.385 214.151C261.3 218.586 261.802 223.127 261.907 227.661C261.907 227.866 262.012 227.972 262.012 228.177C261.907 228.587 261.705 229.005 261.6 229.513C259.875 226.529 258.045 223.537 256.62 220.447ZM272.385 216.422C272.175 217.66 271.972 218.897 271.567 220.135C270.757 222.504 269.535 224.669 268.005 226.529C266.685 228.071 265.26 229.308 263.632 230.341C264.45 227.661 265.365 224.874 266.587 222.299C267.705 219.93 269.13 217.25 271.26 215.594C271.567 215.389 271.77 215.184 272.077 215.085C272.175 215.085 272.587 214.979 272.587 214.774C272.685 214.979 272.385 216.111 272.385 216.422Z" fill="#1C2120"/>
<path d="M399.495 199.928C393.083 200.748 386.58 201.166 380.07 201.06C379.463 201.06 379.463 202.092 380.07 202.092C386.58 202.191 393.083 201.887 399.495 200.953C400.103 200.855 400.103 199.822 399.495 199.928Z" fill="#161616"/>
<path d="M394.41 113.527C393.293 112.6 392.07 111.567 390.645 111.15C389.018 110.641 387.39 111.15 385.868 110.74C384.953 110.535 384.24 110.018 383.625 109.502C383.73 109.502 383.73 109.502 383.835 109.403C384.135 109.191 384.443 108.887 384.548 108.575C384.645 108.78 384.848 108.887 385.155 108.887C386.07 108.682 386.985 108.37 387.495 107.649C387.593 107.748 387.698 107.854 387.795 107.854C388.71 107.96 389.625 107.96 390.338 107.338C391.05 107.748 392.07 108.165 392.88 107.748C393.698 107.338 393.998 106.305 393.998 105.485C394.208 103.526 393.188 101.665 392.475 99.911C392.378 99.7059 391.965 99.6072 391.763 99.7059C391.455 99.8123 391.455 100.124 391.56 100.427C392.168 101.771 392.88 103.214 392.985 104.763C392.985 105.378 392.985 106.1 392.58 106.723C392.273 107.231 391.358 106.821 390.848 106.51C391.05 106.001 390.953 105.28 390.848 104.763C390.338 102.804 389.528 100.845 388.508 99.0908C388.208 98.4682 387.293 98.9845 387.593 99.6072C388.41 101.05 389.123 102.592 389.625 104.247C389.835 104.862 390.24 105.789 389.835 106.411C389.423 107.133 388.41 107.026 387.698 106.928C387.795 106.206 387.39 105.485 387.083 104.862C386.273 103.009 385.05 101.255 383.73 99.6072C383.325 99.0908 382.613 99.8123 383.018 100.329C384.135 101.566 385.05 103.009 385.868 104.551C386.07 104.862 386.168 105.28 386.378 105.584C386.58 106.001 386.783 106.411 386.678 106.821C386.58 107.649 385.358 107.854 384.75 108.059C384.645 108.059 384.645 108.059 384.645 108.165C384.75 106.928 383.73 105.485 383.123 104.657C381.593 102.804 379.965 100.944 378.338 99.1896C377.933 98.6808 377.123 99.4022 377.633 99.911C379.05 101.361 380.378 102.903 381.593 104.452C382.208 105.173 382.815 105.895 383.22 106.616C383.528 107.133 383.933 108.264 383.22 108.682C383.018 108.78 383.018 108.986 383.018 109.191C382.613 108.78 382.305 108.469 381.9 108.059C380.783 106.928 379.463 106.1 378.038 105.378C377.423 105.067 376.92 106.001 377.528 106.305C378.953 107.026 380.273 107.854 381.39 108.986C382.508 110.125 383.423 111.256 384.953 111.772C386.475 112.388 388.005 111.871 389.625 112.182C391.155 112.388 392.475 113.527 393.698 114.453C394.103 114.658 394.913 113.937 394.41 113.527Z" fill="#161616"/>
<path d="M408.443 548.421C407.528 547.593 406.613 546.765 405.593 545.945C406.305 544.806 407.115 543.568 407.828 542.437C408.54 541.305 406.71 540.273 406.103 541.404C405.39 542.543 404.783 543.568 404.07 544.601C403.253 543.986 402.443 543.264 401.625 542.642C401.22 542.338 400.613 542.232 400.208 542.642C399.9 542.953 399.795 543.781 400.208 544.085C401.123 544.806 402.038 545.527 402.953 546.355C402.135 547.593 401.325 548.831 400.41 549.962C400.103 550.38 400.305 551.101 400.815 551.405C401.325 551.716 401.828 551.511 402.24 550.995C403.05 549.863 403.763 548.724 404.58 547.593C405.39 548.314 406.2 549.036 407.115 549.757C407.528 550.167 408.135 550.167 408.54 549.757C408.848 549.552 408.848 548.831 408.443 548.421Z" fill="#1C2120"/>
<path d="M412.102 563.061C411.082 562.545 410.167 561.922 409.252 561.201C409.56 560.791 409.867 560.48 410.167 560.069C410.475 559.659 410.572 559.037 410.167 558.627C409.762 558.315 409.05 558.217 408.742 558.627C408.337 559.037 408.037 559.553 407.625 559.963C406.815 559.348 406.102 558.627 405.39 557.905C404.985 557.488 404.37 557.488 403.965 557.905C403.56 558.315 403.56 558.938 403.965 559.348C404.677 560.069 405.495 560.791 406.305 561.512C405.697 562.234 405.082 562.955 404.58 563.676C404.272 564.087 404.167 564.709 404.58 565.119C404.985 565.431 405.697 565.537 405.997 565.119C406.612 564.299 407.325 563.578 407.932 562.75C408.952 563.471 409.965 564.193 411.082 564.808C411.592 565.119 412.2 564.914 412.507 564.398C412.71 564.087 412.612 563.365 412.102 563.061Z" fill="#1C2120"/>
<path d="M529.86 366.436C528.435 365.411 527.115 364.378 525.787 363.239C527.01 362.009 528.33 360.771 529.552 359.534C530.467 358.6 529.042 357.157 528.127 358.091C526.807 359.321 525.585 360.665 524.265 361.903C523.042 360.771 521.82 359.632 520.702 358.501C519.787 357.574 518.362 359.017 519.285 359.944C520.402 361.075 521.617 362.214 522.84 363.346C521.722 364.378 520.605 365.51 519.487 366.543C518.572 367.469 519.99 368.912 520.905 367.986C522.03 366.854 523.245 365.821 524.362 364.69C525.787 365.92 527.317 367.158 528.945 368.297C529.35 368.601 530.062 368.396 530.362 367.879C530.467 367.37 530.265 366.748 529.86 366.436Z" fill="#1C2120"/>
<path d="M530.67 382.733C529.35 381.7 528.03 380.561 526.702 379.536C527.617 378.397 528.532 377.371 529.65 376.437C530.062 376.134 530.062 375.306 529.65 374.995C529.245 374.584 528.637 374.691 528.232 374.995C527.115 375.921 526.095 377.06 525.18 378.298C524.16 377.47 523.147 376.65 522.03 375.822C521.617 375.511 520.905 375.716 520.605 376.232C520.297 376.749 520.5 377.265 521.01 377.675C521.925 378.397 522.945 379.224 523.86 379.946C522.945 380.978 522.03 382.011 521.01 382.733C520.5 383.036 520.402 383.659 520.605 384.175C520.905 384.585 521.52 384.897 522.03 384.585C523.35 383.659 524.467 382.52 525.487 381.282C526.702 382.315 528.03 383.348 529.245 384.38C529.65 384.692 530.265 384.79 530.67 384.38C530.977 383.758 531.075 383.036 530.67 382.733Z" fill="#1C2120"/>
<path d="M550.095 359.632C548.873 359.116 547.448 359.017 546.128 358.911C544.5 358.812 542.978 358.812 541.35 358.911C539.82 359.017 538.193 359.222 536.67 359.534C538.605 358.395 540.435 357.157 542.265 355.82C543.788 354.689 545.213 353.345 546.533 352.001C547.853 350.664 549.075 349.32 549.893 347.672C550.395 346.64 551.52 344.377 550.395 343.344C549.788 342.827 548.873 343.032 548.16 343.238C547.245 343.45 546.33 343.86 545.52 344.377C542.468 346.131 539.618 348.599 537.18 351.181C534.435 354.173 532.193 357.575 530.565 361.182C530.363 361.592 530.775 362.009 531.18 361.903C531.278 361.903 531.383 361.903 531.488 361.903C531.585 361.903 531.69 361.903 531.69 361.797C537.075 363.862 542.873 364.477 548.565 363.452C549.683 363.239 551.108 362.936 551.723 361.903C552.638 360.87 551.01 360.05 550.095 359.632ZM543.788 346.852C545.213 345.819 546.638 344.787 548.363 344.27C548.67 344.172 549.18 343.959 549.48 344.065C549.99 344.172 549.99 344.475 549.893 344.992C549.788 345.819 549.383 346.64 548.978 347.361C548.16 348.91 546.938 350.148 545.82 351.386C544.605 352.623 543.383 353.656 542.063 354.788C539.108 357.157 535.755 359.222 532.298 360.771C532.193 360.771 532.095 360.87 531.99 360.87C534.735 355.304 538.808 350.459 543.788 346.852ZM547.853 362.731C545.31 363.141 542.67 363.239 540.128 362.936C537.893 362.731 535.65 362.214 533.415 361.493C537.99 360.149 542.775 359.632 547.448 360.149C548.468 360.255 550.095 360.46 550.808 361.387C551.52 362.108 548.363 362.624 547.853 362.731Z" fill="#1C2120"/>
<path d="M427.86 530.165C427.657 528.829 426.337 528.419 425.22 528.517C423.697 528.722 422.167 529.14 420.742 529.656C419.22 530.165 417.592 530.682 416.07 531.304C415.155 531.714 414.135 532.124 413.22 532.641C416.475 529.444 419.325 525.738 420.945 521.402C421.252 520.476 421.56 519.549 421.56 518.516C421.56 517.795 421.657 516.762 420.945 516.246C419.625 515.114 417.487 516.557 416.475 517.484C413.827 519.754 411.9 522.746 410.272 525.837C408.54 529.345 407.325 533.058 406.305 536.764C405.997 536.977 406.102 537.486 406.305 537.698C406.41 537.797 406.41 537.797 406.507 537.797C406.612 537.903 406.815 538.002 407.017 537.797C407.22 537.698 407.325 537.486 407.527 537.387H407.625C411.187 537.182 414.742 536.871 418.2 536.354C420.847 535.944 423.697 535.321 425.827 533.469C427.05 532.747 428.07 531.509 427.86 530.165ZM415.357 520.164C416.37 519.033 417.592 517.484 419.115 516.967C419.422 516.869 419.932 516.762 420.24 516.869C420.742 517.074 420.645 517.795 420.645 518.205C420.645 519.139 420.337 520.066 420.03 520.992C418.912 524.083 416.985 526.87 414.847 529.345C413.115 531.304 411.285 533.058 409.357 534.706C408.847 535.018 408.337 535.321 407.932 535.633C409.455 530.165 411.495 524.599 415.357 520.164ZM425.422 532.747C423.592 534.296 421.05 534.911 418.71 535.321C415.56 535.838 412.41 536.149 409.252 536.354C409.56 536.149 409.762 535.944 410.07 535.739C413.932 533.362 418.2 531.509 422.677 530.272C423.39 530.067 423.997 529.96 424.71 529.755C425.22 529.656 425.932 529.444 426.442 529.755C427.86 530.272 426.03 532.231 425.422 532.747Z" fill="#1C2120"/>
<path d="M530.873 199.101C530.363 194.977 529.86 190.026 526.403 187.345C523.448 184.976 519.383 184.665 515.828 185.591C511.35 186.73 507.383 189.411 503.415 191.78C499.043 194.354 494.573 196.936 490.2 199.617C481.455 204.773 472.71 209.929 463.965 215.085C455.22 220.234 446.475 225.39 437.625 230.546C430.508 234.776 421.965 239.416 413.625 235.907C410.07 234.366 407.625 231.374 406.41 227.661C405.285 223.849 405.188 219.824 404.88 216.012C404.783 214.151 404.475 212.298 404.168 210.446C404.07 209.823 403.05 210.028 403.155 210.749C403.965 214.668 403.965 218.586 404.37 222.504C404.783 226.112 405.593 229.931 407.828 232.817C410.168 235.809 413.73 237.555 417.39 237.973C421.455 238.489 425.528 237.662 429.285 236.112C433.56 234.366 437.52 231.89 441.488 229.514C445.86 226.939 450.233 224.365 454.605 221.783C463.35 216.627 472.2 211.372 480.945 206.216C489.69 201.06 498.435 195.904 507.18 190.747C510.945 188.484 515.01 186.108 519.585 186.214C521.415 186.214 523.35 186.624 524.978 187.657C526.808 188.69 527.925 190.444 528.533 192.403C529.245 194.666 529.553 197.141 529.86 199.511C530.16 201.986 530.363 204.462 530.468 206.937C530.67 211.888 530.565 216.832 530.16 221.783C529.448 231.784 527.82 241.785 526.5 251.786C525.18 261.787 524.16 271.894 523.448 281.994C522.735 292.208 522.233 302.414 521.925 312.62C521.82 315.095 521.723 317.571 521.618 320.039C521.618 320.661 522.638 320.661 522.638 320.039C522.945 309.833 523.35 299.627 523.958 289.421C524.573 279.215 525.383 269.009 526.605 258.901C527.82 248.9 529.448 239.006 530.468 229.005C531.69 219.102 532.193 208.995 530.873 199.101Z" fill="white"/>
<path d="M353.632 104.657C353.527 104.141 352.92 103.829 352.41 103.936C349.972 104.551 347.43 105.173 345.39 106.723C344.985 107.026 344.782 107.649 344.985 108.165C345.292 108.575 345.9 108.887 346.41 108.575C348.345 107.133 350.685 106.616 353.017 106.001C353.527 105.789 353.835 105.173 353.632 104.657Z" fill="#161616"/>
<path d="M337.868 107.231C335.94 106.001 333.803 105.173 331.665 104.657C331.155 104.551 330.548 104.862 330.443 105.378C330.345 105.895 330.653 106.51 331.155 106.616C332.175 106.821 333.188 107.133 334.208 107.543C334.313 107.543 334.313 107.649 334.313 107.543C334.41 107.543 334.41 107.649 334.515 107.649C334.613 107.649 334.718 107.748 334.815 107.748C335.123 107.854 335.325 107.96 335.633 108.165C336.143 108.37 336.548 108.682 337.058 108.986C337.463 109.297 338.175 109.092 338.483 108.575C338.483 108.165 338.273 107.543 337.868 107.231Z" fill="#161616"/>
<path d="M358.717 107.543C356.175 107.854 353.527 108.165 351.09 108.78C348.952 109.297 346.92 110.33 345.802 112.182C345.495 112.805 346.312 113.322 346.717 112.699C347.835 110.846 349.867 110.125 351.802 109.608C354.037 109.092 356.377 108.78 358.717 108.469C359.43 108.469 359.43 107.444 358.717 107.543Z" fill="#161616"/>
<path d="M339.188 113.625C337.155 110.846 333.803 110.018 330.653 109.608C330.345 109.608 330.143 109.92 330.143 110.125C330.143 110.428 330.345 110.641 330.653 110.641C333.398 111.051 336.548 111.772 338.273 114.142C338.685 114.764 339.495 114.248 339.188 113.625Z" fill="#161616"/>
<path d="M224.138 528.419C223.95 528.419 223.77 528.411 223.583 528.396C217.763 527.925 216.248 520.369 213.248 505.326C212.723 502.699 212.048 499.319 211.328 496.16C211.305 496.624 211.283 497.072 211.268 497.482C211.065 501.939 210.878 506.139 209.85 509.009C209.31 510.52 208.02 511.637 206.445 511.948C199.065 513.413 125.932 512.358 119.775 512.031C117.262 511.895 115.327 509.738 115.462 507.209C115.605 504.688 117.75 502.752 120.262 502.889C127.942 503.299 187.103 503.967 201.765 503.223C201.968 501.385 202.065 499.076 202.155 497.072C202.478 489.82 202.755 483.555 206.205 480.502C207.57 479.295 209.318 478.702 211.133 478.847C217.11 479.333 218.843 486.759 222.188 503.526C222.855 506.875 223.718 511.188 224.573 514.644C226.395 509.738 228.413 502.782 229.59 498.712C230.543 495.431 231.36 492.599 232.08 490.45C233.025 487.61 234.338 483.729 238.343 484.048C241.89 484.329 242.955 487.207 245.085 492.948C246.12 495.743 248.805 503.01 250.628 504.552C270.885 505.212 291.105 505.106 322.455 504.187C324.99 504.149 327.068 506.108 327.143 508.629C327.218 511.158 325.238 513.269 322.718 513.338C290.835 514.272 270.353 514.37 249.675 513.679C249.555 513.679 249.443 513.672 249.33 513.656C244.11 513.087 240.953 507.338 238.41 501.051C238.388 501.127 238.373 501.195 238.35 501.263C232.703 520.734 229.92 528.419 224.138 528.419Z" fill="#ECACB7"/>
<path d="M126.577 497.778C127.852 497.755 128.88 497.725 129.66 499.433C130.252 500.739 129.81 502.046 129.81 503.443C129.795 506.647 129.9 509.784 129.87 512.927C129.855 514.947 130.462 515.76 128.37 516.375C126.915 516.8 125.062 516.618 123.525 516.572C120.375 516.489 121.507 512.92 121.687 510.156C122.017 505.113 119.925 497.512 124.507 497.793L126.577 497.778Z" fill="#1C2120"/>
<path d="M131.797 487.83C129.247 487.769 127.185 487.716 125.64 491.118C124.455 493.738 125.332 496.343 125.34 499.137C125.362 505.524 125.152 511.788 125.212 518.053C125.25 522.085 124.035 523.718 128.212 524.941C131.107 525.791 134.805 525.419 137.887 525.336C144.165 525.169 141.907 518.046 141.547 512.525C140.887 502.471 145.072 487.291 135.922 487.853L131.797 487.83Z" fill="#1C2120"/>
<path d="M143.01 472.81C138.427 472.711 134.73 472.605 131.947 478.733C129.81 483.433 131.392 488.119 131.407 493.138C131.452 504.635 131.077 515.889 131.175 527.151C131.242 534.403 129.06 537.326 136.575 539.536C141.78 541.062 148.425 540.394 153.967 540.25C165.255 539.946 161.197 527.135 160.545 517.21C159.352 499.13 166.875 471.853 150.435 472.863L143.01 472.81Z" fill="#5D32A5"/>
<path d="M157.687 484.967C157.687 484.914 157.687 484.861 157.68 484.808C156.922 481.034 155.362 477.601 151.56 476.151C149.88 475.513 147.705 475.354 146.115 476.326C144.405 477.366 145.927 478.877 147.082 479.507C148.732 480.411 150.562 481.072 151.86 482.484C153.352 484.102 153.27 486.015 153.802 487.997C154.207 489.486 156.052 490.222 157.095 488.848C157.98 487.678 157.755 486.334 157.687 484.967Z" fill="#1C2120"/>
<path d="M318.382 498.37C319.657 498.347 320.685 498.317 321.465 500.026C322.057 501.332 321.615 502.638 321.615 504.035C321.6 507.24 321.705 510.376 321.675 513.52C321.66 515.54 322.268 516.352 320.175 516.967C318.72 517.393 316.875 517.21 315.33 517.165C312.18 517.081 313.312 513.512 313.492 510.748C313.822 505.706 311.73 498.104 316.312 498.385L318.382 498.37Z" fill="#1C2120"/>
<path d="M311.61 488.635C314.16 488.582 316.215 488.521 317.768 491.931C318.953 494.543 318.075 497.148 318.06 499.942C318.038 506.336 318.248 512.593 318.195 518.858C318.158 522.898 319.365 524.523 315.188 525.746C312.293 526.596 308.603 526.224 305.52 526.141C299.243 525.973 301.493 518.851 301.86 513.33C302.52 503.276 298.335 488.103 307.478 488.665L311.61 488.635Z" fill="#1C2120"/>
<path d="M300.39 473.615C304.98 473.516 308.678 473.41 311.46 479.538C313.59 484.238 312.015 488.924 311.993 493.943C311.955 505.44 312.33 516.694 312.225 527.956C312.158 535.215 314.34 538.139 306.825 540.341C301.62 541.867 294.983 541.199 289.44 541.055C278.153 540.751 282.203 527.94 282.863 518.015C284.048 499.942 276.525 472.658 292.965 473.668L300.39 473.615Z" fill="#5D32A5"/>
<path d="M285.72 485.772C285.713 485.719 285.713 485.666 285.728 485.613C286.485 481.839 288.045 478.406 291.84 476.963C293.52 476.326 295.695 476.159 297.293 477.131C298.995 478.171 297.48 479.682 296.325 480.312C294.675 481.216 292.845 481.877 291.54 483.297C290.055 484.907 290.13 486.82 289.598 488.802C289.2 490.291 287.348 491.027 286.305 489.653C285.42 488.483 285.653 487.139 285.72 485.772Z" fill="#1C2120"/>
</svg>
