<svg width="1271" height="810" viewBox="0 0 1271 810" fill="none" xmlns="http://www.w3.org/2000/svg">
<path d="M848.577 99.9456C844.877 100.544 841.178 101.931 837.976 104.406C834.603 107.077 832.632 110.946 830.825 115.1C828.605 119.954 827.95 125.699 827.047 131.152C825.646 139.67 823.183 148.488 817.592 154.036C813.401 158.292 807.894 160.175 803.703 164.431C799.185 168.993 796.304 176.023 795.57 183.06C795.401 184.739 795.322 186.527 795.401 188.206C795.57 191.776 796.225 195.44 795.649 198.907C794.091 207.725 785.297 211.587 781.348 219.215C778.225 225.259 778.474 232.982 779.705 240.019C780.032 241.603 780.445 243.486 781.676 244.275C783.404 245.362 785.375 243.881 787.019 242.691C790.967 239.815 795.57 238.034 800.167 237.734C804.364 237.442 808.719 238.333 812.825 237.442C820.06 235.858 825.81 229.318 830.498 222.485C835.18 215.645 839.455 208.12 845.617 203.265C850.305 199.601 855.812 197.717 860.082 193.36C863.29 190.089 865.589 185.534 866.492 180.578C867.396 175.526 866.99 170.278 867.808 165.227C869.124 157.598 873.315 150.963 874.631 143.335C875.947 135.407 874.14 127.385 872.248 119.662C871.344 115.895 870.44 112.129 868.3 109.158C863.866 102.822 855.812 98.8579 848.577 99.9456Z" fill="#161616"/>
<path d="M871.587 529.167C873.97 533.131 877.427 536.401 881.454 538.182C885.481 539.963 890.078 540.262 894.19 538.678C894.681 538.481 895.179 538.284 895.421 537.788C895.67 537.394 895.67 536.897 895.755 536.401C896.574 523.225 898.709 510.246 902.081 497.566C902.081 497.669 892.795 496.384 891.892 496.384C888.52 496.18 884.905 496.085 881.618 496.873C878.737 497.472 879.15 501.333 878.573 504.005C877.755 507.574 876.687 511.144 875.535 514.604C874.219 518.473 872.824 522.334 871.508 526.298C871.259 526.991 871.017 527.685 871.18 528.378C871.259 528.67 871.423 528.97 871.587 529.167Z" fill="#BC6439"/>
<path d="M980.074 356.113C981.475 358.194 983.034 360.471 985.169 361.165C986.072 361.464 987.061 361.464 988.049 361.362C990.924 361.165 993.72 360.077 996.182 358.194C996.51 357.894 996.922 357.602 997.086 357.106C997.25 356.704 997.335 356.113 997.335 355.617C997.498 349.478 997.747 343.434 997.911 337.295C998.074 332.44 998.238 327.586 999.306 322.929C993.635 321.542 987.801 321.345 982.045 322.535C981.141 322.732 979.995 322.827 979.583 323.922C979.092 325.206 979.17 327.389 979.007 328.776C978.758 332.141 978.679 335.506 977.776 338.776C977.363 340.163 976.872 341.55 976.623 342.937C976.459 344.025 976.459 345.12 976.211 346.208C976.047 347.003 975.72 347.697 975.798 348.485C975.798 349.478 976.375 350.266 976.872 351.062C977.854 352.748 978.922 354.427 980.074 356.113Z" fill="#BC6439"/>
<path d="M870.44 123.524C870.192 123.129 869.864 122.728 869.537 122.531C868.136 121.545 866.165 121.742 865.261 123.326C866.001 119.363 864.77 115.202 862.301 112.428C859.918 109.559 856.631 107.968 853.265 107.274C852.191 106.982 851.045 106.88 849.893 106.88C847.261 107.077 844.798 108.567 842.494 110.253C840.444 111.735 838.388 113.319 836.908 115.596C835.428 117.874 835.18 120.75 835.264 123.626C835.264 124.516 835.264 125.407 835.343 126.392C835.343 126.495 835.428 126.597 835.428 126.692C835.428 129.268 835.507 131.845 835.677 134.32C835.756 135.904 835.919 137.59 836.168 139.174C837.072 144.919 839.043 153.043 844.962 154.036C848.825 154.73 852.931 154.036 856.467 151.854C860.409 149.379 862.878 145.021 864.194 140.065C864.606 138.583 864.934 137.094 865.176 135.612C865.916 136.101 867.153 135.407 867.729 134.619C869.537 132.342 870.683 129.268 870.847 126.1C870.847 125.21 870.847 124.319 870.44 123.524Z" fill="#BC6439"/>
<path d="M850.141 150.569C850.881 153.343 851.615 156.511 850.22 158.891C849.644 159.978 848.662 160.672 847.673 161.263C842.991 164.037 837.399 163.942 832.796 166.811C825.731 171.169 822.522 181.176 820.8 190.484C819.071 199.798 818.089 209.704 813.401 217.434C811.017 221.295 807.815 224.369 805.019 227.829C802.387 231.099 800.167 234.763 797.954 238.428C791.95 248.239 786.036 258.042 780.032 267.948C777.649 271.911 775.102 275.379 771.899 278.452C770.996 279.343 769.928 280.233 769.431 281.525C769.019 282.416 768.94 283.401 768.855 284.496C768.612 286.577 768.364 288.657 768.2 290.737C767.951 292.613 767.787 294.497 768.115 296.38C768.364 297.964 769.019 299.453 769.595 300.84C770.911 303.906 772.142 306.979 773.458 309.95C773.622 310.249 773.707 310.549 773.955 310.746C774.525 311.337 775.429 311.14 775.926 310.446C776.418 309.753 776.581 308.862 776.581 307.972C776.581 306.585 776.339 305.293 775.926 304.008C775.514 302.92 774.938 301.628 775.35 300.541C776.418 300.738 776.909 301.731 777.485 302.723C778.061 303.709 778.552 304.899 779.292 305.891C779.705 306.483 780.281 306.979 780.936 306.884C781.597 306.782 782.009 306.089 782.252 305.293C782.501 304.402 782.501 303.417 782.252 302.424C782.088 301.731 781.761 301.234 781.433 300.643C780.53 298.957 779.626 297.176 778.637 295.489C779.868 297.468 781.185 299.059 782.579 300.738C782.828 301.037 783.077 301.336 783.404 301.431C784.059 301.628 784.72 301.037 784.884 300.242C785.048 299.453 784.963 298.657 784.72 297.964C784.059 294.993 782.913 292.124 781.348 289.642C782.088 289.942 782.088 291.329 782.579 292.022C783.077 292.716 784.059 293.307 784.635 292.613C785.133 289.839 783.98 287.168 782.913 284.693C782.252 283.109 784.059 281.722 785.133 280.43C796.062 267.751 810.526 258.838 819.235 243.881C826.307 231.792 834.112 220.996 838.879 206.93C840.608 201.681 841.918 189.79 848.498 195.243C850.384 196.827 851.615 199.302 852.852 201.579C854.496 204.55 856.218 207.324 858.111 210.003C859.427 211.886 860.907 213.762 862.714 214.857C863.781 215.551 865.012 215.843 866.086 216.441C870.768 218.916 873.4 224.858 877.094 229.216C877.591 229.814 878.167 230.405 878.907 230.508C879.889 230.705 880.793 230.011 881.618 229.318C885.972 225.653 890.327 221.69 895.015 218.616C897.477 217.032 900.025 215.646 902.736 214.66C904.137 214.164 905.531 213.762 907.011 213.47C907.751 213.368 909.643 213.565 910.22 212.974C911.942 211.39 908.576 208.017 907.587 206.536C905.859 203.762 904.3 200.791 902.899 197.623C901.996 195.637 901.256 193.462 901.013 191.279C900.764 189.097 901.013 186.921 900.764 184.841C900.352 181.476 898.709 178.6 897.15 175.826C896.822 175.329 897.399 174.636 897.89 174.439C898.381 174.242 898.957 174.439 899.448 174.541C904.876 175.724 910.547 175.826 915.969 174.738C919.341 174.045 922.707 172.957 926.079 172.461C928.462 172.161 930.925 172.059 933.308 171.57C935.692 171.074 938.075 169.782 939.64 167.504C941.447 164.927 941.86 160.971 940.629 157.898C940.131 156.606 939.804 155.219 938.9 154.233C928.711 143.036 914.738 138.78 901.996 132.539C899.37 131.247 896.737 129.86 894.681 127.487C892.71 125.305 891.479 122.334 889.672 119.954C887.865 117.582 885.232 115.596 882.685 116.392C882.6 116.195 882.437 116.392 882.273 116.392C880.957 115.596 879.234 115.793 877.997 116.888C877.342 115.399 875.45 114.903 874.304 115.998C874.14 116.195 873.891 116.392 873.643 116.392C873.479 116.392 873.315 116.29 873.151 116.195C872.411 115.793 871.423 116.392 871.095 117.282C870.768 118.173 871.017 119.363 871.423 120.158C871.92 121.049 872.575 121.64 873.23 122.334C872.66 122.034 872.084 121.94 871.508 122.239C870.932 122.531 870.604 123.224 870.768 123.918C870.847 124.217 871.095 124.516 871.259 124.713C871.999 125.699 872.739 126.692 873.23 127.881C873.891 129.371 874.383 131.05 875.286 132.239C876.439 133.823 878.167 134.714 879.889 135.21C881.618 135.707 883.425 136.006 885.069 136.794C890.988 139.568 896.574 143.138 901.996 147.102C903.724 148.386 905.283 149.97 906.684 151.854C906.763 152.051 906.932 152.153 906.847 152.35C906.847 152.547 906.684 152.649 906.52 152.744C905.283 153.438 903.809 152.744 902.572 152.153C894.93 148.488 886.3 149.08 878.331 151.357C875.699 152.153 873.066 153.043 870.355 152.941C869.943 152.941 869.537 152.846 869.203 152.649C868.876 152.445 868.633 152.051 868.384 151.657C866.086 147.496 866.001 142.145 864.77 137.291C864.521 136.203 864.109 135.115 863.205 134.714C862.465 134.422 861.725 134.816 861.07 135.313C857.456 138.086 856.055 143.634 852.768 146.904C851.536 148.291 849.644 149.08 850.141 150.569Z" fill="#BC6439"/>
<path d="M976.375 230.705C977.199 229.909 978.431 230.902 978.103 232.092C976.623 238.231 976.787 244.771 977.199 251.407C978.018 264.283 978.018 277.16 977.854 290.044C977.691 302.125 978.594 315.199 976.623 327.09C977.612 326.893 979.255 327.783 980.159 328.28C980.65 328.477 981.063 328.776 981.475 328.973C981.966 329.17 982.458 329.265 983.034 329.265C986.812 329.667 991.991 329.761 995.527 327.98C997.583 326.893 1000.87 327.878 1001.2 325.104C1001.53 322.338 1001.61 317.972 1001.94 315.199C1003.09 304.008 1003.66 293.015 1004.07 281.722C1004.24 276.963 1004.73 271.619 1004.98 266.765C1005.96 248.735 1006.78 230.311 1006.95 212.28C1007.03 206.236 1005.3 199.703 1003.33 194.155C1001.28 188.607 997.25 183.753 992.24 182.958C990.269 182.658 988.292 182.958 986.321 183.352C977.939 185.038 970.625 189.994 962.977 194.25C948.27 202.47 933.229 209.704 918.025 216.441C917.121 216.835 916.218 216.74 915.314 216.441C913.67 215.945 911.863 213.967 910.22 211.587C907.339 210.302 902.572 212.58 899.697 213.864C891.479 217.529 882.849 221.887 877.506 230.208C883.261 238.034 878.573 252.1 879.562 262.502C880.302 270.13 882.024 275.773 886.136 281.722C888.683 285.387 895.421 287.759 897.314 291.92C901.668 301.431 898.63 313.118 899.121 324.017C899.448 330.951 901.256 337.587 901.832 344.521C904.052 369.683 890.248 392.371 884.741 416.737C882.6 426.146 881.782 435.855 880.878 445.461C879.234 463.192 877.67 481.025 876.026 498.756C877.591 500.837 879.641 502.917 881.86 503.91C883.34 504.603 884.984 504.698 886.627 504.8C892.134 505.195 898.217 505.297 902.493 501.136C904.955 479.047 914.247 459.331 918.929 437.738C921.476 425.847 922.871 413.664 925.503 401.78C927.068 394.743 929.118 387.808 930.434 380.677C931.835 373.056 932.326 365.223 932.817 357.398C934.297 333.229 935.449 309.059 936.268 284.89C936.432 280.335 936.353 276.466 935.364 272.109C935.122 271.218 934.873 270.13 935.285 269.335C935.528 268.743 935.94 268.349 936.353 268.05C938.815 265.969 941.284 263.991 943.582 261.612C946.129 258.94 948.434 255.962 950.896 253.188C956.9 246.355 963.802 240.807 970.789 235.457C972.681 233.778 974.652 232.391 976.375 230.705Z" fill="#1C2120"/>
<path d="M871.999 550.27C880.217 558.19 882.685 569.089 890.078 576.023C896.246 581.965 904.628 583.454 911.942 580.082C912.191 579.593 912.518 579.097 912.682 578.6C913.913 575.33 913.422 570.972 910.959 568.892C910.05 568.096 909.067 567.702 908.079 567.111C903.639 564.234 901.668 557.993 900.928 551.949C900.188 546.007 900.437 539.868 898.872 534.123C898.545 533.036 898.054 531.846 897.15 531.546C896.574 531.444 895.919 531.744 895.421 532.138C894.275 533.131 893.287 534.423 892.134 535.408C890.988 536.496 889.587 537.291 888.192 536.992C886.136 536.496 883.668 536.496 881.782 535.313C879.889 534.123 878.331 532.24 877.506 529.86C876.354 526.196 877.257 522.137 876.851 518.173C876.766 517.086 877.015 517.378 876.19 516.787C874.631 515.597 872.575 517.283 871.259 518.969C868.057 522.728 864.436 526.196 860.167 527.78C859.754 527.977 859.342 528.079 858.935 528.181C861.562 536.897 865.51 545.117 871.999 550.27Z" fill="#5D32A5"/>
<path d="M890.818 575.33C883.425 568.395 880.957 557.701 872.739 549.774C866.328 544.62 862.714 536.496 860.167 527.977C859.178 528.276 857.043 529.072 856.14 529.568C854.823 530.262 853.671 531.444 853.265 533.131C852.931 534.517 853.18 536.101 853.592 537.488C855.478 544.919 859.427 551.657 864.606 556.212C868.548 559.679 873.151 562.154 876.602 566.315C878.986 569.286 880.714 572.95 882.685 576.418C884.656 579.885 887.04 583.155 890.248 584.644C892.383 585.63 894.681 585.834 896.901 585.929C899.861 586.031 902.899 586.126 905.78 585.141C908.163 584.345 910.874 581.673 912.269 579.294C905.119 582.462 896.986 581.177 890.818 575.33Z" fill="#161616"/>
<path d="M955.833 346.105C955.093 347.098 953.692 349.179 953.201 350.368C951.97 353.04 951.145 356.215 952.048 358.989C952.461 360.376 953.28 361.464 954.104 362.552C960.594 371.764 966.598 381.575 971.941 391.677C977.448 402.079 982.949 411.094 991.913 417.73C993.386 418.818 994.866 419.81 996.51 420.402C998.153 421 1000.05 420.796 1001.44 419.708C1002.68 418.715 1003.58 416.241 1003.91 414.555C977.854 410.992 969.885 369.683 955.833 346.105Z" fill="#161616"/>
<path d="M1003.82 412.277C1003.58 409.503 1002.59 406.831 1001.69 404.255C997.826 392.765 995.855 379.786 999.142 367.997C999.882 365.223 1000.95 362.449 1000.71 359.581C1000.37 356.705 997.911 353.931 995.691 355.12C994.211 355.916 993.386 358.194 991.743 358.588C990.512 358.887 989.28 357.997 988.213 357.201C986.897 356.113 985.581 355.12 984.265 354.033C983.282 353.237 982.209 352.347 981.475 351.157C979.092 347.295 981.718 342.047 979.662 338.477C977.036 333.725 971.941 339.076 969.388 340.857C967.829 341.945 966.101 342.638 964.378 342.937C962.814 343.134 961.255 343.04 959.69 343.434C957.804 344.025 956.239 345.317 954.923 347.098C968.981 370.574 977.527 412.08 1003.5 415.547C1003.91 414.46 1003.91 413.372 1003.82 412.277Z" fill="#5D32A5"/>
<path d="M848.086 160.277C846.933 160.672 845.702 161.066 844.55 161.46C843.974 161.664 843.397 161.861 843.155 162.555C842.827 163.343 843.319 164.234 843.895 164.832C845.781 167.205 848.328 168.993 849.729 171.862C850.797 174.14 851.045 176.913 851.124 179.592C851.536 188.206 851.288 196.929 853.429 205.149C854.739 210.302 859.014 213.864 863.041 216.142C864.357 216.835 865.752 217.434 866.99 218.522C866.99 218.522 866.99 218.522 867.068 218.522C868.057 219.412 869.373 218.719 869.537 217.332C869.701 215.551 869.779 213.667 870.356 212.083C871.18 209.901 872.739 208.317 874.383 206.93C879.477 202.375 884.984 197.915 891.231 196.528C894.275 195.834 897.399 195.834 900.352 194.944C900.849 194.747 901.426 194.549 901.668 193.951C901.753 193.659 901.753 193.257 901.753 192.965C901.668 191.279 901.589 189.695 901.504 188.009C901.426 186.33 901.341 184.644 901.013 183.06C899.946 178.103 896.41 174.439 895.015 169.585C894.603 168.198 894.354 166.716 893.699 165.526C893.202 164.635 892.462 164.037 891.728 163.445C886.385 158.985 879.889 156.81 874.631 152.153C874.304 151.854 873.643 151.854 873.151 152.051C872.739 152.153 872.327 152.649 872.327 153.138C872.327 153.737 872.66 154.131 873.067 154.43C877.015 158.292 881.533 161.365 886.3 163.343C887.452 163.84 888.768 164.431 888.932 166.022C889.011 166.716 888.768 167.409 888.356 167.898C887.531 168.891 886.385 169.19 885.317 169.387C881.533 170.081 877.755 170.877 873.97 171.57C872.163 171.862 870.356 172.263 868.469 172.161C867.153 172.059 865.837 171.767 864.521 171.271C857.947 169.088 852.852 165.526 848.086 160.277Z" fill="#1C2120"/>
<path d="M759.897 263.787C759.321 267.656 759.491 271.619 758.915 275.576C758.338 279.342 757.186 283.007 755.13 285.883C753.08 288.752 750.199 290.934 747.076 291.431C751.267 295.19 757.35 294.694 761.868 291.431C766.308 288.161 769.352 282.613 771.402 276.766C772.803 272.707 773.87 268.349 775.599 264.385C777.813 259.429 787.844 248.932 780.936 243.684C775.429 239.523 768.115 246.552 764.749 251.407C762.281 254.874 760.558 259.232 759.897 263.787Z" fill="#161616"/>
<path d="M838.552 122.633C839.783 121.443 841.014 120.158 841.754 118.567C842.991 115.998 843.155 112.727 844.798 110.45C845.205 112.822 845.702 115.202 846.684 117.282C847.673 119.363 849.068 121.246 850.96 122.239C853.095 123.326 855.563 123.027 857.862 122.932C859.675 122.83 861.483 122.932 863.29 123.224C863.702 123.326 864.194 123.326 864.606 123.224C865.346 123.027 866.001 122.334 866.328 121.443C866.656 120.647 866.741 119.662 866.741 118.771C866.82 114.808 865.673 110.844 863.533 107.771C861.398 104.705 858.359 102.719 855.072 102.223C852.604 101.829 850.057 102.223 847.588 102.822C845.538 103.318 843.482 103.909 841.675 105.194C838.139 107.676 836.004 112.231 834.276 116.589C833.7 117.976 833.208 119.363 832.96 120.947C832.796 122.334 832.632 124.713 834.112 124.91C835.756 125.108 837.484 123.626 838.552 122.633Z" fill="#161616"/>
<path d="M844.386 129.663C844.058 132.736 843.646 135.904 843.319 138.977C843.234 139.568 844.058 139.67 844.137 139.072C844.471 136.006 844.877 132.838 845.205 129.765C845.29 129.166 844.471 129.071 844.386 129.663Z" fill="#161616"/>
<path d="M848.577 128.276C849.317 127.29 850.469 126.889 851.536 126.495C853.92 125.699 856.382 125.21 858.851 124.808C858.687 125.801 858.438 126.794 858.196 127.684C857.783 129.071 857.043 130.261 855.976 131.152C854.739 132.144 853.265 132.539 851.864 132.838C851.124 132.933 850.384 133.035 849.644 133.035C849.068 133.035 848.249 133.327 847.837 132.634C846.854 131.451 847.837 129.268 848.577 128.276Z" fill="white"/>
<path d="M841.178 129.268C840.359 128.276 839.292 127.984 838.224 127.684C837.321 127.487 836.332 127.29 835.428 127.086C835.428 129.166 835.592 131.349 835.677 133.429C836.496 133.728 837.321 133.926 838.139 134.02C838.879 134.123 839.619 134.123 840.359 134.123C840.935 134.123 841.754 134.32 842.166 133.626C843.07 132.436 842.003 130.261 841.178 129.268Z" fill="white"/>
<path d="M868.633 123.224C868.136 123.027 867.56 123.129 867.068 123.421C866.656 123.721 866.328 124.217 866.001 124.808C865.916 125.013 865.916 125.407 866.165 125.502C866.413 125.604 866.577 125.604 866.741 125.305C866.82 125.21 866.82 125.108 866.905 125.013C866.905 125.013 866.905 124.911 866.99 124.911L867.068 124.808C867.153 124.713 867.232 124.611 867.317 124.516L867.396 124.414C867.396 124.414 867.481 124.414 867.481 124.319L867.56 124.217H867.729C867.808 124.217 867.808 124.217 867.893 124.217H867.972C868.057 124.217 868.057 124.217 868.136 124.217H868.221C868.3 124.217 868.3 124.217 868.384 124.319C868.548 124.414 868.876 124.217 868.876 124.02C868.961 123.524 868.797 123.326 868.633 123.224Z" fill="#161616"/>
<path d="M867.972 128.378C868.3 128.079 868.3 127.29 867.972 126.991C867.645 126.597 867.153 126.597 866.82 126.991C866.329 127.487 865.837 128.079 865.346 128.677C865.097 128.969 864.934 129.268 864.849 129.663C864.849 129.86 864.934 130.064 865.012 130.261C865.097 130.458 865.261 130.553 865.425 130.758C865.752 130.955 866.001 131.247 866.329 131.451C866.492 131.546 866.741 131.648 866.99 131.546C867.153 131.451 867.396 131.349 867.481 131.05C867.729 130.553 867.56 129.962 867.153 129.663C867.068 129.568 866.99 129.465 866.82 129.371C867.232 129.268 867.56 128.772 867.972 128.378Z" fill="#161616"/>
<path d="M854.247 127.881C854.169 127.881 854.169 127.881 854.247 127.881C854.084 127.487 853.92 127.29 853.671 127.086C853.507 126.889 853.265 126.692 852.931 126.692C852.689 126.597 852.355 126.597 852.113 126.692C851.864 126.692 851.615 126.794 851.373 126.991C851.209 127.086 851.124 127.29 850.96 127.385C850.712 127.684 850.548 128.079 850.469 128.473C850.469 128.677 850.384 128.874 850.384 129.166C850.384 129.663 850.469 130.064 850.633 130.458C850.633 130.458 850.633 130.458 850.633 130.553C850.797 130.852 850.96 131.05 851.124 131.247C851.288 131.451 851.536 131.648 851.864 131.648C852.113 131.743 852.44 131.743 852.689 131.648C852.931 131.648 853.18 131.546 853.429 131.349C853.592 131.247 853.671 131.05 853.835 130.955C854.084 130.655 854.247 130.261 854.332 129.86C854.332 129.663 854.411 129.465 854.411 129.166C854.496 128.677 854.411 128.276 854.247 127.881Z" fill="#161616"/>
<path d="M838.467 128.473C836.332 128.473 836.332 132.436 838.467 132.436C840.608 132.436 840.608 128.473 838.467 128.473Z" fill="#161616"/>
<path d="M852.191 126.692C850.633 126.692 850.633 129.663 852.191 129.663C853.835 129.663 853.835 126.692 852.191 126.692Z" fill="#161616"/>
<path d="M838.552 128.378C836.987 128.378 836.987 131.349 838.552 131.349C840.195 131.349 840.195 128.378 838.552 128.378Z" fill="#161616"/>
<path d="M842.251 143.634C842.906 143.138 843.482 142.539 844.222 142.342C846.278 141.751 848.328 142.941 850.305 143.335C850.633 143.437 851.124 143.532 851.045 144.028C851.045 144.328 850.796 144.423 850.633 144.525C849.972 145.021 849.238 145.313 848.498 145.415C847.424 145.517 846.442 145.116 845.375 145.218C844.635 145.218 843.81 145.313 842.991 145.517C842.579 145.715 842.002 145.715 841.675 145.612C841.511 145.517 841.263 145.313 841.178 145.116C841.014 144.62 841.511 144.225 841.839 144.028C842.002 143.831 842.166 143.729 842.251 143.634Z" fill="#161616"/>
<path d="M848.498 146.109C846.685 146.802 844.798 146.904 842.991 146.211C842.579 146.007 842.415 146.802 842.827 147.102C844.798 147.795 846.77 147.693 848.662 146.904C849.153 146.605 848.904 145.809 848.498 146.109Z" fill="#161616"/>
<path d="M859.754 147.89C859.918 147.598 860.167 147.394 860.409 147.299C860.907 147.102 861.398 147.598 861.562 148.189C861.725 148.78 861.562 149.379 861.398 149.97C860.579 152.445 859.014 154.627 857.122 156.014C856.467 156.409 855.812 156.81 855.151 157.204C853.507 158.095 851.785 158.985 849.972 159.182C849.644 159.182 849.238 159.182 849.068 158.891C848.825 158.591 848.989 158.095 849.068 157.701C849.317 156.81 849.402 155.518 849.893 154.825C850.384 154.131 851.615 153.934 852.276 153.737C854.169 153.138 855.891 152.051 857.456 150.664C858.274 149.773 859.099 148.883 859.754 147.89Z" fill="#161616"/>
<path d="M915.15 216.244C908.491 218.222 902.244 222.288 897.229 227.931C896.822 228.325 897.398 229.018 897.805 228.624C902.735 223.077 908.818 219.113 915.314 217.23C915.89 217.032 915.641 216.047 915.15 216.244Z" fill="#161616"/>
<path d="M934.133 268.152C924.272 279.642 911.451 292.416 896.737 288.058C895.755 287.759 895.258 289.642 896.325 289.942C903.56 292.124 911.038 290.139 917.613 286.175C924.351 282.014 930.021 275.773 935.364 269.539C936.104 268.641 934.952 267.254 934.133 268.152Z" fill="#161616"/>
<path d="M901.996 389.1C899.782 389.195 897.477 388.706 895.421 387.516C894.93 387.217 894.518 388.108 895.015 388.407C897.15 389.597 899.533 390.29 901.996 390.093C902.493 390.093 902.493 389.1 901.996 389.1Z" fill="#161616"/>
<path d="M900.686 187.118C894.111 187.71 887.701 189.199 881.369 191.578C878.41 192.768 875.286 193.951 872.66 195.834C870.113 197.623 868.221 200.294 866.905 203.462C865.261 207.324 864.436 211.587 863.781 215.843C863.702 216.441 864.436 216.74 864.606 216.142C865.752 209.207 867.317 201.382 872.575 197.221C875.122 195.243 878.167 194.053 881.042 192.863C884.08 191.673 887.125 190.688 890.248 189.892C893.778 189.002 897.314 188.403 900.849 188.111C901.177 188.111 901.256 187.118 900.686 187.118Z" fill="#161616"/>
<path d="M924.108 163.146C921.063 163.445 918.352 160.971 915.89 159.088C913.094 156.905 910.298 154.825 907.502 152.649C907.339 152.547 907.175 152.547 907.011 152.744C906.763 152.941 906.763 153.635 907.26 153.635C910.135 155.817 912.93 157.993 915.805 160.277C918.274 162.153 920.985 164.431 924.023 164.139C924.599 164.139 924.599 163.146 924.108 163.146Z" fill="#161616"/>
<path d="M894.603 160.175V167.11C894.603 167.701 895.421 167.701 895.421 167.11V160.175C895.421 159.482 894.603 159.482 894.603 160.175Z" fill="#161616"/>
<path d="M815.948 226.15C815.044 230.011 813.813 233.873 812.17 237.442C811.921 238.034 812.661 238.53 812.91 237.939C814.553 234.274 815.784 230.405 816.773 226.442C816.937 225.85 816.112 225.551 815.948 226.15Z" fill="#161616"/>
<path d="M839.868 189.396C837.812 188.805 835.677 188.308 833.7 189.498C833.209 189.79 833.621 190.688 834.112 190.389C835.841 189.301 837.891 189.892 839.619 190.389C840.195 190.483 840.359 189.593 839.868 189.396Z" fill="#161616"/>
<path d="M781.269 283.401C781.1 285.387 780.366 287.168 779.377 288.752C778.965 289.445 778.474 290.139 778.225 290.934C777.982 291.825 777.897 292.818 777.813 293.708C777.649 294.599 777.406 295.489 776.909 296.285C776.666 296.577 776.418 296.979 776.09 297.176C775.514 297.57 775.514 296.577 775.514 296.081C775.514 294.993 775.599 293.905 775.599 292.913C775.599 291.825 775.429 290.832 775.35 289.839C775.102 287.467 775.35 285.087 776.005 282.81C776.169 282.219 775.35 281.919 775.186 282.511C774.525 284.788 774.283 287.168 774.525 289.547C774.525 289.839 774.61 290.241 774.61 290.533C774.525 290.635 774.525 290.635 774.525 290.737C773.955 292.518 773.379 294.402 773.13 296.183C772.967 297.073 773.215 297.869 773.458 298.76L774.283 301.628C774.447 302.227 775.265 301.928 775.102 301.336L774.362 298.76C774.119 297.767 773.87 296.979 774.034 295.986C774.283 294.796 774.525 293.708 774.859 292.613C774.859 292.818 774.859 293.015 774.859 293.212C774.859 294.497 774.689 295.789 774.859 296.979C775.023 297.869 775.599 298.46 776.339 298.066C777.073 297.767 777.649 296.876 778.061 296.081C779.05 294.102 778.552 291.723 779.705 289.839C780.281 288.854 780.936 287.963 781.433 286.774C781.84 285.686 782.088 284.496 782.252 283.204C782.088 282.81 781.269 282.81 781.269 283.401Z" fill="#161616"/>
<path d="M923.532 399.006C923.283 399.503 922.871 400.291 922.301 400.196C921.724 400.094 921.397 399.305 921.312 398.707C921.227 398.013 921.312 397.225 921.312 396.532C921.312 395.736 921.312 395.042 921.227 394.254C921.063 391.276 920.487 388.407 919.584 385.633C919.42 385.042 918.601 385.334 918.765 385.932C919.917 389.4 920.487 393.064 920.408 396.824C920.408 398.313 920.323 400.094 921.476 400.984C922.628 401.875 923.611 400.889 924.187 399.7C924.514 398.904 923.859 398.415 923.532 399.006Z" fill="#161616"/>
<path d="M918.516 292.321C918.104 306.782 917.534 321.148 916.709 335.608C915.89 349.77 915.15 364.041 913.094 378.107C911.123 391.969 907.175 405.247 903.724 418.715C900.273 432.088 897.229 445.564 894.518 459.236C891.807 472.806 889.423 486.573 887.452 500.34C887.204 502.027 886.961 503.713 886.712 505.392C886.627 505.99 887.452 506.29 887.531 505.691C889.423 491.924 891.728 478.157 894.354 464.579C896.986 450.914 900.025 437.344 903.397 423.869C906.763 410.401 910.79 397.225 913.173 383.451C915.557 369.588 916.381 355.42 917.2 341.353C918.104 326.988 918.765 312.527 919.177 298.161C919.256 296.285 919.256 294.497 919.341 292.613C919.341 291.628 918.516 291.628 918.516 292.321Z" fill="white"/>
<path d="M913.507 218.419C908.903 222.186 904.876 226.843 901.504 232.289C900.522 233.873 899.612 235.457 898.793 237.048C898.545 237.537 899.121 238.034 899.37 237.537C902.244 231.895 905.859 226.741 910.135 222.485C911.366 221.295 912.603 220.106 913.913 219.018C914.247 218.821 913.834 218.127 913.507 218.419Z" fill="#161616"/>
<path d="M952.212 208.222C953.941 204.849 955.584 201.382 958.047 198.608C960.188 196.236 962.735 194.549 965.282 193.06C970.128 190.191 975.228 187.118 980.402 185.14C978.594 186.527 976.708 188.607 975.228 190.586C973.585 192.666 972.511 195.243 971.28 197.717C968.982 202.47 966.434 206.835 963.554 211.09C962.074 213.368 960.515 215.551 958.623 217.23C956.9 218.821 955.008 220.003 953.201 221.295C950.733 223.179 947.943 225.055 945.474 227.04C942.515 229.318 940.295 230.902 936.517 232.887C942.763 225.653 947.609 217.434 952.212 208.222Z" fill="#5D32A5"/>
<path d="M855.812 200.688C856.055 197.915 855.891 195.046 855.478 192.272C856.958 196.133 860.743 198.214 862.138 202.178C862.878 204.258 862.878 206.535 862.55 208.813C862.301 210.996 861.725 213.171 861.483 215.353C860.245 214.558 859.014 213.565 857.862 212.58C857.043 211.886 855.478 210.302 855.072 209.112C854.739 208.017 855.151 207.127 855.236 206.039C855.4 204.258 855.648 202.47 855.812 200.688Z" fill="#5D32A5"/>
<path d="M788.335 225.653C787.183 225.748 786.036 226.843 785.297 227.829C784.393 229.018 783.568 230.405 782.913 231.895C782.252 233.179 781.761 234.566 781.269 235.953C781.1 233.179 780.772 230.405 780.366 227.734C780.032 225.748 779.705 223.872 779.129 221.989C778.722 220.5 778.146 219.018 777.158 218.025C776.169 217.032 774.859 216.938 773.785 217.726C772.554 218.616 771.978 220.303 771.814 221.887C771.402 225.653 772.391 229.42 773.622 232.887C774.938 236.552 776.666 239.917 778.474 243.282C773.955 248.932 768.364 253.29 762.281 255.962C761.298 256.363 761.704 258.341 762.693 257.845C768.855 255.071 774.447 250.815 779.129 245.165C778.474 252.494 776.005 259.531 772.142 265.174C771.487 266.167 772.639 267.554 773.294 266.561C777.57 260.422 780.117 252.896 780.772 244.873C784.799 242.392 787.923 237.837 789.239 232.683C789.73 231.099 791.131 225.456 788.335 225.653ZM775.514 233.084C774.198 229.617 772.475 224.763 773.622 220.901C773.87 219.908 774.61 218.821 775.599 219.113C776.418 219.412 776.909 220.5 777.242 221.39C777.897 223.179 778.225 225.157 778.552 227.04C779.292 231.296 779.705 235.661 779.79 240.019C779.79 240.216 779.868 240.311 779.868 240.508C779.79 240.91 779.626 241.304 779.541 241.8C778.146 238.924 776.666 236.055 775.514 233.084ZM788.25 229.216C788.086 230.405 787.923 231.595 787.595 232.785C786.94 235.063 785.952 237.143 784.72 238.924C783.653 240.413 782.501 241.603 781.185 242.589C781.84 240.019 782.579 237.34 783.568 234.866C784.472 232.588 785.624 230.011 787.346 228.427C787.595 228.23 787.759 228.033 788.007 227.931C788.086 227.931 788.42 227.829 788.42 227.632C788.499 227.829 788.25 228.924 788.25 229.216Z" fill="#1C2120"/>
<path d="M890.988 213.368C885.809 214.164 880.55 214.558 875.286 214.456C874.795 214.456 874.795 215.448 875.286 215.448C880.55 215.551 885.809 215.251 890.988 214.361C891.479 214.259 891.479 213.273 890.988 213.368Z" fill="#161616"/>
<path d="M886.876 130.356C885.972 129.465 884.984 128.473 883.838 128.079C882.522 127.582 881.205 128.079 879.974 127.684C879.234 127.487 878.658 126.991 878.167 126.494C878.246 126.494 878.246 126.494 878.331 126.392C878.573 126.195 878.822 125.903 878.907 125.604C878.986 125.801 879.15 125.903 879.398 125.903C880.138 125.699 880.878 125.407 881.29 124.713C881.369 124.808 881.454 124.91 881.533 124.91C882.273 125.013 883.013 125.013 883.589 124.414C884.165 124.808 884.984 125.21 885.645 124.808C886.3 124.414 886.549 123.421 886.549 122.633C886.712 120.75 885.888 118.969 885.317 117.282C885.233 117.085 884.905 116.983 884.741 117.085C884.493 117.18 884.493 117.479 884.578 117.779C885.069 119.063 885.645 120.45 885.724 121.939C885.724 122.531 885.724 123.224 885.396 123.823C885.148 124.319 884.408 123.918 884.001 123.626C884.165 123.129 884.08 122.436 884.001 121.939C883.589 120.056 882.934 118.173 882.109 116.487C881.86 115.895 881.121 116.392 881.369 116.983C882.024 118.37 882.6 119.859 883.013 121.443C883.177 122.034 883.504 122.932 883.177 123.524C882.849 124.217 882.024 124.115 881.454 124.02C881.533 123.326 881.205 122.633 880.957 122.034C880.302 120.253 879.313 118.567 878.246 116.983C877.918 116.487 877.342 117.18 877.67 117.676C878.573 118.866 879.313 120.253 879.974 121.742C880.138 122.034 880.217 122.436 880.381 122.728C880.55 123.129 880.714 123.524 880.629 123.918C880.55 124.713 879.562 124.91 879.071 125.108C878.986 125.108 878.986 125.108 878.986 125.21C879.071 124.02 878.246 122.633 877.755 121.837C876.523 120.056 875.207 118.275 873.891 116.589C873.564 116.092 872.903 116.786 873.315 117.282C874.467 118.669 875.535 120.158 876.523 121.64C877.015 122.334 877.506 123.027 877.833 123.721C878.082 124.217 878.41 125.305 877.833 125.699C877.67 125.801 877.67 125.998 877.67 126.195C877.342 125.801 877.094 125.502 876.766 125.108C875.862 124.02 874.795 123.224 873.643 122.531C873.151 122.239 872.739 123.129 873.23 123.421C874.383 124.115 875.45 124.91 876.354 125.998C877.263 127.086 877.997 128.181 879.234 128.677C880.466 129.268 881.697 128.772 883.013 129.071C884.244 129.268 885.317 130.356 886.3 131.247C886.627 131.451 887.288 130.758 886.876 130.356Z" fill="#161616"/>
<path d="M898.217 548.19C897.477 547.394 896.738 546.606 895.919 545.81C896.489 544.722 897.15 543.533 897.726 542.445C898.302 541.35 896.822 540.364 896.325 541.452C895.755 542.54 895.258 543.533 894.682 544.525C894.027 543.927 893.372 543.233 892.71 542.642C892.383 542.343 891.892 542.248 891.558 542.642C891.316 542.941 891.231 543.73 891.558 544.029C892.298 544.722 893.038 545.416 893.778 546.204C893.123 547.394 892.462 548.584 891.728 549.672C891.479 550.073 891.643 550.767 892.055 551.058C892.462 551.358 892.874 551.161 893.202 550.664C893.863 549.577 894.439 548.489 895.094 547.394C895.755 548.088 896.41 548.781 897.15 549.474C897.477 549.869 897.969 549.869 898.302 549.474C898.545 549.277 898.545 548.584 898.217 548.19Z" fill="#1C2120"/>
<path d="M901.177 562.256C900.352 561.76 899.612 561.161 898.872 560.475C899.121 560.074 899.37 559.782 899.612 559.38C899.861 558.986 899.946 558.395 899.612 557.993C899.285 557.701 898.709 557.599 898.466 557.993C898.138 558.395 897.89 558.884 897.562 559.285C896.901 558.687 896.325 557.993 895.755 557.3C895.421 556.906 894.93 556.906 894.603 557.3C894.275 557.701 894.275 558.292 894.603 558.687C895.179 559.38 895.834 560.074 896.489 560.767C895.998 561.461 895.506 562.154 895.094 562.847C894.845 563.242 894.766 563.84 895.094 564.234C895.421 564.534 895.998 564.629 896.246 564.234C896.737 563.446 897.314 562.753 897.805 561.957C898.63 562.65 899.448 563.344 900.352 563.935C900.764 564.234 901.256 564.037 901.504 563.541C901.668 563.242 901.589 562.548 901.177 562.256Z" fill="#1C2120"/>
<path d="M996.346 373.348C995.2 372.362 994.126 371.37 993.059 370.282C994.047 369.092 995.115 367.902 996.103 366.712C996.843 365.822 995.691 364.435 994.951 365.325C993.884 366.515 992.895 367.8 991.828 368.99C990.839 367.902 989.857 366.815 988.953 365.72C988.213 364.829 987.061 366.216 987.801 367.107C988.704 368.201 989.693 369.289 990.675 370.377C989.772 371.37 988.868 372.457 987.964 373.45C987.224 374.341 988.377 375.727 989.117 374.837C990.02 373.749 991.003 372.756 991.913 371.669C993.059 372.851 994.296 374.041 995.606 375.129C995.94 375.428 996.51 375.231 996.758 374.735C996.843 374.238 996.68 373.647 996.346 373.348Z" fill="#1C2120"/>
<path d="M997.007 388.998C995.94 388.013 994.866 386.918 993.799 385.932C994.539 384.837 995.279 383.852 996.182 382.961C996.51 382.662 996.51 381.867 996.182 381.575C995.855 381.173 995.364 381.275 995.03 381.575C994.126 382.465 993.308 383.553 992.568 384.743C991.743 383.947 990.924 383.159 990.02 382.363C989.693 382.064 989.117 382.268 988.868 382.757C988.619 383.253 988.789 383.75 989.196 384.144C989.936 384.837 990.76 385.633 991.5 386.327C990.76 387.319 990.02 388.305 989.196 388.998C988.789 389.298 988.704 389.889 988.868 390.385C989.117 390.787 989.608 391.079 990.02 390.787C991.088 389.889 991.992 388.801 992.816 387.611C993.799 388.604 994.866 389.597 995.855 390.582C996.182 390.882 996.68 390.984 997.007 390.582C997.25 389.991 997.335 389.298 997.007 388.998Z" fill="#1C2120"/>
<path d="M1012.7 366.815C1011.71 366.318 1010.57 366.216 1009.5 366.121C1008.18 366.019 1006.95 366.019 1005.64 366.121C1004.4 366.216 1003.09 366.413 1001.85 366.712C1003.42 365.625 1004.9 364.435 1006.38 363.143C1007.61 362.055 1008.76 360.77 1009.83 359.478C1010.9 358.194 1011.88 356.909 1012.54 355.318C1012.95 354.332 1013.86 352.15 1012.95 351.157C1012.45 350.668 1011.71 350.865 1011.14 351.062C1010.4 351.259 1009.66 351.653 1009 352.15C1006.54 353.836 1004.24 356.215 1002.27 358.69C1000.05 361.559 998.238 364.829 996.922 368.296C996.758 368.691 997.086 369.092 997.413 368.99C997.498 368.99 997.583 368.99 997.662 368.99C997.747 368.99 997.826 368.99 997.826 368.895C1002.18 370.873 1006.87 371.464 1011.47 370.479C1012.38 370.282 1013.53 369.983 1014.02 368.99C1014.76 367.997 1013.44 367.209 1012.7 366.815ZM1007.61 354.529C1008.76 353.536 1009.91 352.544 1011.31 352.055C1011.55 351.952 1011.96 351.755 1012.21 351.85C1012.62 351.952 1012.62 352.252 1012.54 352.748C1012.45 353.536 1012.13 354.332 1011.8 355.026C1011.14 356.507 1010.16 357.697 1009.25 358.887C1008.26 360.077 1007.28 361.07 1006.21 362.157C1003.82 364.435 1001.11 366.413 998.323 367.902C998.238 367.902 998.153 367.997 998.074 367.997C1000.29 362.654 1003.58 357.997 1007.61 354.529ZM1010.9 369.786C1008.84 370.18 1006.7 370.282 1004.65 369.983C1002.84 369.786 1001.03 369.289 999.227 368.596C1002.92 367.304 1006.78 366.815 1010.57 367.304C1011.39 367.406 1012.7 367.603 1013.28 368.494C1013.86 369.187 1011.31 369.683 1010.9 369.786Z" fill="#1C2120"/>
<path d="M913.913 530.656C913.749 529.364 912.682 528.97 911.778 529.072C910.547 529.269 909.31 529.663 908.164 530.159C906.932 530.656 905.616 531.152 904.379 531.743C903.639 532.138 902.82 532.539 902.081 533.036C904.713 529.962 907.011 526.393 908.327 522.232C908.576 521.341 908.819 520.451 908.819 519.458C908.819 518.765 908.903 517.779 908.327 517.283C907.26 516.195 905.531 517.582 904.713 518.473C902.572 520.648 901.013 523.524 899.697 526.495C898.302 529.86 897.314 533.43 896.489 536.992C896.246 537.189 896.325 537.685 896.489 537.883C896.574 537.985 896.574 537.985 896.659 537.985C896.737 538.087 896.901 538.182 897.065 537.985C897.229 537.883 897.314 537.685 897.477 537.591H897.562C900.437 537.393 903.312 537.094 906.108 536.598C908.242 536.204 910.547 535.605 912.269 533.824C913.258 533.13 914.077 531.941 913.913 530.656ZM903.809 521.049C904.628 519.955 905.616 518.473 906.848 517.976C907.096 517.874 907.503 517.779 907.751 517.874C908.164 518.071 908.079 518.765 908.079 519.166C908.079 520.057 907.836 520.947 907.587 521.838C906.684 524.809 905.119 527.488 903.397 529.86C901.996 531.743 900.522 533.43 898.957 535.014C898.545 535.313 898.138 535.605 897.805 535.904C899.042 530.656 900.686 525.305 903.809 521.049ZM911.942 533.13C910.462 534.62 908.406 535.211 906.52 535.605C903.973 536.101 901.426 536.401 898.872 536.598C899.121 536.401 899.285 536.204 899.533 536.007C902.657 533.729 906.108 531.941 909.722 530.751C910.298 530.554 910.79 530.459 911.366 530.262C911.778 530.159 912.354 529.962 912.767 530.262C913.913 530.751 912.433 532.634 911.942 533.13Z" fill="#1C2120"/>
<path d="M997.171 212.58C996.758 208.616 996.346 203.857 993.556 201.287C991.173 199.01 987.886 198.71 985.005 199.601C981.39 200.688 978.182 203.265 974.98 205.543C971.444 208.017 967.829 210.499 964.293 213.069C957.228 218.025 950.156 222.982 943.091 227.931C936.025 232.887 928.954 237.837 921.803 242.793C916.054 246.852 909.146 251.312 902.408 247.939C899.533 246.457 897.562 243.581 896.574 240.019C895.67 236.355 895.585 232.486 895.343 228.821C895.258 227.04 895.015 225.259 894.766 223.471C894.682 222.88 893.863 223.077 893.942 223.77C894.603 227.537 894.603 231.296 894.93 235.063C895.258 238.53 895.919 242.194 897.726 244.968C899.612 247.844 902.493 249.523 905.453 249.925C908.74 250.414 912.027 249.626 915.065 248.136C918.516 246.457 921.725 244.078 924.927 241.8C928.463 239.326 931.998 236.844 935.528 234.369C942.6 229.42 949.75 224.369 956.816 219.412C963.887 214.456 970.953 209.507 978.018 204.55C981.063 202.375 984.35 200.097 988.049 200.192C989.529 200.192 991.088 200.594 992.404 201.579C993.884 202.572 994.787 204.258 995.279 206.141C995.855 208.317 996.103 210.696 996.346 212.974C996.595 215.354 996.758 217.726 996.843 220.106C997.007 224.858 996.922 229.617 996.595 234.369C996.019 243.976 994.702 253.589 993.635 263.196C992.568 272.802 991.743 282.511 991.173 292.219C990.597 302.03 990.184 311.833 989.936 321.644C989.857 324.017 989.772 326.396 989.693 328.776C989.693 329.367 990.512 329.367 990.512 328.776C990.76 318.965 991.088 309.162 991.579 299.351C992.076 289.548 992.731 279.737 993.72 270.028C994.702 260.422 996.019 250.91 996.843 241.304C997.826 231.792 998.238 222.084 997.171 212.58Z" fill="white"/>
<path d="M853.92 121.837C853.835 121.341 853.344 121.049 852.931 121.144C850.96 121.742 848.904 122.334 847.261 123.823C846.933 124.115 846.769 124.713 846.933 125.21C847.182 125.604 847.673 125.903 848.086 125.604C849.644 124.217 851.536 123.721 853.429 123.129C853.835 122.932 854.084 122.334 853.92 121.837Z" fill="#161616"/>
<path d="M841.178 124.319C839.619 123.129 837.891 122.334 836.168 121.837C835.756 121.742 835.265 122.034 835.18 122.531C835.101 123.027 835.343 123.626 835.756 123.721C836.581 123.918 837.399 124.217 838.224 124.611C838.303 124.611 838.303 124.713 838.303 124.611C838.388 124.611 838.388 124.713 838.467 124.713C838.552 124.713 838.631 124.808 838.715 124.808C838.964 124.91 839.128 125.013 839.37 125.21C839.783 125.407 840.11 125.699 840.523 125.998C840.85 126.297 841.426 126.1 841.675 125.604C841.675 125.21 841.511 124.611 841.178 124.319Z" fill="#161616"/>
<path d="M858.026 124.611C855.976 124.91 853.835 125.21 851.864 125.801C850.142 126.297 848.498 127.29 847.588 129.071C847.346 129.663 848.001 130.159 848.328 129.568C849.238 127.779 850.881 127.086 852.44 126.597C854.247 126.1 856.14 125.801 858.026 125.502C858.602 125.502 858.602 124.516 858.026 124.611Z" fill="#161616"/>
<path d="M842.251 130.458C840.608 127.779 837.891 126.991 835.343 126.597C835.101 126.597 834.937 126.889 834.937 127.086C834.937 127.385 835.101 127.582 835.343 127.582C837.563 127.984 840.11 128.677 841.511 130.955C841.839 131.546 842.494 131.05 842.251 130.458Z" fill="#161616"/>
<path d="M749.259 528.97C749.114 528.97 748.962 528.962 748.811 528.948C744.11 528.502 742.885 521.247 740.459 506.786C740.035 504.268 739.489 501.012 738.907 497.983C738.888 498.428 738.87 498.858 738.858 499.253C738.7 503.53 738.549 507.574 737.718 510.326C737.281 511.779 736.232 512.852 734.965 513.151C728.997 514.553 669.889 513.545 664.916 513.224C662.884 513.093 661.319 511.027 661.429 508.596C661.544 506.173 663.278 504.311 665.31 504.443C671.514 504.844 719.329 505.487 731.18 504.764C731.338 503.005 731.423 500.786 731.495 498.858C731.756 491.887 731.981 485.872 734.764 482.938C735.868 481.777 737.287 481.208 738.749 481.347C743.577 481.814 744.978 488.953 747.689 505.056C748.228 508.275 748.926 512.421 749.617 515.743C751.085 511.027 752.716 504.341 753.668 500.428C754.439 497.282 755.1 494.559 755.676 492.493C756.44 489.77 757.501 486.04 760.74 486.34C763.609 486.617 764.47 489.383 766.192 494.895C767.029 497.581 769.2 504.56 770.668 506.049C787.043 506.676 803.388 506.574 828.721 505.698C830.77 505.662 832.45 507.538 832.511 509.961C832.572 512.392 830.971 514.414 828.933 514.487C803.163 515.385 786.613 515.473 769.898 514.816C769.807 514.808 769.716 514.801 769.625 514.794C765.404 514.246 762.851 508.72 760.795 502.684C760.782 502.749 760.764 502.815 760.746 502.888C756.185 521.59 753.935 528.97 749.259 528.97Z" fill="#ECACB7"/>
<path d="M670.411 499.537C671.442 499.508 672.273 499.479 672.903 501.121C673.382 502.384 673.025 503.633 673.025 504.983C673.012 508.056 673.097 511.071 673.073 514.086C673.061 516.027 673.552 516.816 671.86 517.407C670.69 517.808 669.192 517.633 667.942 517.597C665.401 517.516 666.311 514.086 666.462 511.429C666.729 506.589 665.031 499.282 668.737 499.552L670.411 499.537Z" fill="#1C2120"/>
<path d="M674.626 489.975C672.57 489.924 670.908 489.865 669.653 493.143C668.694 495.654 669.404 498.158 669.416 500.837C669.434 506.983 669.264 512.998 669.307 519.013C669.337 522.889 668.361 524.451 671.739 525.634C674.074 526.451 677.064 526.094 679.55 526.013C684.627 525.853 682.807 519.006 682.51 513.699C681.976 504.041 685.36 489.464 677.967 490.004L674.626 489.975Z" fill="#1C2120"/>
<path d="M683.693 475.551C679.993 475.448 677.003 475.346 674.753 481.237C673.031 485.748 674.304 490.252 674.316 495.077C674.353 506.122 674.05 516.94 674.128 527.758C674.183 534.729 672.424 537.532 678.495 539.656C682.698 541.124 688.071 540.481 692.547 540.335C701.669 540.051 698.394 527.743 697.866 518.203C696.902 500.837 702.985 474.631 689.697 475.602L683.693 475.551Z" fill="#5D32A5"/>
<path d="M695.555 487.223C695.555 487.179 695.555 487.128 695.549 487.069C694.937 483.449 693.675 480.149 690.606 478.762C689.248 478.149 687.489 477.989 686.203 478.923C684.821 479.923 686.052 481.376 686.986 481.982C688.314 482.85 689.794 483.485 690.849 484.843C692.05 486.391 691.989 488.237 692.42 490.143C692.741 491.566 694.233 492.274 695.076 490.953C695.792 489.829 695.61 488.537 695.555 487.223Z" fill="#1C2120"/>
<path d="M825.427 500.107C826.464 500.078 827.295 500.048 827.92 501.691C828.399 502.946 828.047 504.202 828.041 505.552C828.035 508.625 828.12 511.64 828.096 514.655C828.078 516.597 828.569 517.378 826.877 517.969C825.706 518.378 824.208 518.203 822.965 518.159C820.418 518.079 821.334 514.655 821.479 511.991C821.746 507.151 820.054 499.851 823.76 500.121L825.427 500.107Z" fill="#1C2120"/>
<path d="M819.957 490.749C822.019 490.697 823.681 490.639 824.93 493.917C825.888 496.428 825.179 498.931 825.173 501.61C825.154 507.757 825.324 513.772 825.276 519.794C825.245 523.67 826.228 525.232 822.85 526.407C820.509 527.225 817.525 526.867 815.032 526.787C809.962 526.626 811.782 519.779 812.079 514.48C812.612 504.815 809.228 490.238 816.621 490.778L819.957 490.749Z" fill="#1C2120"/>
<path d="M810.89 476.324C814.596 476.222 817.585 476.127 819.836 482.011C821.558 486.522 820.284 491.026 820.266 495.851C820.236 506.895 820.539 517.714 820.454 528.532C820.4 535.503 822.164 538.313 816.094 540.43C811.885 541.897 806.517 541.255 802.041 541.109C792.92 540.824 796.195 528.517 796.723 518.976C797.681 501.61 791.604 475.405 804.892 476.376L810.89 476.324Z" fill="#5D32A5"/>
<path d="M799.033 487.997C799.027 487.953 799.027 487.902 799.039 487.851C799.652 484.223 800.913 480.923 803.982 479.536C805.341 478.923 807.1 478.762 808.385 479.697C809.768 480.697 808.537 482.15 807.603 482.755C806.269 483.624 804.789 484.259 803.74 485.617C802.539 487.164 802.599 489.011 802.169 490.916C801.847 492.34 800.349 493.048 799.506 491.727C798.791 490.61 798.979 489.318 799.033 487.997Z" fill="#1C2120"/>
<path d="M510.075 387.743L511.137 406.605L514.496 417.007L590.009 441.03L592.575 431.519L560.019 406.955L510.075 387.743Z" fill="#5D32A5"/>
<path d="M620.012 372.37C618.678 365.749 615.421 348.762 614.627 342.003C613.826 335.243 614.032 328.068 616.446 321.958C617.932 318.199 620.23 314.899 621.037 310.819C621.892 306.534 620.982 302.008 619.824 297.84C616.749 286.803 611.873 276.335 611.06 264.67C610.12 251.195 614.711 237.172 611.248 224.383C608.574 214.492 601.132 207.251 593.036 205.477C584.933 203.703 576.412 207.032 569.886 213.405C564.434 218.726 559.279 224.077 556.235 231.916C554.585 236.165 553.511 240.793 553.257 245.516C552.802 253.83 554.84 262.349 553.232 270.43C551.546 278.905 546.215 285.248 541.461 291.555C536.7 297.855 532.042 305.49 532.303 314.228C532.388 317.118 533.018 319.958 533.024 322.849C533.031 332.543 526.28 339.842 523.369 348.799C521.374 354.931 521.247 362.019 523.03 368.26C531.326 367.041 539.95 365.873 547.841 369.369C552.784 371.559 557.205 375.501 562.269 377.202C574.866 381.414 586.013 374.224 598.949 372.37C605.463 371.443 614.815 377.458 620.012 372.37Z" fill="#272030"/>
<path d="M444.539 464.47C441.106 464.127 437.176 463.448 433.859 463.287C432.464 463.214 422.251 461.433 421.693 462.039C410.588 474.069 406.719 478.492 412.535 493.048C421.626 492.858 430.784 493.544 439.972 494.727C437.946 484.39 439.408 473.791 444.539 464.47Z" fill="#EFA693"/>
<path d="M660.604 425.54C645.66 421.19 630.953 414.416 616.488 407.773C600.586 400.473 584.685 393.174 568.783 385.874C558.757 381.268 548.732 376.662 538.707 372.063C530.344 368.223 521.762 364.216 515.212 356.865C508.328 349.127 499.068 345.718 492.032 338.178C488.915 334.842 485.949 331.265 482.468 328.499C475.742 323.162 470.078 319.505 462.09 318.301C452.617 323.6 442.859 329.623 436.879 339.937C432.803 346.959 430.82 355.456 429.777 363.939C427.466 382.786 429.995 403.525 440.524 417.737C443.496 421.752 447.001 425.124 450.488 428.475C456.262 434.015 462.03 439.556 467.803 445.104C470.739 447.921 473.68 450.746 476.616 453.564C479.381 456.221 482.917 458.769 485.222 461.973C484.567 462.776 483.529 463.623 482.559 463.586C467.567 462.959 455.346 465.952 441.816 464.076C438.128 473.397 437.467 484.391 438.923 494.727C465.129 499.428 491.772 512.115 517.638 510.151C523.066 509.742 528.543 508.881 533.576 506.392C538.604 503.895 543.183 499.603 545.585 493.727C548.993 485.398 547.513 475.193 543.959 466.952C540.405 458.71 535.002 451.892 530.15 444.68C524.825 436.767 520.112 428.292 515.436 419.803C515.443 419.825 515.449 419.839 515.449 419.861C515.449 419.839 515.443 419.825 515.436 419.803C515.194 419.372 514.957 418.934 514.715 418.496C514.86 418.591 515.006 418.679 515.151 418.774C512.986 410.927 510.912 403.043 510.912 394.32C529.828 415.299 554.803 420.774 578.262 429.891C582.95 432.066 586.941 436.118 590.009 441.03C594.2 442.125 598.367 443.374 602.497 444.892C607.785 446.826 612.971 449.177 618.338 450.761C625.798 452.958 633.5 453.63 641.16 454.301C646.897 454.798 652.629 455.382 658.36 455.995C660.507 446.104 660.889 435.811 660.604 425.54Z" fill="#5D32A5"/>
<path d="M578.262 429.891C554.803 420.774 521.24 417.774 502.324 396.794C506.982 405.671 512.683 411.686 515.151 418.774C538.222 433.745 564.525 434.373 590.009 441.03C586.941 436.118 582.95 432.066 578.262 429.891Z" fill="#5D32A5"/>
<path d="M578.262 429.891C554.803 420.774 521.24 417.774 502.324 396.794C505.824 404.744 512.586 411.686 515.151 418.774C538.222 433.745 564.525 434.373 590.009 441.03C586.941 436.118 582.95 432.066 578.262 429.891Z" fill="#272030"/>
<path d="M705.999 439.658C705.617 435.848 704.671 431.818 702.184 429.402C688.132 431.461 673.249 429.22 659.585 425.241C659.87 435.512 659.118 445.95 656.971 455.849C663.739 456.571 671.897 457.491 678.665 458.243C685.33 458.98 692.584 463.156 699.279 463.265C704.883 457.936 706.848 448.199 705.999 439.658Z" fill="#EFA693"/>
<path d="M584.224 255.005C580.191 259.779 576.655 265.948 574.156 270.685C572.658 273.517 571.948 276.167 571.542 279.488C570.832 285.357 575.527 289.927 579.736 292.978C584.357 296.322 589.136 299.541 592.86 304.234C596.378 308.68 598.761 314.213 601.448 319.44C604.996 326.345 609.18 332.864 614.426 337.959C618.181 341.609 622.414 344.463 626.623 347.303C630.28 349.77 633.943 352.237 637.6 354.704C644.951 359.661 652.338 364.639 660.264 368.07C671.981 373.143 684.736 374.698 697.053 372.545C704.453 371.253 711.451 375.961 718.45 379.129C720.64 380.122 723.278 382.64 722.071 385.064C717.935 386.173 713.562 385.991 709.492 384.531C708.213 384.078 706.933 383.487 705.599 383.487C704.368 383.494 703.179 383.998 702.014 384.494C695.628 387.239 689.236 389.991 682.85 392.736C680.272 393.845 677.658 394.962 674.935 395.283C671.612 395.677 668.045 395.677 664.807 394.225C661.508 392.743 658.499 390.466 655.091 389.334C650.937 387.954 646.673 387.166 642.5 385.918C636.514 384.129 629.388 381.655 623.669 378.866C611.236 372.8 601.472 364.165 591.665 353.128C587.426 348.354 583.241 343.375 580.263 337.375C577.934 332.689 576.23 327.221 572.519 324.068C569.304 321.338 565.15 320.87 561.214 320.856C560.019 320.848 558.757 320.9 557.726 321.63C556.265 322.673 555.64 324.783 554.931 326.644C552.583 332.762 548.077 337.623 542.777 339.755C537.676 341.813 532.115 341.39 526.863 342.799C520.889 344.405 515.388 348.456 511.476 354.128C507.419 353.332 503.519 351.193 500.59 347.726C492.293 337.901 482.498 327.447 471.339 323.476C470.429 323.155 469.483 322.841 468.743 322.126C467.082 320.513 467.051 317.33 468.07 315.067C469.083 312.804 470.878 311.235 472.576 309.673C482.972 300.139 491.911 288.306 498.801 274.926C501.56 269.576 504.023 263.94 507.486 259.217C510.949 254.502 515.655 250.691 520.877 250.385C526.954 250.02 532.491 254.334 538.416 255.991C550.6 259.4 563.136 251.436 575.599 252.633C580.457 253.1 581.222 249.268 585.364 252.363C584.6 252.283 584.982 255.086 584.224 255.005Z" fill="#EFA693"/>
<path d="M579.038 210.66C575.981 212.915 573.192 215.704 570.784 218.916C569.807 220.222 568.886 221.602 567.891 222.894C565.556 225.909 563.458 229.186 561.626 232.676C559.843 236.063 558.011 239.771 556.841 243.53C556.325 245.165 555.962 247.173 556.307 248.903C556.501 249.91 556.908 250.837 557.362 251.706C561.189 259.027 568.631 262.743 575.806 262.991C579.572 263.123 583.666 262.225 586.195 258.867C586.176 259.984 586.837 261.086 587.662 261.597C588.493 262.101 589.445 262.203 590.373 262.232C591.72 262.261 593.102 262.144 594.309 261.436C596.074 260.4 597.184 258.268 598.173 256.232C598.561 255.443 598.949 254.626 599.101 253.728C599.246 252.83 599.119 251.808 598.579 251.158C597.851 250.268 596.662 250.326 595.631 250.45C599.088 248.815 601.963 246.019 603.874 242.173C605.784 238.333 606.566 233.668 605.948 229.252C604.911 221.836 600.053 215.762 594.358 212.682C589.542 210.083 583.544 207.338 579.038 210.66Z" fill="#EFA693"/>
<path d="M561.377 246.034C559.431 248.297 557.138 250.713 554.439 250.494C552.493 250.341 550.831 248.823 549.29 247.37C542.255 240.727 534.947 234.099 526.426 230.851C520.325 228.522 513.884 228.69 507.625 227.157C502.67 225.945 497.752 224.383 492.754 223.434C487.526 222.449 482.238 222.931 476.973 222.916C472.231 222.901 467.136 222.222 463.085 225.186C457.511 229.267 455.783 237.982 455.316 245.822C454.255 263.889 457.196 281.897 458.918 299.891C459.228 303.147 459.495 306.519 458.676 309.643C458.276 311.191 457.621 312.622 456.972 314.045C451.277 326.484 445.576 338.93 439.881 351.368C439.244 352.763 440.742 354.558 442.052 354.369C446.122 353.785 448.693 348.952 450.676 344.624C450.537 345.631 450.403 346.675 450.634 347.653C450.864 348.631 451.586 349.522 452.429 349.478C453.272 349.441 453.897 348.551 454.4 347.733C457.657 342.485 460.908 337.236 464.165 331.995C465.681 329.55 467.209 327.075 468.204 324.272C469.671 320.155 469.902 315.578 470.254 311.111C471.588 294.073 474.942 277.364 478.35 260.75C478.811 258.509 477.58 254.312 479.163 253.005C480.661 251.757 484.445 253.655 486.265 253.852C495.089 254.794 503.913 255.735 512.744 256.684C519.263 257.378 523.642 266.575 529.464 270.181C531.296 271.32 533.243 272.167 535.184 273.021C539.969 275.109 545.391 277.182 549.982 274.517C552.511 273.043 554.367 270.327 556.144 267.699C558.23 264.59 560.346 261.429 561.608 257.735C562.863 254.034 562.93 249.567 561.377 246.034Z" fill="#EFA693"/>
<path d="M420.68 465.565C418.248 467.638 415.5 469.287 413.572 472.025C411.686 474.704 410.752 478.317 411.043 481.806C411.158 483.186 411.528 484.661 412.486 485.427C413.463 486.208 414.791 486.033 415.81 486.734C417.186 487.69 417.532 490.048 416.92 491.814C416.301 493.581 414.967 494.822 413.584 495.763C405.785 501.056 395.972 498.698 387.366 501.676C378.226 504.844 371.3 513.691 362.979 519.246C361.857 519.998 360.668 520.706 359.389 520.809C356.575 521.035 354.222 518.385 352.348 515.838C351.098 514.144 350.534 512.246 351.135 510.005C351.492 508.684 352.135 507.509 352.766 506.348C356.514 499.508 359.862 491.449 364.884 485.85C369.966 480.179 376.522 477.069 382.029 472.12C383.818 470.507 385.486 468.711 387.075 466.827C391.702 461.367 395.741 455.192 399.059 448.491C400.951 444.673 403.268 440.162 406.949 440.001C409.235 439.899 411.279 441.593 413.075 443.301C416.762 446.826 420.061 450.783 423.233 454.966C424.628 456.798 425.61 457.455 424.943 459.944C424.331 462.236 422.232 464.243 420.68 465.565Z" fill="#272030"/>
<path d="M685.166 396.429C687.416 396.101 689.636 395.473 691.904 395.371C694.906 395.24 697.884 396.042 700.795 396.94C702.027 397.32 703.276 397.721 704.55 397.678C705.823 397.634 707.145 397.086 707.922 395.875C708.188 395.459 708.389 394.94 708.322 394.422C708.213 393.561 707.448 393.079 706.763 392.794C704.731 391.955 702.572 391.663 700.486 391.057C697.496 390.195 694.652 388.714 691.735 387.56C688.811 386.4 685.718 385.567 682.674 386.064C680.017 386.495 677.555 387.903 675.141 389.298C674.189 389.845 673.219 390.4 672.424 391.239C671.648 392.057 670.599 393.546 671.49 394.597C672.327 395.575 670.532 395.137 671.642 395.386C674.698 396.079 682.079 396.875 685.166 396.429Z" fill="#EFA693"/>
<path d="M589.815 219.084C586.838 219.208 583.86 219.332 580.876 219.456C579.038 219.529 577.182 219.602 575.369 219.23C573.556 218.857 571.76 217.996 570.45 216.427C573.78 212.813 577.467 209.528 581.701 207.776C585.94 206.017 590.804 205.944 594.74 208.521C596.183 209.463 597.457 210.726 598.7 212.01C600.683 214.061 602.63 216.215 604.159 218.777C605.159 220.463 605.972 222.296 606.785 224.128C607.337 225.376 607.888 226.639 608.21 227.997C608.598 229.639 608.628 231.369 608.653 233.077C608.683 235.004 608.707 236.975 608.246 238.822C607.81 240.559 606.967 242.107 606.111 243.611C605.481 244.727 604.826 245.844 603.977 246.728C603.152 247.582 602.169 248.18 601.205 248.771C600.471 249.217 599.725 249.669 598.919 249.808C598.124 249.947 596.717 250.363 595.971 250.275C595.067 250.166 594.649 249.071 594.152 248.202C592.987 246.151 592.011 243.954 591.222 241.654C589.67 237.099 588.881 232.157 588.936 227.23C588.942 226.471 589.233 219.106 589.815 219.084Z" fill="#272030"/>
<path d="M541.679 265.188C538.04 271.43 532.042 275.897 525.71 275.875C518.578 275.853 512.295 270.473 506.764 265.05C505.981 264.291 505.023 263.466 504.065 263.831C503.549 264.02 503.167 264.524 502.816 265.013C497.181 272.904 494.483 283.73 487.757 290.27C487.387 290.635 486.98 291.029 486.902 291.591C486.744 292.708 487.86 293.358 488.721 293.796C491.765 295.351 493.846 298.738 495.768 301.972C503.834 315.534 511.895 329.097 519.955 342.66C520.47 343.521 521.022 344.419 521.829 344.835C522.896 345.39 524.115 344.959 525.231 344.565C528.567 343.397 531.993 342.616 535.45 342.244C540.757 341.674 546.676 341.813 550.618 337.492C554.039 333.747 554.912 327.725 557.453 323.075C559.837 318.717 563.585 315.731 566.272 311.644C570.614 305.015 571.76 296.227 572.755 287.869C573.058 285.299 573.343 282.525 572.349 280.218C572.209 279.89 572.027 279.562 571.748 279.408C570.917 278.956 570.238 280.306 569.989 281.372C567.824 290.606 564.155 299.322 559.255 306.884C557.053 310.286 554.1 313.724 550.521 313.52C547.895 313.374 545.579 311.176 544.208 308.476C542.837 305.767 542.267 302.599 541.824 299.475C541.309 295.862 540.933 292.19 541.23 288.547C542.328 275.05 552.42 263.969 552.025 250.414C551.995 249.414 551.892 248.363 551.407 247.545C550.94 246.757 548.065 244.472 547.24 244.822C546.294 245.224 546.44 250.012 546.252 251.334C545.542 256.268 544.081 261.079 541.679 265.188Z" fill="#272030"/>
<path d="M580.239 235.479C581.44 235.457 582.465 236.187 583.532 236.968C585.885 238.669 587.99 240.486 589.985 242.552C589.306 243.143 588.414 243.603 587.65 244.1C586.358 244.779 585.164 245.005 583.781 244.538C582.228 244.092 580.858 243.078 579.566 241.859C578.917 241.253 578.389 240.589 577.746 239.975C577.267 239.457 576.539 238.858 576.582 237.953C576.958 236.187 579.038 235.406 580.239 235.479Z" fill="white"/>
<path d="M589.694 241.574C587.959 239.786 586.28 238.143 584.266 236.625C582.683 235.479 580.87 234.639 578.905 235.165C578.371 235.347 578.626 236.377 579.111 236.15C580.955 235.683 582.568 236.683 584.114 237.88C585.831 239.275 587.426 240.822 588.984 242.319C589.458 242.735 590.131 242.048 589.694 241.574Z" fill="#272030"/>
<path d="M581.343 240.107C581.949 239.348 582.089 237.946 581.652 237.026C581.561 236.829 581.428 236.588 581.337 236.398C581.07 236.012 580.73 235.734 580.348 235.61C579.347 235.274 578.219 235.537 577.637 236.661C577.067 237.764 577.249 239.326 578.019 240.224C578.905 241.267 580.5 241.151 581.343 240.107Z" fill="#272030"/>
<path d="M580.33 238.508C580.445 238.348 580.542 238.165 580.615 237.968C580.688 237.764 580.682 237.559 580.676 237.362C580.664 237.165 580.615 236.917 580.524 236.727C580.476 236.574 580.385 236.479 580.342 236.333C580.203 236.092 579.99 235.961 579.742 235.873C579.25 235.756 578.771 235.785 578.365 236.172C578.013 236.515 577.843 237.004 577.868 237.537C577.892 238.209 578.244 238.844 578.777 239.063C579.372 239.304 579.954 239.019 580.33 238.508Z" fill="#272030"/>
<path d="M572.919 228.712C572.81 227.267 572.1 226.121 571.342 224.916C570.572 223.682 569.765 222.529 568.946 221.42C567.764 223.04 566.569 224.646 565.417 226.296C565.975 227.726 566.775 229.011 567.727 230.194C568.291 230.902 568.898 231.464 569.468 232.172C569.947 232.69 570.523 233.508 571.257 233.362C572.682 232.719 573.107 230.143 572.919 228.712Z" fill="white"/>
<path d="M571.548 224.004C570.826 222.894 570.068 221.887 569.304 220.916C569.086 221.215 568.868 221.522 568.649 221.821C569.292 222.631 569.923 223.449 570.529 224.325C571.682 226.048 572.676 227.88 572.482 230.135C572.343 230.741 573.222 230.938 573.319 230.281C573.543 227.872 572.664 225.785 571.548 224.004Z" fill="#272030"/>
<path d="M570.553 224.704C570.414 224.266 570.147 223.88 569.801 223.602C569.632 223.515 569.419 223.383 569.25 223.288C568.734 223.018 568.091 223.069 567.539 223.339C567.127 223.894 566.721 224.464 566.314 225.026C566.078 226.069 566.296 227.289 566.993 227.982C567.818 228.807 569.122 228.858 569.971 228.062C570.839 227.252 570.936 225.865 570.553 224.704Z" fill="#272030"/>
<path d="M567.036 225.551C567.272 226.172 567.83 226.522 568.388 226.486C568.831 226.456 569.219 226.201 569.462 225.741C569.741 225.215 569.71 224.639 569.565 224.069C569.468 223.77 569.334 223.529 569.122 223.398C568.995 223.354 568.91 223.259 568.783 223.215C568.613 223.128 568.407 223.091 568.243 223.106C568.073 223.113 567.909 223.128 567.752 223.237C567.594 223.339 567.454 223.478 567.333 223.639C566.945 224.142 566.775 224.865 567.036 225.551Z" fill="#272030"/>
<path d="M575.86 231.99C575.63 231.617 575.108 231.479 574.799 231.807C572.476 234.252 570.153 236.698 567.83 239.143C567.521 239.472 567.418 240.005 567.679 240.421C567.909 240.793 568.425 240.932 568.734 240.603C571.063 238.158 573.386 235.712 575.709 233.267C576.018 232.946 576.121 232.406 575.86 231.99Z" fill="#272030"/>
<path d="M590.67 233.756C588.329 231.771 585.891 229.88 582.968 229.566C582.38 229.5 581.81 230.238 581.834 230.931C581.864 231.727 582.337 232.23 582.968 232.303C583.053 232.311 583.132 232.318 583.217 232.333C583.114 232.311 583.132 232.318 583.271 232.34C583.435 232.376 583.593 232.406 583.751 232.449C584.066 232.537 584.375 232.639 584.678 232.763C584.836 232.822 584.988 232.887 585.133 232.96C585.194 232.99 585.255 233.019 585.315 233.048C585.327 233.055 585.364 233.07 585.424 233.106C585.703 233.26 585.976 233.42 586.249 233.595C587.395 234.325 588.469 235.216 589.524 236.121C590.015 236.53 590.81 236.245 591.083 235.625C591.386 234.924 591.192 234.194 590.67 233.756Z" fill="#272030"/>
<path d="M576.594 223.909C575.606 220.989 574.544 217.908 572.47 215.85C572.009 215.397 571.306 215.273 570.863 215.85C570.481 216.354 570.372 217.303 570.863 217.784C571.324 218.244 571.73 218.755 572.106 219.303C572.118 219.325 572.118 219.325 572.124 219.332C572.167 219.405 572.209 219.478 572.252 219.551C572.343 219.697 572.421 219.843 572.506 219.989C572.67 220.288 572.822 220.595 572.967 220.909C573.258 221.522 573.513 222.157 573.756 222.799C573.816 222.96 573.877 223.128 573.938 223.296C573.974 223.39 574.004 223.478 574.041 223.573C574.041 223.58 574.059 223.639 574.077 223.682C574.095 223.734 574.138 223.865 574.138 223.858C574.162 223.931 574.192 224.004 574.217 224.084C574.277 224.266 574.344 224.449 574.405 224.639C574.629 225.296 575.169 225.836 575.8 225.595C576.327 225.391 576.837 224.617 576.594 223.909Z" fill="#272030"/>
<path d="M595.177 253.407C594.97 253.18 594.673 252.969 594.376 253.005C593.667 253.093 592.957 253.173 592.247 253.268C591.999 253.297 591.774 253.334 591.55 253.48C591.265 253.677 591.071 254.02 590.974 254.392C590.901 254.67 590.919 254.991 590.919 255.283C590.925 255.706 590.925 256.13 590.925 256.553C590.925 256.911 591.053 257.276 591.259 257.524C591.453 257.757 591.78 257.94 592.059 257.925C592.672 257.889 593.2 257.319 593.2 256.553C593.194 256.334 593.194 256.108 593.194 255.889C593.588 255.845 593.982 255.794 594.376 255.743C594.685 255.706 594.952 255.619 595.177 255.341C595.377 255.108 595.522 254.713 595.51 254.378C595.498 254.02 595.401 253.655 595.177 253.407Z" fill="#272030"/>
<path d="M557.557 251.713C560.565 256.619 565.028 259.699 569.85 261.568C570.353 261.758 570.978 262.21 570.814 262.809C570.735 263.101 570.493 263.276 570.256 263.4C569.389 263.853 568.419 263.955 567.473 263.955C564.652 263.955 561.844 263.028 559.412 261.312C558.321 260.539 557.308 259.619 556.338 258.633C555.634 257.925 554.949 257.173 554.36 256.327C553.117 254.516 552.232 251.976 552.056 249.64C552.056 249.64 553.76 250.647 554.997 250.494C555.337 250.45 556.61 250.005 556.61 250.005C556.926 250.253 557.308 251.312 557.557 251.713Z" fill="#272030"/>
<path d="M571.524 250.48C571.627 250.37 571.675 250.202 571.615 249.991C571.524 249.655 571.063 249.531 570.832 249.421C570.177 249.115 570.014 248.56 569.638 247.859C569.274 247.166 568.922 246.465 568.54 245.779C567.8 244.457 566.939 243.173 565.762 242.384C564.98 241.881 561.772 240.537 561.208 241.72C561.062 241.961 561.214 242.472 561.317 242.559C561.541 242.946 562.16 243.589 562.451 243.749C563.342 244.45 563.961 245.085 564.725 245.866C565.617 246.647 566.132 247.859 566.975 248.713C568.012 249.764 569.522 250.655 570.899 250.713C571.111 250.72 571.378 250.655 571.524 250.48Z" fill="#272030"/>
<path d="M566.951 249.509C564.931 248.377 563.179 246.545 562.123 244.209C561.832 243.669 561.226 244.158 561.396 244.771C562.651 247.29 564.452 249.166 566.563 250.282C567.036 250.516 567.418 249.64 566.951 249.509Z" fill="#272030"/>
<path d="M514.496 417.007C508.189 406.153 501.378 395.721 494.106 385.786C493.458 384.903 492.39 386.203 493.033 387.079C500.226 396.897 506.952 407.196 513.186 417.927C513.744 418.883 515.054 417.971 514.496 417.007Z" fill="#272030"/>
<path d="M491.026 379.699C484.682 368.866 477.016 359.267 468.277 351.215C467.5 350.507 466.748 352.091 467.512 352.792C476.033 360.646 483.536 370.063 489.722 380.618C490.274 381.575 491.59 380.662 491.026 379.699Z" fill="#272030"/>
<path d="M507.783 369.793C507.522 369.479 506.97 369.406 506.715 369.793C504.896 372.574 503.07 375.348 501.251 378.129C500.996 378.516 500.942 379.042 501.251 379.421C501.518 379.735 502.07 379.808 502.324 379.421C504.144 376.64 505.963 373.866 507.783 371.085C508.037 370.698 508.098 370.172 507.783 369.793Z" fill="#272030"/>
<path d="M517.996 488.821C515.515 486.201 513.029 483.566 510.542 480.952C508.298 478.587 505.994 476.288 503.337 474.624C500.638 472.923 497.824 471.536 495.168 469.718C492.487 467.886 489.922 465.813 487.478 463.55C486.707 462.827 485.955 464.411 486.714 465.119C489.067 467.309 491.529 469.309 494.107 471.091C496.751 472.923 499.547 474.346 502.27 476.003C504.987 477.668 507.316 479.967 509.602 482.376C512.046 484.953 514.484 487.537 516.928 490.113C517.656 490.887 518.736 489.603 517.996 488.821Z" fill="#272030"/>
<path d="M606.488 413.81C603.91 408.269 599.592 404.437 595.407 400.78C594.619 400.094 593.861 401.671 594.643 402.357C598.615 405.831 602.733 409.474 605.184 414.73C605.663 415.752 606.967 414.832 606.488 413.81Z" fill="#272030"/>
<path d="M513.29 334.973C510.033 338.39 506.691 341.886 502.652 343.886C502.203 344.105 502.403 344.989 502.852 344.762C507.025 342.704 510.463 339.149 513.829 335.616C514.193 335.236 513.659 334.587 513.29 334.973Z" fill="#272030"/>
<path d="M537.112 244.866C536.633 246.611 536.136 248.385 535.287 249.932C534.401 251.538 533.103 252.604 531.702 253.48C528.718 255.341 525.401 256.37 522.047 256.524C521.562 256.546 521.556 257.458 522.047 257.436C525.595 257.276 529.094 256.173 532.236 254.166C533.655 253.268 534.935 252.151 535.851 250.545C536.791 248.903 537.324 246.983 537.84 245.107C537.998 244.545 537.264 244.311 537.112 244.866Z" fill="#272030"/>
<path d="M497.151 229.04C494.58 230.697 491.723 232.705 490.789 236.267C490.643 236.829 491.377 237.07 491.523 236.508C492.39 233.201 495.156 231.362 497.533 229.829C497.964 229.551 497.582 228.763 497.151 229.04Z" fill="#272030"/>
<path d="M478.077 250.961C476.713 248.64 475.275 246.384 473.759 244.202C473.45 243.749 472.916 244.399 473.225 244.844C474.699 246.968 476.1 249.166 477.422 251.421C477.701 251.903 478.356 251.443 478.077 250.961Z" fill="#272030"/>
<path d="M455.565 329.849C454.861 332.645 453.885 335.331 452.635 337.835C451.538 340.039 450.112 342.2 450.106 344.894C450.1 345.478 450.858 345.485 450.864 344.894C450.87 342.2 452.484 339.988 453.551 337.762C454.703 335.346 455.619 332.762 456.292 330.097C456.438 329.528 455.71 329.294 455.565 329.849Z" fill="#272030"/>
<path d="M469.52 313.454C469.423 316.607 468.913 319.702 468.022 322.666C467.852 323.221 468.586 323.462 468.75 322.907C469.665 319.878 470.175 316.68 470.278 313.454C470.296 312.87 469.538 312.87 469.52 313.454Z" fill="#272030"/>
<path d="M586.455 315.673C583.229 315.892 580.482 318.045 577.607 319.593C574.295 321.381 570.717 321.768 567.133 321.659C566.648 321.644 566.648 322.557 567.133 322.571C570.638 322.673 574.174 322.33 577.437 320.673C580.378 319.17 583.174 316.804 586.455 316.585C586.941 316.549 586.947 315.637 586.455 315.673Z" fill="#272030"/>
<path d="M689.309 447.257C689.23 447.031 689.06 446.87 688.842 446.936C688.666 446.994 688.502 447.272 688.581 447.498C689.036 448.848 688.969 450.403 688.326 451.644C687.756 452.746 686.749 453.527 685.682 453.703C685.482 453.732 685.306 453.885 685.306 454.155C685.306 454.374 685.482 454.644 685.682 454.615C687.004 454.403 688.199 453.542 688.933 452.192C689.715 450.754 689.848 448.841 689.309 447.257Z" fill="#272030"/>
<path d="M420.85 483.171C419.619 481.449 419.267 478.981 419.885 476.85C420.049 476.295 419.315 476.054 419.158 476.609C418.448 479.054 418.915 481.85 420.31 483.814C420.631 484.259 421.165 483.617 420.85 483.171Z" fill="#272030"/>
<path d="M516.443 316.564C511.561 313.899 507.819 308.614 506.436 302.373C506.309 301.804 505.581 302.044 505.708 302.614C507.14 309.067 511.015 314.6 516.061 317.352C516.504 317.593 516.886 316.812 516.443 316.564Z" fill="#272030"/>
<path d="M534.522 337.682C531.63 336.798 529.07 334.616 527.433 331.601C527.166 331.112 526.511 331.564 526.778 332.061C528.524 335.265 531.235 337.616 534.322 338.565C534.795 338.711 534.995 337.828 534.522 337.682Z" fill="#272030"/>
<path d="M541.885 310.103C539.004 315.308 534.589 319.199 529.58 320.87C526.796 321.805 523.951 322.002 521.38 323.732C518.699 325.542 516.201 327.842 513.653 329.915C512.853 330.564 513.605 332.148 514.418 331.484C517.007 329.382 519.542 327.017 522.29 325.214C525.013 323.418 528.191 323.396 531.09 322.221C536.033 320.221 540.302 316.242 543.189 311.023C543.735 310.045 542.425 309.132 541.885 310.103Z" fill="#5D32A5"/>
<path d="M501.839 461.287C497.297 451.943 490.043 445.06 483.214 438.023C473.237 427.752 463.807 416.671 455.358 404.576C452.32 400.225 449.397 395.714 447.183 390.692C443.35 381.998 441.797 371.866 442.798 362.084C442.695 363.07 444.739 365.939 445.2 366.822C446.164 368.661 447.159 370.486 448.178 372.289C450.131 375.749 452.18 379.129 454.303 382.436C458.561 389.057 463.146 395.356 467.973 401.371C472.825 407.401 477.92 413.138 483.202 418.613C487.951 423.533 492.96 428.796 496.181 435.512C499.953 443.359 500.462 452.557 501.839 461.287Z" fill="white"/>
<path d="M487.666 488.778C482.735 486.274 477.186 486.602 471.837 486.595C466.487 486.588 460.793 486.069 456.474 482.266C453.551 479.69 451.556 475.835 450.222 471.777C452.896 475.295 457.687 474.529 461.648 474.434C466.948 474.302 472.322 474.908 477.313 477.047C482.31 479.193 484.712 483.471 487.666 488.778Z" fill="white"/>
<path d="M568.103 268.349C564.477 273.109 561.141 278.189 558.139 283.54C557.866 284.029 558.521 284.489 558.794 284C561.76 278.715 565.053 273.7 568.643 268.999C568.971 268.568 568.437 267.918 568.103 268.349Z" fill="#272030"/>
<path d="M412.456 444.52C408.004 447.819 404.268 452.272 400.866 457.009C397.403 461.842 394.249 466.973 390.756 471.777C388.87 474.375 386.899 476.974 384.618 479.084C382.283 481.244 379.639 482.887 377.159 484.77C372.537 488.289 368.116 492.216 364.065 496.639C360.032 501.034 356.362 505.939 353.281 511.348C352.899 512.027 352.523 512.713 352.159 513.407C351.893 513.903 352.548 514.356 352.814 513.867C355.738 508.341 359.274 503.333 363.216 498.829C367.17 494.296 371.518 490.281 376.079 486.69C378.487 484.792 381.016 483.128 383.418 481.222C385.886 479.259 387.99 476.806 389.98 474.186C393.528 469.528 396.669 464.455 400.029 459.608C403.347 454.812 406.913 450.162 411.2 446.593C411.734 446.148 412.28 445.724 412.838 445.308C413.25 445.001 412.868 444.213 412.456 444.52Z" fill="#5D32A5"/>
<path d="M575.727 251.494C575.921 253.399 577.085 255.1 578.595 255.699C579.505 256.064 580.512 256.035 581.434 255.721C582.604 255.319 583.714 254.356 584.072 252.954C584.733 250.377 583.678 246.494 581.288 245.895C578.377 245.165 575.333 247.691 575.727 251.494Z" fill="#272030"/>
<path d="M557.199 233.566C557.393 235.464 558.557 237.172 560.067 237.771C560.977 238.129 561.984 238.107 562.906 237.785C564.07 237.384 565.186 236.42 565.544 235.026C566.199 232.449 565.15 228.566 562.754 227.967C559.843 227.237 556.805 229.763 557.199 233.566Z" fill="#272030"/>
<path d="M693.293 465.368C694.209 466.236 695.398 466.528 696.532 466.835C701.117 468.076 705.568 470.01 709.753 472.587C711.924 473.923 714.344 475.47 716.655 474.572C719.378 473.521 720.518 469.631 720.791 466.2C721.434 458.024 719.336 449.651 720.828 441.636C721.628 437.337 723.423 433.417 724.612 429.249C728.239 416.518 726.013 402.583 723.757 389.4C723.417 387.414 723.047 385.341 722.01 383.743C720.973 382.144 719.057 381.173 717.553 382.093C716.37 382.823 715.794 384.436 715.321 385.94C711.445 398.356 708.637 411.839 701.159 421.584C699.449 423.81 697.52 425.818 696.059 428.292C694.597 430.767 693.633 433.884 694.215 436.84C694.894 440.293 697.429 442.658 699.564 445.104C701.693 447.556 703.682 451.009 702.821 454.403C701.96 457.812 698.691 459.338 695.78 459.973C693.596 460.455 690.461 462.667 693.293 465.368Z" fill="#272030"/>
<path d="M719.724 384.093C719.572 383.538 718.844 383.779 718.996 384.341C722.083 395.809 720.166 408.021 717.401 419.285C716.697 422.161 715.933 425.022 715.175 427.884C714.429 430.687 713.604 433.504 713.271 436.432C712.931 439.446 713.101 442.49 713.168 445.52C713.228 448.228 713.253 450.943 713.156 453.644C712.937 459.732 712.088 465.886 709.62 471.28C709.389 471.791 710.038 472.251 710.275 471.74C712.458 466.966 713.422 461.601 713.78 456.214C713.968 453.447 713.999 450.666 713.968 447.892C713.932 444.958 713.756 442.009 713.847 439.074C713.944 435.935 714.623 432.986 715.406 430.015C716.176 427.081 716.97 424.154 717.71 421.204C719.178 415.416 720.458 409.532 721.028 403.51C721.64 397.021 721.41 390.341 719.724 384.093Z" fill="#5D32A5"/>
<path d="M703.943 405.372C703.767 404.145 703.215 402.875 702.093 402.685C700.838 402.481 699.722 403.809 699.17 405.036C697.824 408.021 698.218 412.058 698.551 415.285C698.915 418.788 699.558 422.234 700.031 425.716C698.721 422.876 697.229 420.168 695.543 417.628C694.47 416.007 693.324 414.467 692.111 413C691.013 411.671 689.848 410.226 688.46 409.335C687.325 408.605 685.664 408.08 684.693 409.452C683.778 410.759 684.317 413.058 684.76 414.474C685.949 418.27 688.538 420.942 691.061 423.453C693.991 426.373 697.047 429.132 700.644 430.738C701.141 430.964 701.475 430.541 701.541 430.044C701.772 429.986 701.978 429.796 702.045 429.424C702.803 425.409 703.355 421.343 703.682 417.248C703.852 415.131 703.967 413.007 704.016 410.883C704.058 409.087 704.198 407.153 703.943 405.372ZM693.712 423.708C691.486 421.591 689.036 419.394 687.398 416.577C686.61 415.226 685.991 413.708 685.785 412.065C685.676 411.146 685.718 410.284 686.652 410.438C687.338 410.554 687.993 411.08 688.538 411.554C690.788 413.533 692.741 416.306 694.47 418.912C696.362 421.774 697.993 424.876 699.388 428.117C697.357 426.942 695.483 425.38 693.712 423.708ZM702.53 408.897C702.518 411.102 702.439 413.299 702.299 415.496C702.105 418.46 701.778 421.416 701.347 424.343C700.971 421.737 700.535 419.139 700.207 416.518C699.94 414.357 699.764 412.175 699.807 410C699.843 408.313 699.977 406.248 701.062 405.014C702.809 403.043 702.536 407.948 702.53 408.897Z" fill="#5D32A5"/>
<path d="M407.701 510.399C407.058 508.122 405.979 506.034 404.905 504.019C403.868 502.085 402.746 500.202 401.479 498.472C398.592 494.537 394.856 491.544 390.471 490.88C390.331 490.858 390.216 490.887 390.119 490.938C389.792 490.712 389.373 490.749 389.173 491.281C387.432 495.909 385.686 500.545 384.285 505.341C383.029 509.655 381.616 514.699 382.471 519.312C382.769 520.933 383.448 522.575 384.643 523.48C385.941 524.458 387.572 524.291 388.852 523.363C392.163 520.991 392.078 515.297 392.066 511.246C392.048 506.925 391.848 502.589 391.654 498.26C392.788 501.158 393.946 504.049 395.244 506.837C396.997 510.582 399.265 514.764 402.813 516.239C404.238 516.83 406.094 516.998 407.228 515.575C408.32 514.21 408.168 512.056 407.701 510.399ZM390.435 506.509C390.519 508.837 390.592 511.173 390.526 513.502C390.459 515.582 390.392 517.86 389.604 519.75C388.967 521.283 387.536 522.743 386.013 522.232C384.685 521.787 384.103 520.013 383.879 518.524C383.236 514.326 384.606 509.728 385.746 505.822C386.941 501.713 388.403 497.727 389.895 493.763C389.913 493.814 389.931 493.858 389.949 493.909C390.113 498.107 390.277 502.311 390.435 506.509ZM406.476 513.516C406.003 515.706 403.474 514.735 402.34 514.013C399.501 512.195 397.706 508.472 396.22 505.187C394.498 501.37 392.988 497.399 391.447 493.471C391.441 493.355 391.435 493.238 391.435 493.128C391.429 493.048 391.417 492.975 391.405 492.902C397.743 494.449 402.194 501.552 405.148 508.027C405.845 509.552 406.864 511.691 406.476 513.516Z" fill="#5D32A5"/>
</svg>
