<svg width="345" height="264" viewBox="0 0 345 264" fill="none" xmlns="http://www.w3.org/2000/svg">
<path d="M102.185 238.634C99.5541 235.906 97.2901 232.87 95.4357 229.548C93.6029 226.248 91.4466 222.156 91.8779 218.24C91.7701 218.35 91.6623 218.46 91.5544 218.57C91.6407 218.614 91.7269 218.636 91.8132 218.68C92.0504 219.032 92.611 218.702 92.3738 218.35C92.1582 218.02 91.9426 217.888 91.5544 217.91C91.3604 217.91 91.2526 218.064 91.231 218.24C90.7998 222.156 92.8913 226.226 94.7026 229.548C96.6001 233.046 98.9719 236.258 101.732 239.096C102.012 239.404 102.465 238.942 102.185 238.634Z" fill="#E8E8E8"/>
<path d="M95.1769 222.882C91.6622 217.558 89.1394 211.464 88.1044 205.106C87.9535 204.204 87.8672 203.302 87.975 202.4C87.9966 202.158 88.0397 201.938 88.0828 201.696C88.0613 201.344 88.2122 201.212 88.5572 201.322C89.1825 201.278 89.4413 201.96 89.7863 202.422C90.7135 203.676 91.5975 204.974 92.46 206.294C94.2282 209.044 95.7807 211.926 97.1607 214.896C97.3332 215.27 97.8938 214.94 97.7213 214.566C96.0825 211.002 94.1635 207.57 91.9425 204.336C91.3603 203.478 90.7566 202.62 90.1313 201.784C89.7647 201.3 89.3982 200.662 88.816 200.442C87.6732 200.024 87.436 201.52 87.3282 202.334C87.1341 204.116 87.5869 205.986 87.975 207.702C88.4063 209.572 88.9454 211.42 89.6138 213.224C90.886 216.744 92.5894 220.088 94.6378 223.19C94.8319 223.586 95.3925 223.256 95.1769 222.882Z" fill="#E8E8E8"/>
<path d="M106.627 234.52C102.249 227.876 97.8292 220.616 97.6998 212.366C97.5273 212.454 97.3764 212.564 97.2039 212.652C97.9585 213.136 98.5407 213.73 99.0367 214.5C99.2307 214.808 99.7482 214.61 99.6189 214.236C98.6701 211.442 97.786 208.604 96.9882 205.744C96.6001 204.38 96.2551 203.016 95.9101 201.652C95.5867 200.332 94.8535 198.44 95.9317 197.296C95.7807 197.296 95.6298 197.296 95.4789 197.296C97.937 200.508 99.511 204.248 101.085 207.966C102.81 212.08 104.557 216.216 106.282 220.33C106.433 220.66 107.015 220.418 106.864 220.066C106.648 219.692 106.713 219.318 107.058 218.922C106.885 218.9 106.713 218.878 106.54 218.856C109.257 222.596 111.414 226.732 112.88 231.154C113.009 231.55 113.634 231.374 113.505 230.978C111.996 226.512 109.861 222.31 107.101 218.526C106.972 218.372 106.756 218.284 106.584 218.46C106.109 218.966 105.958 219.582 106.217 220.242C106.411 220.154 106.605 220.066 106.799 219.978C105.009 215.732 103.241 211.508 101.452 207.262C99.9207 203.61 98.3035 199.98 95.8885 196.812C95.7807 196.68 95.5435 196.702 95.4357 196.812C94.7026 197.604 94.6164 198.572 94.7457 199.606C94.9614 201.168 95.4573 202.752 95.867 204.27C96.7726 207.68 97.8076 211.046 98.9504 214.39C99.1445 214.302 99.3385 214.214 99.5326 214.126C98.9935 213.268 98.3251 212.586 97.4626 212.036C97.247 211.904 96.9667 212.08 96.9667 212.322C97.096 220.704 101.516 228.074 105.98 234.806C106.303 235.202 106.864 234.872 106.627 234.52Z" fill="#E8E8E8"/>
<path d="M116.438 231.33C115.575 229.57 114.885 227.744 114.368 225.852C114.13 224.95 113.915 224.048 113.764 223.124C113.678 222.64 113.591 222.134 113.548 221.628C113.505 221.364 113.483 221.1 113.462 220.836C113.354 220.44 113.527 220.396 114.001 220.704C114.713 220.858 114.799 221.188 115.165 221.782C115.359 222.112 115.532 222.442 115.726 222.772C116.179 223.63 116.588 224.532 116.955 225.456C117.623 227.106 118.184 228.8 118.745 230.494C118.874 230.89 119.499 230.714 119.37 230.318C118.615 228.008 117.839 225.676 116.783 223.476C116.287 222.42 115.726 221.32 115.014 220.374C114.648 219.868 114.109 219.384 113.44 219.604C112.858 219.802 112.772 220.308 112.793 220.858C112.837 222.068 113.095 223.3 113.354 224.488C113.893 226.974 114.756 229.394 115.877 231.682C116.049 232.056 116.61 231.726 116.438 231.33Z" fill="#E8E8E8"/>
<path d="M121.009 230.318C118.723 223.652 117.968 216.524 117.753 209.484C117.71 207.768 117.731 206.03 117.925 204.314C117.968 203.94 117.925 203.082 118.184 202.796C118.27 202.686 119.003 202.356 119.198 202.466C119.305 202.532 119.37 202.906 119.413 203.016C119.672 203.874 119.844 204.798 120.038 205.678C120.879 209.264 121.677 212.872 122.453 216.48C123.359 220.66 124.222 224.818 125.041 229.02C125.127 229.438 125.753 229.262 125.666 228.844C123.984 220.264 122.216 211.684 120.125 203.192C119.931 202.4 119.435 201.08 118.357 201.52C117.235 201.982 117.3 203.962 117.214 204.93C116.826 209.044 117.3 213.202 117.667 217.294C118.055 221.804 118.896 226.204 120.383 230.494C120.534 230.89 121.16 230.714 121.009 230.318Z" fill="#E8E8E8"/>
<path d="M232.918 245.784C231.344 242.33 230.417 238.612 230.266 234.806C230.18 232.936 230.266 231.066 230.546 229.218C230.654 228.47 230.697 227.282 231.064 226.622C231.56 225.72 231.905 226.358 232.163 226.908C232.444 227.48 232.703 228.074 232.94 228.69C233.091 229.086 233.716 228.91 233.565 228.514C233.263 227.766 232.25 224.224 230.913 225.412C230.266 225.984 230.223 227.326 230.072 228.096C229.856 229.306 229.705 230.516 229.641 231.748C229.36 236.676 230.309 241.626 232.358 246.092C232.53 246.488 233.091 246.158 232.918 245.784Z" fill="#E8E8E8"/>
<path d="M234.6 234.058C234.341 229.856 234.449 225.654 234.945 221.474C235.398 217.646 236.066 213.708 238.223 210.452C238.029 210.452 237.856 210.452 237.662 210.452C238.201 211.486 238.481 212.52 238.524 213.708C238.524 214.06 239.107 214.17 239.15 213.796C239.754 209.264 241.134 204.93 243.29 200.926C243.16 200.97 243.053 201.036 242.923 201.08C244.454 201.454 244.174 204.644 244.217 205.832C244.282 207.548 244.282 209.286 244.217 211.024C244.109 214.566 243.829 218.108 243.592 221.65C243.117 228.8 242.643 235.95 242.169 243.1C242.147 243.518 242.794 243.518 242.815 243.1C243.333 235.224 243.872 227.348 244.389 219.45C244.648 215.556 244.929 211.662 244.907 207.768C244.885 206.096 244.907 204.336 244.648 202.664C244.497 201.696 244.131 200.684 243.096 200.442C242.966 200.42 242.794 200.464 242.729 200.596C240.573 204.644 239.15 209.044 238.524 213.62C238.74 213.642 238.956 213.686 239.15 213.708C239.107 212.432 238.805 211.244 238.201 210.122C238.072 209.902 237.77 209.924 237.64 210.122C235.57 213.246 234.859 216.964 234.384 220.638C233.802 225.082 233.673 229.592 233.953 234.08C233.996 234.498 234.643 234.498 234.6 234.058Z" fill="#E8E8E8"/>
<path d="M243.592 227.986C243.85 227.04 244.217 226.138 244.734 225.302C245.058 224.752 245.252 224.246 245.92 224.246C246.395 224.092 246.654 224.334 246.675 224.928C246.718 225.258 246.761 225.588 246.783 225.94C246.934 227.81 246.977 229.724 246.955 231.594C246.891 235.554 246.459 239.492 245.662 243.386C245.575 243.804 246.201 243.98 246.287 243.562C247.365 238.326 247.796 232.958 247.538 227.612C247.473 226.468 247.732 223.344 245.899 223.344C245.187 223.344 244.734 224.114 244.389 224.642C243.743 225.61 243.29 226.688 242.988 227.788C242.859 228.206 243.462 228.382 243.592 227.986Z" fill="#E8E8E8"/>
<path d="M234.083 90.6401C237.727 85.9541 244.088 83.8641 249.759 85.2721C252.95 86.0641 255.257 88.1761 257.974 89.9361C260.691 91.7181 263.645 92.2461 266.814 91.5641C273.758 90.0241 279.558 83.2481 287.019 84.1941C290.296 84.6121 293.099 86.6141 295.989 88.0881C298.727 89.4961 301.509 90.3321 304.592 89.8921C308.624 89.3201 312.182 87.1861 316.042 85.9981C319.556 84.9201 323.718 84.4801 326.78 86.9661C327.103 87.2301 327.556 86.7681 327.233 86.5041C321.799 82.1041 314.791 85.8441 309.249 87.9341C305.519 89.3421 301.832 89.9361 298.059 88.3741C295.083 87.1201 292.452 85.1181 289.369 84.0841C282.059 81.6421 276.043 87.3401 269.682 89.9581C265.952 91.4981 262.114 91.7841 258.578 89.5841C255.882 87.8901 253.597 85.7341 250.492 84.8101C244.476 83.0501 237.533 85.1621 233.608 90.1781C233.349 90.5081 233.824 90.9701 234.083 90.6401Z" fill="#E8E8E8"/>
<path d="M235.333 74.822C238.309 72.314 242.47 71.522 246.136 72.754C249.78 73.964 252.173 77.418 255.796 78.716C259.44 80.036 263.558 79.288 267.181 78.232C269.078 77.66 270.933 76.934 272.723 76.054C274.555 75.152 276.259 73.986 278.135 73.15C282.253 71.302 286.997 72.05 290.145 75.438C290.425 75.746 290.9 75.284 290.598 74.976C288.183 72.38 284.603 71.06 281.11 71.544C279.278 71.808 277.596 72.6 276 73.502C273.952 74.624 271.968 75.79 269.79 76.626C265.693 78.232 260.669 79.596 256.335 78.188C252.389 76.912 249.888 73.106 245.856 71.962C242.061 70.884 237.921 71.808 234.88 74.338C234.557 74.624 235.01 75.086 235.333 74.822Z" fill="#E8E8E8"/>
<path d="M29.821 98.7361C30.015 95.4801 32.926 93.4341 35.8154 92.8181C39.3732 92.0481 42.8016 93.6101 45.8204 95.4141C48.9469 97.2841 51.8794 99.3741 55.2647 100.716C58.6285 102.036 62.2725 102.784 65.895 102.498C69.2588 102.234 72.3207 101.002 75.1022 99.0881C77.9054 97.1741 80.4066 94.8201 83.4469 93.2581C91.425 89.1661 98.8425 94.9741 105.829 98.3841C109.149 100.012 112.729 101.178 116.438 100.65C119.543 100.21 122.497 98.6481 124.049 95.7661C124.243 95.3921 123.683 95.0621 123.488 95.4361C121.85 98.4721 118.551 99.9241 115.252 100.1C111.413 100.298 107.813 98.7141 104.492 96.9321C98.0663 93.5221 91.0585 88.9461 83.7057 92.3781C80.6222 93.8081 78.0779 96.1621 75.3394 98.1201C72.2344 100.342 68.8491 101.75 65.0325 101.882C61.065 102.014 57.1191 100.958 53.5397 99.2201C50.1329 97.5701 47.1788 95.1721 43.7719 93.5221C40.7316 92.0481 37.4325 91.3661 34.1982 92.5981C31.546 93.6101 29.3466 95.7221 29.1741 98.7361C29.1525 99.1761 29.7994 99.1761 29.821 98.7361Z" fill="#E8E8E8"/>
<path d="M74.1319 85.932C76.6331 82.83 80.1263 80.058 84.18 79.706C87.9103 79.398 90.9075 81.62 93.7322 83.776C96.3628 85.778 99.1444 87.736 102.573 87.758C106.67 87.78 110.292 85.514 113.44 83.072C116.847 80.432 121.246 75.9 125.947 77.704C126.335 77.858 126.507 77.22 126.119 77.066C122.389 75.658 118.723 78.078 115.877 80.322C112.233 83.182 108.459 86.57 103.673 87.032C95.9316 87.802 91.8778 78.408 84.1585 79.024C79.9322 79.376 76.2666 82.192 73.6575 85.426C73.3988 85.8 73.8731 86.262 74.1319 85.932Z" fill="#E8E8E8"/>
<path d="M37.4541 164.802C39.0713 163.042 41.5725 163.086 43.6857 163.812C45.9497 164.604 47.8041 166.298 49.7878 167.574C53.6475 170.016 57.8738 170.038 62.0138 168.278C66.2832 166.452 69.5175 163.174 73.2263 160.468C75.0807 159.126 77.1075 157.894 79.35 157.432C81.6572 156.948 83.9428 157.41 86.056 158.378C90.1313 160.27 93.5597 163.592 98.1525 164.12C98.5622 164.164 98.5622 163.504 98.1525 163.46C93.7107 162.954 90.3038 159.654 86.3794 157.806C82.455 155.98 78.5738 156.376 74.8866 158.576C70.7897 161.04 67.5553 164.736 63.3075 166.958C61.1082 168.102 58.65 168.938 56.1488 168.938C53.4103 168.938 51.1247 167.75 48.9253 166.21C46.8769 164.78 44.8716 163.24 42.3703 162.822C40.4082 162.492 38.3813 162.844 37.0013 164.362C36.721 164.626 37.1738 165.11 37.4541 164.802Z" fill="#E8E8E8"/>
<path d="M235.743 156.09C236.929 157.762 238.934 158.312 240.875 158.004C243.613 157.564 245.683 155.452 247.796 153.824C252.389 150.26 258.34 147.994 263.666 151.316C267.504 153.714 270.415 157.828 274.922 159.016C280.14 160.38 284.992 157.08 289.261 154.506C292.064 152.812 294.932 151.36 298.123 150.612C301.595 149.798 305.196 149.776 308.667 150.48C309.077 150.568 309.249 149.93 308.84 149.842C303.428 148.742 297.757 149.38 292.776 151.8C287.967 154.11 283.439 158.422 277.919 158.664C272.809 158.906 269.423 154.814 265.693 151.932C263.882 150.546 261.898 149.38 259.613 149.05C257.176 148.698 254.718 149.226 252.475 150.216C249.5 151.514 247.193 153.626 244.583 155.54C242.276 157.212 238.352 158.686 236.282 155.76C236.066 155.408 235.506 155.738 235.743 156.09Z" fill="#E8E8E8"/>
<path d="M92.3953 62.7441C93.872 62.7441 95.0691 61.5227 95.0691 60.0161C95.0691 58.5095 93.872 57.2881 92.3953 57.2881C90.9186 57.2881 89.7216 58.5095 89.7216 60.0161C89.7216 61.5227 90.9186 62.7441 92.3953 62.7441Z" stroke="#EC615B" stroke-width="3" stroke-miterlimit="10"/>
<path d="M236.605 112.244C238.13 112.244 239.365 110.983 239.365 109.428C239.365 107.873 238.13 106.612 236.605 106.612C235.081 106.612 233.845 107.873 233.845 109.428C233.845 110.983 235.081 112.244 236.605 112.244Z" stroke="#EC615B" stroke-width="3" stroke-miterlimit="10"/>
<path d="M106.584 140.69C107.929 140.69 109.02 139.577 109.02 138.204C109.02 136.831 107.929 135.718 106.584 135.718C105.238 135.718 104.147 136.831 104.147 138.204C104.147 139.577 105.238 140.69 106.584 140.69Z" stroke="#5222D0" stroke-width="3" stroke-miterlimit="10"/>
<path d="M111.133 133.584C112.288 133.584 113.225 132.629 113.225 131.45C113.225 130.271 112.288 129.316 111.133 129.316C109.978 129.316 109.042 130.271 109.042 131.45C109.042 132.629 109.978 133.584 111.133 133.584Z" stroke="#5222D0" stroke-width="3" stroke-miterlimit="10"/>
<path d="M71.1132 181.39C71.5896 181.39 71.9757 180.996 71.9757 180.51C71.9757 180.024 71.5896 179.63 71.1132 179.63C70.6369 179.63 70.2507 180.024 70.2507 180.51C70.2507 180.996 70.6369 181.39 71.1132 181.39Z" fill="#EC615B"/>
<path d="M79.6089 183.59C80.4425 183.59 81.1182 182.901 81.1182 182.05C81.1182 181.199 80.4425 180.51 79.6089 180.51C78.7753 180.51 78.0995 181.199 78.0995 182.05C78.0995 182.901 78.7753 183.59 79.6089 183.59Z" fill="#EC615B"/>
<path d="M233.349 27.786C234.314 27.786 235.096 26.9882 235.096 26.004C235.096 25.0199 234.314 24.222 233.349 24.222C232.385 24.222 231.603 25.0199 231.603 26.004C231.603 26.9882 232.385 27.786 233.349 27.786Z" fill="#5222D0"/>
<path d="M60.7632 112.244C61.5253 112.244 62.1432 111.614 62.1432 110.836C62.1432 110.058 61.5253 109.428 60.7632 109.428C60.001 109.428 59.3832 110.058 59.3832 110.836C59.3832 111.614 60.001 112.244 60.7632 112.244Z" fill="#5222D0"/>
<path d="M270.89 191.158C271.723 191.158 272.399 190.469 272.399 189.618C272.399 188.767 271.723 188.078 270.89 188.078C270.056 188.078 269.38 188.767 269.38 189.618C269.38 190.469 270.056 191.158 270.89 191.158Z" fill="#5222D0"/>
<path d="M271.644 106.788C272.061 106.788 272.399 106.443 272.399 106.018C272.399 105.593 272.061 105.248 271.644 105.248C271.228 105.248 270.89 105.593 270.89 106.018C270.89 106.443 271.228 106.788 271.644 106.788Z" fill="#5222D0"/>
<path d="M259.656 49.4341C259.85 49.1041 260.152 48.5541 260.54 48.4001C261.726 47.8941 261.381 48.5981 261.769 48.9501C262.049 49.1921 262.222 49.4121 262.631 49.4561C263.753 49.5661 264.399 48.4001 265.262 47.9161C266.362 47.3221 266.599 49.3241 267.677 49.4781C268.496 49.6101 269.294 49.0821 269.919 48.5981C270.825 47.8941 271.709 47.2121 272.658 48.4001C272.874 48.6861 273.111 49.0381 273.456 49.1701C274.275 49.4561 274.318 48.6421 274.599 48.1581C275.547 46.5081 278.243 51.0181 279.45 48.6641C279.644 48.2901 279.084 47.9601 278.889 48.3341C278.113 49.8081 275.159 45.3641 274.038 47.7181C273.909 47.9821 273.93 48.4881 273.499 48.4001C273.326 48.3781 273.089 47.8941 273.003 47.7621C272.723 47.4321 272.442 47.1241 272.011 47.0141C270.954 46.7941 270.07 47.6741 269.294 48.2461C268.992 48.4661 268.669 48.6641 268.302 48.7521C267.461 48.9281 267.418 48.6421 267.073 47.9381C266.901 47.5861 266.814 47.3221 266.448 47.1461C265.693 46.7721 264.831 47.3441 264.27 47.8501C263.429 48.6201 263.084 48.9721 262.006 48.0701C261.726 47.8281 261.596 47.5861 261.165 47.5421C260.259 47.4321 259.526 48.4001 259.117 49.1041C258.879 49.4781 259.44 49.8081 259.656 49.4341Z" fill="#5222D0"/>
<path d="M45.5831 202.576C45.6478 202.136 46.0791 201.74 46.5319 201.762C46.8984 201.784 47.1572 202.224 47.3513 202.488C47.5238 202.752 47.6531 203.06 47.9334 203.236C48.5587 203.588 48.99 203.06 49.3566 202.576C49.68 202.158 50.0466 201.432 50.5641 201.19C51.5559 200.75 51.8794 201.806 52.3753 202.29C52.8281 202.73 53.6044 203.038 54.1219 202.532C54.4237 202.246 54.4237 201.784 54.7041 201.498C55.2 200.97 56.1487 201.058 56.5584 201.63C56.9466 202.158 57.0113 203.038 57.8306 203.104C58.6069 203.17 58.8441 202.312 59.2106 201.806C60.5044 199.98 62.3156 202.202 63.0272 203.346C63.2428 203.698 63.8034 203.368 63.5878 203.016C62.9194 201.96 62.1431 200.772 60.8494 200.53C59.8144 200.354 59.0597 200.794 58.5206 201.696C58.305 202.07 58.1541 202.686 57.4425 202.004C57.2484 201.828 57.2053 201.432 57.0328 201.212C56.8172 200.926 56.5584 200.728 56.2134 200.596C55.4588 200.332 54.4884 200.574 54.0356 201.278C53.9494 201.41 53.9063 201.674 53.82 201.784C53.1947 202.532 52.7634 201.762 52.3753 201.278C52.0734 200.904 51.7716 200.552 51.2972 200.442C50.3269 200.222 49.6584 201.058 49.1194 201.74C49.0116 201.894 48.8822 202.07 48.7744 202.224C48.3862 202.708 48.1059 202.708 47.955 202.246C47.8041 202.07 47.7394 201.806 47.5884 201.608C47.3512 201.322 47.1141 201.168 46.7475 201.102C45.9066 200.948 45.0872 201.52 44.9578 202.378C44.8931 202.818 45.5184 202.994 45.5831 202.576Z" fill="#EC615B"/>
<path d="M58.9088 198.33C59.1891 197.494 60.1163 197.472 60.6554 197.978C60.871 198.198 61.0004 198.528 61.3022 198.66C61.7982 198.902 62.1001 198.682 62.4019 198.286C62.7901 197.78 63.0488 197.076 63.8682 197.34C64.3641 197.494 64.5797 198.066 64.9894 198.33C65.4422 198.66 65.9597 198.616 66.391 198.264C67.2535 197.538 67.7494 196.614 69.0647 197.098C69.6901 197.34 70.0351 198.264 70.7466 198.264C71.4366 198.264 71.6091 197.494 71.9541 197.054C72.6657 196.196 74.2182 196.46 74.6063 197.516C74.7572 197.912 75.3826 197.736 75.2316 197.34C74.6926 195.91 72.7304 195.36 71.6091 196.438C71.221 196.812 71.0916 197.67 70.3801 197.318C69.9919 197.12 69.7763 196.68 69.3451 196.504C68.4826 196.152 67.4691 196.284 66.7576 196.878C66.5851 197.01 66.4772 197.23 66.3263 197.34C65.8951 197.692 65.4854 197.736 65.0326 197.428C64.666 197.164 64.5151 196.834 64.0623 196.702C63.1351 196.438 62.596 196.966 62.0354 197.582C61.3669 198.308 61.4316 197.67 60.9141 197.252C60.6769 197.054 60.3535 196.944 60.0516 196.944C59.2538 196.9 58.5854 197.384 58.3266 198.154C58.1541 198.55 58.7794 198.726 58.9088 198.33Z" fill="#EC615B"/>
<path d="M48.7097 145.112C48.6881 144.034 50.3484 145.376 50.5856 145.574C50.8444 145.772 51.1247 145.97 51.4697 146.036C52.1381 146.146 52.6772 145.772 53.1516 145.31C53.4103 145.068 53.6906 144.606 54.0141 144.452C54.8119 144.034 54.9628 144.694 55.3294 145.222C55.6528 145.684 56.1272 145.926 56.6878 145.772C57.2916 145.596 57.7444 145.046 58.2187 144.65C58.3481 144.54 58.5206 144.32 58.6931 144.298C59.3831 144.188 59.3184 144.76 59.4694 145.112C59.5772 145.332 59.685 145.552 59.9222 145.684C60.6769 146.146 61.2806 145.288 61.7981 144.87C62.8978 143.946 64.5581 144.276 65.2266 145.552C65.4206 145.926 65.9812 145.596 65.7872 145.222C65.3128 144.342 64.4503 143.77 63.4584 143.704C63.0056 143.66 62.5313 143.726 62.1216 143.902C61.6472 144.1 61.3022 144.716 60.8709 144.87C59.7928 145.266 59.9006 143.462 58.8225 143.572C58.0031 143.638 57.4856 144.562 56.8387 144.936C55.6744 145.618 55.6744 143.616 54.5531 143.55C53.7769 143.506 53.2594 144.298 52.7634 144.76C52.5909 144.936 52.3969 145.156 52.1597 145.266C51.4481 145.596 50.9522 145.002 50.4347 144.584C50.1112 144.342 49.8309 144.144 49.4212 144.1C48.7312 144.034 48.0197 144.342 48.0412 145.134C48.0844 145.53 48.7312 145.53 48.7097 145.112Z" fill="#5222D0"/>
<path d="M241.263 166.584C241.457 166.276 242.104 166.43 242.363 166.562C242.6 166.672 242.794 166.848 243.031 166.958C243.268 167.068 243.484 167.156 243.743 167.178C244.282 167.2 244.627 166.914 244.929 166.474C245.23 166.034 245.403 165.484 246.007 165.682C246.309 165.77 246.546 166.1 246.804 166.298C247.236 166.606 247.688 166.782 248.206 166.606C248.767 166.408 249.069 165.88 249.543 165.55C250.621 164.78 250.793 165.99 251.656 166.342C252.26 166.584 252.842 166.276 253.381 165.968C254.567 165.286 255.796 165.088 256.896 166.078C257.198 166.364 257.672 165.902 257.349 165.616C256.745 165.088 256.033 164.736 255.235 164.692C254.2 164.648 253.683 165.22 252.777 165.55C251.376 166.078 251.376 164.56 250.233 164.516C249.586 164.494 249.112 165.066 248.68 165.462C248.163 165.946 247.689 166.078 247.085 165.66C246.804 165.462 246.589 165.198 246.265 165.044C245.726 164.802 245.274 164.934 244.864 165.352C244.411 165.836 244.584 166.1 243.786 166.21C243.053 166.32 242.88 165.968 242.255 165.77C241.651 165.572 241.069 165.66 240.702 166.232C240.465 166.606 241.026 166.936 241.263 166.584Z" fill="#5222D0"/>
<path d="M134.076 26.62L135.758 236.434L223.452 245.696V24.222L134.076 26.62Z" fill="white" stroke="black" stroke-width="3" stroke-miterlimit="10"/>
<path d="M135.65 223.762C135.693 227.986 135.714 232.21 135.758 236.434L223.452 245.696C223.56 241.208 223.646 236.742 223.754 232.254C194.386 229.438 165.018 226.6 135.65 223.762Z" fill="white" stroke="black" stroke-width="3" stroke-miterlimit="10"/>
<path d="M176.036 237.6C177.989 237.6 179.572 235.985 179.572 233.992C179.572 231.999 177.989 230.384 176.036 230.384C174.083 230.384 172.5 231.999 172.5 233.992C172.5 235.985 174.083 237.6 176.036 237.6Z" fill="white" stroke="black" stroke-width="3" stroke-miterlimit="10"/>
<path d="M166.419 73.304C165.277 73.678 164.888 74.8 163.401 78.298C161.438 82.918 162.775 79.464 161.201 83.38C160.468 85.228 159.476 87.714 158.355 90.706C156.997 93.236 155.379 96.382 153.611 100.034C153.094 101.09 151.52 104.368 149.385 109.076C147.444 113.41 144.986 119.108 142.291 125.928C141.687 126.368 140.825 127.094 140.048 128.194C139.38 129.14 139.466 129.404 138.539 131.208C137.288 133.628 136.728 134.002 136.814 135.102C136.836 135.278 136.965 136.796 138.043 137.214C138.949 137.566 139.876 136.906 139.984 136.818C140.35 136.928 140.717 137.06 141.083 137.17C141.342 137.126 141.709 137.06 142.162 137.016C142.55 136.972 143.175 136.906 143.951 136.906C144.943 136.906 145.094 136.994 145.568 136.862C145.913 136.752 146.388 136.62 146.625 136.202C146.819 135.828 146.625 135.564 146.496 134.398C146.452 133.914 146.388 133.474 146.431 132.902C146.496 132.11 146.668 131.934 146.776 131.186C146.819 130.79 146.862 130.218 146.711 129.47C148.005 127.49 149.795 124.696 151.886 121.308C154.56 116.974 156.436 113.938 158.722 109.78C160.447 106.634 162.667 102.608 165.039 97.042C166.419 93.852 165.643 95.304 168.101 89.144C168.101 89.144 170.538 83.094 170.991 78.078C171.034 77.506 171.098 76.406 170.559 75.284C170.43 74.998 170.171 74.492 169.654 74.052C168.791 73.26 167.433 72.952 166.419 73.304Z" fill="white"/>
<path d="M118.594 158.994C118.551 160.138 118.464 161.942 118.184 164.098C117.257 171.094 115.101 176.44 113.548 180.224C113.009 181.544 112.211 183.392 111.111 185.592C111.521 185.79 112.146 186.142 112.75 186.758C113.203 187.22 113.483 187.682 113.677 188.056C114.497 188.078 115.402 188.056 116.373 187.968C117.968 187.836 119.391 187.572 120.621 187.264C121.332 188.276 122.044 189.288 122.755 190.322C123.251 191.004 123.726 191.708 124.221 192.39C126.033 192.412 128.599 192.39 131.661 192.148C134.313 191.95 136.426 191.774 138.841 191.224C141.105 190.696 144.49 189.64 148.328 187.308C148.307 186.56 148.285 185.526 148.285 184.294C148.285 183.348 148.307 180.092 148.716 175.582C148.997 172.546 149.493 168.586 150.42 163.878C149.363 163.262 148.328 162.668 147.272 162.052C147.336 161.942 148.113 160.864 147.811 160.446C147.552 160.094 146.56 160.27 145.374 160.996C144.9 160.732 144.426 160.446 143.93 160.182C143.692 159.434 143.477 158.686 143.24 157.938C142.334 158.048 140.997 158.202 139.358 158.378C135.995 158.752 134.291 158.95 133.731 158.994C131.165 159.148 129.095 158.994 126.335 158.796C124.653 158.686 123.186 158.51 120.987 158.686C119.995 158.774 119.154 158.906 118.594 158.994Z" fill="white"/>
<path d="M166.053 73.1939C161.999 78.8919 160.231 85.7559 157.406 92.0919C155.875 95.5459 153.827 98.7359 152.145 102.102C150.377 105.622 148.932 109.296 147.423 112.926C145.633 117.216 143.822 121.484 142.032 125.774C141.86 126.17 142.42 126.5 142.593 126.104C145.698 118.712 148.609 111.188 151.994 103.928C153.611 100.452 155.681 97.2179 157.342 93.7639C158.808 90.7059 159.951 87.5159 161.18 84.3479C162.646 80.5639 164.263 76.8239 166.613 73.5239C166.851 73.1939 166.29 72.8639 166.053 73.1939Z" fill="#161616"/>
<path d="M166.506 73.612C168.748 72.666 170.516 74.998 170.689 77.044C170.861 79.2 170.085 81.466 169.524 83.512C168.425 87.516 167.045 91.432 165.449 95.238C162.258 102.938 158.226 110.242 153.913 117.348C151.477 121.374 148.932 125.312 146.388 129.25C146.151 129.602 146.711 129.932 146.948 129.58C156.759 114.444 166.829 98.538 170.926 80.63C171.4 78.584 171.767 76.12 170.408 74.316C169.46 73.062 167.843 72.314 166.333 72.93C165.967 73.15 166.118 73.788 166.506 73.612Z" fill="#161616"/>
<path d="M141.407 129.536C142.075 130.394 141.407 131.274 141.817 132.176C141.967 132.506 142.42 132.902 142.485 133.254C142.097 134.266 141.666 134.486 141.17 133.914C141.04 133.782 140.911 133.65 140.782 133.518C140.501 133.21 140.027 133.672 140.329 133.98C140.825 134.508 141.428 135.08 142.205 134.992C142.744 134.948 143.218 134.574 143.304 134.024C143.477 132.946 142.356 132.242 142.356 131.186C142.356 130.306 142.485 129.822 141.903 129.074C141.601 128.744 141.148 129.206 141.407 129.536Z" fill="#161616"/>
<path d="M142.118 125.774C141.148 125.95 140.544 126.676 140.048 127.512C139.186 128.986 138.496 130.592 137.72 132.11C137.202 133.144 136.318 134.376 136.512 135.608C136.663 136.576 137.332 137.258 138.194 137.566C138.582 137.698 138.755 137.06 138.367 136.928C135.714 135.982 138.302 132.418 139.057 130.9C139.747 129.536 140.588 126.742 142.269 126.412C142.701 126.346 142.528 125.708 142.118 125.774Z" fill="#161616"/>
<path d="M146.388 129.756C146.992 130.834 146.107 131.956 146.129 133.078C146.151 134.156 147.207 135.52 146.258 136.422C145.957 136.708 146.409 137.17 146.711 136.884C147.682 135.96 147.142 134.838 146.884 133.716C146.539 132.22 147.746 130.834 146.948 129.404C146.733 129.052 146.172 129.382 146.388 129.756Z" fill="#161616"/>
<path d="M137.979 137.522C139.596 137.896 140.76 136.664 141.579 135.388C141.817 135.036 141.256 134.706 141.019 135.058C140.372 136.048 139.466 137.192 138.151 136.884C137.741 136.796 137.569 137.434 137.979 137.522Z" fill="#161616"/>
<path d="M138.97 135.696C139.509 134.992 140.458 134.794 141.213 135.278C141.579 135.498 141.903 134.926 141.536 134.706C140.566 134.09 139.229 134.31 138.518 135.234C138.259 135.564 138.712 136.026 138.97 135.696Z" fill="#161616"/>
<path d="M139.768 137.038C141.256 138.27 142.765 136.796 143.649 135.586C143.908 135.256 143.348 134.926 143.089 135.256C142.485 136.07 141.342 137.478 140.243 136.576C139.898 136.312 139.445 136.774 139.768 137.038Z" fill="#161616"/>
<path d="M142.485 134.882C142.722 134.794 143.024 134.948 143.024 135.234C143.024 135.652 143.671 135.652 143.671 135.234C143.671 134.552 142.938 133.98 142.312 134.244C142.14 134.31 142.032 134.464 142.097 134.64C142.14 134.794 142.312 134.948 142.485 134.882Z" fill="#161616"/>
<path d="M142.011 137.302C143.304 137.874 144.771 137.192 145.051 135.74C145.137 135.322 144.512 135.146 144.426 135.564C144.232 136.554 143.283 137.148 142.334 136.73C141.946 136.576 141.623 137.126 142.011 137.302Z" fill="#161616"/>
<path d="M143.692 135.256C143.93 135.036 144.339 135.234 144.382 135.542C144.447 135.96 145.072 135.784 145.008 135.366C144.857 134.552 143.8 134.266 143.218 134.794C142.938 135.058 143.391 135.52 143.692 135.256Z" fill="#161616"/>
<path d="M144.059 137.126C144.835 137.698 146.043 137.39 146.453 136.51C146.625 136.136 146.064 135.784 145.892 136.18C145.612 136.752 144.9 136.95 144.383 136.576C144.038 136.29 143.714 136.862 144.059 137.126Z" fill="#161616"/>
<path d="M144.965 135.938C145.137 135.608 145.31 135.212 145.633 135.014C145.913 134.838 146.28 134.86 146.431 135.19C146.754 135.872 146.021 136.356 145.482 136.532C145.094 136.642 145.245 137.28 145.655 137.17C146.647 136.884 147.617 135.85 146.948 134.772C146.69 134.332 146.194 134.156 145.698 134.288C145.051 134.464 144.706 135.058 144.404 135.608C144.232 135.982 144.771 136.312 144.965 135.938Z" fill="#161616"/>
<path d="M140.048 134.024C135.93 136.202 134.183 141.064 132.329 145.09C129.785 150.568 127.262 156.068 124.718 161.546C124.545 161.92 125.106 162.272 125.278 161.876C127.693 156.662 130.108 151.426 132.523 146.212C134.421 142.098 136.167 136.818 140.372 134.596C140.738 134.398 140.415 133.826 140.048 134.024Z" fill="#161616"/>
<path d="M146.215 136.862C146.647 144.804 147.056 152.768 147.488 160.71C147.509 161.128 148.156 161.128 148.134 160.71C147.703 152.768 147.293 144.804 146.862 136.862C146.841 136.444 146.194 136.444 146.215 136.862Z" fill="#161616"/>
<path d="M124.782 162.14C125.364 162.91 125.752 163.768 125.968 164.714C126.011 164.912 126.27 165.022 126.442 164.912C127.176 164.428 127.93 163.922 128.663 163.438C129.008 163.196 128.685 162.624 128.34 162.866C127.607 163.35 126.852 163.856 126.119 164.34C126.27 164.406 126.442 164.472 126.593 164.538C126.356 163.482 125.903 162.536 125.257 161.678C124.998 161.326 124.523 161.81 124.782 162.14Z" fill="#161616"/>
<path d="M128.663 163.614C135.563 166.298 143.089 165.418 150.14 163.856C150.549 163.768 150.377 163.13 149.967 163.218C143.024 164.758 135.628 165.638 128.836 162.976C128.448 162.822 128.275 163.46 128.663 163.614Z" fill="#161616"/>
<path d="M124.89 162.14C132.286 163.372 139.854 163.02 147.121 161.062C147.531 160.952 147.358 160.314 146.948 160.424C139.811 162.36 132.351 162.734 125.063 161.502C124.653 161.436 124.48 162.074 124.89 162.14Z" fill="#161616"/>
<path d="M147.531 160.732C147.337 161.106 147.143 161.502 146.948 161.876C146.862 162.052 146.927 162.316 147.143 162.36C148.242 162.536 149.234 162.954 150.14 163.636C150.485 163.878 150.808 163.306 150.463 163.064C149.536 162.36 148.458 161.898 147.315 161.722C147.38 161.876 147.444 162.052 147.509 162.206C147.703 161.832 147.897 161.436 148.091 161.062C148.285 160.688 147.725 160.358 147.531 160.732Z" fill="#161616"/>
<path d="M124.739 162.206C124.545 170.83 122.992 179.366 120.168 187.506C120.038 187.902 120.664 188.078 120.793 187.682C123.639 179.498 125.192 170.896 125.386 162.206C125.407 161.788 124.761 161.788 124.739 162.206Z" fill="#161616"/>
<path d="M128.168 164.582C127.823 173.888 126.378 183.128 123.898 192.082C123.79 192.5 124.416 192.676 124.524 192.258C127.025 183.238 128.469 173.954 128.814 164.582C128.814 164.164 128.168 164.164 128.168 164.582Z" fill="#161616"/>
<path d="M120.189 187.858C121.569 189.31 122.82 190.872 123.941 192.544C124.178 192.896 124.739 192.566 124.502 192.214C123.359 190.498 122.087 188.892 120.664 187.396C120.34 187.088 119.887 187.572 120.189 187.858Z" fill="#161616"/>
<path d="M124.523 192.676C132.717 192.588 141.407 192.368 148.479 187.594C148.824 187.352 148.501 186.78 148.156 187.022C141.17 191.73 132.631 191.928 124.545 192.016C124.092 192.016 124.092 192.676 124.523 192.676Z" fill="#161616"/>
<path d="M150.075 163.79C148.566 171.38 147.854 179.08 147.919 186.824C147.919 187.242 148.566 187.242 148.566 186.824C148.479 179.146 149.191 171.49 150.679 163.966C150.787 163.548 150.161 163.372 150.075 163.79Z" fill="#161616"/>
<path d="M146.021 136.4C147.38 145.53 148.76 154.638 150.118 163.768C150.183 164.186 150.808 164.01 150.743 163.592C149.385 154.462 148.005 145.354 146.647 136.224C146.582 135.806 145.957 135.982 146.021 136.4Z" fill="#161616"/>
<path d="M138.086 135.894C134.033 144.474 130.863 153.472 128.577 162.712C128.469 163.13 129.095 163.306 129.203 162.888C131.467 153.692 134.615 144.76 138.647 136.224C138.841 135.85 138.28 135.52 138.086 135.894Z" fill="#161616"/>
<path d="M137.008 135.542C130.647 142.934 124.502 150.524 118.572 158.29C118.314 158.62 118.766 159.082 119.025 158.752C124.955 150.986 131.1 143.418 137.461 136.004C137.741 135.696 137.289 135.234 137.008 135.542Z" fill="#161616"/>
<path d="M118.615 158.972C119.758 159.368 120.901 159.654 122.087 159.83C122.044 159.654 122.001 159.456 121.936 159.28C121.268 160.05 120.599 160.798 119.952 161.568C119.672 161.876 120.125 162.36 120.405 162.03C121.074 161.26 121.742 160.512 122.389 159.742C122.54 159.566 122.497 159.236 122.238 159.192C121.052 158.994 119.909 158.708 118.766 158.334C118.4 158.202 118.227 158.84 118.615 158.972Z" fill="#161616"/>
<path d="M120.362 162.03C121.634 162.184 122.906 162.36 124.179 162.514C124.588 162.558 124.588 161.898 124.179 161.854C122.906 161.7 121.634 161.524 120.362 161.37C119.952 161.304 119.952 161.964 120.362 162.03Z" fill="#161616"/>
<path d="M118.68 158.796C117.537 167.926 114.971 176.814 111.068 185.13C110.896 185.504 111.457 185.856 111.629 185.46C115.575 177.056 118.184 168.058 119.327 158.796C119.37 158.378 118.723 158.378 118.68 158.796Z" fill="#161616"/>
<path d="M119.866 162.162C119.65 164.626 119.111 167.024 118.27 169.334C118.119 169.73 118.745 169.906 118.896 169.51C119.758 167.134 120.297 164.67 120.513 162.162C120.534 161.744 119.888 161.744 119.866 162.162Z" fill="#161616"/>
<path d="M111.284 186.098C112.147 186.582 112.686 187.154 113.246 187.946C113.591 188.452 113.591 188.408 114.303 188.408C116.049 188.408 117.774 188.21 119.478 187.836C119.887 187.748 119.715 187.11 119.305 187.198C118.4 187.396 117.472 187.55 116.545 187.638C115.855 187.704 114.734 187.968 114.087 187.748C113.613 187.572 113.332 186.89 112.966 186.538C112.556 186.142 112.103 185.812 111.607 185.548C111.241 185.306 110.917 185.878 111.284 186.098Z" fill="#161616"/>
<path d="M119.392 159.104C121.44 158.972 123.51 158.95 125.558 159.082C127.521 159.192 129.483 159.5 131.467 159.566C135.413 159.72 139.423 158.796 143.304 158.268C143.714 158.202 143.542 157.564 143.132 157.63C139.143 158.18 135.068 159.104 131.035 158.884C127.133 158.686 123.316 158.202 119.392 158.444C118.982 158.488 118.982 159.148 119.392 159.104Z" fill="#161616"/>
<path d="M142.916 157.938C142.873 158.268 142.463 158.532 142.313 158.818C142.162 159.082 142.162 159.412 142.313 159.654C142.507 159.962 142.916 160.094 143.24 160.226C143.822 160.468 144.404 160.71 145.008 160.93C145.396 161.084 145.568 160.446 145.18 160.292C144.771 160.138 144.361 159.984 143.973 159.83C143.757 159.742 142.83 159.522 142.873 159.148C142.895 158.972 143.197 158.752 143.304 158.598C143.455 158.378 143.542 158.202 143.563 157.938C143.606 157.52 142.959 157.52 142.916 157.938Z" fill="#161616"/>
<path d="M143.003 158.246C143.261 158.818 143.52 159.39 143.779 159.962C143.951 160.358 144.512 160.006 144.339 159.632C144.081 159.06 143.822 158.488 143.563 157.916C143.391 157.52 142.83 157.872 143.003 158.246Z" fill="#161616"/>
<path d="M145.008 136.906C144.383 140.514 143.693 144.122 143.175 147.752C142.938 149.38 142.787 151.008 142.808 152.636C142.852 154.462 143.154 156.244 142.614 158.026C142.485 158.422 143.11 158.598 143.24 158.202C143.714 156.64 143.563 155.056 143.477 153.45C143.391 151.602 143.52 149.754 143.779 147.928C144.296 144.298 144.986 140.69 145.612 137.082C145.698 136.664 145.073 136.488 145.008 136.906Z" fill="#161616"/>
<path d="M145.18 137.412C145.741 145.134 144.404 152.834 145.029 160.534C145.073 160.952 145.719 160.952 145.676 160.534C145.051 152.834 146.388 145.112 145.827 137.412C145.806 136.994 145.159 136.994 145.18 137.412Z" fill="#161616"/>
<path d="M156.759 232.958C156.716 234.08 156.673 235.202 156.63 236.324C153.697 237.974 151.261 239.514 149.32 240.834C147.789 241.868 145.612 243.342 142.873 245.564C141.277 246.862 139.984 248.028 139.013 248.908C139.337 249.194 139.854 249.59 140.544 249.766C141.924 250.118 143.153 249.436 143.563 249.216C145.655 248.138 144.318 249.59 152.08 246.532C154.97 245.388 158.98 243.672 163.81 241.23C163.702 239.976 163.595 238.744 163.487 237.49C163.293 235.312 163.099 233.134 162.926 230.956C160.856 231.638 158.808 232.298 156.759 232.958Z" fill="#161616"/>
<path d="M166.441 120.076C166.031 122.144 165.449 125.158 164.759 128.81C160.447 151.712 156.781 171.292 154.711 192.544C153.762 202.29 152.813 215.71 152.857 231.902C153.741 232.21 155.077 232.628 156.759 232.958C159.088 233.42 161.223 233.838 163.789 233.288C164.716 233.09 166.117 232.672 167.735 231.704C168.511 220.198 169.503 210.408 170.408 202.818C171.594 192.786 172.974 181.302 175.993 166.496C177.912 157.124 179.723 150.15 180.521 147.18C182.225 140.8 183.928 135.234 185.394 130.658C187.615 126.588 188.392 121.88 186.451 118.932C183.562 114.642 174.397 113.52 166.441 120.076Z" fill="white"/>
<path d="M166.139 119.988C163.358 134.464 160.576 148.94 158.269 163.482C155.983 177.892 154.129 192.39 153.18 206.954C152.641 215.248 152.404 223.564 152.533 231.902C152.533 232.32 153.18 232.32 153.18 231.902C152.943 217.272 153.87 202.642 155.509 188.122C157.169 173.514 159.541 158.994 162.15 144.54C163.616 136.4 165.19 128.282 166.743 120.164C166.829 119.746 166.204 119.57 166.139 119.988Z" fill="#161616"/>
<path d="M180.737 145.42C177.093 155.98 175.497 167.134 173.729 178.134C171.918 189.464 170.15 200.816 168.921 212.212C168.209 218.68 167.692 225.192 167.39 231.704C167.368 232.122 168.015 232.122 168.037 231.704C168.554 220.154 169.848 208.648 171.465 197.208C173.039 186.032 174.721 174.834 176.769 163.724C177.912 157.586 179.314 151.47 181.341 145.574C181.492 145.2 180.866 145.024 180.737 145.42Z" fill="#161616"/>
<path d="M153.202 232.32C155.66 233.222 158.29 233.552 160.878 233.794C163.444 234.036 165.578 233.112 167.821 231.946C168.188 231.748 167.864 231.176 167.498 231.374C165.19 232.584 163.099 233.376 160.468 233.09C158.053 232.826 155.66 232.518 153.374 231.682C152.986 231.528 152.813 232.166 153.202 232.32Z" fill="#161616"/>
<path d="M156.436 232.958C156.436 233.948 156.802 235.73 156.026 236.478C155.358 237.094 154.193 237.49 153.396 237.93C151.628 238.942 149.881 240.042 148.199 241.208C144.9 243.474 141.773 245.982 138.819 248.688C138.712 248.776 138.69 248.974 138.776 249.084C139.596 250.404 141.234 250.184 142.55 249.854C145.029 249.238 147.487 248.49 149.902 247.676C154.603 246.092 159.174 244.178 163.595 241.956C163.961 241.758 163.638 241.208 163.271 241.384C159.368 243.342 155.358 245.058 151.261 246.51C149.299 247.214 147.293 247.852 145.288 248.424C144.253 248.732 143.218 249.018 142.162 249.26C141.234 249.48 139.941 249.722 139.315 248.754C139.294 248.886 139.272 249.018 139.272 249.15C142.614 246.07 146.172 243.276 149.967 240.812C151.8 239.624 153.654 238.502 155.573 237.468C156.177 237.138 156.867 236.874 157.061 236.126C157.32 235.158 157.104 233.926 157.104 232.958C157.083 232.54 156.436 232.54 156.436 232.958Z" fill="#161616"/>
<path d="M162.84 233.992C163.056 236.412 163.271 238.832 163.487 241.252C163.53 241.67 164.177 241.67 164.134 241.252C163.918 238.832 163.702 236.412 163.487 233.992C163.444 233.574 162.797 233.552 162.84 233.992Z" fill="#161616"/>
<path d="M216.142 222.772C216.854 223.806 217.566 224.84 218.277 225.852C216.854 227.986 215.409 230.34 213.986 232.914C212.132 236.258 210.622 239.47 209.372 242.418C209.609 242.638 209.976 242.88 210.45 242.946C211.765 243.1 212.843 241.582 213.814 240.35C216.682 236.698 216.595 237.996 219.959 233.706C220.908 232.496 222.094 230.868 223.387 228.866C223.258 225.896 223.107 222.904 222.978 219.934C222.439 220.506 221.512 221.342 220.132 221.958C218.45 222.728 216.962 222.794 216.142 222.772Z" fill="#161616"/>
<path d="M176.058 120.428C174.354 122.364 173.449 125.136 173.406 125.246C171.745 130.46 173.557 135.014 174.16 136.356C175.346 136.488 177.136 136.906 178.43 138.314C179.529 139.502 179.723 140.822 180.241 142.956C180.823 145.332 181.772 147.576 182.376 149.952C182.85 151.822 184.467 156.97 187.68 167.244C187.68 167.244 191.001 177.892 194.386 187.33C197.448 195.888 202.321 208.142 209.997 223.3C211.183 223.586 212.779 223.806 214.633 223.586C219.442 223.014 222.482 219.868 223.474 218.768C223.409 214.896 223.344 211.002 223.28 207.13C222.482 205.084 221.339 202.158 220.024 198.66C216.811 190.124 212.132 177.65 207.259 161.612C204.24 151.646 202.342 145.332 200.531 136.202C199.173 129.338 198.375 123.53 197.901 119.35C188.866 115.478 180.025 115.94 176.058 120.428Z" fill="white"/>
<path d="M174.074 136.686C175.432 136.972 176.963 137.28 177.977 138.336C179.098 139.502 179.421 141.416 179.874 142.934C180.78 145.882 181.686 148.83 182.57 151.8C184.359 157.718 186.171 163.636 188.025 169.532C191.755 181.302 195.787 193.006 200.639 204.336C203.377 210.716 206.375 216.986 209.717 223.058C209.911 223.432 210.471 223.102 210.277 222.728C197.944 200.332 190.483 175.67 183.066 151.25C182.009 147.774 180.974 144.32 179.896 140.844C179.486 139.546 179.033 138.314 177.934 137.456C176.856 136.642 175.497 136.334 174.203 136.048C173.837 135.96 173.664 136.598 174.074 136.686Z" fill="#161616"/>
<path d="M197.254 120.604C199.345 132.396 201.739 144.056 205.102 155.562C208.38 166.804 212.067 177.914 216.056 188.892C218.277 195.03 220.606 201.146 222.978 207.24C223.129 207.636 223.754 207.46 223.603 207.064C219.398 196.306 215.388 185.46 211.722 174.482C207.97 163.24 204.369 151.866 201.739 140.294C200.251 133.716 199.043 127.072 197.879 120.428C197.793 120.01 197.167 120.186 197.254 120.604Z" fill="#161616"/>
<path d="M209.911 223.652C214.612 224.884 219.312 222.992 223.129 220.242C223.474 220 223.15 219.428 222.805 219.67C219.118 222.332 214.612 224.224 210.083 223.014C209.674 222.904 209.501 223.542 209.911 223.652Z" fill="#161616"/>
<path d="M216.358 223.718C216.919 224.488 217.458 225.258 218.018 226.028C218.256 226.358 218.816 226.028 218.579 225.698C218.018 224.928 217.479 224.158 216.919 223.388C216.66 223.036 216.099 223.366 216.358 223.718Z" fill="#161616"/>
<path d="M218.234 226.05C215.905 229.042 213.921 232.276 212.132 235.642C211.226 237.358 210.364 239.096 209.501 240.834C209.07 241.714 208.617 242.704 209.825 243.188C211.097 243.694 212.153 242.374 212.994 241.604C214.396 240.328 215.733 239.008 217.026 237.622C219.506 234.982 221.749 232.122 223.668 229.042C223.883 228.69 223.323 228.36 223.107 228.712C221.468 231.33 219.614 233.772 217.566 236.06C216.617 237.138 215.603 238.172 214.59 239.184C214.051 239.712 213.49 240.24 212.951 240.768C212.369 241.296 211.744 242.044 211.054 242.396C210.45 242.704 209.781 242.726 209.717 241.824C209.695 241.582 210.105 241.076 210.213 240.834C210.558 240.13 210.903 239.448 211.248 238.744C211.938 237.358 212.649 235.994 213.404 234.63C214.978 231.814 216.703 229.086 218.665 226.534C218.946 226.182 218.493 225.72 218.234 226.05Z" fill="#161616"/>
<path d="M171.142 68.574C168.77 70.026 167.174 71.786 166.182 73.04C164.263 79.882 164.026 85.382 164.155 89.1C164.371 95.37 165.665 98.406 166.312 106.062C166.829 112.156 166.57 117.128 166.312 120.296C168.64 121.264 171.357 122.166 174.441 122.76C184.64 124.74 193.265 122.364 198.116 120.56C196.866 113.982 196.521 108.636 196.434 105.05C196.197 96.096 197.318 91.3 196.391 81.202C195.831 75.02 195.507 71.896 193.717 69.806C188.931 64.174 178.149 64.24 171.142 68.574Z" fill="#EC615B"/>
<path d="M191.604 71.214C190.548 72.644 190.526 74.338 190.569 75.592C190.677 79.376 191.216 81.84 191.216 81.84C192.769 88.924 192.143 87.428 193.071 91.036C195.313 99.748 199.41 110.088 200.467 112.728C204.477 122.848 207.647 130.68 209.631 135.608C209.199 136.356 208.639 137.478 208.143 138.864C207.453 140.866 207.108 141.9 207.582 142.758C208.272 143.968 210.127 144.034 210.601 144.056C211.054 144.716 211.485 145.376 211.938 146.036C212.067 146.146 212.714 146.63 213.641 146.52C214.741 146.388 215.302 145.486 215.366 145.376C216.013 144.914 216.66 144.43 217.307 143.968C217.673 143.726 218.083 143.44 218.514 143.088C219.075 142.626 219.528 142.142 219.873 141.724C220.088 141.284 220.369 140.558 220.304 139.656C220.261 138.996 220.045 138.138 218.946 136.818C217.415 134.97 215.517 133.848 214.051 133.166C211.334 125.224 209.523 118.668 208.38 114.136C202.321 90.288 201.739 87.494 201.739 87.494C199.669 77.836 200.725 84.524 198.742 78.298C197.944 75.812 197.168 73.282 194.839 71.588C193.933 70.928 193.049 70.554 192.424 70.356C192.165 70.576 191.885 70.84 191.604 71.214Z" fill="white"/>
<path d="M214.806 158.114C211.248 160.798 206.935 163.614 201.804 166.1C199.712 167.112 197.664 167.992 195.723 168.74C195.227 171.094 194.688 173.712 194.214 176.044C192.165 185.922 190.073 195.8 187.982 205.678C188.823 206.294 189.836 206.932 191.022 207.46C195.399 209.396 199.561 208.89 201.653 208.45C202.752 208.758 204.219 209.044 205.965 209.066C207.194 209.066 208.251 208.934 209.135 208.758C210.558 208.142 212.067 207.394 213.62 206.492C217.868 204.006 221.037 201.102 223.323 198.616C223.344 187.088 223.366 175.582 223.409 164.054C222.956 163.768 222.525 163.46 222.072 163.174C221.921 162.888 221.706 162.448 221.468 161.92C221.102 161.106 221.037 160.842 220.843 160.798C220.326 160.71 219.873 162.382 219.42 162.316C219.183 162.294 218.903 161.766 218.73 159.412C217.436 158.994 216.121 158.554 214.806 158.114Z" fill="white"/>
<path d="M192.294 70.708C194.278 71.016 195.486 72.688 196.413 74.36C197.469 76.23 198.353 78.232 199.13 80.234C200.682 84.26 201.609 88.484 202.58 92.686C204.607 101.398 206.827 110.044 209.242 118.646C210.622 123.53 212.046 128.392 213.533 133.254C213.663 133.65 214.288 133.496 214.159 133.078C211.377 124.058 208.811 114.994 206.461 105.842C205.275 101.266 204.154 96.69 203.097 92.092C202.084 87.692 201.07 83.314 199.367 79.134C198.547 77.11 197.642 75.042 196.456 73.194C195.507 71.698 194.257 70.356 192.445 70.07C192.057 70.004 191.885 70.642 192.294 70.708Z" fill="#161616"/>
<path d="M192.014 70.356C189.211 72.71 190.311 77.572 190.72 80.696C191.302 85.162 192.273 89.584 193.48 93.896C196.025 102.982 199.647 111.716 203.227 120.428C205.275 125.4 207.302 130.372 209.135 135.41C209.286 135.806 209.911 135.63 209.76 135.234C203.658 118.404 195.162 102.3 191.949 84.48C191.497 81.928 191.152 79.376 190.936 76.802C190.763 74.712 190.72 72.27 192.445 70.84C192.79 70.554 192.316 70.092 192.014 70.356Z" fill="#161616"/>
<path d="M209.329 135.454C208.79 136.642 208.251 137.852 207.712 139.04C207.323 139.876 206.892 140.778 206.914 141.724C206.978 143.66 209.048 143.946 210.493 144.386C210.903 144.496 211.075 143.858 210.666 143.748C210.019 143.55 209.329 143.396 208.682 143.154C207.474 142.67 207.41 141.592 207.776 140.492C208.315 138.886 209.178 137.324 209.868 135.784C210.062 135.41 209.501 135.08 209.329 135.454Z" fill="#161616"/>
<path d="M214.094 133.452C216.38 135.168 220.606 137.368 219.873 140.888C219.787 141.306 220.412 141.482 220.498 141.064C221.296 137.148 217.005 134.816 214.417 132.88C214.094 132.616 213.771 133.188 214.094 133.452Z" fill="#161616"/>
<path d="M210.213 142.23C210.73 142.318 211.269 142.428 211.787 142.516C212.197 142.582 212.369 141.944 211.959 141.878C211.442 141.79 210.903 141.68 210.385 141.592C209.976 141.526 209.803 142.164 210.213 142.23Z" fill="#161616"/>
<path d="M211.162 142.384C211.356 143.55 211.938 144.584 212.822 145.376C213.145 145.662 213.598 145.178 213.275 144.914C212.477 144.21 211.959 143.286 211.787 142.23C211.722 141.79 211.097 141.966 211.162 142.384Z" fill="#161616"/>
<path d="M212.304 146.652C214.633 147.862 216.617 144.342 215.582 142.384C215.388 142.01 214.827 142.34 215.021 142.714C215.733 144.078 214.331 146.96 212.628 146.08C212.261 145.904 211.938 146.476 212.304 146.652Z" fill="#161616"/>
<path d="M215.409 145.706C217.113 145.376 218.083 143.616 217.458 141.944C217.307 141.548 216.682 141.724 216.833 142.12C217.35 143.462 216.638 144.804 215.237 145.068C214.849 145.156 215.021 145.772 215.409 145.706Z" fill="#161616"/>
<path d="M217.264 144.298C217.824 144.32 218.299 144.012 218.601 143.55C218.989 142.934 218.946 142.164 218.881 141.46C218.838 141.042 218.191 141.042 218.234 141.46C218.299 142.208 218.385 143.682 217.264 143.638C216.854 143.616 216.854 144.276 217.264 144.298Z" fill="#161616"/>
<path d="M218.924 143.044C219.765 142.582 220.347 141.746 220.52 140.778C220.584 140.36 219.959 140.184 219.894 140.602C219.765 141.416 219.312 142.076 218.601 142.472C218.234 142.67 218.558 143.242 218.924 143.044Z" fill="#161616"/>
<path d="M212.391 144.386C206.526 151.624 202.774 160.424 201.588 169.73C201.523 170.148 202.192 170.148 202.235 169.73C203.399 160.622 207.108 151.932 212.865 144.848C213.124 144.54 212.649 144.056 212.391 144.386Z" fill="#161616"/>
<path d="M211.895 144.012C204.995 150.92 199.453 159.148 195.615 168.212C195.443 168.608 196.003 168.938 196.176 168.542C199.992 159.544 205.491 151.36 212.348 144.474C212.649 144.188 212.175 143.704 211.895 144.012Z" fill="#161616"/>
<path d="M195.464 168.674C196.154 169.268 197.017 170.39 197.987 170.478C198.44 170.522 198.871 170.346 199.281 170.214C200.057 169.972 200.833 169.708 201.609 169.466C201.998 169.334 201.847 168.696 201.437 168.828C200.574 169.114 199.604 169.554 198.72 169.686C197.491 169.884 196.779 168.96 195.917 168.19C195.615 167.926 195.141 168.41 195.464 168.674Z" fill="#161616"/>
<path d="M195.399 168.652C192.855 180.906 190.311 193.16 187.766 205.414C187.68 205.832 188.305 206.008 188.392 205.59C190.936 193.336 193.48 181.082 196.025 168.828C196.111 168.41 195.486 168.234 195.399 168.652Z" fill="#161616"/>
<path d="M187.745 205.92C189.578 207.526 191.885 208.142 194.17 208.714C196.715 209.352 199.194 209.462 201.739 208.758C202.148 208.648 201.976 208.01 201.566 208.12C199.13 208.802 196.779 208.692 194.343 208.076C192.165 207.526 189.944 206.976 188.198 205.436C187.874 205.172 187.421 205.634 187.745 205.92Z" fill="#161616"/>
<path d="M201.458 169.752C200.747 182.534 200.682 195.338 201.264 208.142C201.286 208.56 201.933 208.56 201.911 208.142C201.329 195.36 201.415 182.534 202.105 169.752C202.148 169.334 201.502 169.334 201.458 169.752Z" fill="#161616"/>
<path d="M211.614 145.97C208.962 154.44 206.332 162.888 203.679 171.358C203.55 171.754 204.175 171.93 204.305 171.534C206.957 163.064 209.588 154.616 212.24 146.146C212.348 145.728 211.722 145.552 211.614 145.97Z" fill="#161616"/>
<path d="M203.485 172.106C203.917 172.656 204.542 173.976 205.34 173.976C205.728 173.976 206.159 173.69 206.482 173.536C207.151 173.228 207.819 172.92 208.488 172.59C208.876 172.414 208.531 171.842 208.164 172.018C207.453 172.348 206.59 172.942 205.836 173.118C205.102 173.294 205.081 173.096 204.736 172.634C204.477 172.304 204.218 171.974 203.96 171.644C203.701 171.314 203.248 171.776 203.485 172.106Z" fill="#161616"/>
<path d="M203.356 172.194C203.227 180.598 202.558 189.002 201.329 197.318C201.264 197.736 201.89 197.912 201.954 197.494C203.183 189.112 203.873 180.664 204.003 172.194C204.024 171.776 203.378 171.776 203.356 172.194Z" fill="#161616"/>
<path d="M201.696 208.164C203.917 209.286 206.31 209.638 208.747 209.176C209.156 209.11 208.984 208.472 208.574 208.538C206.332 208.956 204.068 208.626 202.019 207.592C201.653 207.416 201.329 207.988 201.696 208.164Z" fill="#161616"/>
<path d="M207.992 172.502C209.35 184.536 209.631 196.658 208.811 208.736C208.79 209.154 209.437 209.154 209.458 208.736C210.278 196.658 209.997 184.536 208.639 172.502C208.596 172.084 207.949 172.084 207.992 172.502Z" fill="#161616"/>
<path d="M204.542 172.634C210.493 169.444 216.013 165.55 221.059 161.018C221.382 160.732 220.908 160.27 220.606 160.556C215.603 165.044 210.105 168.894 204.218 172.062C203.852 172.26 204.175 172.832 204.542 172.634Z" fill="#161616"/>
<path d="M208.272 172.788C213.706 171.292 218.665 168.388 222.719 164.384C223.021 164.098 222.568 163.614 222.266 163.922C218.299 167.86 213.447 170.676 208.121 172.15C207.69 172.26 207.863 172.898 208.272 172.788Z" fill="#161616"/>
<path d="M217.76 143.836C218.536 149.446 219.312 155.078 220.11 160.688C220.175 161.106 220.8 160.93 220.735 160.512C219.959 154.902 219.183 149.27 218.385 143.66C218.32 143.242 217.695 143.418 217.76 143.836Z" fill="#161616"/>
<path d="M218.644 143.66C220.067 150.414 221.339 157.19 222.482 164.01C222.547 164.428 223.172 164.252 223.107 163.834C221.964 157.014 220.671 150.238 219.269 143.484C219.183 143.088 218.558 143.264 218.644 143.66Z" fill="#161616"/>
<path d="M209.286 209.484C214.547 206.712 219.075 202.774 223.538 198.836C223.862 198.55 223.388 198.088 223.086 198.374C218.665 202.268 214.18 206.162 208.962 208.934C208.596 209.11 208.919 209.682 209.286 209.484Z" fill="#161616"/>
<path d="M220.692 161.238C221.145 162.47 221.749 163.834 223.107 164.23C223.517 164.34 223.689 163.702 223.28 163.592C222.18 163.262 221.706 162.074 221.318 161.062C221.167 160.666 220.541 160.842 220.692 161.238Z" fill="#161616"/>
<path d="M201.631 169.994C208.207 168.19 214.202 164.626 218.967 159.654C219.248 159.346 218.795 158.884 218.514 159.192C213.835 164.098 207.949 167.596 201.458 169.378C201.049 169.488 201.221 170.104 201.631 169.994Z" fill="#161616"/>
<path d="M218.45 159.61C218.558 160.512 218.752 161.392 219.01 162.25C219.14 162.646 219.765 162.492 219.636 162.074C219.377 161.26 219.204 160.446 219.097 159.61C219.053 159.192 218.407 159.192 218.45 159.61Z" fill="#161616"/>
<path d="M195.809 168.85C197.491 168.608 199.065 167.75 200.596 167.024C202.299 166.21 203.981 165.352 205.62 164.428C208.854 162.624 211.959 160.6 214.957 158.378C215.28 158.136 214.978 157.564 214.633 157.806C211.744 159.94 208.747 161.898 205.642 163.658C204.111 164.516 202.558 165.33 200.984 166.1C199.302 166.914 197.513 167.926 195.658 168.19C195.227 168.278 195.421 168.916 195.809 168.85Z" fill="#161616"/>
<path d="M214.59 158.224C215.711 159.016 216.94 159.478 218.299 159.632C218.708 159.676 218.708 159.016 218.299 158.972C217.07 158.818 215.948 158.356 214.935 157.652C214.568 157.41 214.245 157.982 214.59 158.224Z" fill="#161616"/>
<path d="M214.957 157.872C215.754 153.824 215.56 149.666 215.56 145.574C215.56 145.156 214.913 145.156 214.913 145.574C214.913 149.6 215.108 153.714 214.331 157.696C214.245 158.114 214.87 158.29 214.957 157.872Z" fill="#161616"/>
<path d="M216.315 145.552C216.789 147.972 216.531 150.436 216.811 152.856C217.07 155.166 217.781 157.366 218.471 159.566C218.601 159.962 219.226 159.786 219.097 159.39C218.32 156.992 217.566 154.572 217.393 152.064C217.242 149.82 217.393 147.598 216.94 145.376C216.854 144.958 216.25 145.134 216.315 145.552Z" fill="#161616"/>
<path d="M223.086 164.032C222.46 175.582 222.568 187.176 223.388 198.726C223.409 199.144 224.056 199.144 224.034 198.726C223.215 187.176 223.129 175.582 223.733 164.032C223.754 163.614 223.107 163.614 223.086 164.032Z" fill="#161616"/>
<path d="M176.446 38.6761C172.867 38.5661 170.258 41.03 169.093 42.13C164.328 46.64 164.155 53.13 164.091 55.308C164.026 57.53 163.832 65.9341 168.382 68.1121C171.12 69.4101 174.419 67.936 177.438 66.616C179.055 65.912 181.513 64.548 183.885 62.106C185.696 60.214 187.896 57.926 188.521 54.23C188.672 53.306 189.103 50.138 187.443 46.838C186.494 44.924 185.265 43.824 184.014 42.724C181.944 40.854 179.594 38.7641 176.446 38.6761Z" fill="white"/>
<path d="M177.395 39.556C175.799 39.446 174.592 39.974 173.341 40.502C170.969 41.536 169.611 43.164 168.683 44.264C166.7 46.64 165.923 48.95 165.729 49.61C165.298 50.974 164.543 53.482 165.19 56.54C165.514 58.014 166.29 61.688 169.524 63.294C172.112 64.57 174.721 63.778 175.519 63.514C175.993 63.954 176.726 64.768 177.136 65.956C177.136 65.956 177.912 68.222 176.812 70.796C175.195 74.58 169.028 77.132 164.608 75.262C158.959 72.864 158.506 64.152 159.261 59.576C159.67 57.046 160.576 55.044 161.352 53.68C161.244 51.414 161.417 47.19 164.091 43.45C168.36 37.466 177.201 35.31 179.141 37.51C179.637 38.06 179.982 39.138 179.616 39.578C179.314 39.974 178.494 39.644 177.395 39.556Z" fill="#5222D0"/>
<path d="M177.589 38.698C176.791 39.732 176.726 40.942 176.705 41.888C176.554 45.562 178.883 49.588 181.103 49.522C181.492 49.5 182.117 49.368 182.872 48.576C183.087 48.51 184.252 48.18 185.308 48.862C186.451 49.588 186.731 51.04 186.559 52.074C186.386 53.13 185.718 53.768 185.502 53.966C184.446 54.956 183.13 54.956 182.85 54.934C182.613 55.968 182.095 57.574 180.974 59.224C180.133 60.434 179.228 61.292 178.538 61.864C178.343 62.634 178.128 63.756 178.02 65.098C177.826 67.716 177.61 70.818 179.314 73.04C181.125 75.394 184.489 75.922 186.753 75.614C191.863 74.932 195.205 69.652 196.219 65.428C197.922 58.278 193.329 52.602 192.79 51.942C193.178 45.606 191.001 40.106 186.968 38.06C184.23 36.74 179.508 36.256 177.589 38.698Z" fill="#5222D0"/>
<path d="M172.651 40.722C167.627 42.922 164.824 49.456 164.759 54.802C164.716 57.728 165.923 60.72 168.101 62.678C170.301 64.658 173.276 64.812 175.95 63.756C178.753 62.656 180.974 60.412 182.182 57.64C182.354 57.266 181.793 56.914 181.621 57.31C180.349 60.258 177.847 62.612 174.786 63.47C172.953 63.976 170.969 63.888 169.352 62.832C167.799 61.82 166.657 60.126 166.031 58.388C164.802 54.978 165.686 51.084 167.088 47.85C168.295 45.056 170.193 42.57 172.996 41.338C173.341 41.118 173.017 40.546 172.651 40.722Z" fill="#161616"/>
<path d="M170.301 45.2101C168.921 48.1361 167.756 51.1501 166.764 54.2521C166.678 54.5161 167.002 54.8021 167.239 54.6261C168.295 53.8121 169.373 52.9761 170.43 52.1621C170.753 51.8981 170.43 51.3261 170.107 51.5901C169.05 52.4041 167.972 53.2401 166.915 54.0541C167.066 54.1861 167.239 54.2961 167.39 54.4281C168.36 51.3921 169.503 48.4221 170.861 45.5401C171.034 45.1661 170.473 44.8361 170.301 45.2101Z" fill="#161616"/>
<path d="M168.77 55.66C169.309 56.782 170.667 56.958 171.724 56.606C173.039 56.188 173.902 55.022 174.182 53.68C174.268 53.262 173.643 53.086 173.557 53.504C173.362 54.45 172.888 55.286 172.026 55.77C171.185 56.232 169.805 56.342 169.309 55.33C169.158 54.956 168.597 55.286 168.77 55.66Z" fill="#161616"/>
<path d="M173.557 45.056C173.276 46.178 173.988 47.432 175.152 47.586C176.338 47.762 177.373 46.64 177.33 45.474C177.308 45.056 176.662 45.056 176.683 45.474C176.726 46.288 176.015 47.102 175.174 46.926C174.441 46.772 174.009 45.936 174.182 45.232C174.29 44.836 173.664 44.66 173.557 45.056Z" fill="#161616"/>
<path d="M167.001 46.684C166.743 47.41 167.433 48.092 168.144 48.026C169.093 47.938 169.481 46.97 169.697 46.156C169.805 45.738 169.179 45.562 169.071 45.98C168.964 46.42 168.834 46.926 168.446 47.19C168.144 47.41 167.433 47.388 167.627 46.838C167.756 46.464 167.131 46.288 167.001 46.684Z" fill="#161616"/>
<path d="M175.346 49.61C175.368 49.61 175.411 49.61 175.433 49.61C175.605 49.61 175.756 49.456 175.756 49.28C175.756 49.104 175.605 48.95 175.433 48.95C175.411 48.95 175.368 48.95 175.346 48.95C175.174 48.95 175.023 49.104 175.023 49.28C175.023 49.456 175.152 49.61 175.346 49.61Z" fill="#161616"/>
<path d="M177.955 48.576C178.365 48.576 178.365 47.916 177.955 47.916C177.546 47.916 177.546 48.576 177.955 48.576Z" fill="#161616"/>
<path d="M177.696 50.82C177.718 50.82 177.761 50.82 177.783 50.82C177.955 50.82 178.106 50.666 178.106 50.49C178.106 50.314 177.955 50.16 177.783 50.16C177.761 50.16 177.718 50.16 177.696 50.16C177.524 50.16 177.373 50.314 177.373 50.49C177.395 50.666 177.524 50.82 177.696 50.82Z" fill="#161616"/>
<path d="M175.325 41.866C176.101 41.228 177.179 41.602 177.481 42.548C177.61 42.944 178.236 42.768 178.106 42.372C177.632 40.92 176.015 40.458 174.872 41.404C174.527 41.668 175.001 42.13 175.325 41.866Z" fill="#161616"/>
<path d="M169.093 42.702C169.546 41.778 170.775 41.932 170.969 42.966C171.055 43.384 171.681 43.208 171.594 42.79C171.271 41.228 169.222 40.964 168.532 42.372C168.338 42.746 168.899 43.076 169.093 42.702Z" fill="#161616"/>
<path d="M182.527 49.236C185.006 46.816 188.047 52.404 184.748 54.054C184.23 54.318 183.756 54.252 183.217 54.34C183.044 54.362 182.85 54.384 182.699 54.494C182.527 54.648 182.44 55.022 182.354 55.242C182.117 55.902 181.88 56.54 181.664 57.2C181.513 57.596 182.138 57.772 182.289 57.376C182.483 56.87 182.613 56.32 182.85 55.814C182.915 55.506 183.066 55.22 183.303 55C183.411 55 183.518 55 183.626 55C184.187 54.802 184.769 54.824 185.308 54.472C186.386 53.79 186.99 52.514 186.882 51.238C186.667 48.906 184.014 46.816 182.052 48.752C181.772 49.082 182.225 49.544 182.527 49.236Z" fill="#161616"/>
<path d="M175.238 63.866C175.842 64.812 176.511 65.692 177.244 66.55C177.524 66.88 177.977 66.396 177.697 66.088C177.007 65.274 176.381 64.416 175.799 63.536C175.562 63.184 175.001 63.514 175.238 63.866Z" fill="#161616"/>
</svg>
