<svg width="69" height="67" viewBox="0 0 69 67" fill="none" xmlns="http://www.w3.org/2000/svg">
<path fill-rule="evenodd" clip-rule="evenodd" d="M16.967 0.104156C15.0898 0.104156 13.3367 1.10328 12.2954 2.76668L0.779994 21.1614C0.075017 22.2876 -0.00928891 23.7296 0.559082 24.9402C6.86059 38.3616 15.6179 50.3061 26.3163 60.0716L31.9332 65.1987C33.4102 66.5469 35.5898 66.5469 37.0668 65.1987L42.6837 60.0716C53.3821 50.3061 62.1394 38.3616 68.4409 24.9402C69.0093 23.7296 68.9249 22.2876 68.22 21.1614L56.7045 2.76668C55.6632 1.10328 53.9102 0.104156 52.0329 0.104156H16.967ZM16.2997 5.60952C16.4484 5.37189 16.6989 5.22916 16.967 5.22916H24.4739L18.3296 20.9331C18.188 21.2949 18.0812 21.6679 18.0092 22.0468C15.7511 21.8678 13.4949 21.652 11.2414 21.3994L6.73142 20.8939L16.2997 5.60952ZM6.519 26.0234C12.2728 37.2641 19.8707 47.3272 28.9599 55.7317L18.9323 27.2553C16.1978 27.0551 13.4657 26.8021 10.7376 26.4963L6.519 26.0234ZM24.1846 27.5747L34.5 56.8687L44.8154 27.5747C37.942 27.9077 31.058 27.9077 24.1846 27.5747ZM50.0676 27.2553L40.0401 55.7317C49.1293 47.3272 56.7271 37.2641 62.481 26.0234L58.2623 26.4963C55.5342 26.8021 52.8022 27.0551 50.0676 27.2553ZM62.2685 20.8938L57.7585 21.3994C55.5051 21.652 53.2489 21.8678 50.9907 22.0468C50.9188 21.6679 50.8119 21.2949 50.6704 20.9331L44.5261 5.22916H52.0329C52.3011 5.22916 52.5515 5.37189 52.7003 5.60952L62.2685 20.8938ZM46.0234 22.381C38.3463 22.8056 30.6537 22.8056 22.9766 22.381L29.6875 5.22916H39.3125L46.0234 22.381Z" fill="black"/>
</svg>
