<?xml version="1.0" encoding="utf-8"?>
<!-- Generator: Adobe Illustrator 23.0.3, SVG Export Plug-In . SVG Version: 6.00 Build 0)  -->
<svg version="1.1" xmlns="http://www.w3.org/2000/svg" xmlns:xlink="http://www.w3.org/1999/xlink" x="0px" y="0px"
	 viewBox="0 0 1600 1200" style="enable-background:new 0 0 1600 1200;" xml:space="preserve">
<style type="text/css">
	.st0{fill:#E8E8E8;}
	.st1{fill:#EC615B;}
	.st2{fill:#461EB8;}
	.st3{fill:none;stroke:#461EB8;stroke-miterlimit:10;}
	.st4{fill:#FFFFFF;stroke:#000000;stroke-width:4;stroke-miterlimit:10;}
	.st5{fill:#FFFFFF;}
	.st6{opacity:0.21;fill:#BCBCBC;}
	.st7{opacity:0.19;fill:#BCBCBC;}
	.st8{opacity:0.18;fill:#BCBCBC;}
	.st9{opacity:0.17;fill:#BCBCBC;}
	.st10{opacity:0.21;fill:#BFBFBF;}
</style>
<g id="background">
	<g>
		<g>
			<path class="st0" d="M388.7,1126.8c-18.7-16.9-30.7-40.1-33.7-65.1c-0.9,0.4-1.7,0.7-2.6,1.1c2.8,2.2,5.6,4.4,8.3,6.7
				c1.3,1,3.2-0.2,2.4-1.8c-5.9-11.1-9.6-23.1-10.9-35.6c-0.8,0.4-1.5,0.9-2.3,1.3c2.4,1.1,3.9,2.4,4.9,5c0.9-0.4,1.8-0.8,2.7-1.2
				c-7.5-17.4-13.7-35.4-18.3-53.8c-2.3-9-4.2-18-5.7-27.1c-0.8-4.7-1.5-9.5-2.1-14.2c-0.5-4-1.5-8.4-1.2-12.4
				c0.7-8.4,6.5,0,8.2,3.2c1.9,3.8,3.4,7.7,5.1,11.6c3.9,9,7.9,18,11.8,27.1c7.9,18,15.7,36.1,23.6,54.1c0.9-0.5,1.7-1,2.6-1.5
				c-6.6-14.9-9.6-30.9-9.1-47.2c-0.9,0.4-1.7,0.7-2.6,1.1c2.7,3,5.5,6,8.2,9c1.1,1.2,2.8-0.1,2.5-1.5c-2.5-10.3-1.7-20.6,2.3-30.4
				c-0.9,0.1-1.8,0.2-2.7,0.4c13,18.8,19.1,42.1,25.5,63.7c6.8,23.3,12.6,46.8,17.3,70.6c0.3,1.6,3.1,1.3,2.9-0.4
				c-0.3-3.5-0.4-7.1-0.1-10.6c0.2-2.2,0.9-13.6,6.1-8c2.2,2.3,3.2,7.3,4.1,10.3c1.1,3.5,1.8,7,2.4,10.5c0.3,1.9,3.2,1.1,2.9-0.8
				c-1-6.1-2.7-12-5-17.7c-1.3-3-3.2-8.1-7.3-8.2c-3.6-0.1-4.5,3.7-5.2,6.4c-1.3,5.9-1.5,12-1,18c1-0.1,2-0.3,2.9-0.4
				c-4.8-24.4-10.7-48.6-17.8-72.5c-6.3-21.3-12.4-44.1-25.2-62.6c-0.8-1.1-2.3-0.9-2.7,0.4c-4.1,10.3-4.9,21.2-2.3,32
				c0.8-0.5,1.7-1,2.5-1.5c-2.7-3-5.5-6-8.2-9c-0.9-1-2.5-0.2-2.6,1.1c-0.5,16.8,2.7,33.3,9.5,48.7c0.8,1.8,3.4,0.2,2.6-1.5
				c-7.2-16.5-14.4-33.1-21.6-49.6c-3.5-8.1-7.1-16.2-10.6-24.4c-3.1-7.2-5.7-15.3-10-21.9c-1.6-2.4-5.7-7.4-9-5.6
				c-4.9,2.6-2.7,11.7-2.3,15.7c1.9,16,4.8,31.9,8.9,47.6c4.7,18,10.8,35.6,18.2,52.7c0.7,1.5,3.3,0.4,2.7-1.2
				c-1.2-3.2-3.1-5.4-6.3-6.8c-0.9-0.4-2.4,0-2.3,1.3c1.4,13.1,5.2,25.5,11.4,37.1c0.8-0.6,1.6-1.2,2.4-1.8
				c-2.8-2.2-5.6-4.4-8.3-6.7c-0.9-0.7-2.7-0.4-2.6,1.1c3,25.8,15.3,49.7,34.5,67.2C388,1130.2,390.2,1128.1,388.7,1126.8
				L388.7,1126.8z"/>
		</g>
	</g>
	<g>
		<g>
			<path class="st0" d="M833.3,1119.8c-15.6-21-20-48.7-11.7-73.5c-0.7,0.3-1.5,0.6-2.2,0.9c4.2,3,6.8,7.1,7.9,12.1
				c0.4,1.9,3.3,1.1,2.9-0.8c-4.3-21.9-3.2-44.3,3.1-65.7c-0.6,0.3-1.2,0.7-1.8,1c1,1,2.1,2,3.1,3c0.5,1.5,3.1,1.4,2.9-0.4
				c-1.5-23.3,3.9-46.4,15.5-66.7c-0.9-0.1-1.8-0.2-2.7-0.4c4.9,12.6,5,26.5,6.1,39.8c1.1,13.5,2.1,27.1,3.2,40.6
				c2.2,27.4,4.3,54.8,6.5,82.2c0.2,1.9,3.2,1.9,3,0c-2.2-28.1-4.4-56.1-6.6-84.2c-1.1-13.9-2.2-27.7-3.3-41.6
				c-1-12.6-1.3-25.7-6-37.6c-0.4-1.1-2.1-1.6-2.7-0.4c-11.9,20.7-17.5,44.4-16,68.2c1-0.1,2-0.3,2.9-0.4c-0.9-2.7-2.5-4.3-5.2-5.1
				c-0.8-0.3-1.6,0.3-1.8,1c-6.5,21.9-7.5,44.9-3.1,67.3c1-0.3,1.9-0.5,2.9-0.8c-1.3-5.8-4.4-10.4-9.3-13.9
				c-0.8-0.6-1.9,0.1-2.2,0.9c-8.6,25.5-4.1,54.2,12,75.8C831.9,1122.9,834.5,1121.4,833.3,1119.8L833.3,1119.8z"/>
		</g>
	</g>
	<g>
		<g>
			<path class="st0" d="M866.8,1059.4c-0.6-16.1,3.1-31.8,10.8-45.9c-0.9,0-1.7,0-2.6,0c4.5,8.2,6.4,17.1,5.8,26.5
				c-0.1,1.7,2.7,2.1,2.9,0.4c2.1-12.5,5.8-24.7,11.4-36.1c1.1-2.2,2.7-6.6,4.7-8c4.8-3.3,3.2,3.5,3,6.2c-0.3,6.8-0.6,13.7-1,20.5
				c-1.5,26.7-3.7,53.4-6.5,80c-0.2,1.9,2.8,1.9,3,0c3.8-36.3,6.5-72.8,7.9-109.3c0-0.5-0.3-1.1-0.7-1.3
				c-7.8-4.1-12.6,9.4-14.9,14.4c-4.7,10.5-7.9,21.5-9.8,32.8c1,0.1,2,0.3,2.9,0.4c0.6-9.9-1.5-19.3-6.2-28c-0.5-1-2.1-1-2.6,0
				c-7.9,14.6-11.7,30.8-11.2,47.4C863.9,1061.3,866.9,1061.3,866.8,1059.4L866.8,1059.4z"/>
		</g>
	</g>
	<g>
		<g>
			<path class="st0" d="M903.3,1107.8c0.3-15.6,5.4-30.5,14.6-43.1c-0.9-0.3-1.9-0.5-2.8-0.8c-0.6,19.3-1.2,38.6-1.8,57.9
				c-0.1,1.9,2.9,1.9,3,0c0.6-19.3,1.2-38.6,1.8-57.9c0.1-1.6-2-1.9-2.8-0.8c-9.6,13-14.7,28.4-15,44.6
				C900.3,1109.8,903.3,1109.8,903.3,1107.8L903.3,1107.8z"/>
		</g>
	</g>
	<g>
		<g>
			<path class="st0" d="M1238.1,1096.9c-0.3-10.4,0.8-20.7,3.6-30.8c0.6-2.3,1.3-4.6,2.1-6.9c0.4-1.1,0.8-2.3,1.2-3.4
				c1-2.5,0.7-3.5,3.7-3.4c2.8,0.1,2.3,0.4,2.8,2.7c0.2,1.2,0.5,2.4,0.7,3.6c0.5,3.2,0.9,6.3,1.1,9.5c0.2,1.9,2.8,1.9,3,0
				c3.2-36.5,14.5-71.9,33.1-103.4c-0.9,0-1.7,0-2.6,0c2.4,5.2,1.4,11,0.9,16.5c-0.5,5.2-1,10.5-1.5,15.7c-1,9.8-2,19.6-3.2,29.4
				c-2.4,20.8-5.2,41.5-8.3,62.1c-0.3,1.9,2.6,2.7,2.9,0.8c3.2-21.6,6.1-43.2,8.6-64.9c1.2-10.8,2.4-21.6,3.4-32.3
				c0.9-9.1,3.7-20.1-0.2-28.8c-0.5-1.1-2.1-0.9-2.6,0c-18.8,32-30.3,67.9-33.5,105c1,0,2,0,3,0c-0.3-3.8-0.7-7.5-1.4-11.2
				c-0.5-2.6-0.7-6.4-2.4-8.5c-3.1-3.8-7.2-0.2-8.9,2.9c-7.1,13.2-8.9,30.6-8.5,45.3C1235.2,1098.8,1238.2,1098.8,1238.1,1096.9
				L1238.1,1096.9z"/>
		</g>
	</g>
	<g>
		<g>
			<path class="st0" d="M1281.9,1078.5c3.8-25.3,8.8-53.7,30.1-70.4c-0.9-0.4-1.7-0.7-2.6-1.1c0.3,12.9-1.7,25.6-6,37.8
				c-0.6,1.8,2.3,2.6,2.9,0.8c4.3-12.5,6.4-25.4,6.1-38.6c0-1.4-1.6-1.8-2.6-1.1c-21.8,17-27,46-30.9,71.8
				C1278.7,1079.6,1281.6,1080.4,1281.9,1078.5L1281.9,1078.5z"/>
		</g>
	</g>
	<g>
		<g>
			<path class="st0" d="M1305.8,1064.7c8.1-23.1,17.5-48.4,39.4-61.7c-0.7-0.3-1.5-0.6-2.2-0.9c2.8,8-1.7,17.6-4,25.3
				c-2.4,8.1-4.8,16.1-7.2,24.2c-4.9,16.1-10,32.1-15.3,48.1c-0.6,1.8,2.3,2.6,2.9,0.8c5.7-17.2,11.2-34.4,16.4-51.8
				c2.6-8.7,5.2-17.3,7.7-26c2-6.9,4.9-14.2,2.4-21.3c-0.3-0.9-1.3-1.4-2.2-0.9c-22.6,13.8-32.4,39.7-40.8,63.5
				C1302.3,1065.7,1305.2,1066.5,1305.8,1064.7L1305.8,1064.7z"/>
		</g>
	</g>
	<g>
		<g>
			<path class="st0" d="M1343.9,1068.3c2.7-3,5.7-5.2,9.3-6.9c-0.7-0.6-1.5-1.1-2.2-1.7c-6.6,20.6-15.3,40.5-25.9,59.4
				c-0.9,1.7,1.6,3.2,2.6,1.5c10.8-19.1,19.5-39.2,26.2-60.1c0.4-1.3-1.1-2.2-2.2-1.7c-3.8,1.8-7.1,4.2-9.9,7.4
				C1340.5,1067.6,1342.6,1069.7,1343.9,1068.3L1343.9,1068.3z"/>
		</g>
	</g>
	<g>
		<g>
			<path class="st0" d="M306.8,1136.4c-11.6-13.1-22.3-27-31.8-41.7c-4.5-6.9-8.7-14-12.7-21.2c-2-3.6-3.9-7.2-5.8-10.9
				c-1.1-2.1-2.1-4.2-3.1-6.3c-0.5-1.1-1-2.1-1.5-3.2c-1.9-2.6-1.3-4.9,1.7-6.9c1.7,0.8,3.3-1.8,1.5-2.6c-2.4-1.1-4.9-0.6-6.5,1.7
				c-1.8,2.6-0.8,5.8,0.4,8.5c4.4,10.5,10.2,20.6,16,30.4c11.4,19.3,24.8,37.5,39.7,54.3C306,1140,308.1,1137.8,306.8,1136.4
				L306.8,1136.4z"/>
		</g>
	</g>
	<g>
		<g>
			<path class="st0" d="M305.9,1112.2c-32.1-45-63.5-94.6-67.2-151.3c-0.9,0.3-1.9,0.5-2.8,0.8c27.4,49.4,56.3,98,86.5,145.7
				c0.9-0.5,1.7-1,2.6-1.5c-1-1-1.3-2.2-1.1-3.6c0.2-1.9-2.8-1.9-3,0c-0.2,2,0.2,3.5,1.5,5.1c1.1,1.5,3.6,0.2,2.6-1.5
				c-30.2-47.7-59.1-96.3-86.5-145.7c-0.7-1.3-2.9-0.7-2.8,0.8c3.7,57.3,35.1,107.3,67.6,152.8
				C304.4,1115.2,307,1113.7,305.9,1112.2L305.9,1112.2z"/>
		</g>
	</g>
	<g>
		<g>
			<path class="st0" d="M297,1049c-7.4-16-11.1-33.2-11-50.8c-0.9,0.3-1.9,0.5-2.8,0.8c19.9,38.6,39.9,77.1,59.8,115.7
				c0.9,1.7,3.5,0.2,2.6-1.5c-19.9-38.6-39.9-77.1-59.8-115.7c-0.7-1.4-2.8-0.7-2.8,0.8c0,18.1,3.9,35.8,11.4,52.3
				C295.3,1052.3,297.8,1050.8,297,1049L297,1049z"/>
		</g>
	</g>
	<g>
		<g>
			<path class="st0" d="M575.4,1109c53.8,0,107.5,0,161.3,0c1.9,0,1.9-3,0-3c-53.8,0-107.5,0-161.3,0
				C573.5,1106,573.5,1109,575.4,1109L575.4,1109z"/>
		</g>
	</g>
	<g>
		<g>
			<path class="st0" d="M622.5,1130.7c57.4,0,114.8,0,172.1,0c1.9,0,1.9-3,0-3c-57.4,0-114.8,0-172.1,0
				C620.6,1127.7,620.6,1130.7,622.5,1130.7L622.5,1130.7z"/>
		</g>
	</g>
	<g>
		<g>
			<path class="st0" d="M142.4,1147c40.5,0,80.9,0,121.4,0c1.9,0,1.9-3,0-3c-40.5,0-80.9,0-121.4,0
				C140.4,1144,140.4,1147,142.4,1147L142.4,1147z"/>
		</g>
	</g>
	<g>
		<g>
			<path class="st0" d="M1013.9,1101.7c49.5,0,99.1,0,148.6,0c1.9,0,1.9-3,0-3c-49.5,0-99.1,0-148.6,0
				C1012,1098.7,1012,1101.7,1013.9,1101.7L1013.9,1101.7z"/>
		</g>
	</g>
	<g>
		<g>
			<path class="st0" d="M128.1,250.3c1.4-11.1,14.9-17,23.5-9.1c5.4,4.9,6.8,11.6,14.1,14.4c5.3,2.1,11.6,2,16.8-0.6
				c6.8-3.4,9.2-10.5,13.1-16.4c2.4-3.7,6.2-7.7,11-7.6c3.8,0.1,6.9,2.9,9.5,5.4c3.6,3.4,7.1,7.8,12.1,9.2
				c12,3.2,14.1-12.3,22.3-16.5c5.1-2.6,8.7,2.4,11.4,6c2.2,3,4.5,5.6,7.5,7.7c6.5,4.5,14.6,5.9,22.3,4.3c1.9-0.4,1.1-3.3-0.8-2.9
				c-10.5,2.2-20.1-2.2-26.4-10.6c-3.1-4.2-6.7-9.2-12.7-8.1c-11,2-13.9,25.3-27.3,14.6c-4.5-3.5-7.8-8.6-13.2-11
				c-5.7-2.5-11.3-0.1-15.3,4.2c-5.7,6.2-7.4,16.1-15.9,19.5c-3.9,1.6-8.3,1.6-12.2,0.3c-5.3-1.7-7.8-5.7-10.7-10.1
				c-9.3-13.6-29.7-9.5-31.9,7.2C124.8,252.2,127.8,252.2,128.1,250.3L128.1,250.3z"/>
		</g>
	</g>
	<g>
		<g>
			<path class="st0" d="M304.9,305.3c4.4-6.5,11.5-10.8,19.3-11.5c8.5-0.8,14.8,3.6,22.2,6.8c4.7,2,10.4,3,15.1,0.5
				c2.5-1.4,3.9-3.5,5.5-5.8c2.1-3.1,4.4-5.5,7.8-7.2c6.2-3.1,14.1-3.1,20.1,0.4c5.4,3.2,8.5,9.5,14.5,11.9
				c11,4.3,15.1-8.8,23.9-11.5c4.9-1.5,7.9,3.3,10.8,6.3c2.6,2.7,5.5,5,8.7,6.9c6.4,3.9,13.7,5.9,21.2,6.3c1.9,0.1,1.9-2.9,0-3
				c-8.9-0.4-17.5-3.5-24.4-9.2c-4.2-3.5-7.6-10-13.5-10.6c-11.7-1.2-16.8,19.9-29.2,9.7c-4.8-3.9-8.2-8.9-14.2-11.1
				c-5.3-2-11.4-1.8-16.7,0.2c-5.4,2-8.8,5.5-11.9,10.1c-7,10.2-17.5,2.5-25.8-1.2c-12.9-5.7-28-1.1-35.9,10.6
				C301.2,305.4,303.8,306.9,304.9,305.3L304.9,305.3z"/>
		</g>
	</g>
	<g>
		<g>
			<path class="st0" d="M1247.4,501.3c2.4-3.6,5.3-7.6,9.4-9.4c5.2-2.3,8.6,1.2,12.8,3.8c5.7,3.6,12.6,5.2,19.2,4.4
				c6.4-0.7,11.8-3.7,17.1-7.2c5.7-3.8,12.1-9.2,19.4-9.1c12,0.2,21.6,21.3,34.3,10.2c3.5-3,6-6,11-6.2c4.1-0.2,8.2,1.2,11.9,2.9
				c6.9,3.2,13.1,7.1,20.9,7.3c1.9,0,1.9-3,0-3c-13.4-0.3-28.4-17.4-41.8-7.2c-4.1,3.1-6.3,7.4-12.3,5.9c-4.9-1.3-8.4-5.2-12.3-8.2
				c-4.8-3.7-10-5.6-16-4.2c-6.7,1.6-12.2,6.2-17.9,9.9c-7.6,4.9-15.7,7.7-24.7,5.3c-6.8-1.8-12.4-9.4-19.8-8.3
				c-6.2,1-10.6,6.8-13.8,11.6C1243.7,501.4,1246.3,502.9,1247.4,501.3L1247.4,501.3z"/>
		</g>
	</g>
	<g>
		<g>
			<path class="st0" d="M1313.9,554c10.3-11.5,29-23.4,43.5-11.1c4.2,3.6,5.9,10.6,11.5,12.4c6,1.9,11-3,15-6.8
				c5.8-5.5,14.1-11.8,22.6-9.9c6.7,1.5,9.7,8.4,15.1,11.9c5.4,3.5,9.8,1,15.2-1.1c8.9-3.4,18.5-2.9,27.3,0.6
				c1.8,0.7,2.6-2.2,0.8-2.9c-7.6-3.1-16-4-24-2.1c-3.7,0.8-6.9,2.7-10.5,3.8c-5.1,1.6-8.4-1.6-11.7-5c-4.2-4.3-8.2-8.4-14.6-8.6
				c-6.5-0.2-12.7,3.1-17.6,7c-3.7,2.8-6.6,6.8-10.7,9.1c-6.3,3.5-9.3-1.7-12.4-6.2c-3.5-5-8.5-8.4-14.5-9.7
				c-14.8-3.3-27.7,5.8-37.1,16.3C1310.5,553.3,1312.6,555.4,1313.9,554L1313.9,554z"/>
		</g>
	</g>
	<circle class="st1" cx="329.4" cy="402.8" r="15"/>
	<circle class="st1" cx="649.1" cy="61.4" r="15.7"/>
	<circle class="st1" cx="1277.2" cy="689" r="9.5"/>
	<circle class="st1" cx="1450.1" cy="375.7" r="12.1"/>
	<g>
		<g>
			<path class="st2" d="M263.5,519.1c5.6-6.7,14.7-6.7,22.1-3.2c3.5,1.7,6.6,4,9.6,6.5c1.6,1.3,3.2,2.7,5.3,3.1
				c5.7,1,10-5.2,14.6-7.5c8.2-4.1,16.5-2.4,24.2,1.8c8.5,4.7,21.4,11.3,28.7,0.9c2.8-4,4-8.3,9.9-8.3c3.5,0,6.8,1.2,10,2.7
				c6.2,2.8,12.3,6.1,19.2,3.7c1.8-0.6,1-3.5-0.8-2.9c-11.6,4-27.3-14.9-37.5-2.2c-2.4,3-3.1,6.6-6.8,8.5c-3.5,1.8-7.8,1.3-11.4,0.1
				c-7.2-2.4-13-7.9-20.7-9.3c-5.8-1-11.8,0-17,2.8c-2.9,1.6-5.1,4.1-7.9,5.7c-4.7,2.7-8.2-1.9-11.7-4.4
				c-9.4-6.8-23.5-10.3-31.9-0.1C260.2,518.4,262.3,520.6,263.5,519.1L263.5,519.1z"/>
		</g>
	</g>
	<g>
		<g>
			<path class="st2" d="M1157.3,765.1c4.1-1.6,8.4-2.4,12.8-2c4.5,0.4,7.9,2.3,12,3.8c5.4,2.1,8.9-1.3,13.4-3.9
				c3.9-2.3,8.4-4.5,13.1-4.6c4.2-0.1,7.6,1.8,11.4,3.5c4.5,2.1,8.8,3.1,13.4,0.9c5-2.3,8.4-7,13.6-9c7.6-2.9,14.1,3.1,20.6,6.2
				c6.7,3.1,17.6,3.5,20.1-5.1c0.5-1.9-2.4-2.7-2.9-0.8c-1.9,6.6-10.8,5.5-15.7,3.3c-5-2.3-9.3-5.9-14.8-7.1
				c-4.4-0.9-8.3,0.2-12,2.6c-4.5,2.9-8.6,8.2-14.4,8.3c-6,0.1-10.9-5-16.8-5.7c-5.8-0.6-11.4,1.6-16.3,4.4c-4.5,2.5-7,5.8-12.7,3.7
				c-2.8-1-5.3-2.4-8.2-3c-5.9-1.2-11.8-0.5-17.4,1.6C1154.7,762.9,1155.5,765.8,1157.3,765.1L1157.3,765.1z"/>
		</g>
	</g>
	<circle class="st3" cx="263.3" cy="345.2" r="14.2"/>
	<circle class="st3" cx="531.8" cy="822.8" r="10.4"/>
	<circle class="st2" cx="1176.7" cy="34.9" r="10.8"/>
</g>
<g id="_x2F_">
	<polygon class="st4" points="502.4,1134.2 437.2,1131.4 1148.3,224.7 1190.1,257.4 	"/>
</g>
<g id="bags_1_">
	<path class="st5" d="M1035.6,459.7c-0.2,3.8-0.6,9.1-1.3,15.4c0,0-2,17.8-6.9,38c-8.6,35.5-29.1,83.3-30.2,85.8
		c3.2,3.6,6.5,7.2,10.1,10.8c22.7,22.9,47.3,38.3,69.4,48.8c7.6-4.7,12-9.7,14.6-13.4c4.7-6.8,5.4-11.8,11.3-17.7
		c3.9-4,8.1-6.2,10.9-7.4c7.1,1.2,14.2,2.3,21.4,3.5c-0.5-6.1-1-12.2-1.6-18.5c-1.3-13.3-3-26.2-4.8-38.6
		c4.8,15.9,9.6,31.7,14.5,47.6c1.9-3.8,5.5-9.5,11.9-13.6c2.8-1.8,6.2-4,11-3.9c6.1,0.1,10.3,3.6,11.7,4.9
		c-0.9-5.6-2.5-13.4-5.3-22.5c-4.1-12.9-7.2-17-13.9-34.8c-4.1-10.8-6.1-16.2-7.5-22.7c-3.3-15.1-3.1-28.6-3-34.5
		c0.1-4,0.3-7.3,0.5-9.6c-4.2-2.9-10.6-7.2-18.7-12.1c-11.4-6.9-16.2-8.7-24.1-14.2c-4.9-3.3-11.7-8.5-19.1-16.1
		c2.5,5.7,4.4,11.6,2.1,13.8c-3.3,3.1-13-3.4-15.3-0.5c-2.2,2.7,5,10.7,3.6,12.2c-0.8,0.9-4.9-0.8-18.7-11.6
		c0.4,3.4,0.8,6.8,1.2,10.3C1051.5,459.3,1043.6,459.5,1035.6,459.7z"/>
	<g>
		<g>
			<path d="M1072.3,316.5c10.8,6,15.5,17.7,18.3,29.1c3.4,13.7,5.5,27.7,8,41.6c5.5,30.7,10.6,61.6,15.3,92.4
				c0.3,1.9,3.2,1.1,2.9-0.8c-5-32.8-10.4-65.6-16.4-98.3c-2.5-13.9-4.3-28.3-8.6-41.8c-3.2-10.1-8.5-19.5-18-24.8
				C1072.1,313,1070.6,315.6,1072.3,316.5L1072.3,316.5z"/>
		</g>
	</g>
	<g>
		<g>
			<path d="M1064,479.5c10.6,4.8,21.1,9.7,31.7,14.5c0.9,0.4,1.8,0.1,2.2-0.9c1.7-4.4,3.5-8.8,5.2-13.2c-0.6,0.3-1.2,0.7-1.8,1
				c5.1,1.4,10.2,2.1,15.5,2.1c1.9,0,1.9-3,0-3c-5,0-9.8-0.6-14.7-2c-0.8-0.2-1.5,0.3-1.8,1c-1.7,4.4-3.5,8.8-5.2,13.2
				c0.7-0.3,1.5-0.6,2.2-0.9c-10.6-4.8-21.1-9.7-31.7-14.5C1063.8,476.1,1062.3,478.7,1064,479.5L1064,479.5z"/>
		</g>
	</g>
	<g>
		<g>
			<path d="M1093.6,494.2c2.7,54.7-2.8,109.5-16.4,162.6c-0.5,1.9,2.4,2.7,2.9,0.8c13.6-53.3,19.2-108.4,16.5-163.4
				C1096.5,492.3,1093.5,492.3,1093.6,494.2L1093.6,494.2z"/>
		</g>
	</g>
	<g>
		<g>
			<path d="M1116.4,484.5c3,23.2,5.9,46.4,8.9,69.6c1.5,11.4,2.9,22.9,4.4,34.3c0.7,5.6,1.4,11.1,2.1,16.7c0.4,2.9,0.7,5.9,1.1,8.8
				c0.2,1.9,1.9,7.1,0.7,8.8c0.6-0.2,1.1-0.5,1.7-0.7c0.1,0.5,0.2,1.1,0.3,1.6c1.5-1.2-0.6-3.3-2.1-2.1c-0.1,0.1-0.2,0.2-0.3,0.2
				c-0.4,0.3-0.6,1-0.4,1.5c0.4,1,0.7,1.4,1.8,1.7c0.7,0.2,1.3-0.1,1.7-0.7c2.1-3-0.1-8.9-0.5-12.3c-0.8-6.2-1.6-12.4-2.4-18.6
				c-1.5-12.1-3.1-24.2-4.6-36.3c-3.1-24.2-6.2-48.4-9.2-72.5C1119.2,482.6,1116.2,482.6,1116.4,484.5L1116.4,484.5z"/>
		</g>
	</g>
	<g>
		<g>
			<path d="M1079.1,657.7c8.7-6.4,16.4-14.1,22.6-23c2.9-4.2,5.7-11.3,10.9-13.1c3.6-1.2,8.2,0.3,11.9,0.8c3.4,0.5,6.8,1,10.1,1.4
				c1.9,0.3,2.7-2.6,0.8-2.9c-6.6-0.9-13.6-2.8-20.3-2.7c-4.5,0-7.7,2.7-10.3,6.1c-4.1,5.4-7.2,11.2-11.7,16.4
				c-4.7,5.4-9.9,10.1-15.6,14.3C1076,656.3,1077.5,658.9,1079.1,657.7L1079.1,657.7z"/>
		</g>
	</g>
	<g>
		<g>
			<path d="M997.5,601.6c11.5,12.6,24.1,24.2,37.7,34.6c6.9,5.2,14,10.1,21.3,14.6c3.7,2.3,7.4,4.5,11.1,6.6c3,1.6,5.6,3.2,9.1,2.7
				c1.9-0.2,1.9-3.2,0-3c-4.2,0.5-8.5-2.8-12.1-4.9c-3.5-2-6.9-4.1-10.3-6.3c-6.7-4.3-13.2-8.9-19.5-13.8
				c-12.7-9.8-24.4-20.8-35.2-32.6C998.3,598,996.2,600.1,997.5,601.6L997.5,601.6z"/>
		</g>
	</g>
	<g>
		<g>
			<path d="M1036.7,460.7c9.1,8.4,19.5,15,31,19.8c1.8,0.7,2.6-2.2,0.8-2.9c-11-4.6-20.9-11-29.6-19
				C1037.4,457.3,1035.3,459.4,1036.7,460.7L1036.7,460.7z"/>
		</g>
	</g>
	<g>
		<g>
			<path d="M1034.1,459.7c-1,12.4-1.9,24.8-4.2,37.1c-2.1,11.3-5.7,22-9.6,32.8c-8.2,23-16.3,46-24.5,69c-0.6,1.8,2.2,2.6,2.9,0.8
				c8.4-23.6,16.8-47.1,25.1-70.7c3.8-10.8,7.3-21.7,9.3-33c2.1-11.9,3.1-23.9,4-36C1037.3,457.8,1034.3,457.8,1034.1,459.7
				L1034.1,459.7z"/>
		</g>
	</g>
	<g>
		<g>
			<path d="M1036.4,458.8c7.9,2.4,15.8,3.1,24,2.1c0.8-0.1,1.5-0.6,1.5-1.5c-0.1-3.8-1-7-3.1-10.1c-0.6,0.7-1.1,1.5-1.7,2.2
				c10.5,4.2,18.5,12.4,27.7,18.8c4,2.8,8.3,5.2,13,6.8c5.9,2,11.9,3,17,6.8c1.5,1.2,3-1.4,1.5-2.6c-4.4-3.3-9.5-4.6-14.7-6.2
				c-6.1-1.8-11.4-4.6-16.6-8.3c-8.9-6.4-16.8-14.1-27.2-18.2c-1.2-0.5-2.4,1.2-1.7,2.2c1.8,2.7,2.6,5.4,2.7,8.6
				c0.5-0.5,1-1,1.5-1.5c-7.9,1-15.6,0.4-23.2-2C1035.4,455.3,1034.6,458.2,1036.4,458.8L1036.4,458.8z"/>
		</g>
	</g>
	<g>
		<g>
			<path d="M1064.2,328.9c20.9,12.5,29.3,37.2,37,59c9.3,26.5,17.5,53.4,24.6,80.6c0.5,1.9,3.4,1.1,2.9-0.8
				c-7.6-29-16.4-57.8-26.5-86c-7.5-20.9-16.5-43.4-36.4-55.3C1064,325.3,1062.5,327.9,1064.2,328.9L1064.2,328.9z"/>
		</g>
	</g>
	<g>
		<g>
			<path d="M1059.6,449.2c2.7-11.1,5.4-22.3,8.1-33.4c0.5-1.9-2.4-2.7-2.9-0.8c-2.7,11.1-5.4,22.3-8.1,33.4
				C1056.3,450.3,1059.2,451.1,1059.6,449.2L1059.6,449.2z"/>
		</g>
	</g>
	<g>
		<g>
			<path d="M1066.2,415.8c1.8,10.9,3.7,21.9,5.5,32.8c0.1,0.6,0.8,1.2,1.4,1.1c5.2-0.5,10,0.1,14.9,2c1.1,0.4,2.1-0.8,1.8-1.8
				c-0.9-4.2-1.1-8.3-0.5-12.6c0.3-1.9-2.6-2.7-2.9-0.8c-0.7,4.8-0.6,9.4,0.5,14.2c0.6-0.6,1.2-1.2,1.8-1.8
				c-5.1-2-10.2-2.7-15.7-2.1c0.5,0.4,1,0.7,1.4,1.1c-1.8-10.9-3.7-21.9-5.5-32.8C1068.8,413.1,1065.9,413.9,1066.2,415.8
				L1066.2,415.8z"/>
		</g>
	</g>
	<g>
		<g>
			<path d="M1085.3,436c11.4,12.1,25.3,21.3,40.9,27c1.8,0.7,2.6-2.2,0.8-2.9c-15.1-5.6-28.5-14.5-39.6-26.2
				C1086.1,432.4,1084,434.5,1085.3,436L1085.3,436z"/>
		</g>
	</g>
	<g>
		<g>
			<path d="M1071,449.7c2,3.8,3.1,7.8,3.3,12.1c0.1,1.9,3.1,1.9,3,0c-0.2-4.8-1.4-9.4-3.7-13.7C1072.7,446.4,1070.1,448,1071,449.7
				L1071,449.7z"/>
		</g>
	</g>
	<g>
		<g>
			<path d="M1122.7,462.2c8.1,5.7,16.4,11.2,24.8,16.4c0.3-0.9,0.5-1.9,0.8-2.8c-5.1,0.4-10.2,0.8-15.2,1.2
				c-0.8,0.1-1.5,0.6-1.5,1.5c0,0.9-0.1,1.9-0.1,2.8c-0.1,1.9,2.9,1.9,3,0c0-0.9,0.1-1.9,0.1-2.8c-0.5,0.5-1,1-1.5,1.5
				c5.1-0.4,10.2-0.8,15.2-1.2c1.4-0.1,2.1-2,0.8-2.8c-8.4-5.2-16.7-10.7-24.8-16.4C1122.6,458.5,1121.1,461.1,1122.7,462.2
				L1122.7,462.2z"/>
		</g>
	</g>
	<g>
		<g>
			<path d="M1119.4,486.2c4.9,4.7,14.1,2.1,15.6-4.7c0.4-1.9-2.5-2.7-2.9-0.8c-1,4.5-7.1,6.6-10.5,3.3
				C1120.1,482.8,1118,484.9,1119.4,486.2L1119.4,486.2z"/>
		</g>
	</g>
	<g>
		<g>
			<path d="M1147.1,478c-2.5,20.8,0.2,41.8,7.8,61.4c7.9,20.3,16.6,39.8,22.3,60.9c0.5,1.9,3.4,1.1,2.9-0.8
				c-5.5-20.5-13.8-39.5-21.6-59.2c-7.9-19.9-10.9-41-8.4-62.3C1150.3,476.1,1147.3,476.1,1147.1,478L1147.1,478z"/>
		</g>
	</g>
	<g>
		<g>
			<path d="M1127,566.7c6.1,15.5,11,31.3,14.5,47.6c0.2,0.9,1.4,1.4,2.2,0.9c5.2-3.4,7.3-9.1,11.7-13.3c5.9-5.6,15.3-5.1,21.1,0.5
				c1.4,1.3,3.5-0.8,2.1-2.1c-5-4.9-12.4-6.6-19.1-4.3c-8.4,2.9-10.4,12.1-17.4,16.7c0.7,0.3,1.5,0.6,2.2,0.9
				c-3.5-16.3-8.3-32.1-14.5-47.6C1129.2,564.2,1126.3,564.9,1127,566.7L1127,566.7z"/>
		</g>
	</g>
</g>
<g id="o_1_">
	<path class="st4" d="M1028.7,805.1c-62.9,0-113.9,51-113.9,113.9s51,113.9,113.9,113.9c62.9,0,113.9-51,113.9-113.9
		S1091.6,805.1,1028.7,805.1z M972.5,841.4c29.7-21.7,73.9-21.6,111.3,0.4c42.4,33,50,94.4,18.3,135.6
		c-32.4,42.1-93.8,47.6-131.3,19.7C921.7,960.5,925.1,875.9,972.5,841.4z"/>
</g>
<g id="cat_below">
	<path d="M657.1,556.9c6.7,15.2,7.9,27.6,7.8,36.2c-0.2,10-2.2,12.3-3.9,33.7c-0.5,6.1-1.5,12.1-2.2,18.2
		c-0.7,6.1-1.2,10.9-4.6,15.6c-1.8,2.6-3.9,4.3-5.4,5.3c-1.8-11-3.7-22.1-5.5-33.1c-2.9-3.7-5.9-7.4-8.8-11
		c0.7,4.8,1.5,9.6,2.2,14.3c1.3,11.4,2.6,22.8,3.9,34.2c-2.3,0.9-4.6,1.9-6.9,2.8c-2.8-9.1-6-18.5-9.6-28.2
		c-1.7-4.7-3.5-9.3-5.3-13.7c-3.9-5.7-9.3-15.2-12.3-28.2c-3.1-13.6-2.2-25.1-1.1-32c-2.9-9.6-5.9-19.1-8.8-28.7
		C616.6,547.2,636.8,552,657.1,556.9z"/>
	<path d="M657.9,581.1c3,3.7,7.6,9,13.9,14.8c11.9,11,17.9,12.7,23,20.6c2.5,3.9,10,15.1,5.7,25.4c-5,12-22.7,14.1-23,13.4
		c-0.2-0.5,11.1-2.8,13.9-11c3-8.8-5.4-19.2-7.7-22c-9.5-11.8-18.6-10.8-23.9-20.6C656.2,595.1,656.5,587.7,657.9,581.1z"/>
</g>
<g id="bags">
	<path class="st5" d="M531.6,599.2c-0.5,2.7-1.4,6.8-2.4,11.7c-3.7,18.1-6.4,31.3-7.5,36.2c-2.4,11.3-5.8,28.1-10.5,51.4
		c5.3,9.6,10.5,16.5,14.2,21c6.9,8.3,11.8,12.2,25.3,26.7c4.1,4.4,7.4,8,9.4,10.3c4.1-3.9,8.2-7.7,12.3-11.6
		c3.2,1.6,6.4,3.1,9.6,4.7c-0.3-8.8-0.6-17.6-0.9-26.3c2.3,3.1,5.7,7.1,10.7,10.8c6.4,4.8,12.6,7.1,16.8,8.4
		c3.4-1.5,7.5-3.5,11.7-6.4c5.6-3.8,9.8-7.9,12.7-11.3c-1.3-2.9-3.2-7.4-5.3-13c-3.9-10.7-5.9-19.6-11.2-46.2
		c-1.3-6.6-2.9-14.7-4.6-23.9c-3.8-5.4-7.6-10.8-11.6-16.3c-8-11-16-21.7-24-31.9c-2.7,0.9-5.3,1.7-8,2.6c-3.3-1.5-6.6-3-9.9-4.5
		c0.1,8.8,0.1,17.6,0.2,26.4c-5.5-6.7-11-13.4-16.5-20.1C538.6,598.3,535.1,598.7,531.6,599.2z"/>
	<g>
		<g>
			<path d="M573.1,542.9c-6.3,37-4.8,74.6-3.2,111.9c0.1,1.9,3.1,1.9,3,0c-1.6-37.1-3.2-74.4,3.1-111.1
				C576.3,541.8,573.4,541,573.1,542.9L573.1,542.9z"/>
		</g>
	</g>
	<g>
		<g>
			<path d="M565.7,543.4c-9.5,18.5-22.2,35.1-35,51.5c-1.2,1.5,0.9,3.6,2.1,2.1c12.9-16.6,25.8-33.3,35.4-52.1
				C569.2,543.2,566.6,541.6,565.7,543.4L565.7,543.4z"/>
		</g>
	</g>
	<g>
		<g>
			<path d="M533.7,597.8c3.6-0.5,7.1,1.2,10-1.6c3.2-3.1,5.2-8.7,7.3-12.6c5.4-9.9,10.9-19.7,16.3-29.6c0.9-1.7-1.7-3.2-2.6-1.5
				c-4.6,8.4-9.3,16.8-13.9,25.2c-2.2,4.1-4.5,8.1-6.7,12.2c-1.5,2.8-2.9,4.7-6.2,5c-1.7,0.2-3.3-0.2-5,0
				C531,595.1,531.8,598,533.7,597.8L533.7,597.8z"/>
		</g>
	</g>
	<g>
		<g>
			<path d="M572.5,553.1c2.3,33.4,3.6,66.8,4,100.3c0,1.9,3,1.9,3,0c-0.4-33.5-1.7-66.9-4-100.3
				C575.4,551.2,572.4,551.2,572.5,553.1L572.5,553.1z"/>
		</g>
	</g>
	<g>
		<g>
			<path d="M571.9,656.7c1.9-0.5,3.7-0.9,5.6-1.4c1.9-0.5,1.1-3.4-0.8-2.9c-1.9,0.5-3.7,0.9-5.6,1.4
				C569.3,654.3,570.1,657.2,571.9,656.7L571.9,656.7z"/>
		</g>
	</g>
	<g>
		<g>
			<path d="M533.3,598.7c1.1,0,1.9,1.6,2.6,2.4c0.8,0.9,1.9,1.7,3.1,1.6c1.3-0.1,2.3-0.8,2.9-1.9c0.4-0.7,0.7-3.3,1.5-3.6
				c1.8-0.7,1-3.6-0.8-2.9c-1.2,0.5-1.9,1.3-2.4,2.5c-0.2,0.6-0.6,2.9-1.4,2.9c-0.7,0-1.8-2-2.3-2.4c-0.9-0.9-1.9-1.6-3.3-1.5
				C531.4,595.8,531.4,598.8,533.3,598.7L533.3,598.7z"/>
		</g>
	</g>
	<g>
		<g>
			<path d="M530.1,598.8c-6.6,32.9-13.6,65.7-20.4,98.6c-0.4,1.9,2.5,2.7,2.9,0.8c6.8-32.9,13.8-65.7,20.4-98.6
				C533.4,597.7,530.5,596.9,530.1,598.8L530.1,598.8z"/>
		</g>
	</g>
	<g>
		<g>
			<path d="M532.9,603.2c9.7,19.4,21.7,37.4,35.9,53.7c1.3,1.5,3.4-0.7,2.1-2.1c-14-16.1-25.9-33.9-35.4-53.1
				C534.6,600,532,601.5,532.9,603.2L532.9,603.2z"/>
		</g>
	</g>
	<g>
		<g>
			<path d="M541.1,598.9c14.1,15.7,24,35.1,34.8,53.1c1,1.7,3.6,0.1,2.6-1.5c-10.9-18.3-21-37.8-35.2-53.8
				C542,595.3,539.8,597.5,541.1,598.9L541.1,598.9z"/>
		</g>
	</g>
	<g>
		<g>
			<path d="M577,653.4c0.1,32.1,1.3,64.1,3.7,96.1c0.1,1.9,3.1,1.9,3,0c-2.4-32-3.6-64-3.7-96.1C580,651.5,577,651.4,577,653.4
				L577,653.4z"/>
		</g>
	</g>
	<g>
		<g>
			<path d="M568.8,658.2c-4.2,32.7-7.6,65.4-10.2,98.2c-0.2,1.9,2.8,1.9,3,0c2.6-32.8,6-65.6,10.2-98.2
				C572.1,656.3,569.1,656.3,568.8,658.2L568.8,658.2z"/>
		</g>
	</g>
	<g>
		<g>
			<path d="M561.8,758.4c2.6-2.9,5.2-5.9,7.8-8.8c1.9-2.2,3-2.6,5.8-1.8c2,0.6,4,2,5.9,3c1.7,0.9,3.2-1.7,1.5-2.6
				c-3-1.5-8.4-5.9-12-4c-1.9,1-3.5,3.5-4.9,5.1c-2.1,2.3-4.2,4.7-6.2,7C558.4,757.7,560.5,759.9,561.8,758.4L561.8,758.4z"/>
		</g>
	</g>
	<g>
		<g>
			<path d="M510,699.2c6.6,10.7,13.7,21.1,22.1,30.5c8.6,9.6,19.4,17.2,26.5,28.1c1.1,1.6,3.7,0.1,2.6-1.5
				c-6.6-10.1-16.3-17.4-24.5-26.1c-9.3-9.8-16.9-21.1-24-32.6C511.6,696,509,697.6,510,699.2L510,699.2z"/>
		</g>
	</g>
	<g>
		<g>
			<path d="M592.7,555.6c4.8,29,10.7,57.8,17.8,86.4c0.5,1.9,3.4,1.1,2.9-0.8c-7.1-28.5-13-57.4-17.8-86.4
				C595.3,552.9,592.4,553.7,592.7,555.6L592.7,555.6z"/>
		</g>
	</g>
	<g>
		<g>
			<path d="M576.7,620.3c6.1,12.6,14.3,23.9,24.4,33.6c0.9,0.8,2.1,0.4,2.5-0.7c0.6-1.8,0.5-4,1.2-5.6c1.9-4.3,5.2-3.9,8.8-2.5
				c1.8,0.7,2.6-2.2,0.8-2.9c-3.2-1.2-7.2-2.4-10.1,0.1c-2.9,2.5-2.4,6.8-3.5,10.1c0.8-0.2,1.7-0.4,2.5-0.7c-10-9.5-18-20.6-23.9-33
				C578.5,617,575.9,618.5,576.7,620.3L576.7,620.3z"/>
		</g>
	</g>
	<g>
		<g>
			<path d="M611.8,642.9c3.5,29.3,10.2,58.1,20.2,85.9c0.6,1.8,3.5,1,2.9-0.8c-9.9-27.5-16.6-56.1-20.1-85.1
				C614.5,641,611.5,641,611.8,642.9L611.8,642.9z"/>
		</g>
	</g>
	<g>
		<g>
			<path d="M600.3,654.8c1.2,29.3,3.4,58.5,6.7,87.6c0.1,1.2,1.2,1.8,2.3,1.3c9.5-4.1,17.8-10.2,24.8-17.9c1.3-1.4-0.8-3.6-2.1-2.1
				c-6.8,7.6-14.9,13.4-24.2,17.4c0.8,0.4,1.5,0.9,2.3,1.3c-3.3-29.1-5.6-58.3-6.7-87.6C603.3,652.8,600.3,652.8,600.3,654.8
				L600.3,654.8z"/>
		</g>
	</g>
	<g>
		<g>
			<path d="M580,724.2c7.3,9.1,16.5,16,27.3,20.4c1.8,0.7,2.6-2.2,0.8-2.9c-10.3-4.2-19.1-10.9-26-19.6
				C581,720.6,578.9,722.7,580,724.2L580,724.2z"/>
		</g>
	</g>
	<g>
		<g>
			<path d="M560.2,616.5c-0.4-8.3-0.5-16.7-0.2-25c-0.9,0.4-1.7,0.7-2.6,1.1c4.6,4.8,7.1,11.3,10.7,16.8c3.4,5.1,7.3,9.9,11.2,14.7
				c1.2,1.5,3.3-0.6,2.1-2.1c-4.5-5.5-8.9-11.1-12.7-17.1c-3-4.9-5.3-10.2-9.3-14.4c-0.9-1-2.5-0.2-2.6,1.1
				c-0.3,8.3-0.2,16.7,0.2,25C557.3,618.4,560.3,618.4,560.2,616.5L560.2,616.5z"/>
		</g>
	</g>
	<g>
		<g>
			<path d="M559.2,591.7c3.5,2,9.1,7,13.4,6.6c4.2-0.4,2.1-3.7,3.4-6.2c-0.9,0-1.7,0-2.6,0c6.4,8.4,12.7,16.8,19.1,25.2
				c3,3.9,5.9,7.8,8.8,11.8c1.4,2,2.8,4,4.2,6c0.6,0.9,3.7,4.4,3.5,5.4c0.5-0.4,1-0.7,1.4-1.1c0.2,0.1,0.3,0.1,0.5,0.2
				c0.1,0.6,0.2,1.2,0.2,1.8c0-0.1,0.1-0.1,0.1-0.2c1.2-1.5-1.4-3-2.6-1.5c0,0.1-0.1,0.1-0.1,0.2c-0.4,0.6-0.1,1.3,0.2,1.8
				c0.4,0.6,0.9,0.7,1.6,0.7c0.6,0,1.3-0.4,1.4-1.1c0.6-3-2.7-6.2-4.3-8.5c-3.3-4.8-6.8-9.5-10.3-14.1c-7.1-9.4-14.2-18.8-21.3-28.2
				c-0.6-0.8-2-1.1-2.6,0c-1.1,2.2-0.4,4.4-4,3.5c-2.8-0.7-6.2-3.6-8.7-5C559.1,588.1,557.5,590.7,559.2,591.7L559.2,591.7z"/>
		</g>
	</g>
	<g>
		<g>
			<path d="M561.5,591.9c5.7-15.7,11.7-31.2,17.9-46.7c0.7-1.8-2.2-2.6-2.9-0.8c-6.3,15.5-12.2,31-17.9,46.7
				C557.9,592.9,560.8,593.7,561.5,591.9L561.5,591.9z"/>
		</g>
	</g>
</g>
<g id="o">
	<path class="st4" d="M650.1,331.3c-66.6,0-120.5,55.7-120.5,124.3c0,68.7,54,124.3,120.5,124.3c66.6,0,120.5-55.7,120.5-124.3
		C770.6,386.9,716.7,331.3,650.1,331.3z M590.5,370.9c31.5-23.7,78.2-23.6,117.8,0.4c44.9,36.1,53,103,19.3,148.1
		c-34.3,45.9-99.2,52-139,21.5C536.8,501,540.4,408.6,590.5,370.9z"/>
</g>
<g id="cat_up">
	<path d="M569.3,464.9c-0.1,2,0,5.2,1.2,8.7c2.1,5.9,6.1,9.3,7.9,10.7c-1.3,2-2.5,4.6-3.4,7.7c-3,10.7,1,20,2.7,23.4
		c-2.9,0.7-10.1,3-16.1,9.7c-5,5.6-6.6,11.3-7.2,13.8c-0.9,3.4-3.1,11.8,1.2,18.5c0.9,1.5,1.9,2.9,3.6,3.4c3.7,0.9,7.7-4,13.1-10.4
		c3.4-4.1,8.8-10.4,16-18.6c-3.2,3.2-10.5,11.6-10.6,23.1c0,3.5-0.1,9,4,12.6c2.7,2.4,7.1,3.7,10.7,2.4c3.5-1.2,5.3-4.6,8.7-11.4
		c1.7-3.3,2.8-6.1,3.5-8c3.3,1.6,6.9,3.1,10.9,4.3c16.7,5.2,31.8,4,41.7,2.1c-0.4-8-2.1-14-3.6-18.1c-3.3-8.9-9.1-18.1-13.4-24.9
		c-2.9-4.5-6-9-6.5-15.8c-0.2-3.1,0.1-5.7,0.5-7.5c1.4-1.7,2.9-3.8,4.1-6.4c3.3-6.8,3.3-13.2,3.1-16.8c-3.9,1.7-9.1,4.4-14.2,9.1
		c-2.2,2.1-4.1,4.2-5.5,6.1c-2.5-1.9-6.2-4.1-11.1-5.5c-10.8-3.2-20.2-0.3-23.8,1.1c-0.5-1.7-2.1-5.7-6-9
		C576,465.5,571,465,569.3,464.9z"/>
	<g>
		<g>
			<path class="st5" d="M582.9,492.2c-1,2.8,0.8,6,3.9,6.3c3.5,0.3,5.7-3.5,7.2-6.2c0.9-1.7-1.6-3.2-2.6-1.5
				c-0.8,1.4-1.7,3.1-2.9,4.1c-1.6,1.3-3.4-0.1-2.7-1.9C586.5,491.2,583.6,490.4,582.9,492.2L582.9,492.2z"/>
		</g>
	</g>
	<g>
		<g>
			<path class="st5" d="M606.6,490.5c-0.1,3.2,0.2,7.1,3.7,8.4c1.3,0.5,2.8,0.4,4-0.4c1.5-1.1,1.8-2.9,2-4.6c0.2-1.9-2.8-1.9-3,0
				c-0.1,0.7-0.2,1.9-0.9,2.2c-0.6,0.3-1.3-0.1-1.8-0.5c-1.3-1.2-1.1-3.5-1-5.1C609.7,488.6,606.7,488.6,606.6,490.5L606.6,490.5z"
				/>
		</g>
	</g>
	<g>
		<g>
			<path class="st5" d="M597.8,498.5c1.9,0,1.9-3,0-3C595.9,495.5,595.9,498.5,597.8,498.5L597.8,498.5z"/>
		</g>
	</g>
	<g>
		<g>
			<path class="st5" d="M596.2,497.3c0.2,1.4-0.1,2.8-1,4c-0.3,0.4-1.7,1.7-2.1,1c-0.9-1.7-3.5-0.2-2.6,1.5c1.2,2.2,4.1,1.9,5.9,0.5
				c2.1-1.6,3.1-4.5,2.8-7.1C599,495.4,596,495.4,596.2,497.3L596.2,497.3z"/>
		</g>
	</g>
	<g>
		<g>
			<path class="st5" d="M596.9,496.9c-0.4,2.7-0.8,6,1.2,8.2c1.6,1.8,4.2,2.6,6.3,1.2c1.6-1.1,0.1-3.7-1.5-2.6
				c-1.1,0.7-2.3-0.1-2.9-1.1c-0.8-1.5-0.4-3.4-0.2-4.9C600.1,495.8,597.2,495,596.9,496.9L596.9,496.9z"/>
		</g>
	</g>
	<g>
		<g>
			<path d="M577.1,483.6c-5.9,9.9-6.1,21.8-0.8,32c0.9,1.7,3.5,0.2,2.6-1.5c-4.8-9.3-4.5-20,0.8-29
				C580.7,483.5,578.1,481.9,577.1,483.6L577.1,483.6z"/>
		</g>
	</g>
	<g>
		<g>
			<path d="M578.7,482.8c-4.1-4.1-6.7-7.6-7.2-13.5c-0.3-3.1-0.7-5.8-2.8-8.2c-1-1.1-3,0.1-2.5,1.5c1.2,3.4,3.9,5.1,7.3,6
				c2.8,0.8,5.8,1.1,8.1,3.2c2.2,2.1,3.4,5.3,4.4,8.1c0.7,1.8,3.6,1,2.9-0.8c-1.4-3.8-3-7.8-6.3-10.3c-3.9-2.9-11.7-1.9-13.5-7
				c-0.8,0.5-1.7,1-2.5,1.5c2.9,3.3,1.6,8.4,3,12.3c1.4,3.7,4.2,6.7,7,9.4C577.9,486.3,580,484.2,578.7,482.8L578.7,482.8z"/>
		</g>
	</g>
	<g>
		<g>
			<path d="M587.5,480.4c10.6-2.6,23.2-5.2,32,3.3c1.4,1.3,3.5-0.8,2.1-2.1c-9.6-9.3-23.1-6.9-34.9-4.1
				C584.8,478,585.6,480.9,587.5,480.4L587.5,480.4z"/>
		</g>
	</g>
	<g>
		<g>
			<path d="M622.6,482.7c0-5.7,7.3-6.1,11.1-7.8c3.4-1.5,6.2-3.7,8.7-6.4c-0.8-0.6-1.6-1.2-2.4-1.8c-4.7,6.5,0.3,18-6.7,22.7
				c-1.6,1.1-0.1,3.7,1.5,2.6c8.4-5.7,2.5-16.6,7.7-23.8c1-1.4-1.2-3.1-2.4-1.8c-4.4,4.8-9.4,5.7-15,8.4c-3.3,1.6-5.6,4.2-5.6,7.9
				C619.6,484.6,622.6,484.6,622.6,482.7L622.6,482.7z"/>
		</g>
	</g>
	<g>
		<g>
			<path d="M577.3,514c-17.6,4.8-31,24.8-23.6,42.9c3.6,8.8,11.3,4.8,16-0.7c6.5-7.7,10.4-17.8,19.3-23.2c1.6-1,0.1-3.6-1.5-2.6
				c-5.1,3.1-8.7,7.5-12,12.3c-2.8,4.1-12.1,21.3-18,14.7c-2.7-2.9-2.6-9.2-2.4-12.9c0.3-4.5,1.5-9,3.7-12.9
				c4.1-7.5,11.2-12.6,19.4-14.9C579.9,516.4,579.1,513.5,577.3,514L577.3,514z"/>
		</g>
	</g>
	<g>
		<g>
			<path d="M602.4,516.6c-9.3,4.3-15.2,12.7-19.9,21.5c-4.2,7.8-9.2,17.7-4.8,26.4c3.3,6.6,11.2,10.1,17.6,5.3
				c8.1-6.1,7-18.9,15.9-24.1c1.7-1,0.2-3.6-1.5-2.6c-5.7,3.3-7.7,9.1-10,14.9c-1.5,3.6-3.4,7.8-6.9,9.9c-5.1,3.1-10.5-0.6-12.6-5.4
				c-3.7-8.4,2.3-18.4,6.5-25.7c4.2-7.4,9.5-14,17.4-17.7C605.7,518.4,604.1,515.8,602.4,516.6L602.4,516.6z"/>
		</g>
	</g>
	<g>
		<g>
			<path d="M632,492c-0.3,5,0.3,10,2.2,14.7c2.2,5.5,6.2,9.6,9.4,14.4c7.1,10.6,10.6,23.2,12,35.8c0.2,1.9,3.2,1.9,3,0
				c-1.2-10.9-3.8-21.7-9-31.5c-2.7-5.2-6.6-9.5-9.8-14.4c-3.7-5.7-5.2-12.2-4.8-19C635.1,490.1,632.1,490.1,632,492L632,492z"/>
		</g>
	</g>
</g>
<g id="girl">
	<g id="hand_right">
		<path class="st5" d="M770.5,149.3c-0.1,2.9-0.1,7.4,1.2,12.6c1.8,7.7,4.5,9.9,8,18.4c4.3,10.1,1.8,10.4,6.1,20.5
			c1.7,4.1,4.6,10.9,10.7,17.9c4.5,5.1,9.1,8.5,12.4,10.6c1.8,4.3,4.3,10.1,7.4,17c3.7,8,8.2,17.1,20,38.4
			c13.7,24.7,21.1,36.7,32.1,42.7c5.1,2.8,9.4,3.4,10.4,3.5c2.8,0.3,8.3,0.6,19.9-4.3c6.2-2.6,11.2-5.5,17.8-9.7
			c9.9-6.4,16-10.3,23.1-16.3c13.1-11.1,10.2-12.8,26.6-29.2c11.4-11.3,16.6-14.3,19.4-23.2c0.8-2.5,4-14.2-1.4-19
			c-8.1-7.3-29.4,5.8-32.1,7.4c-4.8,3-5.6,4.3-16.3,13.9c-13.5,12.2-13,10.9-34.4,29.7c-4.1,3.6-10.2,9-17.7,15.8
			c-2.3-4.1-6-10.2-11.3-17.1c-4.4-5.7-6.3-7.3-13.3-15c-10-11-18-19.9-25.6-31.6c-4-6.2-6.8-11.5-8.4-14.9
			c-0.9-4.8-1.4-8.7-1.6-11.2c-0.7-6.4-1.1-14.6-3.5-24.4c-0.9-3.5-1.5-5.2-2.6-5.3c-2.2-0.4-5,5.4-7.1,10.7
			c-4.2-3.3-6.8-6.6-8.4-8.8c-5.7-8-5.4-13.7-11.4-20.3c-2.8-3.1-5.8-5.1-7.7-6.2c0.6-4.7,0.4-6-0.1-6.1c-0.9-0.3-2.3,4.3-4.5,4.3
			c-2.5,0-3.7-6-5.6-5.9C772.2,144.4,771.3,145.4,770.5,149.3z"/>
		<path class="st5" d="M780.9,299.9c-0.5,2.8-1,5.5-1.5,8.3c-3.8,21.9-6.3,43.1-7.7,63.6c-10.5,17-20.9,34-31.4,51
			c3,3.5,6.3,7,10,10.5c15.1,14.2,31,22.7,43.9,28c3.2-1.3,5.6-2.4,7.2-3.2c9.3-4.5,12.5-7.5,19.5-9.2c2.7-0.7,5-0.9,6.4-0.9
			c0-4.8-0.1-12.1-0.6-21c-0.8-15.9-2.1-22.4-2.5-31c-0.4-9,0.1-22.2,4.7-38.8c-1.8-3.6-4.6-8.8-8.9-14.6c-4.8-6.6-5.7-6.3-9.6-11.7
			c-5-7.1-7.6-13.6-11.2-22.6c-2-5-3.4-9.2-4.4-12.2c-2.1,2.9-4.2,5.8-6.3,8.8C786.1,303.2,783.5,301.6,780.9,299.9z"/>
		<path class="st6" d="M808.9,229.2c4,6,10.6,16.1,18.6,28.8c24.6,39,30.5,52.6,45.1,56.7c2.3,0.7,10,2.5,29.9-4.6
			c15.6-5.6,42.3-17.9,69.4-47.1c-4.2,6.8-10.4,15.9-19.3,25.3c-11.5,12.2-21.6,18.9-34.7,27.6c-17.2,11.4-24.5,13.5-30.4,14.4
			c-12,1.8-18.4-1.5-19.8-2.2c-6.9-3.6-10-9.7-12.5-14.3c-11.6-21.4-6.7-6-23.1-36.7C825.5,265,817.4,248.9,808.9,229.2z"/>
		<g>
			<g>
				<path d="M954,232.6c-21.9,20.6-44.8,40.1-68.6,58.6c-1.5,1.2,0.6,3.3,2.1,2.1c23.8-18.5,46.6-38,68.6-58.6
					C957.5,233.4,955.4,231.3,954,232.6L954,232.6z"/>
			</g>
		</g>
		<g>
			<g>
				<path d="M886.1,297.9c-3.8-14.7-17.6-24.9-27.1-35.8c-11.9-13.6-22.5-28.1-31.9-43.5c-1-1.6-3.6-0.1-2.6,1.5
					c8.6,14,18.2,27.4,28.9,40c5.3,6.2,10.8,12.1,16.4,18c5.8,6,11.2,12.3,13.4,20.5C883.7,300.6,886.6,299.8,886.1,297.9
					L886.1,297.9z"/>
			</g>
		</g>
		<g>
			<g>
				<path d="M826.8,217.1c-1-7.2-2.1-14.5-3.1-21.7c-0.6-3.9-1.1-7.9-1.7-11.8c-0.3-2.2-0.4-4.8-1.9-6.7c-7.1-9.3-10.9,10.2-11,14.1
					c0,1.9,3,1.9,3,0c0-2.3,0.2-4.6,0.8-6.8c0.4-1.6,1-3.2,1.7-4.8c1.3,0.5,2.6,1,3.9,1.6c0.8,0.9,0.6,4.1,0.8,5.4
					c0.3,2.3,0.7,4.6,1,6.9c1.2,8.2,2.4,16.5,3.6,24.7C824.2,219.8,827.1,219,826.8,217.1L826.8,217.1z"/>
			</g>
		</g>
		<g>
			<g>
				<path d="M787.2,200.3c-2.9-7.6-5.2-15.4-6.6-23.4c-1.4-7.8-3.3-18-0.9-25.8c-0.7,0.3-1.5,0.6-2.2,0.9c6.2,3.6,5.2,14.9,6.8,21.3
					c1.5,6,3.8,11.7,6.7,17.2c0.9,1.7,3.5,0.2,2.6-1.5c-4-7.5-6.7-15.5-7.9-23.9c-0.9-6-0.9-12.3-6.7-15.6c-0.9-0.5-1.9,0-2.2,0.9
					c-2.3,7.3-0.8,16.2,0.3,23.7c1.4,9.3,3.8,18.4,7.2,27.1C785,202.9,787.9,202.1,787.2,200.3L787.2,200.3z"/>
			</g>
		</g>
		<g>
			<g>
				<path d="M779.6,177.4c-3.5-7.6-10-19.2-7.6-27.8c-0.7,0.3-1.5,0.6-2.2,0.9c2.4,1.7,3.8,3.6,4.9,6.3c0.7,1.8,3.6,1,2.9-0.8
					c-1.3-3.4-3.3-5.9-6.3-8.1c-0.8-0.6-2,0-2.2,0.9c-2.7,9.8,3.9,21.4,7.9,30.1C777.8,180.7,780.4,179.2,779.6,177.4L779.6,177.4z"
					/>
			</g>
		</g>
		<g>
			<g>
				<path d="M774.5,150.7c-0.7-2-0.7-4-0.1-6c-0.7,0.3-1.5,0.6-2.2,0.9c6.7,4.2,9.4,11.7,12.7,18.5c3.5,7.4,8,14.1,13.2,20.4
					c1.2,1.5,3.4-0.7,2.1-2.1c-6.1-7.3-10.6-15.2-14.6-23.7c-2.9-6.1-6.1-11.9-11.9-15.7c-0.8-0.5-2,0-2.2,0.9
					c-0.6,2.6-0.6,4.9,0.1,7.6C772.1,153.3,775,152.5,774.5,150.7L774.5,150.7z"/>
			</g>
		</g>
		<g>
			<g>
				<path d="M784.7,153.3c-1.2-2.6-1.2-4.6-0.2-7.1c-0.9,0.1-1.8,0.2-2.7,0.4c10.1,13.3,14.5,30.4,27.2,41.8
					c1.4,1.3,3.6-0.8,2.1-2.1c-12.5-11.2-16.8-28.1-26.7-41.2c-0.8-1.1-2.3-0.9-2.7,0.4c-1.2,3.3-1,6.3,0.5,9.4
					C782.9,156.6,785.5,155.1,784.7,153.3L784.7,153.3z"/>
			</g>
		</g>
		<g>
			<g>
				<path d="M784.5,201.4c4.9,11.7,12.5,21.6,22.6,29.3c1.5,1.2,3-1.4,1.5-2.6c-9.4-7.2-16.6-16.6-21.2-27.5
					C786.7,198.8,783.8,199.6,784.5,201.4L784.5,201.4z"/>
			</g>
		</g>
		<g>
			<g>
				<path d="M807.4,229.6c7.6,18.4,16.4,36.2,26.3,53.5c9.4,16.4,19.4,32.8,33,46.1c1.4,1.4,3.5-0.8,2.1-2.1
					c-13.4-13.1-23.2-29.4-32.5-45.5c-9.8-17-18.4-34.7-26-52.8C809.6,227.1,806.7,227.9,807.4,229.6L807.4,229.6z"/>
			</g>
		</g>
		<g>
			<g>
				<path d="M867.6,328.7c9,5.4,19.4,4.3,28.8,0.5c10.2-4.1,20-10.2,29.2-16.3c8.8-5.8,17.1-12.4,24.6-19.8
					c3.7-3.7,7.2-7.6,10.5-11.8c3.8-4.9,7-10.4,12.3-13.9c1.6-1.1,0.1-3.7-1.5-2.6c-7.7,5.1-12.2,14-18.3,20.8
					c-7,7.8-15.1,14.8-23.6,20.9c-8.1,5.8-16.6,10.9-25.3,15.6c-10.8,5.7-23.6,10.9-35.1,3.9C867.5,325.1,866,327.7,867.6,328.7
					L867.6,328.7z"/>
			</g>
		</g>
		<g>
			<g>
				<path d="M885.5,294.6c1.5-1.3,3-2.6,4.5-3.9c1.5-1.3-0.7-3.4-2.1-2.1c-1.5,1.3-3,2.6-4.5,3.9C882,293.8,884.1,295.9,885.5,294.6
					L885.5,294.6z"/>
			</g>
		</g>
		<g>
			<g>
				<path d="M832,231.3c7.8,6.2,3.4,18.9,2,27.1c-2,10.8-3.9,21.6-5.9,32.3c-3.9,21.6-7.8,43.1-11.8,64.7c-0.3,1.9,2.5,2.7,2.9,0.8
					c4.4-24.2,8.8-48.4,13.2-72.5c2.1-11.5,4.4-23.1,6.3-34.7c1.1-6.9,1.5-15-4.6-19.8C832.6,228,830.5,230.1,832,231.3L832,231.3z"
					/>
			</g>
		</g>
		<g>
			<g>
				<path d="M816.3,249.5c-12.8,14.6-24.3,30.3-34.4,47c-1,1.7,1.6,3.2,2.6,1.5c9.9-16.4,21.2-31.9,33.9-46.3
					C819.7,250.2,817.6,248,816.3,249.5L816.3,249.5z"/>
			</g>
		</g>
		<g>
			<g>
				<path d="M780.2,298.3c2,3.6,4.6,6.3,8.1,8.4c0.7,0.4,1.7,0.2,2.1-0.5c1.6-3.2,3.5-6.2,5.7-9c-0.8-0.2-1.7-0.4-2.5-0.7
					c1.7,7.8,5.6,15.8,9.1,22.9c3.6,7.4,7.9,14.1,13.5,20.2c1.3,1.4,3.4-0.7,2.1-2.1c-5.4-5.9-9.5-12.4-13-19.6
					c-3.4-7-7.2-14.6-8.8-22.2c-0.2-1-1.8-1.5-2.5-0.7c-2.4,3-4.4,6.2-6.1,9.6c0.7-0.2,1.4-0.4,2.1-0.5c-3.1-1.9-5.3-4.2-7-7.3
					C781.9,295.1,779.3,296.6,780.2,298.3L780.2,298.3z"/>
			</g>
		</g>
		<g>
			<g>
				<path d="M781,299.4c4.8,23.6,10.9,48.5,29.6,65.2c0.8,0.7,2.2,0.5,2.5-0.7c1-3.5,1.3-7.8,5.5-7.6c3.3,0.1,6.9,1.3,10,2.3
					c1.2,0.4,2.4-1.1,1.7-2.2c-4.3-6.3-8.1-12.8-11.4-19.6c-0.9-1.7-3.4-0.2-2.6,1.5c3.4,6.8,7.2,13.3,11.4,19.6
					c0.6-0.7,1.1-1.5,1.7-2.2c-4.6-1.4-9.3-2.3-14.1-2.8c-0.5,0-1.1,0.3-1.3,0.7c-1.6,3.1-2.9,6.1-3.8,9.5c0.8-0.2,1.7-0.4,2.5-0.7
					c-18.3-16.4-24.2-40.7-28.9-63.9C783.5,296.7,780.6,297.5,781,299.4L781,299.4z"/>
			</g>
		</g>
		<g>
			<g>
				<path d="M779.9,297.2c-4.7,25-8.1,50.3-10.1,75.7c-0.2,1.9,2.8,1.9,3,0c2-25.1,5.3-50.1,10-74.9
					C783.1,296.1,780.2,295.3,779.9,297.2L779.9,297.2z"/>
			</g>
		</g>
		<g>
			<g>
				<path d="M770.4,371.2c-11.4,16.4-22.7,32.9-31.4,51c-0.8,1.7,1.8,3.3,2.6,1.5c8.7-18.1,20-34.6,31.4-51
					C774.1,371.1,771.5,369.6,770.4,371.2L770.4,371.2z"/>
			</g>
		</g>
		<g>
			<g>
				<path d="M809.4,365.8c-1,11.5-3.5,22.7-7.2,33.6c-0.6,1.8,2.3,2.6,2.9,0.8c3.8-11.2,6.2-22.6,7.3-34.4
					C812.5,363.9,809.5,363.9,809.4,365.8L809.4,365.8z"/>
			</g>
		</g>
		<g>
			<g>
				<path d="M802.3,401.2c-0.6,19.9-3.7,39.5-9.2,58.6c-0.5,1.9,2.4,2.7,2.9,0.8c5.6-19.4,8.7-39.3,9.4-59.4
					C805.4,399.2,802.4,399.2,802.3,401.2L802.3,401.2z"/>
			</g>
		</g>
		<g>
			<g>
				<path d="M740.3,424.9c15.2,16.5,31.5,33.4,54,39c1.9,0.5,2.7-2.4,0.8-2.9c-22-5.5-37.8-22.2-52.7-38.3
					C741.1,421.4,739,423.5,740.3,424.9L740.3,424.9z"/>
			</g>
		</g>
		<g>
			<g>
				<path d="M827.7,359.3c-2,14.1-5.7,28.9-4.8,43.2c0.5,7.6,1.9,15.2,2.3,22.8c0.5,7.7,0.6,15.3,0.6,23c0,1.9,3,1.9,3,0
					c-0.2-14.8-1.6-29.2-2.8-43.9c-1.3-14.6,2.5-29.9,4.6-44.3C830.9,358.2,828,357.4,827.7,359.3L827.7,359.3z"/>
			</g>
		</g>
		<g>
			<g>
				<path d="M796.4,463.7c4.9-3,8.7-8.3,13.7-10.8c5.2-2.5,12-2.6,17.6-3.4c1.9-0.3,1.1-3.2-0.8-2.9c-5.8,0.9-12.7,0.9-18,3.5
					c-5.3,2.6-9,7.9-14.1,11C793.3,462.1,794.8,464.7,796.4,463.7L796.4,463.7z"/>
			</g>
		</g>
	</g>
	<g id="hand_left">
		<path class="st5" d="M1213.5,281c-0.9,10.1-1.9,20.3-3,30.5c-1.9,18.3-4,36.3-6.3,54c3.9,3,9.6,6.7,17,9.6
			c6.3,2.4,11.9,3.6,16.3,4.1c3.6-3.7,7.2-7.5,10.9-11.2c3,0.3,6.1,0.7,9.1,1c-2.2-14.1-4.5-28.4-6.8-42.7c-1.6-9.9-3.3-19.8-5-29.6
			c-7-6.9-14.1-13.8-21.1-20.8c-1.1,1.8-2.3,3.6-3.4,5.4C1218.7,281.3,1216.1,281.1,1213.5,281z"/>
		<path class="st5" d="M1065.1,226.2c5.4-3,13.5,4.2,34.6,15.6c16,8.6,29.5,14.4,38.2,17.8c8.8-5.4,17.9-11.5,27.3-18.4
			c19.5-14.4,35.6-29.3,48.6-43.2c-0.7-6-0.9-13.8,0.5-22.7c0.9-6,0.4-10.2,3.3-13.9c2-2.5,3.2-2.3,5.9-5.6c4.1-5.1,4-9.1,6.1-9.3
			c1.9-0.1,3.7,3.1,4.3,5.2c0.6,2.1,0.3,4,0.1,5c2.8-6.2,4.6-11.3,5.7-14.9c2.1-6.5,2.5-9.5,4.7-14.5c2.3-5.3,4.9-9.3,6.8-11.8
			c-1.7,13.1-1.3,16.2-0.6,16.3c1.1,0.2,2.3-5.5,7.5-11.1c3.3-3.5,6.9-5.6,9.6-6.9c0.8,1.7,1.8,4.6,2,8.3c0.2,3.9-0.7,7-1.3,8.9
			c6.5-10.4,8.5-11.6,9.2-11.2c1.4,0.6-0.5,7.8-1.9,13.4c-1.1,4.1-2.3,8.6-4.8,14.3c-2.7,6.1-5.7,10.7-9.3,15.6
			c-8,11.1-13.1,16-20.6,24.9c-4.5,5.3-8.7,11.1-17.3,22.8c-14.7,20.1-19.6,28.7-25.6,36.9c-8.6,11.9-22.6,27.9-46,43.9
			c-2.8,0.7-6.9,1.6-11.8,1.9c-6.9,0.5-12.7-0.3-19.6-1.6c-11.7-2.3-17.7-4.8-32.4-9.3c-4.7-1.4-11.9-3.6-21-6
			C1056.8,237.5,1061,228.5,1065.1,226.2z"/>
		<path class="st7" d="M1076.3,279.5c6.6,0.2,16.3,0.4,27.9,0.4c39.1-0.1,46.7-2.8,50.5-4.4c9.5-4,16.2-10.7,29.6-24.1
			c14.2-14.3,20.5-23.9,31.3-37.3c8.8-10.9,21.9-26.2,39.9-43.2c-17.2,22.2-30.7,40.4-40,53.1c-10.5,14.3-22.7,27.2-33.2,41.4
			c-8.7,11.7-16.4,22.9-30.4,26.4c-6.5,1.6-11.8,0.9-16.4,0.3C1122.4,290,1102.5,286.5,1076.3,279.5z"/>
		<g>
			<g>
				<path d="M1065.1,227.7c7.4,0.2,13.7,4.6,20,8.1c5.7,3.1,11.5,6.2,17.3,9.1c11.5,5.8,23.2,11.1,35.1,16.1
					c1.8,0.7,2.6-2.2,0.8-2.9c-13.3-5.6-26.5-11.7-39.3-18.4c-6.1-3.1-12-6.4-18-9.7c-5.1-2.8-10-5.2-15.9-5.4
					C1063.2,224.7,1063.2,227.7,1065.1,227.7L1065.1,227.7z"/>
			</g>
		</g>
		<g>
			<g>
				<path d="M1136,266.2c4.6-7.7,13.8-12,20.9-17c6.5-4.6,12.8-9.3,19-14.3c13.6-10.9,26.4-22.7,38.4-35.3c1.3-1.4-0.8-3.5-2.1-2.1
					c-12.4,13-25.7,25.2-39.8,36.4c-7.4,5.9-15.1,11.5-22.9,16.8c-6,4-12.3,7.7-16.1,14C1132.4,266.3,1135,267.9,1136,266.2
					L1136,266.2z"/>
			</g>
		</g>
		<g>
			<g>
				<path d="M1069.9,278.2c16.7,6.5,34.1,10.4,51.6,13.7c7.7,1.4,16.7,4.4,24.6,3.4c7.2-0.9,12.9-6.7,18.2-11.1
					c24.9-21,45.8-46.4,61.8-74.7c1-1.7-1.6-3.2-2.6-1.5c-15.1,26.6-34.5,50.6-57.5,70.8c-6.1,5.4-13.4,13.5-22.1,13.7
					c-8.1,0.2-17.2-2.6-25.2-4.1c-16.3-3.1-32.5-7-48-13C1068.9,274.6,1068.1,277.5,1069.9,278.2L1069.9,278.2z"/>
			</g>
		</g>
		<g>
			<g>
				<path d="M1215.4,198.1c0.1-5,0.2-10.1,0.3-15.1c0.1-5-0.3-10.3,0.8-15.2c1.1-5.1,4.7-7.2,8-10.8c1-1,1.8-2.1,2.4-3.4
					c0.3-0.6,0.5-1.2,0.7-1.8c0.2-0.5,0.4-1,0.6-1.5c0.8-2.8,2.1-1.4,3.8,4.1c-0.3,1.9,2.6,2.7,2.9,0.8c0.6-3.8,0.4-10.8-5.3-10.1
					c-1.7,0.2-2.8,1.4-3.6,2.7c-2,3.2-2.7,6.3-5.7,9c-4.8,4.2-6.8,8.4-7.3,14.9c-0.6,8.8-0.4,17.6-0.6,26.4
					C1212.3,200,1215.3,200,1215.4,198.1L1215.4,198.1z"/>
			</g>
		</g>
		<g>
			<g>
				<path d="M1226.3,209.7c11.9-14.8,24.2-29.3,35.6-44.5c10-13.3,16-28.5,17.2-45.2c0.1-1.1-1.3-1.9-2.3-1.3
					c-6.2,3.9-9.2,10.6-12.5,16.8c-4.6,8.4-9.3,16.9-13.9,25.3c-0.9,1.7,1.7,3.2,2.6,1.5c4-7.3,8-14.6,12.1-21.9
					c3.6-6.5,6.8-15,13.3-19.1c-0.8-0.4-1.5-0.9-2.3-1.3c-1.2,17.5-8.1,32.7-18.8,46.4c-10.9,13.9-22,27.5-33.1,41.2
					C1222.9,209,1225,211.2,1226.3,209.7L1226.3,209.7z"/>
			</g>
		</g>
		<g>
			<g>
				<path d="M1230.7,165.2c0.8-4.1,4.1-6.5,6.3-9.8c2.1-3.3,2.6-7.2,3.6-11c1.3-4.9,2.8-9.8,4.5-14.6c1.7-4.7,3.2-9.8,7.1-13.1
					c-0.9-0.4-1.7-0.7-2.6-1.1c0.8,7.2,0.2,14.2-1.8,21.1c-0.5,1.9,2.4,2.7,2.9,0.8c2.1-7.2,2.7-14.5,2-21.9
					c-0.1-1.3-1.5-1.9-2.6-1.1c-6.8,5.6-9.1,17.3-11.4,25.3c-1.4,5-1.9,10.7-5,14.9c-2.3,3.2-5.1,5.6-5.8,9.6
					C1227.5,166.3,1230.4,167.1,1230.7,165.2L1230.7,165.2z"/>
			</g>
		</g>
		<g>
			<g>
				<path d="M1245.1,152.4c3.1-8.7,6.2-17.4,10.8-25.4c2.2-3.8,4.8-8.8,8.3-11.5c3.6-2.8,3.6-0.3,3.8,3.5c0.2,2.9-0.1,5.8-0.7,8.7
					c-0.4,1.9,2.5,2.7,2.9,0.8c0.9-4.4,2.5-14.1-1.3-17.7c-3.3-3.2-7.1,2.7-9,4.9c-8.6,10.4-13.3,23.2-17.7,35.8
					C1241.6,153.5,1244.5,154.3,1245.1,152.4L1245.1,152.4z"/>
			</g>
		</g>
		<g>
			<g>
				<path d="M1266.3,113.3c-6.7,13-12.9,26.3-18.5,39.9c-0.7,1.8,2.2,2.6,2.9,0.8c5.5-13.3,11.6-26.3,18.2-39.1
					C1269.8,113.1,1267.2,111.5,1266.3,113.3L1266.3,113.3z"/>
			</g>
		</g>
		<g>
			<g>
				<path d="M1209.4,203.6c4.9-9.6,17.1-3.8,21.2,3.2c4.6,7.9,5.8,18.2,7.5,27c3.9,20.7,6.2,41.7,6.9,62.8c0.1,1.9,3.1,1.9,3,0
					c-0.9-26.3-4.1-52.7-10.1-78.3c-1.9-8-5-17.5-13.1-21.2c-6.3-2.8-14.6-1.6-18,5C1205.9,203.8,1208.5,205.3,1209.4,203.6
					L1209.4,203.6z"/>
			</g>
		</g>
		<g>
			<g>
				<path d="M1211.4,229.9c-0.9,16.4-0.7,32.9,0.8,49.3c0.2,1.9,3.2,1.9,3,0c-1.5-16.4-1.8-32.8-0.8-49.3
					C1214.5,227.9,1211.5,227.9,1211.4,229.9L1211.4,229.9z"/>
			</g>
		</g>
		<g>
			<g>
				<path d="M1212.2,281.8c7.7,10,16.9,18.6,27.5,25.5c1.6,1.1,3.1-1.5,1.5-2.6c-10.1-6.6-19-14.8-26.4-24.4
					C1213.7,278.8,1211.1,280.3,1212.2,281.8L1212.2,281.8z"/>
			</g>
		</g>
		<g>
			<g>
				<path d="M1213.8,280.7c3,0.4,6,0.8,9.1,1.2c0.7,0.1,1.3-0.1,1.7-0.7c1.1-1.8,1.1-3.9-0.1-5.6c-1.1-1.6-3.7-0.1-2.6,1.5
					c0.6,0.9,0.6,1.7,0.1,2.6c0.6-0.2,1.1-0.5,1.7-0.7c-3-0.4-6-0.8-9.1-1.2C1212.7,277.5,1211.8,280.4,1213.8,280.7L1213.8,280.7z"
					/>
			</g>
		</g>
		<g>
			<g>
				<path d="M1225.1,278.5c-1.4-19.7-3.3-39.3-5.5-58.9c-0.2-1.9-3.2-1.9-3,0c2.3,19.6,4.1,39.2,5.5,58.9
					C1222.3,280.4,1225.3,280.4,1225.1,278.5L1225.1,278.5z"/>
			</g>
		</g>
		<g>
			<g>
				<path d="M1209.2,202.7c8.6,0,15.9,11.9,19.2,18.7c4.1,8.5,5.3,18,6,27.4c1.5,18.8,2.6,37.6,3.9,56.4c0.1,1.9,3.1,1.9,3,0
					c-1.5-21.9-1.8-44.3-4.9-66c-1.3-9.3-4-18.3-9.3-26.1c-4.1-5.9-10-13.4-17.8-13.4C1207.3,199.7,1207.3,202.7,1209.2,202.7
					L1209.2,202.7z"/>
			</g>
		</g>
		<g>
			<g>
				<path d="M1223.6,277c7.3,6.7,14.3,13.6,21.1,20.8c1.3,1.4,3.4-0.7,2.1-2.1c-6.8-7.2-13.8-14.1-21.1-20.8
					C1224.3,273.6,1222.2,275.7,1223.6,277L1223.6,277z"/>
			</g>
		</g>
		<g>
			<g>
				<path d="M1242.2,305.7c0.3-2.6,0.6-5.1,1-7.7c-0.5,0.5-1,1-1.5,1.5c1.5-0.1,2.8,0.1,4.2,0.7c1.8,0.7,2.6-2.2,0.8-2.9
					c-1.6-0.6-3.3-0.9-5-0.8c-0.9,0.1-1.4,0.6-1.5,1.5c-0.3,2.6-0.6,5.1-1,7.7C1239,307.6,1242,307.6,1242.2,305.7L1242.2,305.7z"/>
			</g>
		</g>
		<g>
			<g>
				<path d="M1212.1,282.9c-2.9,27.6-6,55.1-9.4,82.7c-0.2,1.9,2.8,1.9,3,0c3.4-27.5,6.5-55.1,9.4-82.7
					C1215.3,280.9,1212.3,281,1212.1,282.9L1212.1,282.9z"/>
			</g>
		</g>
		<g>
			<g>
				<path d="M1239.2,306.8c-1,24.2-2.1,48.4-3.1,72.5c-0.1,1.9,2.9,1.9,3,0c1-24.2,2.1-48.4,3.1-72.5
					C1242.3,304.8,1239.3,304.8,1239.2,306.8L1239.2,306.8z"/>
			</g>
		</g>
		<g>
			<g>
				<path d="M1245.4,299.8c3.3,23.3,6.9,46.5,10.8,69.7c0.3,1.9,3.2,1.1,2.9-0.8c-3.9-23.2-7.5-46.4-10.8-69.7
					C1248,297.1,1245.1,297.9,1245.4,299.8L1245.4,299.8z"/>
			</g>
		</g>
		<g>
			<g>
				<path d="M1238.7,381.2c2.5-2.4,4.7-5,6.7-7.8c1.1-1.6,1.7-3.4,3.6-3.9c2.4-0.6,5.3,0.1,7.5,0.7c1.9,0.5,2.7-2.4,0.8-2.9
					c-3.2-0.8-8.4-2.1-11.4,0.1c-1.6,1.1-2.5,3.5-3.6,5c-1.7,2.4-3.7,4.6-5.8,6.7C1235.2,380.5,1237.3,382.6,1238.7,381.2
					L1238.7,381.2z"/>
			</g>
		</g>
		<g>
			<g>
				<path d="M1203.9,366.8c4.9,3.9,10.3,6.7,15.9,9.3c5.5,2.6,10.9,5,17.1,5c1.9,0,1.9-3,0-3c-6.2,0-11.6-2.7-17.1-5.3
					c-4.8-2.3-9.5-4.8-13.7-8.1C1204.5,363.5,1202.4,365.6,1203.9,366.8L1203.9,366.8z"/>
			</g>
		</g>
	</g>
	<g id="torso">
		<path class="st1" d="M952.3,229.2c8.6-2.7,18.1-5,28.5-6.7c36.8-6.1,68.7-1.5,91.3,4.2c4.6,22.1,4.9,40.2,4.2,52.8
			c-0.6,11.3-2.1,20.8-3.3,28.5c-3.5,21.6-6.6,28.5-9.2,43.5c-1.8,10.5-3.7,26.1-2.5,46.1c-10.4,5.7-26,12.7-46.1,15.9
			c-33,5.3-59.7-2.6-72.9-7.5c2-13,4.2-33.1,3.3-57.8c-0.9-25.3-4.4-35.7-4.2-56.9C941.6,276.6,943.6,255.3,952.3,229.2z"/>
	</g>
	<g id="leg_left">
		<path d="M951.8,622.2c-2,1.9-2.1,3.1-5,9c-9.7,20.2-16,23-15.5,32c0,0.8,2.1,5.4,6.3,14.6c8.1,18,10.2,21.4,13.2,25
			c3.8,4.4,3.7,2.8,10.5,9.9c8.4,8.8,10,12.8,13.5,12.6c4.4-0.2,8.3-6.6,9.2-12.2c1.1-6.8-2.2-12.4-4-15.4
			c-5.3-9.1-11.6-20.7-19.4-36.6c3-6.2,6-12.5,9-19c3.6-7.9,7.1-15.7,10.5-23.4C971.7,616.8,959.1,615.2,951.8,622.2z"/>
		<path class="st5" d="M1010,410c-2.8,6-6.5,14.2-10.8,23.9c-14.4,33.2-25,63.3-32.9,88.4c-10.3,32.7-17.9,63.6-23.6,91.8
			c1.8,2.3,4.7,5.4,9,8.1c10.3,6.6,21,6.2,28.8,5.9c5.6-0.2,14.1-1.2,24.1-5.1c1.8-2.8,4.6-7.4,7.8-13.2
			c8.6-15.7,11.1-24.4,23.7-57.7c6.5-17.3,7.1-18,13.2-34.5c5.4-14.4,8.1-21.8,11.5-32c4.8-14.5,7.9-25.7,9.8-32.8
			c4.3-16.4,5.7-25.1,6.6-32.3c2.2-19.2-0.4-24.1-2.2-26.6c-5.4-7.5-14.9-8.9-17.6-9.3c-15.5-2.3-28.4,8-35.9,14
			C1016.3,402.8,1012.5,407,1010,410z"/>
		<path class="st8" d="M1040.3,388.1c1.6,1.5-4.1,9.3-11.2,22.4c0,0-5.6,10.4-17.3,39.9c-8.9,22.4-28.1,85.8-45.5,172.9
			c-2.5,0.3-7.7,0.4-13.5-2c-5.1-2.1-8.4-5.3-10-7.2c2.4-11.7,5.9-27.4,10.5-46c4.9-19.5,9-36,16-57.3c5.7-17.3,10.6-29.5,18.6-49.5
			c8.6-21.5,16.3-39.3,22.1-52.2C1032.2,390.1,1038.9,386.8,1040.3,388.1z"/>
		<g>
			<g>
				<path d="M1010,413.2c4.9-8.4,12.7-14.2,21.1-18.9c8.6-4.8,18.4-9.5,28.5-7.9c25.3,3.9,16.4,35.3,12.8,52.3
					c-8.7,40.8-24.9,79.7-39.8,118.5c-8.5,22.1-16,45.2-29.3,65c-1.1,1.6,1.5,3.1,2.6,1.5c12.7-19,20.1-41,28.2-62.2
					c8.6-22.5,17.5-44.9,25.5-67.6c7.9-22.6,14.7-45.6,18.5-69.2c1.5-9.1,3.6-19.6-0.2-28.4c-3.1-7.3-10.1-11.6-17.7-12.8
					c-10.3-1.6-20.4,2.7-29.3,7.5c-9.3,5.1-18.1,11.4-23.5,20.7C1006.4,413.4,1009,414.9,1010,413.2L1010,413.2z"/>
			</g>
		</g>
		<g>
			<g>
				<path d="M944.2,615.3c5.8,8.1,15.8,11.7,25.3,13.4c11.4,2,22.9,0.7,33.7-3.4c1.8-0.7,1-3.6-0.8-2.9c-9.2,3.6-19.1,5-29,3.9
					c-9.5-1.1-20.7-4.3-26.6-12.5C945.6,612.2,943,613.7,944.2,615.3L944.2,615.3z"/>
			</g>
		</g>
		<g>
			<g>
				<path d="M950.5,621.4c-5.4,9.8-10.8,19.6-16.2,29.4c-2,3.6-4.3,7.3-4.5,11.5c-0.2,4.5,2.2,8.5,4.2,12.3
					c9.6,17.7,21.3,34.2,34.7,49.2c1.3,1.4,3.4-0.7,2.1-2.1c-12-13.5-22.7-28.2-31.6-43.9c-2.4-4.3-6.3-9.6-6.5-14.6
					c-0.1-5.1,3.7-10.1,6-14.3c4.8-8.6,9.5-17.3,14.3-25.9C954,621.3,951.4,619.7,950.5,621.4L950.5,621.4z"/>
			</g>
		</g>
		<g>
			<g>
				<path d="M974.8,627.6c-5.2,11.3-11,22.2-17.4,32.9c-0.3,0.4-0.3,1.1,0,1.5c6.5,9.7,13,19.6,17.9,30.2c2.5,5.4,4.5,11.1,5.8,16.9
					c0.7,3,1.4,6.5,0.5,9.5c-1,3.5-6.5,8.1-9.5,3.2c-1-1.6-3.6-0.1-2.6,1.5c3.4,5.6,11.4,3.7,14.2-1.6c4.2-8.1-1.1-20.2-4.3-27.7
					c-2.2-5.2-4.8-10.2-7.6-15c-3.1-5.3-7-10.2-9.8-15.7c-1.7-3.2,0.1-4.8,1.8-7.8c1.5-2.7,3-5.4,4.5-8.1c3.2-6,6.3-12.1,9.1-18.3
					C978.2,627.3,975.6,625.8,974.8,627.6L974.8,627.6z"/>
			</g>
		</g>
		<g>
			<g>
				<path d="M1008.7,409.2c-30.5,65.2-53.1,133.9-67.4,204.5c-0.4,1.9,2.5,2.7,2.9,0.8c14.2-70.3,36.7-138.8,67.1-203.8
					C1012.1,409,1009.6,407.5,1008.7,409.2L1008.7,409.2z"/>
			</g>
		</g>
	</g>
	<g id="leg_right">
		<path d="M878.4,626.1c-1.7,7.1-3.5,12.6-4.7,16c-6.7,19.4-12.9,26.3-10.4,37.3c0.5,2.3,1.5,4.4,3.5,8.5c4.2,8.9,8,12.8,13.7,20.4
			c6.3,8.5,7.3,11.4,21.1,31c3.4,4.8,5.7,8.6,8.2,8.2c3.4-0.6,5.1-8.6,5.3-14.1c0.6-12.2-5.4-20.9-9.4-28.3
			c-4.7-8.8-10.1-22.2-11.6-41.6c4.8-11.3,9.5-22.5,14.3-33.8c-1-0.7-2.6-1.6-4.7-1.9c-3.7-0.6-6.6,0.9-8,1.4
			C892.5,630.4,887.3,630.7,878.4,626.1z"/>
		<path class="st5" d="M943.2,405.6c-1.5,1.4-3.5,3.5-5.7,6.1c-4.1,4.7-12.1,14.6-18.4,28.9c-6.9,15.6-9,29.8-9.7,39.3
			c-4.8,12.6-9.6,25.4-14.4,38.3c-12,32.8-23,64.9-33.1,96.5c2.5,2.5,6.6,6.1,12.2,9.3c14.5,8.3,28.7,8.1,37.6,7.8
			c6.5-0.2,16.4-1.1,27.9-5.2c3.9-8.9,10.3-23,18.2-40.3c16.3-35.5,20.5-43.5,28.4-63.1c2.8-6.8-0.3,0.4,17.7-51.2
			c3.2-9.1,7.9-22.7,7.6-40.6c-0.2-14.8-3.7-20-6.7-22.9c-6.6-6.4-16.2-6.1-20.8-6c-11.9,0.3-20.4,6.2-23.8,8.9
			C954.5,409.4,948.8,407.5,943.2,405.6z"/>
		<path class="st9" d="M942.3,405.9c-2.1,4.4-4.4,9.8-6.2,16.1c-1.9,6.5-3,12.5-3.5,17.5c4.1-5.9,10.3-13.4,18.9-20.6
			c7.4-6.2,14.6-10.5,20.5-13.5c-3.4,5.1-8.5,12.8-14.7,22.1c-13.7,20.4-23.9,35.1-24.8,36.3c-10.6,15.3-26.4,57.1-50.5,163.9
			c-6.7-4.3-13.4-8.7-20-13c4.7-16.2,9.9-32.8,15.6-49.7c10.1-30.2,20.9-58.6,31.9-85.1c0.3-4,0.8-8.2,1.5-12.6
			C915.9,439.4,930.6,418.8,942.3,405.9z"/>
		<g>
			<g>
				<path d="M942.1,404.5c-20.1,20.1-32.3,47-34.2,75.4c-0.1,1.9,2.9,1.9,3,0c1.9-27.6,13.8-53.7,33.4-73.3
					C945.6,405.3,943.5,403.2,942.1,404.5L942.1,404.5z"/>
			</g>
		</g>
		<g>
			<g>
				<path d="M924.7,453.3c11.1-17.4,26.1-36.2,45.1-45.3c9.5-4.5,22.5-6.8,31.8-0.3c9,6.3,9.1,18.5,8,28.3
					c-4.9,43-22.9,84.2-40.8,123.1c-10.2,22.2-20.9,44.3-30.5,66.8c-0.7,1.8,1.8,3.3,2.6,1.5c19-44.5,42.3-87.2,57.8-133.1
					c3.8-11.2,7.1-22.5,9.6-34c2.3-10.3,4.8-21.2,4.8-31.8c0-8.8-2.3-18.1-10-23.3c-7.8-5.3-18.3-5.2-27.1-2.7
					c-23.4,6.9-41.4,29.7-53.9,49.4C921.1,453.4,923.7,455,924.7,453.3L924.7,453.3z"/>
			</g>
		</g>
		<g>
			<g>
				<path d="M916.6,465.2c-22.6,47.9-41.4,97.4-56.2,148.2c-0.5,1.9,2.4,2.7,2.9,0.8c14.7-50.6,33.4-99.9,55.9-147.5
					C920,465,917.4,463.5,916.6,465.2L916.6,465.2z"/>
			</g>
		</g>
		<g>
			<g>
				<path d="M860.6,615.5c7,10.8,23.5,14.6,35.3,16.5c14.2,2.4,28.7,1.5,42.6-2.4c1.9-0.5,1.1-3.4-0.8-2.9
					c-12.6,3.5-25.7,4.5-38.7,2.7c-6.2-0.9-12.3-2.3-18.2-4.4c-6.5-2.3-13.8-5.1-17.7-11.1C862.1,612.3,859.5,613.8,860.6,615.5
					L860.6,615.5z"/>
			</g>
		</g>
		<g>
			<g>
				<path d="M877,625.7c-3.6,12.5-7.3,24.9-10.9,37.4c-0.5,1.9,2.4,2.6,2.9,0.8c3.6-12.5,7.3-24.9,10.9-37.4
					C880.4,624.6,877.5,623.8,877,625.7L877,625.7z"/>
			</g>
		</g>
		<g>
			<g>
				<path d="M904,632.7c-4.5,11-9,22-13.5,33c-0.7,1.8,2.2,2.6,2.9,0.8c4.5-11,9-22,13.5-33C907.6,631.8,904.7,631,904,632.7
					L904,632.7z"/>
			</g>
		</g>
		<g>
			<g>
				<path d="M890.8,666.7c2.6,10.5,5.5,20.9,8.9,31.1c1.6,4.8,3.3,9.6,5,14.4c1,2.7,2,5.3,3.1,8c0.7,1.7,3.6,6.6,2.4,8.4
					c-1.1,1.6,1.5,3.1,2.6,1.5c2.3-3.4-1.2-8.3-2.5-11.6c-2.2-5.6-4.3-11.3-6.2-17c-4-11.7-7.4-23.6-10.4-35.6
					C893.2,664.1,890.3,664.9,890.8,666.7L890.8,666.7z"/>
			</g>
		</g>
		<g>
			<g>
				<path d="M867.5,659.3c-2.5,4.7-5.1,9.6-5.8,15c-0.6,5.6,1.3,10.4,4.2,15.1c7.3,11.7,15.5,23,23.2,34.5c3.6,5.4,7.1,11,11.1,16.1
					c2.1,2.7,5.4,7.8,9.5,6.8c7.6-1.8,3.1-18.9,1.8-23.7c-0.5-1.9-3.4-1.1-2.9,0.8c1.3,4.9,2.2,10,1.9,15.1
					c-0.1,2.7,0.3,5.8-4.5,3.2c-2.1-1.1-4-4.7-5.3-6.5c-5.4-7.5-10.4-15.3-15.5-23c-5.2-7.8-10.6-15.4-15.7-23.3
					c-2.7-4.1-5.1-8.3-4.9-13.4c0.2-5.5,3-10.5,5.5-15.2C871,659.1,868.4,657.6,867.5,659.3L867.5,659.3z"/>
			</g>
		</g>
	</g>
	<g id="head">
		<path class="st5" d="M987.2,103.2c-6.1,4.3-10,10.1-12.5,13.7c-1.2,1.7-6.8,10.2-9.8,23c-3.1,13.1-2,23.6-1.3,29.1
			c1.3,11,3,24.6,13.2,37c8.5,10.3,19.1,15.3,26.4,17.7c0.2,2.2,0.3,5.5-0.2,9.6c-0.4,3.7-0.9,4.9-0.1,6.4c2,3.7,9.3,3.2,10.5,3.1
			c1.4-0.1,6.1-0.5,10-4c3.1-2.8,4.2-6.1,4.6-7.3c1.7-4.6,4-6.8,18.9-23.6c14.3-16,21.5-24.1,22.6-27c4.4-12,1.7-23.5,0.4-29.2
			c-2.2-9.4-6.2-15.8-12.8-26.6c-6.3-10.2-9.4-15.3-13.1-18.6C1029.4,94,1003.3,91.8,987.2,103.2z"/>
		<path class="st10" d="M1015.2,98.1c2.9,4.5,6.6,10.9,9.9,19c1,2.5,5.4,13.8,7.3,30.5c1.2,11,2.5,21.9-0.4,34.3
			c-4.5,19.9-17.2,33.4-25.6,40.7c5.6-0.6,11.2-1.1,16.8-1.7c0.1,6,0.1,12,0.2,18.1c3.3-6.6,8.6-16.3,17-26.8
			c12.3-15.5,18.2-16.4,24.1-28.8c7.1-14.9,6-29.4,5.5-34.3c-0.1-1.3-1.1-9.7-4.4-17.1C1054.4,106.2,1019.8,98.9,1015.2,98.1z"/>
		<path class="st2" d="M964.5,141.6c1.2-5.4,3.3-15.6,10.2-24.7c12.3-16.3,32.1-19.3,37.8-20c4.4,8.3,10.5,17.9,18.6,27.9
			c6.5,8,13.1,14.6,19.1,19.9c0.4-0.2,7.1-3.1,12.5,0.6c4.9,3.4,4.9,9.4,4.9,12c0,1.6,0.1,7.7-4.7,12.5c-5.9,5.8-14,4.4-14.8,4.2
			c-0.7,2.9-1.9,7.3-3.7,12.5c-5.4,15.4-9.7,19-12.2,28.5c-0.8,3.2-5.3,20.2,2.3,28.2c10.9,11.4,44.9,2.5,52.4-15.2
			c1.8-4.3,0.8-6.2-3.4-32.8c-2.9-17.8-1.1-8.6-5.4-35.2c-5.2-32-6.2-35.7-7.8-40.1c-3.9-10.5-7.8-21-17.1-29.4
			c-18.6-16.7-48.9-16-70-6.4c-3.4,1.6-22,10.4-32.3,30.8c-3.8,7.6-9.3,18.4-5.4,30.8c3.9,12.3,14.6,18.3,17.8,20
			C962.6,160.1,962.3,151.6,964.5,141.6z"/>
		<path class="st2" d="M966.8,184.7c-4.2,3.2-11.6,9.9-16.1,20.9c-1.9,4.6-4.9,11.8-3.4,21c2,12.9,11.1,20.5,13.7,22.5
			c8,6.2,24,13.2,34.3,5.4c5.7-4.4,7.2-11.5,7.6-14.7c1.2-4.2,2-9.8-0.8-14.5c-2.8-4.7-8.1-6.3-10.2-7
			C984.7,215.6,975.4,207.8,966.8,184.7z"/>
		<g>
			<g>
				<path d="M979.9,108.5c-32.6,31.9-22.1,101.6,22.8,116.7c1.8,0.6,2.6-2.3,0.8-2.9c-21.8-7.3-34.7-28.2-38.1-50.1
					c-3.3-21.5,0.4-45.8,16.5-61.6C983.4,109.3,981.3,107.2,979.9,108.5L979.9,108.5z"/>
			</g>
		</g>
		<g>
			<g>
				<path d="M1004.3,224.8c11.4-3.2,20.4-10.9,28.2-19.4c8.2-9,15-18.3,16.5-30.7c0.2-1.9-2.8-1.9-3,0c-1.5,12-8.7,21.2-16.7,29.7
					c-7.2,7.7-15.4,14.6-25.8,17.5C1001.6,222.4,1002.4,225.3,1004.3,224.8L1004.3,224.8z"/>
			</g>
		</g>
		<g>
			<g>
				<path d="M1047.3,175.4c11.5,5.8,20.8-6.5,21.7-17.2c0.9-10.6-9.2-21.4-19.7-14.8c-1.6,1-0.1,3.6,1.5,2.6
					c8.9-5.6,16.2,4.5,15,12.8c-1.1,7.9-8,18.6-17.1,13.9C1047,171.9,1045.5,174.5,1047.3,175.4L1047.3,175.4z"/>
			</g>
		</g>
		<g>
			<g>
				<path d="M997,133c-3,18.7-4.1,37.6-3.2,56.6c0.1,1.4,2,2.1,2.8,0.8c3.9-7.1,7.9-14.2,11.8-21.3c0.9-1.7-1.7-3.2-2.6-1.5
					c-3.9,7.1-7.9,14.2-11.8,21.3c0.9,0.3,1.9,0.5,2.8,0.8c-0.8-18.7,0.2-37.3,3.1-55.8C1000.2,132,997.3,131.1,997,133L997,133z"/>
			</g>
		</g>
		<g>
			<g>
				<path d="M1001.9,199.1c-1.1-1.2-0.9-4.2,0.2-5.5c0,0,2-0.8,2.3-0.9c1.6-0.7,3.1-1.7,4.4-2.8c1.4-1.1,2.5-2.4,3.6-3.8
					c1-1.4,1.7-4.4,3-5.5c2-1.7,3.6-0.2,4.2,1.6c0.4,1.2,0.5,2.5,0.5,3.7c0,2.8-1,5.6-2.5,8c-3.3,5.5-11.5,11.2-16.9,4.9
					c-1.3-1.5-3.4,0.7-2.1,2.1c11.3,13.2,31.2-10.6,22.4-22.9c-5.4-7.5-10.4,6.2-13.2,8.8c-2.4,2.3-5,2.9-7.9,4.3
					c-1.3,0.6-2.2,1.2-2.7,2.6c-1.2,2.9,0.8,5.5,2.7,7.5C1001.1,202.6,1003.2,200.5,1001.9,199.1L1001.9,199.1z"/>
			</g>
		</g>
		<ellipse cx="983.7" cy="151.1" rx="2.8" ry="8.1"/>
		<ellipse cx="1016.5" cy="147.7" rx="2.8" ry="8.1"/>
		<g>
			<g>
				<path d="M975.1,133.3c1.4-4.6,10-9.4,14.2-5.4c1.4,1.3,3.5-0.8,2.1-2.1c-5.8-5.6-17.1-0.1-19.2,6.7
					C971.6,134.4,974.5,135.2,975.1,133.3L975.1,133.3z"/>
			</g>
		</g>
		<g>
			<g>
				<path d="M1010,124.1c5.6-3.9,14.4-4.5,17.3,3c0.7,1.8,3.6,1,2.9-0.8c-3.6-9.2-14.3-10-21.7-4.8
					C1006.9,122.7,1008.4,125.3,1010,124.1L1010,124.1z"/>
			</g>
		</g>
		<g>
			<g>
				<path d="M978.3,169.1c1.9,0,1.9-3,0-3C976.4,166.1,976.4,169.1,978.3,169.1L978.3,169.1z"/>
			</g>
		</g>
		<g>
			<g>
				<path d="M988.2,166.2c1.9,0,1.9-3,0-3C986.3,163.2,986.3,166.2,988.2,166.2L988.2,166.2z"/>
			</g>
		</g>
		<g>
			<g>
				<path d="M986.2,174.1c1.9,0,1.9-3,0-3C984.3,171.1,984.3,174.1,986.2,174.1L986.2,174.1z"/>
			</g>
		</g>
		<g>
			<g>
				<path d="M1017.3,162.7c0.1,0,0.2,0,0.3,0c0.8,0,1.5-0.7,1.5-1.5c0-0.8-0.7-1.5-1.5-1.5c-0.1,0-0.2,0-0.3,0
					c-0.8,0-1.5,0.7-1.5,1.5C1015.9,162,1016.5,162.7,1017.3,162.7L1017.3,162.7z"/>
			</g>
		</g>
		<g>
			<g>
				<path d="M1026.4,157.8c1.9,0,1.9-3,0-3C1024.4,154.8,1024.4,157.8,1026.4,157.8L1026.4,157.8z"/>
			</g>
		</g>
		<g>
			<g>
				<path d="M1026.1,166.8c1.9,0,1.9-3,0-3C1024.1,163.8,1024.1,166.8,1026.1,166.8L1026.1,166.8z"/>
			</g>
		</g>
		<g>
			<g>
				<path d="M1044.9,180c-8.8,16.7-15.1,34.5-18.7,53c-0.4,1.9,2.5,2.7,2.9,0.8c3.5-18.3,9.6-35.8,18.4-52.3
					C1048.4,179.8,1045.8,178.3,1044.9,180L1044.9,180z"/>
			</g>
		</g>
		<g>
			<g>
				<path d="M1003.5,223.2c-1.2,4.5-3.2,11-2.3,15.7c0.5,2.9,3.2,4,5.8,4.7c8.4,2.5,16.8-1.2,21.5-8.3c1.1-1.6-1.5-3.1-2.6-1.5
					c-3.8,5.7-10.5,9-17.4,7.1c-4.1-1.1-4.5-2.6-4.2-6.6c0.3-3.5,1.1-6.9,2-10.3C1006.9,222.2,1004,221.4,1003.5,223.2L1003.5,223.2
					z"/>
			</g>
		</g>
	</g>
</g>
</svg>
