<svg width="77" height="82" viewBox="0 0 77 82" fill="none" xmlns="http://www.w3.org/2000/svg">
<path d="M36.3611 50.1111V82H12.0815C8.97371 82 6.41667 79.3487 6.41667 76.1256V50.1111H36.3611ZM70.5833 50.1111V76.1256C70.5833 79.3487 68.0263 82 64.9185 82H40.6389V50.1111H70.5833ZM59.6001 0C68.4979 0.00341667 71.6528 4.95075 71.6528 9.18742C71.6528 14.0391 67.4263 20.1697 58.366 23.9178L71.3437 23.9167C74.4462 23.9167 77 26.6158 77 29.8958V38.4375C77 41.7175 74.4462 44.4167 71.3437 44.4167H40.6389L40.64 27.3106C40.034 27.326 39.428 27.3336 38.8219 27.3333C38.715 27.3333 38.6069 27.3265 38.5011 27.3106C38.3941 27.3254 38.2872 27.3333 38.177 27.3333C37.5632 27.3333 36.9579 27.3254 36.3611 27.3106V44.4167H5.65629C2.55383 44.4167 0 41.7175 0 38.4375V29.8958C0 26.6158 2.55383 23.9167 5.65629 23.9167H18.634C9.57367 20.1697 5.34722 14.0391 5.34722 9.18628C5.34722 4.94847 8.50529 0 17.402 0C28.8836 0 35.3858 8.67264 38.5 16.6187C41.6132 8.67264 48.1164 0 59.6001 0ZM17.4031 5.06919C13.9563 5.06919 10.2731 6.15114 10.2731 9.18514C10.2731 13.5015 17.6041 21.3656 35.1024 22.1935C33.6255 16.5765 29.1605 5.06919 17.4031 5.06919ZM59.6023 5.07147C47.8416 5.07147 43.3767 16.5777 41.8966 22.1901C51.174 21.7448 57.0249 19.3281 60.3926 17.2701C65.065 14.4149 66.7291 11.2226 66.7291 9.184C66.7291 6.15 63.0491 5.07147 59.6023 5.07147Z" fill="#D17888"/>
</svg>
