<svg width="33" height="28" viewBox="0 0 33 28" fill="none" xmlns="http://www.w3.org/2000/svg">
<path fill-rule="evenodd" clip-rule="evenodd" d="M0.822916 9.38796C0.822916 4.43705 5.06763 0.625 10.05 0.625C12.6183 0.625 14.8783 1.85725 16.5 3.45169C18.1217 1.85725 20.3817 0.625 22.95 0.625C27.9324 0.625 32.1771 4.43705 32.1771 9.38796C32.1771 12.7794 30.7637 15.7618 28.8055 18.2828C26.8507 20.7995 24.2937 22.9354 21.8454 24.6709C20.9103 25.3339 19.9642 25.9454 19.0984 26.3966C18.2854 26.8202 17.3506 27.2083 16.5 27.2083C15.6494 27.2083 14.7146 26.8202 13.9016 26.3966C13.0358 25.9454 12.0897 25.3339 11.1546 24.6709C8.70634 22.9354 6.14931 20.7995 4.19451 18.2828C2.23633 15.7618 0.822916 12.7794 0.822916 9.38796ZM10.05 3.375C6.32468 3.375 3.51042 6.17835 3.51042 9.38796C3.51042 11.961 4.57787 14.3567 6.29841 16.5717C8.02234 18.7912 10.3419 20.7494 12.6851 22.4104C13.5717 23.039 14.4069 23.5738 15.1212 23.946C15.8884 24.3458 16.3328 24.4583 16.5 24.4583C16.6672 24.4583 17.1116 24.3458 17.8788 23.946C18.5931 23.5738 19.4283 23.039 20.3149 22.4104C22.6581 20.7494 24.9777 18.7912 26.7016 16.5717C28.4221 14.3567 29.4896 11.961 29.4896 9.38796C29.4896 6.17835 26.6753 3.375 22.95 3.375C20.8105 3.375 18.8127 4.68294 17.5653 6.34302C17.3109 6.68153 16.9173 6.8799 16.5 6.8799C16.0827 6.8799 15.6891 6.68153 15.4347 6.34302C14.1873 4.68294 12.1895 3.375 10.05 3.375Z" fill="black"/>
</svg>
