<svg width="57" height="51" viewBox="0 0 57 51" fill="none" xmlns="http://www.w3.org/2000/svg">
<path fill-rule="evenodd" clip-rule="evenodd" d="M0.427094 17.2685C0.427094 8.04178 8.02809 0.9375 16.95 0.9375C21.5491 0.9375 25.596 3.23397 28.5 6.20543C31.4041 3.23397 35.451 0.9375 40.05 0.9375C48.9719 0.9375 56.5729 8.04178 56.5729 17.2685C56.5729 23.5889 54.0419 29.147 50.5354 33.8453C47.035 38.5354 42.4561 42.5159 38.072 45.7504C36.3974 46.9858 34.7034 48.1254 33.153 48.9663C31.6971 49.7559 30.0231 50.4792 28.5 50.4792C26.9769 50.4792 25.3029 49.7559 23.8471 48.9663C22.2966 48.1254 20.6026 46.9858 18.928 45.7504C14.5439 42.5159 9.96506 38.5354 6.4646 33.8453C2.95809 29.147 0.427094 23.5889 0.427094 17.2685ZM16.95 6.0625C10.2791 6.0625 5.23959 11.2869 5.23959 17.2685C5.23959 22.0637 7.15108 26.5283 10.2321 30.6564C13.3191 34.7926 17.4727 38.442 21.6686 41.5376C23.2564 42.709 24.7518 43.7057 26.031 44.3994C27.4048 45.1445 28.2006 45.3542 28.5 45.3542C28.7995 45.3542 29.5952 45.1445 30.969 44.3994C32.2482 43.7057 33.7437 42.709 35.3314 41.5376C39.5273 38.442 43.6809 34.7926 46.768 30.6564C49.8489 26.5283 51.7604 22.0637 51.7604 17.2685C51.7604 11.2869 46.7209 6.0625 40.05 6.0625C36.2188 6.0625 32.6413 8.50003 30.4076 11.5938C29.9521 12.2247 29.2473 12.5944 28.5 12.5944C27.7528 12.5944 27.0479 12.2247 26.5924 11.5938C24.3587 8.50003 20.7812 6.0625 16.95 6.0625Z" fill="black"/>
</svg>
