<svg width="250" height="250" viewBox="0 0 250 250" fill="none" xmlns="http://www.w3.org/2000/svg">
<path d="M53.099 133.172C53.2136 132.844 53.3542 132.521 53.5547 132.24C56.263 128.365 59.0599 124.557 61.7708 120.687C62.6797 119.352 63.6537 118.065 64.6276 116.781C65.0391 116.297 65.4245 115.776 65.9219 115.38C66.6693 114.805 67.849 115.07 68.3151 115.904C68.8646 117.044 68.5052 118.401 67.7188 119.315C65.6693 121.677 63.4063 123.823 61.1458 125.966C58.9922 128.062 56.8047 130.12 54.5625 132.117C54.0886 132.487 53.6667 132.953 53.099 133.172Z" fill="#5D32A5"/>
<path d="M66.9505 113.156C67.1693 112.391 68.1172 111.805 69.0156 111.336C72.9062 111.396 75.875 113.01 78.5833 114.526C79.8463 115.286 81.3047 116.128 81.3568 117.435C81.2109 118.068 80.7552 118.68 80.2786 119.258C78.0182 121.813 74.7318 123.898 71.3984 125.82C69.9401 126.63 68.5573 127.516 67.0443 128.276L66.7057 128.326C67.5208 127.315 68.6641 126.43 69.5521 125.445C71.7969 122.966 73.9635 120.458 76.4323 118.065C75.0312 117.659 73.4739 117.469 72.1146 117.005C70.526 116.479 68.9948 115.841 67.8568 114.93C67.2604 114.464 66.8333 113.839 66.9505 113.156Z" fill="#5D32A5"/>
<path d="M73.5964 105.367C73.0339 105.659 72.7969 106.276 72.6406 106.839C73.6328 108.773 75.6484 109.875 77.5234 110.87C78.4401 111.323 79.4687 111.852 80.5312 111.565C81.0026 111.341 81.3828 110.966 81.7318 110.589C83.2292 108.846 84.1016 106.701 84.8307 104.568C85.1276 103.643 85.5 102.74 85.7422 101.799L85.6979 101.617C85.0859 102.268 84.6536 103.052 84.0833 103.734C82.6406 105.451 81.1562 107.138 79.8359 108.948C79.1693 108.341 78.6406 107.607 77.9375 107.036C77.1302 106.365 76.2448 105.75 75.237 105.398C74.7187 105.211 74.1146 105.146 73.5964 105.367Z" fill="#5D32A5"/>
<path d="M76.1875 95.4115C77.625 95.2787 79.1458 95.8672 80.0495 97.0078C80.6849 97.7214 80.9662 98.6719 81.0677 99.6042C81.0104 100.685 80.625 101.779 79.8516 102.56C78.6771 103.852 76.6667 104.292 75.0469 103.635C72.8359 102.883 71.5313 100.068 72.638 97.9531C73.25 96.5365 74.6693 95.5912 76.1875 95.4115Z" fill="#5D32A5"/>
<path d="M72.3984 104.724C73.0599 104.341 73.3177 103.768 73.4766 103.26C72.1745 101.893 69.6771 101.477 67.3568 101.115C66.224 100.969 64.9531 100.784 63.6823 101.286C63.1224 101.594 62.6823 102 62.2839 102.404C60.5599 104.232 59.6172 106.242 58.8464 108.201C58.5365 109.047 58.1302 109.896 57.888 110.74L57.9505 110.88C58.6563 110.185 59.138 109.422 59.7943 108.711C61.4479 106.917 63.1563 105.141 64.6589 103.299C65.4974 103.638 66.1771 104.12 67.0573 104.419C68.0677 104.776 69.1719 105.07 70.4089 105.112C71.0469 105.138 71.7787 105.042 72.3984 104.724Z" fill="#5D32A5"/>
<path d="M75.7005 96.6094C76.0885 96.4506 76.3021 95.9922 76.4609 95.5677C76.0182 93.9063 74.8359 92.7761 73.7318 91.75C73.1901 91.2761 72.5833 90.724 71.8724 90.8151C71.5469 90.9349 71.2656 91.1823 71.0052 91.4375C69.8698 92.6276 69.0937 94.2162 68.4114 95.8125C68.1302 96.5078 67.7995 97.1771 67.5521 97.8907L67.5599 98.0391C68.0182 97.6016 68.3724 97.0365 68.8099 96.5703C69.9062 95.3907 71.0286 94.2448 72.0547 92.9792C72.4219 93.5443 72.6875 94.1953 73.0807 94.7344C73.5338 95.3698 74.039 95.9714 74.6484 96.3776C74.9635 96.5912 75.3437 96.7214 75.7005 96.6094Z" fill="#5D32A5"/>
<path d="M91.2109 104.055C91.1875 104.086 91.138 104.099 91.0599 104.091C90.9818 104.083 90.8776 104.055 90.7448 104.008C90.6146 103.958 90.4583 103.893 90.2787 103.807C90.099 103.721 89.9011 103.62 89.6797 103.5C89.4583 103.38 89.224 103.245 88.9688 103.094C88.7162 102.945 88.4531 102.784 88.1771 102.609C87.9011 102.435 87.6198 102.253 87.3307 102.06C87.0443 101.87 86.7552 101.672 86.4662 101.471C86.1771 101.271 85.8932 101.068 85.6146 100.862C85.3359 100.659 85.0677 100.458 84.8073 100.26C84.5495 100.06 84.3073 99.8698 84.0781 99.6849C83.8516 99.4974 83.6432 99.3229 83.4531 99.1588C83.2656 98.9922 83.1016 98.8411 82.9583 98.7031C82.8177 98.5625 82.7005 98.4401 82.612 98.3333C82.5208 98.2265 82.4583 98.138 82.4245 98.0677C82.3906 97.9974 82.3854 97.9453 82.4063 97.914C82.4297 97.8828 82.4792 97.8698 82.5573 97.8776C82.638 97.8854 82.7422 97.914 82.8724 97.9609C83.0052 98.0104 83.1589 98.0755 83.3386 98.1614C83.5182 98.2474 83.7188 98.3489 83.9375 98.4687C84.1589 98.5885 84.3958 98.7239 84.6484 98.8724C84.9011 99.0234 85.1641 99.1849 85.4401 99.3594C85.7162 99.5338 85.9974 99.7161 86.2865 99.9088C86.5729 100.099 86.862 100.294 87.1511 100.497C87.4401 100.698 87.724 100.901 88.0026 101.104C88.2839 101.31 88.5521 101.51 88.8099 101.708C89.0677 101.906 89.3125 102.099 89.5391 102.284C89.7682 102.471 89.9766 102.646 90.1641 102.81C90.3516 102.977 90.5182 103.128 90.6589 103.266C90.8021 103.404 90.9167 103.526 91.0078 103.633C91.0964 103.74 91.1589 103.828 91.1927 103.901C91.2266 103.971 91.2344 104.021 91.2109 104.055Z" fill="#5D32A5"/>
<path d="M90.013 102.94C89.8151 103.221 89.6068 103.474 89.3828 103.706C89.1589 103.935 88.9401 104.122 88.724 104.266C88.5078 104.411 88.3125 104.503 88.138 104.539C87.9636 104.578 87.8203 104.557 87.7136 104.482C87.6042 104.406 87.5391 104.281 87.5156 104.104C87.4896 103.927 87.5078 103.714 87.5729 103.464C87.6354 103.211 87.737 102.943 87.8776 102.654C88.0156 102.367 88.1849 102.083 88.3828 101.802C88.5781 101.523 88.7891 101.268 89.013 101.039C89.2344 100.81 89.4557 100.622 89.6693 100.477C89.8854 100.333 90.0807 100.242 90.2578 100.203C90.4323 100.167 90.5729 100.185 90.6823 100.26C90.7891 100.336 90.8568 100.464 90.8802 100.638C90.9063 100.815 90.8854 101.029 90.8229 101.281C90.7604 101.531 90.6589 101.802 90.5182 102.089C90.3776 102.378 90.2083 102.661 90.013 102.94Z" fill="#5D32A5"/>
<path d="M85.6328 99.9661C85.4375 100.247 85.2266 100.503 85.0052 100.732C84.7812 100.961 84.5625 101.148 84.3463 101.294C84.1302 101.437 83.9349 101.529 83.7604 101.565C83.5833 101.604 83.4427 101.586 83.3359 101.51C83.2266 101.435 83.1615 101.307 83.1354 101.13C83.112 100.953 83.1302 100.74 83.1927 100.49C83.2552 100.237 83.3568 99.9687 83.4974 99.6823C83.638 99.3932 83.8073 99.1094 84.0026 98.8307C84.2005 98.5495 84.4115 98.2943 84.6328 98.0651C84.8568 97.8359 85.0755 97.6484 85.2917 97.5026C85.5078 97.3594 85.7031 97.2682 85.8776 97.2318C86.0521 97.1927 86.1953 97.2109 86.3021 97.2865C86.4115 97.362 86.4766 97.4896 86.5026 97.6667C86.526 97.8437 86.5078 98.0573 86.4453 98.3073C86.3828 98.5599 86.2812 98.8281 86.1406 99.1146C86 99.4036 85.8307 99.6875 85.6328 99.9661Z" fill="#5D32A5"/>
<path d="M61.5547 114.956C61.5339 114.99 61.4818 115 61.4036 114.992C61.3255 114.984 61.2214 114.956 61.0885 114.909C60.9583 114.862 60.8021 114.794 60.6224 114.711C60.4453 114.625 60.2448 114.521 60.0234 114.401C59.8047 114.281 59.5677 114.148 59.3151 113.997C59.0625 113.846 58.7969 113.685 58.5208 113.51C58.2474 113.339 57.9635 113.154 57.6771 112.964C57.388 112.771 57.099 112.576 56.8099 112.375C56.5208 112.172 56.237 111.969 55.9583 111.766C55.6797 111.563 55.4115 111.359 55.1536 111.161C54.8932 110.964 54.651 110.771 54.4245 110.586C54.1953 110.401 53.987 110.227 53.7995 110.06C53.6094 109.896 53.4453 109.742 53.3021 109.604C53.1615 109.466 53.0443 109.344 52.9557 109.237C52.8646 109.13 52.8047 109.042 52.7682 108.971C52.7344 108.901 52.7292 108.849 52.7526 108.818C52.7734 108.784 52.8255 108.773 52.9036 108.781C52.9818 108.789 53.0859 108.818 53.2187 108.865C53.349 108.911 53.5052 108.979 53.6849 109.063C53.862 109.148 54.0625 109.253 54.2839 109.372C54.5026 109.492 54.7396 109.628 54.9922 109.776C55.2448 109.927 55.5104 110.089 55.7865 110.263C56.0599 110.435 56.3437 110.62 56.6302 110.81C56.9193 111.003 57.2083 111.198 57.4974 111.398C57.7839 111.602 58.0703 111.805 58.349 112.008C58.6276 112.211 58.8958 112.414 59.1536 112.612C59.4141 112.81 59.6562 113.003 59.8828 113.188C60.112 113.372 60.3203 113.547 60.5078 113.714C60.6979 113.878 60.862 114.031 61.0052 114.169C61.1458 114.307 61.263 114.43 61.3516 114.536C61.4427 114.643 61.5026 114.732 61.5391 114.802C61.5729 114.872 61.5781 114.924 61.5547 114.956Z" fill="#5D32A5"/>
<path d="M60.3568 113.844C60.1615 114.122 59.9505 114.378 59.7266 114.607C59.5052 114.836 59.2839 115.023 59.0703 115.169C58.8542 115.312 58.6589 115.404 58.4818 115.443C58.3073 115.479 58.1667 115.461 58.0573 115.385C57.9505 115.31 57.8828 115.185 57.8594 115.008C57.8333 114.831 57.8542 114.617 57.9167 114.365C57.9792 114.115 58.0807 113.844 58.2214 113.557C58.362 113.268 58.5313 112.987 58.7266 112.706C58.9245 112.427 59.1328 112.172 59.3568 111.94C59.5807 111.711 59.7995 111.523 60.0156 111.38C60.2318 111.234 60.4271 111.143 60.6016 111.107C60.7761 111.07 60.9167 111.089 61.0261 111.164C61.1354 111.24 61.2005 111.365 61.224 111.542C61.25 111.719 61.2318 111.932 61.1667 112.185C61.1042 112.435 61.0026 112.703 60.862 112.992C60.7214 113.279 60.5547 113.562 60.3568 113.844Z" fill="#5D32A5"/>
<path d="M55.9792 110.87C55.7812 111.148 55.5729 111.404 55.349 111.633C55.125 111.865 54.9062 112.052 54.6901 112.195C54.474 112.341 54.2786 112.432 54.1042 112.469C53.9297 112.505 53.7865 112.487 53.6797 112.411C53.5703 112.336 53.5052 112.211 53.4792 112.034C53.4557 111.857 53.474 111.643 53.5365 111.391C53.599 111.141 53.7031 110.87 53.8411 110.583C53.9818 110.297 54.151 110.013 54.349 109.732C54.5443 109.453 54.7552 109.198 54.9792 108.969C55.2005 108.737 55.4219 108.552 55.6354 108.406C55.8516 108.26 56.0469 108.172 56.2213 108.133C56.3984 108.096 56.5391 108.115 56.6484 108.19C56.7552 108.266 56.8229 108.391 56.8463 108.568C56.8698 108.745 56.8516 108.958 56.7891 109.211C56.7266 109.461 56.625 109.732 56.4844 110.018C56.3437 110.305 56.1745 110.589 55.9792 110.87Z" fill="#5D32A5"/>
<path d="M71.5339 108.792C71.388 109.102 71.2136 109.38 71.0052 109.633C70.7969 109.885 70.5755 110.089 70.3386 110.245C70.099 110.401 69.8646 110.497 69.6328 110.534C69.401 110.57 69.1875 110.544 68.9974 110.456C68.8047 110.367 68.6484 110.221 68.5287 110.021C68.4063 109.82 68.3307 109.581 68.2969 109.297C68.263 109.016 68.2787 108.716 68.3386 108.396C68.3984 108.076 68.5026 107.76 68.6484 107.451C68.7917 107.141 68.9688 106.859 69.1771 106.607C69.3828 106.354 69.6068 106.151 69.8438 105.995C70.0807 105.839 70.3151 105.742 70.5495 105.706C70.7813 105.669 70.9922 105.695 71.1849 105.784C71.375 105.875 71.5313 106.018 71.6537 106.219C71.7734 106.419 71.8516 106.661 71.8854 106.943C71.9167 107.224 71.9037 107.526 71.8412 107.846C71.7813 108.167 71.6797 108.482 71.5339 108.792Z" fill="#5D32A5"/>
<path d="M90.2955 125.414V110.875H88.6262V127.083H96.0871V125.414H90.2955Z" fill="white"/>
<path d="M100.017 127.083V119.479L105.476 127.083H107.622L101.663 118.979L107.622 110.875H105.476L100.017 118.502V110.875H98.3481V127.083H100.017Z" fill="white"/>
<path d="M122.229 118.979C122.229 117.812 121.992 116.739 121.562 115.737C121.132 114.737 120.536 113.877 119.796 113.164C119.036 112.448 118.153 111.901 117.153 111.494C116.127 111.091 115.031 110.875 113.887 110.875H109.643V127.083H113.887C115.031 127.083 116.127 126.893 117.153 126.487C118.153 126.083 119.036 125.51 119.796 124.794C120.536 124.08 121.132 123.244 121.562 122.244C121.992 121.244 122.229 120.172 122.229 118.979ZM120.609 118.979C120.609 120.838 119.939 122.388 118.653 123.604C117.367 124.817 115.794 125.414 113.934 125.414H111.312V112.544H113.934C115.794 112.544 117.367 113.164 118.653 114.354C119.939 115.593 120.609 117.143 120.609 118.979Z" fill="white"/>
<path d="M133.084 119.744V116.746H127.925V113.77H133.302V110.772H124.617V125.762H127.925V119.744H133.084Z" fill="white"/>
<path d="M139.032 125.762V110.772H135.725V125.762H139.032Z" fill="white"/>
<path d="M148.045 113.77H152.324V110.772H140.462V113.77H144.741V125.762H148.045V113.77Z" fill="white"/>
<path d="M165.524 125.762V110.772H162.219V120.119L157.06 110.772H153.753V125.762H157.06V116.415L162.219 125.762H165.524Z" fill="white"/>
<path d="M176.851 122.764H171.474V119.744H176.633V116.746H171.474V113.77H176.851V110.772H168.167V125.762H176.851V122.764Z" fill="white"/>
<path d="M185.315 123.426C183.682 123.426 182.273 122.608 182.185 120.824H178.833C178.854 124.483 181.875 126.113 185.182 126.113C188.247 126.113 191.398 124.814 191.398 121.288C191.398 115.577 182.734 117.496 182.734 114.827C182.734 113.702 184.036 113.262 184.961 113.262C186.614 113.262 187.518 113.77 187.695 115.335H190.89C190.781 111.918 188.005 110.551 184.917 110.551C182.185 110.551 179.318 112.007 179.318 115.093C179.318 120.626 187.982 118.751 187.982 121.66C187.982 123.007 186.351 123.426 185.315 123.426Z" fill="white"/>
<path d="M199.2 123.426C197.567 123.426 196.158 122.608 196.069 120.824H192.718C192.739 124.483 195.76 126.113 199.067 126.113C202.132 126.113 205.283 124.814 205.283 121.288C205.283 115.577 196.619 117.496 196.619 114.827C196.619 113.702 197.921 113.262 198.845 113.262C200.499 113.262 201.403 113.77 201.58 115.335H204.775C204.666 111.918 201.89 110.551 198.801 110.551C196.069 110.551 193.202 112.007 193.202 115.093C193.202 120.626 201.866 118.751 201.866 121.66C201.866 123.007 200.236 123.426 199.2 123.426Z" fill="white"/>
</svg>
