<svg width="345" height="264" viewBox="0 0 345 264" fill="none" xmlns="http://www.w3.org/2000/svg">
<path d="M87.7379 226.842C100.309 226.842 111.996 232.232 124.308 233.992C136.275 235.686 148.113 232.892 159.886 231C165.816 230.054 171.81 229.306 177.826 229.614C184.036 229.944 189.793 231.66 195.443 234.212C200.553 236.544 205.555 239.25 210.968 240.812C216.121 242.308 221.425 242.374 226.687 241.428C239.063 239.206 250.448 232.32 263.235 232.386C263.645 232.386 263.645 231.726 263.235 231.726C252.044 231.66 241.845 236.874 231.236 239.712C225.716 241.186 219.959 241.978 214.31 240.922C208.596 239.866 203.334 237.182 198.116 234.718C192.941 232.276 187.702 230.142 182.009 229.35C176.144 228.536 170.214 228.888 164.371 229.68C152.512 231.242 140.717 234.542 128.685 233.794C114.777 232.914 101.818 226.204 87.781 226.204C87.3282 226.182 87.3282 226.842 87.7379 226.842Z" fill="#161616"/>
<path d="M70.4017 229.482C72.9676 228.492 75.5982 227.788 78.3151 227.37C78.7248 227.304 78.5523 226.666 78.1426 226.732C75.4257 227.128 72.7951 227.832 70.2292 228.844C69.841 228.998 70.0135 229.636 70.4017 229.482Z" fill="#161616"/>
<path d="M65.7872 235.202C80.2341 228.712 95.8238 236.038 109.947 239.756C114.087 240.856 118.313 241.67 122.604 241.912C123.014 241.934 123.014 241.274 122.604 241.252C107.036 240.394 92.8913 231.528 77.1291 232.056C73.1185 232.188 69.151 233.002 65.4854 234.652C65.0972 234.806 65.4207 235.378 65.7872 235.202Z" fill="#161616"/>
<path d="M132.674 247.302C135.995 246.796 139.143 245.674 142.313 244.574C145.461 243.496 148.63 242.572 151.865 241.89C158.549 240.504 165.406 240.042 172.198 240.526C176.144 240.812 180.068 241.428 183.907 242.33C184.316 242.418 184.489 241.78 184.079 241.692C170.753 238.546 156.652 239.118 143.628 243.43C139.941 244.64 136.34 246.07 132.48 246.664C132.092 246.73 132.264 247.368 132.674 247.302Z" fill="#161616"/>
<path d="M209.933 248.204C214.418 250.558 219.549 250.602 224.444 249.92C230.115 249.15 235.678 247.61 241.177 245.938C252.109 242.616 262.998 238.568 274.491 237.864C280.809 237.468 287.169 238.15 293.099 240.46C293.487 240.614 293.66 239.976 293.272 239.822C271.558 231.33 249.564 244.332 228.476 248.556C222.504 249.744 215.884 250.558 210.278 247.61C209.889 247.434 209.566 248.006 209.933 248.204Z" fill="#161616"/>
<path d="M276.108 232.672C281.003 232.54 285.854 233.508 290.339 235.576C290.706 235.752 291.051 235.18 290.663 235.004C286.091 232.892 281.132 231.88 276.108 232.012C275.677 232.034 275.677 232.694 276.108 232.672Z" fill="#161616"/>
<path d="M123.682 233.112C122.001 231.308 120.685 229.174 119.844 226.82C119.478 225.764 119.197 224.686 119.025 223.586C118.917 222.926 118.486 221.078 119.974 221.496C120.556 221.672 121.224 222.596 121.548 223.08C121.785 223.432 122.346 223.102 122.108 222.75C120.987 221.1 120.146 219.274 119.629 217.338C119.37 216.37 119.197 215.358 119.09 214.346C119.047 213.862 119.025 213.378 119.025 212.872C119.025 212.63 119.025 212.388 119.047 212.146C119.003 211.662 119.219 211.288 119.737 211.024C119.952 210.958 120.146 210.914 120.362 210.848C120.017 209.946 119.758 209.022 119.586 208.076C119.499 207.548 119.435 206.998 119.392 206.448C119.392 206.382 119.435 204.358 119.78 204.732C119.995 204.974 120.427 204.732 120.319 204.402C119.219 200.86 119.003 197.098 119.78 193.446C119.931 192.742 120.06 191.708 120.556 191.136C121.203 190.388 122.13 190.784 122.604 191.488C122.906 191.928 123.1 192.434 123.273 192.94C123.812 194.612 124.006 196.416 124.329 198.132C125.731 205.634 127.068 213.158 127.844 220.77C128.275 225.038 128.534 229.328 128.534 233.618C128.534 234.036 129.181 234.036 129.181 233.618C129.181 224.708 128.06 215.842 126.593 207.064C125.86 202.73 125.127 198.352 124.222 194.04C123.92 192.632 123.424 190.608 121.936 190.036C120.836 189.618 120.038 190.52 119.672 191.488C118.141 195.536 118.464 200.486 119.715 204.556C119.887 204.446 120.082 204.336 120.254 204.226C119.456 203.39 118.809 204.468 118.745 205.238C118.594 207.152 119.068 209.198 119.737 210.958C119.887 211.354 120.491 211.2 120.362 210.782C120.168 210.144 119.413 209.946 118.896 210.386C118.033 211.112 118.357 213.158 118.443 214.104C118.68 217.316 119.78 220.374 121.548 223.014C121.742 222.904 121.914 222.794 122.108 222.684C121.548 221.87 120.232 220.176 119.068 220.638C117.882 221.1 118.292 222.97 118.443 223.894C119.047 227.524 120.75 230.868 123.23 233.53C123.51 233.882 123.984 233.42 123.682 233.112Z" fill="#E8E8E8"/>
<path d="M128.297 216.986C128.297 214.83 128.491 212.696 128.901 210.606C129.073 209.792 130.108 204.534 131.035 204.688C131.186 204.71 131.402 204.644 131.423 204.468C131.855 202.136 132.458 199.848 133.256 197.626C134.032 195.514 134.895 192.786 136.685 191.334C136.534 191.334 136.383 191.334 136.232 191.334C137.375 192.61 137.051 194.92 137.073 196.526C137.073 198.286 137.03 200.046 136.922 201.828C136.706 205.546 136.275 209.242 135.693 212.894C134.572 220.044 132.89 227.106 131.186 234.146C131.078 234.564 131.704 234.74 131.812 234.322C133.666 226.732 135.456 219.142 136.577 211.398C137.116 207.724 137.482 204.05 137.633 200.354C137.72 198.374 137.741 196.394 137.677 194.414C137.633 193.138 137.569 191.862 136.685 190.894C136.555 190.762 136.361 190.784 136.232 190.894C134.507 192.28 133.687 194.7 132.911 196.724C131.962 199.188 131.272 201.718 130.798 204.314C130.927 204.248 131.057 204.16 131.186 204.094C130.518 203.984 130.173 204.38 129.892 204.974C129.332 206.206 128.944 207.57 128.62 208.89C127.93 211.552 127.628 214.302 127.628 217.052C127.65 217.404 128.297 217.404 128.297 216.986Z" fill="#E8E8E8"/>
<path d="M225.328 241.12C224.25 239.316 223.344 237.424 222.633 235.422C222.309 234.52 222.029 233.596 221.792 232.65C221.662 232.144 221.555 231.638 221.447 231.132C221.404 230.89 221.339 230.626 221.296 230.362C221.08 229.834 221.296 229.482 221.921 229.306C222.137 229.284 222.352 229.24 222.547 229.218C221.964 227.59 221.555 225.918 221.339 224.18C221.231 223.322 221.167 222.486 221.167 221.628C221.167 221.21 221.468 219.186 221.231 218.922C221.425 219.142 221.792 218.966 221.792 218.68C221.749 216.59 221.857 214.522 222.202 212.454C222.352 211.508 222.568 210.584 222.805 209.66C222.935 209.198 223.064 208.736 223.193 208.274C223.28 208.01 223.366 207.746 223.452 207.504C223.538 206.932 223.883 206.69 224.53 206.8C224.66 207.13 225.177 207.108 225.156 206.712C225.134 204.534 225.457 202.4 226.212 200.354C226.406 199.848 227.032 197.802 227.765 197.758C228.713 197.714 228.735 200.332 228.778 200.86C229.145 205.194 229.425 209.55 229.576 213.906C229.899 222.772 229.813 231.638 229.296 240.482C229.274 240.9 229.921 240.9 229.942 240.482C230.395 232.716 230.525 224.95 230.331 217.184C230.223 213.334 230.05 209.484 229.792 205.656C229.662 203.764 229.533 201.894 229.339 200.002C229.231 198.836 229.015 197.758 228.023 197.054C227.916 196.988 227.808 197.01 227.7 197.054C226.298 197.736 225.759 199.496 225.328 200.926C224.746 202.796 224.487 204.754 224.509 206.734C224.724 206.712 224.94 206.668 225.134 206.646C224.918 206.052 224.293 205.788 223.711 206.074C222.762 206.514 222.525 208.252 222.266 209.11C221.404 212.234 221.037 215.468 221.123 218.702C221.317 218.614 221.49 218.548 221.684 218.46C221.641 218.416 221.619 218.394 221.576 218.35C221.512 218.262 221.361 218.218 221.253 218.262C220.778 218.438 220.671 218.746 220.584 219.23C220.39 220.396 220.455 221.672 220.541 222.838C220.692 225.082 221.167 227.282 221.921 229.394C222.029 229.724 222.59 229.702 222.547 229.306C222.482 228.624 221.77 228.25 221.145 228.602C220.132 229.152 220.692 230.846 220.865 231.682C221.619 235.136 222.956 238.414 224.746 241.428C224.983 241.802 225.544 241.472 225.328 241.12Z" fill="#E8E8E8"/>
<path d="M230.525 224.62C230.503 223.432 230.611 222.266 230.848 221.1C230.956 220.572 231.107 220.044 231.279 219.538C231.344 219.362 232.034 217.338 232.444 217.954C232.616 218.218 233.026 218.13 233.048 217.778C233.112 216.81 233.242 215.864 233.5 214.94C233.608 214.544 234.557 211.794 234.988 212.058C235.204 212.212 235.463 212.014 235.484 211.772C235.613 209.836 236.045 207.944 236.821 206.184C237.188 205.326 237.64 204.49 238.158 203.72C238.568 203.082 239.193 202.004 239.84 201.586C241.522 200.486 241.22 203.17 241.198 203.962C241.155 204.952 241.09 205.942 241.026 206.954C240.875 209.088 240.659 211.2 240.379 213.312C239.258 221.914 237.274 230.362 235.312 238.788C235.225 239.206 235.829 239.382 235.937 238.964C237.791 231.066 239.646 223.146 240.788 215.094C241.328 211.266 241.716 207.416 241.867 203.544C241.91 202.62 242.039 201.124 241.047 200.618C240.012 200.09 239.15 201.388 238.589 202.07C236.368 204.842 235.074 208.23 234.837 211.816C235.01 211.728 235.161 211.618 235.333 211.53C233.479 210.32 232.465 216.832 232.422 217.822C232.616 217.756 232.832 217.712 233.026 217.646C232.293 216.546 231.366 217.624 231.021 218.438C230.223 220.396 229.878 222.53 229.899 224.642C229.878 225.038 230.525 225.038 230.525 224.62Z" fill="#E8E8E8"/>
<path d="M75.706 226.6C74.8435 226.248 74.0241 225.742 73.485 224.95C73.2263 224.576 73.0538 224.158 72.9028 223.74C72.8597 223.652 72.45 222.31 72.9675 222.574C73.3125 222.75 73.5928 222.354 73.3556 222.046C72.1913 220.528 71.3503 218.79 70.9406 216.898C70.8328 216.392 70.5741 215.666 70.6819 215.16C70.8975 214.148 71.8894 214.016 72.5363 214.654C73.2263 215.336 73.83 216.172 74.3691 216.986C76.3744 219.956 77.6035 223.388 77.97 226.974C78.0131 227.392 78.66 227.392 78.6169 226.974C78.3797 224.532 77.7544 222.178 76.7625 219.934C75.8353 217.866 74.4769 215.358 72.7088 213.928C72.1266 213.466 71.3072 213.158 70.6388 213.598C69.8625 214.082 70.035 215.16 70.1213 215.93C70.4231 218.372 71.415 220.616 72.9028 222.552C73.0322 222.376 73.1616 222.2 73.291 222.024C72.9244 221.848 72.5363 221.826 72.2344 222.178C71.7816 222.684 72.0619 223.388 72.2775 223.938C72.8813 225.588 73.9163 226.622 75.5119 227.282C75.9216 227.392 76.0941 226.754 75.706 226.6Z" fill="#E8E8E8"/>
<path d="M76.4175 219.472C75.5334 216.04 74.6709 212.696 74.2397 209.176C74.1318 208.34 74.024 207.482 73.9594 206.646C73.8947 205.788 73.679 204.534 73.8947 203.698C73.8947 203.566 73.9162 203.412 73.9162 203.28C74.5847 202.532 75.0806 202.488 75.404 203.192C75.5981 203.478 75.7706 203.808 75.9215 204.138C76.3312 204.864 76.6978 205.612 77.0428 206.382C79.9322 212.564 81.269 219.406 80.9887 226.248C80.9672 226.666 81.614 226.666 81.6356 226.248C81.9806 218.306 80.1694 209.968 76.1156 203.148C75.6197 202.312 74.4122 201.168 73.5712 202.312C73.2047 202.796 73.2478 203.588 73.2478 204.16C73.2047 205.282 73.2909 206.426 73.4203 207.548C73.6359 209.528 73.83 211.552 74.2612 213.51C74.714 215.6 75.2962 217.646 75.8353 219.714C75.9 220.044 76.5253 219.868 76.4175 219.472Z" fill="#E8E8E8"/>
<path d="M63.0487 167.904C77.3015 167.552 91.1878 171.226 104.707 175.472C118.227 179.718 131.639 184.646 145.655 187C152.684 188.188 159.821 188.65 166.937 188.1C174.764 187.506 182.462 185.878 190.052 183.898C197.793 181.874 205.447 179.52 213.188 177.43C220.951 175.318 228.757 173.404 236.627 171.754C252.518 168.41 268.669 166.166 284.927 165.77C286.889 165.726 288.873 165.704 290.835 165.704C291.245 165.704 291.245 165.044 290.835 165.044C274.9 165 259.009 166.804 243.333 169.752C227.527 172.744 212.089 177.078 196.607 181.434C188.931 183.612 181.19 185.614 173.298 186.758C165.772 187.836 158.182 187.968 150.636 187.066C136.447 185.394 122.842 180.642 109.3 176.264C95.9315 171.952 82.2825 167.838 68.2022 167.288C66.4772 167.222 64.7522 167.222 63.0272 167.266C62.6175 167.266 62.6175 167.926 63.0487 167.904Z" fill="#E8E8E8"/>
<path d="M203.421 171.292C218.148 167.156 232.508 161.854 247.085 157.19C261.618 152.526 276.453 148.456 291.654 146.872C300.128 145.992 308.689 145.882 317.163 146.872C317.572 146.916 317.572 146.256 317.163 146.212C302.112 144.474 286.911 146.168 272.183 149.49C257.241 152.856 242.751 157.894 228.239 162.778C219.959 165.572 211.679 168.3 203.27 170.654C202.838 170.764 203.011 171.402 203.421 171.292Z" fill="#E8E8E8"/>
<path d="M156.005 206.228C161.525 207.526 167.217 206.932 172.737 205.898C178.516 204.82 184.187 203.28 189.858 201.652C201.286 198.396 212.649 195.074 224.53 194.15C231.236 193.644 237.985 193.776 244.67 194.502C245.079 194.546 245.079 193.886 244.67 193.842C233.069 192.566 221.339 193.16 209.911 195.624C198.547 198.066 187.551 202.026 176.209 204.512C169.675 205.942 162.818 207.152 156.199 205.59C155.767 205.502 155.595 206.14 156.005 206.228Z" fill="#E8E8E8"/>
<path d="M263.192 210.496C277.639 209.704 291.008 216.282 304.872 219.274C308.753 220.11 312.678 220.66 316.645 220.726C317.055 220.726 317.055 220.066 316.645 220.066C302.22 219.824 289.002 213.07 274.943 210.628C271.062 209.946 267.138 209.616 263.192 209.836C262.782 209.88 262.761 210.54 263.192 210.496Z" fill="#E8E8E8"/>
<path d="M52.7634 142.604C67.7063 142.428 82.6275 145.2 96.5353 150.766C100.524 152.372 104.427 154.22 108.222 156.266C108.589 156.464 108.912 155.892 108.546 155.694C95.2847 148.522 80.6869 144.034 65.7656 142.516C61.4531 142.076 57.0975 141.878 52.7634 141.944C52.3538 141.944 52.3538 142.604 52.7634 142.604Z" fill="#E8E8E8"/>
<path d="M67.8141 116.798C79.6088 119.812 90.3685 125.73 101.516 130.548C112.772 135.41 124.588 138.776 136.685 140.448C143.498 141.394 150.398 141.812 157.277 141.702C157.687 141.702 157.687 141.042 157.277 141.042C144.878 141.24 132.458 139.7 120.47 136.488C114.583 134.904 108.826 132.924 103.198 130.548C97.6135 128.194 92.1366 125.51 86.6166 123.024C80.5576 120.296 74.4122 117.788 67.9866 116.16C67.5985 116.05 67.426 116.688 67.8141 116.798Z" fill="#E8E8E8"/>
<path d="M148.178 154.792C159.368 159.192 171.659 156.794 182.634 152.922C188.543 150.832 194.278 148.324 200.143 146.146C205.9 144.012 211.744 142.164 217.673 140.602C224.53 138.798 231.495 137.39 238.503 136.378C238.913 136.312 238.74 135.674 238.33 135.74C226.191 137.5 214.245 140.448 202.666 144.54C191.281 148.566 180.263 154.264 168.209 156.002C161.546 156.97 154.668 156.64 148.35 154.154C147.962 154 147.789 154.638 148.178 154.792Z" fill="#E8E8E8"/>
<path d="M107.338 115.698C108.553 115.698 109.538 114.713 109.538 113.498C109.538 112.283 108.553 111.298 107.338 111.298C106.123 111.298 105.139 112.283 105.139 113.498C105.139 114.713 106.123 115.698 107.338 115.698Z" fill="#5222D0"/>
<path d="M191.41 144.716C192.339 144.716 193.092 143.967 193.092 143.044C193.092 142.121 192.339 141.372 191.41 141.372C190.482 141.372 189.729 142.121 189.729 143.044C189.729 143.967 190.482 144.716 191.41 144.716Z" fill="#5222D0"/>
<path d="M229.598 24.2661C230.217 24.2661 230.719 23.7638 230.719 23.1441C230.719 22.5244 230.217 22.0221 229.598 22.0221C228.978 22.0221 228.476 22.5244 228.476 23.1441C228.476 23.7638 228.978 24.2661 229.598 24.2661Z" fill="#5222D0"/>
<path d="M108.955 176.682C109.848 176.682 110.573 175.963 110.573 175.076C110.573 174.189 109.848 173.47 108.955 173.47C108.062 173.47 107.338 174.189 107.338 175.076C107.338 175.963 108.062 176.682 108.955 176.682Z" fill="#5222D0"/>
<path d="M248.443 100.782C248.658 100.782 248.831 100.605 248.831 100.386C248.831 100.167 248.658 99.99 248.443 99.99C248.229 99.99 248.055 100.167 248.055 100.386C248.055 100.605 248.229 100.782 248.443 100.782Z" fill="#5222D0"/>
<path d="M102.983 112.31C104.162 112.31 105.117 111.355 105.117 110.176C105.117 108.998 104.162 108.042 102.983 108.042C101.804 108.042 100.848 108.998 100.848 110.176C100.848 111.355 101.804 112.31 102.983 112.31Z" fill="#EC615B"/>
<path d="M111.306 169.598C111.711 169.598 112.039 169.273 112.039 168.872C112.039 168.471 111.711 168.146 111.306 168.146C110.901 168.146 110.573 168.471 110.573 168.872C110.573 169.273 110.901 169.598 111.306 169.598Z" fill="#EC615B"/>
<path d="M71.9756 50.6C72.8569 50.6 73.5713 49.8908 73.5713 49.016C73.5713 48.1412 72.8569 47.432 71.9756 47.432C71.0944 47.432 70.38 48.1412 70.38 49.016C70.38 49.8908 71.0944 50.6 71.9756 50.6Z" fill="#EC615B"/>
<path d="M234.945 86.5701C235.826 86.5701 236.541 85.8609 236.541 84.9861C236.541 84.1113 235.826 83.4021 234.945 83.4021C234.064 83.4021 233.349 84.1113 233.349 84.9861C233.349 85.8609 234.064 86.5701 234.945 86.5701Z" fill="#EC615B"/>
<path d="M241.392 80.6521C242.13 80.6521 242.729 80.0611 242.729 79.3321C242.729 78.6031 242.13 78.0121 241.392 78.0121C240.654 78.0121 240.055 78.6031 240.055 79.3321C240.055 80.0611 240.654 80.6521 241.392 80.6521Z" fill="#EC615B"/>
<path d="M95.8453 144.43C93.8616 144.474 93.0206 147.29 93.6675 148.962C93.9694 149.732 94.6378 149.93 95.3925 149.798C95.6297 149.754 95.9316 149.6 96.1903 149.6C97.2038 149.666 97.1822 150.304 96.8803 150.92C96.6647 151.36 96.4275 151.712 96.3197 152.196C96.1903 152.812 96.2981 153.494 96.9234 153.758C97.2684 153.912 97.6781 153.648 97.98 153.758C99.0581 154.11 98.1956 155.496 98.1094 156.178C98.0231 156.926 98.2172 157.784 98.9288 158.136C99.5541 158.444 100.309 158.246 100.632 157.608C100.826 157.234 100.266 156.904 100.072 157.278C99.3384 157.872 98.9072 157.652 98.7347 156.574C98.7347 156.266 98.7778 155.98 98.8641 155.694C98.9719 155.21 99.1875 154.77 99.2306 154.264C99.2522 153.912 99.2306 153.538 98.9719 153.274C98.4544 152.79 97.2038 153.494 96.9234 152.636C96.7509 152.108 97.5272 151.228 97.6781 150.744C97.98 149.798 97.6134 148.852 96.5138 148.874C95.6081 148.896 94.53 149.842 94.2066 148.192C93.9694 147.048 94.5084 145.09 95.8884 145.068C96.255 145.068 96.2766 144.408 95.8453 144.43Z" fill="#EC615B"/>
<path d="M216.013 122.65C213.835 122.694 211.808 124.234 211.291 126.434C210.838 128.348 212.002 130.636 214.137 129.448C214.892 129.03 215.647 128.282 215.776 127.358C215.862 126.632 215.409 126.016 214.655 126.082C213.598 126.17 212.628 127.446 212.067 128.238C211.42 129.14 210.752 130.394 210.86 131.56C211.075 133.562 213.9 133.958 214.892 132.374C215.064 132.11 214.719 131.714 214.439 131.912C212.951 133.078 211.399 134.992 211.981 137.06C212.434 138.688 214.159 139.854 215.776 139.282C216.164 139.15 215.992 138.512 215.603 138.644C214.159 139.15 212.649 137.918 212.52 136.422C212.391 134.816 213.577 133.408 214.762 132.484C214.612 132.33 214.461 132.176 214.31 132.022C213.878 132.726 212.908 132.88 212.197 132.506C211.183 131.956 211.463 130.768 211.852 129.888C212.175 129.14 212.649 128.458 213.188 127.864C213.404 127.622 213.965 126.962 214.267 126.918C214.547 126.984 214.849 127.072 215.129 127.138C215.107 127.424 215.021 127.666 214.87 127.908C214.288 128.876 212.822 129.646 212.024 128.524C211.485 127.798 211.83 126.434 212.197 125.708C212.93 124.256 214.396 123.332 215.97 123.31C216.423 123.288 216.423 122.628 216.013 122.65Z" fill="#EC615B"/>
<path d="M46.6613 89.32C47.3513 88.462 48.5372 88.748 48.8822 89.738C49.0978 90.332 49.0763 90.838 49.6153 91.256C50.5857 92.004 51.8794 91.432 52.9144 91.212C55.6097 90.662 54.7257 93.412 56.2566 94.49C56.925 94.974 57.9385 94.842 58.2835 94.05C58.456 93.676 57.8953 93.324 57.7228 93.72C57.1622 94.996 56.1272 93.346 55.9547 92.84C55.8469 92.532 55.7822 92.224 55.6528 91.938C55.4588 91.476 55.2 91.036 54.7688 90.75C53.5613 89.98 52.2244 90.926 50.9953 90.948C49.68 90.992 49.8094 90.068 49.3566 89.166C49.1625 88.77 48.8391 88.484 48.4294 88.308C47.6316 88 46.726 88.176 46.2085 88.858C45.9282 89.188 46.4025 89.65 46.6613 89.32Z" fill="#EC615B"/>
<path d="M48.9685 95.546C50.3269 94.05 52.2891 94.754 53.0869 96.382C53.5829 97.394 53.9279 98.494 55.006 99C56.6448 99.77 58.7794 98.912 59.3401 97.174C59.4694 96.778 58.8441 96.602 58.7148 96.998C58.3051 98.274 56.7957 98.89 55.5882 98.516C54.1004 98.076 53.9926 96.338 53.1732 95.238C52.0519 93.72 49.7663 93.698 48.5157 95.084C48.2354 95.392 48.6882 95.854 48.9685 95.546Z" fill="#EC615B"/>
<path d="M201.998 192.148C202.795 191.202 203.873 191.224 204.844 191.884C205.167 192.104 205.491 192.324 205.9 192.17C206.418 191.972 206.504 191.268 206.871 190.916C207.625 190.19 208.876 190.19 209.652 190.85C209.976 191.114 210.428 190.652 210.105 190.388C208.941 189.398 207.022 189.486 206.094 190.806C206.008 190.938 205.9 191.29 205.793 191.356C205.297 191.686 205.103 191.18 204.779 191.048C204.434 190.916 204.111 190.762 203.744 190.74C202.882 190.674 202.084 191.026 201.523 191.686C201.286 191.994 201.739 192.456 201.998 192.148Z" fill="#5222D0"/>
<path d="M208.315 193.27C209.782 191.048 215.086 194.062 215.625 190.498C215.69 190.08 215.064 189.904 215 190.322C214.719 192.192 212.175 191.752 210.881 191.708C209.674 191.686 208.466 191.862 207.755 192.94C207.518 193.292 208.078 193.622 208.315 193.27Z" fill="#5222D0"/>
<path d="M94.0341 202.51C94.875 201.036 95.9962 199.804 97.3762 198.858C97.7212 198.616 97.3978 198.044 97.0528 198.286C95.5866 199.32 94.379 200.618 93.4734 202.18C93.2578 202.532 93.8184 202.862 94.0341 202.51Z" fill="#5222D0"/>
<path d="M97.0959 201.454C98.2387 200.662 99.3816 199.848 100.524 199.056C100.869 198.814 100.546 198.242 100.201 198.484C99.0581 199.276 97.9153 200.09 96.7725 200.882C96.4275 201.124 96.7509 201.696 97.0959 201.454Z" fill="#5222D0"/>
<path d="M96.3413 13.9041C96.1472 30.9761 91.8347 47.9161 83.9213 62.9641C81.7004 67.2101 79.1775 71.2801 76.4175 75.1741C76.1803 75.5261 76.741 75.8561 76.9782 75.5041C86.8538 61.5781 93.3872 45.2541 95.8669 28.2261C96.5569 23.4741 96.9235 18.6781 96.9882 13.8821C97.0097 13.4861 96.3628 13.4861 96.3413 13.9041Z" fill="#E8E8E8"/>
<path d="M99.0367 14.6301C109.559 21.2081 122.583 23.2321 134.593 20.4821C138 19.7121 141.299 18.5241 144.426 17.0061C144.792 16.8301 144.469 16.2581 144.102 16.4341C133.17 21.7581 120.254 22.4181 108.783 18.5461C105.484 17.4241 102.314 15.9281 99.3601 14.0801C99.0151 13.8381 98.6917 14.4101 99.0367 14.6301Z" fill="#E8E8E8"/>
<path d="M149.773 16.8521C154.366 24.2881 161.676 29.7881 169.912 32.2961C179.853 35.3321 190.569 33.3301 200.359 30.6461C205.814 29.1501 211.14 27.1041 215.884 23.9801C216.229 23.7601 215.905 23.1881 215.56 23.4081C211.377 26.1361 206.784 28.0501 202.041 29.4801C197.081 30.9541 191.949 32.0981 186.817 32.7361C181.88 33.3521 176.856 33.3521 172.004 32.1861C167.907 31.1961 163.983 29.4361 160.468 27.0601C156.414 24.3101 152.943 20.7241 150.334 16.5221C150.118 16.1701 149.557 16.5001 149.773 16.8521Z" fill="#E8E8E8"/>
<path d="M218.428 24.42C216.919 32.824 215.754 41.624 216.164 50.182C216.488 57.2 218.363 64.526 223.97 69.058C227.312 71.764 231.387 73.26 235.376 74.712C235.764 74.866 235.937 74.228 235.549 74.074C232.034 72.776 228.433 71.478 225.35 69.278C222.396 67.188 220.218 64.262 218.859 60.874C216.207 54.23 216.552 46.684 217.091 39.666C217.479 34.606 218.148 29.568 219.032 24.574C219.118 24.178 218.493 24.002 218.428 24.42Z" fill="#E8E8E8"/>
<path d="M78.0779 79.2661C94.1635 81.8401 108.999 91.2341 118.464 104.764C121.117 108.57 123.338 112.684 125.019 117.018C125.17 117.414 125.796 117.238 125.645 116.842C119.607 101.31 106.993 88.9021 91.921 82.5441C87.5223 80.6961 82.9294 79.3761 78.2504 78.6281C77.8407 78.5621 77.6682 79.2001 78.0779 79.2661Z" fill="#E8E8E8"/>
<path d="M129.181 117.568C136.793 111.54 146.884 110.044 156.22 111.452C166.182 112.948 175.217 117.832 183.368 123.684C188.284 127.204 192.92 131.098 197.556 134.992C197.879 135.256 198.332 134.794 198.009 134.53C189.642 127.49 181.147 120.362 171.293 115.588C162.495 111.32 152.576 109.186 142.873 110.88C137.741 111.782 132.868 113.828 128.728 117.084C128.405 117.37 128.858 117.832 129.181 117.568Z" fill="#E8E8E8"/>
<path d="M197.275 130.922C200.984 114.576 211.097 100.056 224.638 90.618C228.519 87.912 232.681 85.624 237.037 83.82C237.425 83.666 237.252 83.028 236.864 83.182C221.425 89.606 208.509 101.948 201.286 117.282C199.259 121.594 197.707 126.104 196.65 130.746C196.564 131.164 197.189 131.34 197.275 130.922Z" fill="#E8E8E8"/>
<path d="M100.007 91.8061C103.241 93.2141 105.678 96.0081 107.985 98.6261C110.378 101.332 112.578 104.214 114.605 107.228C118.529 113.102 121.656 119.482 123.898 126.214C124.027 126.61 124.653 126.434 124.523 126.038C122.216 119.152 118.982 112.596 114.95 106.59C112.966 103.642 110.788 100.826 108.438 98.1641C106.087 95.5241 103.608 92.6641 100.33 91.2561C99.9637 91.0581 99.6187 91.6301 100.007 91.8061Z" fill="#161616"/>
<path d="M149.083 20.372C152.641 26.224 158.226 30.514 164.651 32.538C165.061 32.67 165.212 32.032 164.824 31.9C158.549 29.942 153.094 25.74 149.644 20.042C149.428 19.668 148.868 20.02 149.083 20.372Z" fill="#161616"/>
<path d="M96.7294 9.21804C103.629 13.992 112.362 15.532 120.448 13.552C120.858 13.442 120.685 12.826 120.276 12.914C112.341 14.872 103.802 13.31 97.0528 8.64604C96.7078 8.42604 96.3844 8.99804 96.7294 9.21804Z" fill="#161616"/>
<path d="M73.8732 70.8621C77.3232 66.9681 80.3204 62.7001 82.8 58.1021C82.9941 57.7281 82.4335 57.3981 82.2394 57.7721C79.7813 62.3261 76.8272 66.5501 73.4204 70.4001C73.14 70.7081 73.5929 71.1701 73.8732 70.8621Z" fill="#161616"/>
<path d="M94.8103 45.078C94.5084 48.202 92.8913 51.15 91.6406 53.966C90.3469 56.848 89.01 59.686 87.6516 62.524C87.4575 62.898 88.0181 63.228 88.2122 62.854C89.7216 59.774 91.1662 56.65 92.5678 53.504C93.7753 50.798 95.1984 48.048 95.4787 45.056C95.5003 44.66 94.8534 44.66 94.8103 45.078Z" fill="#161616"/>
<path d="M195.205 119.35C198.591 110.44 204.046 102.454 211.032 96.0961C211.334 95.8101 210.881 95.3481 210.579 95.6341C203.507 102.08 198.009 110.154 194.58 119.174C194.429 119.57 195.054 119.724 195.205 119.35Z" fill="#161616"/>
<path d="M93.7537 18.568C93.3872 20.922 92.9991 23.276 92.6325 25.63C92.5678 26.048 93.1931 26.224 93.2578 25.806C93.6244 23.452 94.0125 21.098 94.3791 18.744C94.4437 18.326 93.8184 18.15 93.7537 18.568Z" fill="#EC615B"/>
<path d="M148.911 11.066C153.568 16.742 159.347 21.362 165.859 24.618C166.225 24.794 166.549 24.244 166.182 24.046C159.713 20.812 153.978 16.236 149.363 10.604C149.105 10.274 148.652 10.736 148.911 11.066Z" fill="#EC615B"/>
<path d="M187.098 36.696C192.532 36.96 197.944 35.882 202.86 33.506C203.227 33.33 202.903 32.758 202.537 32.934C197.707 35.244 192.424 36.3 187.098 36.036C186.667 36.014 186.688 36.674 187.098 36.696Z" fill="#EC615B"/>
<path d="M206.353 26.62C210.946 24.332 215.086 21.252 218.622 17.468C218.903 17.16 218.45 16.698 218.169 17.006C214.676 20.746 210.579 23.782 206.03 26.048C205.663 26.224 205.987 26.796 206.353 26.62Z" fill="#EC615B"/>
<path d="M130.496 113.344C135.93 107.514 144.21 104.83 151.973 106.238C152.382 106.304 152.555 105.666 152.145 105.6C144.145 104.148 135.65 106.854 130.044 112.882C129.742 113.168 130.194 113.652 130.496 113.344Z" fill="#EC615B"/>
<path d="M82.4335 76.5161C87.0047 77.4841 91.4035 79.0461 95.565 81.2021C95.9316 81.4001 96.255 80.8281 95.8885 80.6301C91.6838 78.4521 87.2204 76.8461 82.606 75.8781C82.1963 75.7901 82.0238 76.4281 82.4335 76.5161Z" fill="#5222D0"/>
<path d="M99.4032 22.902C99.6619 25.476 99.7051 28.072 99.5541 30.646C99.5326 31.064 100.179 31.064 100.201 30.646C100.352 28.05 100.287 25.476 100.05 22.902C100.007 22.484 99.3601 22.484 99.4032 22.902Z" fill="#5222D0"/>
<path d="M183.626 111.474C186.171 106.414 190.289 102.388 195.292 99.9021C195.658 99.7261 195.335 99.1541 194.968 99.3301C189.858 101.86 185.653 105.996 183.066 111.144C182.872 111.518 183.432 111.87 183.626 111.474Z" fill="#5222D0"/>
<path d="M170.128 64.0421C172.026 62.7001 174.225 62.0841 176.532 62.2161C176.942 62.2381 176.942 61.5781 176.532 61.5561C174.117 61.4241 171.788 62.0841 169.805 63.4921C169.46 63.7121 169.783 64.2841 170.128 64.0421Z" fill="#EC615B"/>
<path d="M175.368 58.102C177.244 58.498 179.055 59.048 180.823 59.774C181.211 59.928 181.384 59.29 180.996 59.136C179.227 58.41 177.416 57.86 175.54 57.464C175.131 57.376 174.958 58.014 175.368 58.102Z" fill="#EC615B"/>
<path d="M128.362 41.14C129.03 38.06 130.561 35.31 132.76 33.088C133.062 32.78 132.609 32.318 132.308 32.626C130.022 34.914 128.426 37.774 127.736 40.964C127.629 41.382 128.254 41.558 128.362 41.14Z" fill="#EC615B"/>
<path d="M133.105 41.844C136.318 39.292 139.941 37.378 143.843 36.146C144.232 36.014 144.081 35.376 143.671 35.508C139.66 36.762 135.952 38.742 132.653 41.36C132.329 41.646 132.782 42.108 133.105 41.844Z" fill="#EC615B"/>
<path d="M126.615 85.36C127.413 87.472 127.499 89.672 126.895 91.85C126.787 92.268 127.413 92.444 127.521 92.026C128.167 89.738 128.06 87.406 127.24 85.184C127.089 84.788 126.464 84.964 126.615 85.36Z" fill="#5222D0"/>
<path d="M132.135 86.086C133.278 87.494 134.701 88.638 136.297 89.452C136.663 89.65 136.987 89.078 136.62 88.88C135.046 88.088 133.688 86.988 132.588 85.602C132.329 85.294 131.876 85.756 132.135 86.086Z" fill="#5222D0"/>
<path d="M202.45 81.752C203.421 82.852 203.852 84.282 203.615 85.756C203.55 86.174 204.175 86.35 204.24 85.932C204.52 84.216 204.046 82.566 202.903 81.29C202.623 80.96 202.17 81.422 202.45 81.752Z" fill="#5222D0"/>
<path d="M207.819 80.7401C208.617 81.6641 209.394 82.5661 210.191 83.4901C210.472 83.8201 210.924 83.3361 210.644 83.0281C209.846 82.1041 209.07 81.2021 208.272 80.2781C208.014 79.9481 207.561 80.4101 207.819 80.7401Z" fill="#5222D0"/>
<path d="M176.532 88.616C178.02 85.954 179.982 83.644 182.376 81.796C182.699 81.532 182.376 80.96 182.052 81.224C179.573 83.16 177.524 85.514 175.972 88.286C175.778 88.66 176.338 88.99 176.532 88.616Z" fill="#5222D0"/>
<path d="M254.761 41.0521C256.5 41.0521 257.909 39.6534 257.909 37.9281C257.909 36.2027 256.5 34.8041 254.761 34.8041C253.022 34.8041 251.613 36.2027 251.613 37.9281C251.613 39.6534 253.022 41.0521 254.761 41.0521Z" fill="#EC615B"/>
<path d="M260.561 48.1141C262.026 48.1141 263.213 46.9419 263.213 45.4961C263.213 44.0502 262.026 42.8781 260.561 42.8781C259.096 42.8781 257.909 44.0502 257.909 45.4961C257.909 46.9419 259.096 48.1141 260.561 48.1141Z" fill="#5222D0"/>
<path d="M101.473 62.9641C101.775 64.5701 102.142 66.2641 102.616 68.0241C104.19 73.7661 106.433 78.5621 108.653 82.3901C109.3 82.5441 110.228 82.7641 111.37 82.8961C112.944 83.0941 115.489 83.4241 118.357 82.5881C119.047 82.3901 118.745 82.4121 121.785 81.1361C124.825 79.8601 124.998 79.9041 126.162 79.3761C128.146 78.4961 129.936 77.2201 133.45 74.7341C134.464 74.0081 135.865 72.9961 137.504 71.7421C137.612 71.0381 137.741 70.0041 137.72 68.7501C137.677 66.7701 137.267 65.3401 136.685 63.2721C135.758 60.0381 135.111 57.8381 134.701 56.4521C133.882 55.9241 132.998 55.3961 131.984 54.9121C128.642 53.2621 125.472 52.6021 123.036 52.3381C120.534 52.5361 118.551 52.9981 117.214 53.3721C111.349 55.0221 107.317 58.1241 104.815 60.0821C103.328 61.2261 102.185 62.2601 101.473 62.9641Z" fill="white"/>
<path d="M192.596 54.8901C190.871 56.7821 189.039 59.0481 187.292 61.7101C186.429 63.0301 185.675 64.3061 185.006 65.5381C186.322 67.5401 187.637 69.5421 188.974 71.5221C191.928 72.6881 194.882 73.8541 197.836 75.0421C200.639 72.0501 203.464 69.0581 206.267 66.0441C205.534 63.6241 204.801 61.2261 204.089 58.8061C202.644 58.0581 200.984 57.3101 199.087 56.6281C196.672 55.7921 194.494 55.2421 192.596 54.8901Z" fill="white"/>
<path d="M101.258 63.1621C101.991 70.2461 105.053 76.6921 108.373 82.8741C108.567 83.2481 109.128 82.9181 108.934 82.5441C105.678 76.4941 102.616 70.1361 101.904 63.1621C101.861 62.7441 101.214 62.7221 101.258 63.1621Z" fill="#161616"/>
<path d="M101.861 63.3381C107.144 57.4641 114.389 53.6581 122.13 52.6241C122.54 52.5801 122.54 51.9201 122.13 51.9641C114.217 53.0201 106.799 56.8481 101.387 62.8541C101.128 63.1841 101.581 63.6461 101.861 63.3381Z" fill="#161616"/>
<path d="M122.173 52.536C125.688 57.926 127.327 64.196 128.901 70.378C129.008 70.796 129.634 70.62 129.526 70.202C127.93 63.954 126.27 57.64 122.734 52.206C122.497 51.854 121.936 52.184 122.173 52.536Z" fill="#161616"/>
<path d="M109.128 82.852C113.074 81.642 116.869 80.036 120.491 78.034C122.281 77.044 124.006 75.944 125.688 74.756C127.197 73.7 128.771 72.6 129.591 70.884C129.785 70.51 129.224 70.18 129.03 70.554C128.146 72.38 126.335 73.524 124.739 74.624C123.165 75.702 121.526 76.714 119.844 77.638C116.373 79.53 112.729 81.048 108.977 82.214C108.567 82.346 108.74 82.984 109.128 82.852Z" fill="#161616"/>
<path d="M122.518 52.5801C126.788 52.7561 130.884 54.2081 134.334 56.8041C134.679 57.0461 135.003 56.4741 134.658 56.2321C131.122 53.5701 126.917 52.0961 122.518 51.9201C122.109 51.8981 122.109 52.5581 122.518 52.5801Z" fill="#161616"/>
<path d="M134.291 56.518C136.253 61.116 137.288 66.044 137.31 71.082C137.31 71.5 137.957 71.5 137.957 71.082C137.914 65.934 136.857 60.896 134.83 56.188C134.679 55.792 134.14 56.122 134.291 56.518Z" fill="#161616"/>
<path d="M129.181 70.9501C131.855 72.7101 135.024 72.2261 137.935 71.4341C138.345 71.3241 138.173 70.6861 137.763 70.7961C135.024 71.5441 132.049 72.0281 129.526 70.3781C129.159 70.1581 128.836 70.7301 129.181 70.9501Z" fill="#161616"/>
<path d="M108.783 82.9621C112.621 83.8421 116.61 83.5561 120.276 82.0821C120.664 81.9281 120.491 81.2901 120.103 81.4441C116.545 82.8741 112.686 83.2041 108.955 82.3241C108.546 82.2361 108.373 82.8741 108.783 82.9621Z" fill="#161616"/>
<path d="M120.448 82.0381C126.852 79.5741 132.803 76.0321 138.022 71.5001C138.345 71.2141 137.871 70.7521 137.569 71.0381C132.437 75.4821 126.593 78.9801 120.297 81.4001C119.887 81.5541 120.06 82.1921 120.448 82.0381Z" fill="#161616"/>
<path d="M192.1 54.8241C189.362 58.1241 186.861 61.6221 184.618 65.2741C184.403 65.6261 184.963 65.9561 185.179 65.6041C187.4 61.9961 189.879 58.5421 192.553 55.2861C192.834 54.9781 192.381 54.4941 192.1 54.8241Z" fill="#161616"/>
<path d="M192.402 55.3961C196.284 56.0341 200.014 57.2881 203.485 59.1141C203.852 59.3121 204.175 58.7401 203.809 58.5421C200.273 56.6721 196.499 55.4181 192.553 54.7581C192.165 54.6921 191.993 55.3301 192.402 55.3961Z" fill="#161616"/>
<path d="M184.64 65.978C188.003 67.54 191.324 69.168 194.623 70.884C194.99 71.082 195.313 70.51 194.947 70.312C191.647 68.618 188.327 66.99 184.963 65.406C184.575 65.23 184.252 65.802 184.64 65.978Z" fill="#161616"/>
<path d="M203.658 58.8061C200.769 62.7441 197.965 66.7481 195.249 70.8181C195.399 70.7741 195.55 70.7301 195.701 70.7081C195.464 70.5761 195.227 70.4221 194.968 70.2901C194.602 70.0701 194.278 70.6421 194.645 70.8621C194.882 70.9941 195.119 71.1481 195.378 71.2801C195.529 71.3681 195.723 71.3021 195.831 71.1701C198.526 67.1001 201.329 63.0741 204.24 59.1581C204.456 58.8061 203.895 58.4761 203.658 58.8061Z" fill="#161616"/>
<path d="M203.593 59.1801C204.563 61.4901 205.275 63.8661 205.749 66.3301C205.836 66.7481 206.461 66.5721 206.375 66.1541C205.9 63.6461 205.146 61.2041 204.154 58.8501C204.003 58.4761 203.442 58.8061 203.593 59.1801Z" fill="#161616"/>
<path d="M195.464 71.3241C196.305 72.4681 197.038 73.6561 197.685 74.9321C197.879 75.3061 198.44 74.9761 198.246 74.6021C197.599 73.3261 196.866 72.1381 196.025 70.9941C195.788 70.6641 195.227 70.9941 195.464 71.3241Z" fill="#161616"/>
<path d="M198.246 74.8881C201.049 72.2481 203.679 69.4761 206.181 66.5501C206.461 66.2201 205.987 65.7581 205.728 66.0881C203.227 69.0141 200.596 71.8081 197.793 74.4261C197.491 74.7121 197.944 75.1741 198.246 74.8881Z" fill="#161616"/>
<path d="M184.704 66.1541C186.084 67.9801 187.464 69.8281 188.844 71.6541C189.103 71.9841 189.664 71.6541 189.405 71.3241C188.025 69.4981 186.645 67.6501 185.265 65.8241C185.006 65.4941 184.446 65.8021 184.704 66.1541Z" fill="#161616"/>
<path d="M188.974 71.896C191.863 73.018 194.753 74.1401 197.642 75.2621C198.03 75.4161 198.203 74.7781 197.814 74.6241C194.925 73.5021 192.036 72.38 189.146 71.258C188.758 71.104 188.586 71.742 188.974 71.896Z" fill="#161616"/>
<path d="M108.071 57.2221C110.81 64.6141 113.57 72.006 116.308 79.4201C118.357 80.0141 120.427 80.5861 122.475 81.1801C124.006 80.4761 125.537 79.75 127.068 79.046C125.321 78.276 123.575 77.506 121.828 76.736C119.025 69.256 116.222 61.754 113.419 54.274C112.643 54.626 111.823 55.022 110.982 55.484C109.883 56.034 108.934 56.6501 108.071 57.2221Z" fill="#EC615B"/>
<path d="M127.801 52.8661C129.569 56.1221 131.488 60.6761 132.286 66.3301C132.545 68.1781 132.653 69.9381 132.653 71.5221C129.224 74.2061 125.041 77.0441 120.017 79.6841C117.214 81.1581 114.497 82.3901 111.974 83.4021C113.376 83.4021 114.777 83.4021 116.179 83.4021C119.176 82.1261 122.497 80.5201 126.011 78.4741C129.828 76.2521 133.105 73.9421 135.844 71.7861C135.326 69.1461 134.766 66.4401 134.162 63.7121C133.494 60.6981 132.804 57.7721 132.114 54.8901C131.725 54.4941 131.078 53.9441 130.151 53.5041C129.203 53.0641 128.362 52.9101 127.801 52.8661Z" fill="#EC615B"/>
<path d="M110.68 55.5501C110.206 55.1541 110.831 52.7781 112.556 52.0301C113.872 51.4581 115.575 51.9201 116.761 53.2401C116.093 53.4381 115.079 53.7461 113.872 54.2521C111.715 55.1541 111.004 55.8141 110.68 55.5501Z" fill="#EC615B"/>
<path d="M113.677 53.2401C114.691 52.5801 116.157 51.4361 117.429 49.6101C119.607 46.4641 119.78 43.2521 119.758 41.9101C120.125 41.8001 122.302 41.1181 123.51 42.1961C125.149 43.6481 123.639 47.1241 123.316 47.8501C122.367 50.0281 120.815 51.2161 120.319 51.5681C117.559 53.5481 114.54 53.3281 113.677 53.2401Z" fill="#EC615B"/>
<path d="M102.638 47.3881C103.716 47.2121 104.319 49.1701 106.562 51.1061C108.567 52.8221 110.81 53.5921 112.556 53.9881C111.823 54.5601 110.443 55.5061 108.524 55.7481C105.743 56.1001 101.948 55.0221 101.042 52.3161C100.373 50.2701 101.43 47.5641 102.638 47.3881Z" fill="#EC615B"/>
<path d="M196.564 55.7261C193.782 59.5101 190.979 63.2941 188.198 67.0781C189.189 68.9261 190.181 70.7741 191.195 72.6221C192.057 72.9741 192.92 73.3481 193.782 73.7001C193.157 72.1601 192.532 70.5981 191.885 69.0581C194.364 64.9001 196.866 60.7641 199.345 56.6061C198.418 56.3201 197.491 56.0341 196.564 55.7261Z" fill="#5222D0"/>
<path d="M205.016 61.842C202.17 65.076 199.302 68.288 196.456 71.522C193.135 70.532 189.815 69.542 186.494 68.552C187.055 69.278 187.615 70.004 188.176 70.73C191.303 71.786 194.408 72.842 197.534 73.898C200.229 70.796 202.903 67.716 205.599 64.614C205.426 63.69 205.232 62.766 205.016 61.842Z" fill="#5222D0"/>
<path d="M199.345 56.5181C199.453 56.0561 201.049 55.5941 202.127 56.4301C202.817 56.9581 203.227 57.9921 202.925 58.3001C202.364 58.8721 199.194 57.2221 199.345 56.5181Z" fill="#5222D0"/>
<path d="M197.663 49.4121C198.138 49.1481 199.087 49.9841 199.345 50.2041C199.604 50.4241 200.51 51.2601 201.135 53.6581C201.458 54.8681 201.933 56.6721 201.437 56.9141C200.876 57.2001 199.173 55.3961 198.246 53.4601C197.534 51.9201 197.038 49.7641 197.663 49.4121Z" fill="#5222D0"/>
<path d="M210.17 57.2221C210.213 56.6941 209.048 56.2761 208.725 56.1661C208.423 56.0561 207.28 55.6821 204.844 56.2321C203.615 56.5181 201.803 56.9361 201.782 57.4641C201.76 58.0801 204.132 58.6741 206.267 58.5641C207.97 58.4761 210.105 57.9041 210.17 57.2221Z" fill="#5222D0"/>
<path opacity="0.09" d="M108.955 82.7641C110.228 82.3021 112.103 81.6201 114.346 80.6521C118.163 79.0241 120.858 77.8801 123.855 75.8121C125.343 74.7781 127.348 73.1941 129.483 70.8841C130.539 68.7281 131.833 65.5161 132.329 61.4241C132.631 58.9381 132.588 56.7381 132.415 54.9561C133.192 55.4181 133.946 55.8801 134.723 56.3201C135.499 58.3881 136.297 60.9181 136.857 63.8441C137.418 66.6821 137.655 69.2561 137.72 71.4341C135.391 73.5021 133.321 75.0421 131.768 76.1201C124.286 81.3341 119.133 82.5661 117.99 82.8301C116.222 83.2261 114.863 83.2921 114.26 83.3141C111.996 83.4021 110.163 83.0501 108.955 82.7641Z" fill="#353535"/>
<path opacity="0.09" d="M185.071 65.6261C186.451 67.6281 187.809 69.6301 189.189 71.6101C192.057 72.7541 194.947 73.8761 197.814 75.0201C200.553 71.9841 203.291 68.9701 206.03 65.9341C205.361 63.6021 204.671 61.2701 204.003 58.9381C201.2 62.8101 198.397 66.6821 195.594 70.5541C192.079 68.9261 188.564 67.2761 185.071 65.6261Z" fill="#353535"/>
<path d="M149.665 234.894C150.528 233.794 151.045 233.288 151.239 233.42C151.735 233.728 149.967 238.172 145.913 246.774C135.973 247.258 130.927 247.016 130.798 246.026C130.69 245.168 134.377 243.738 141.86 241.758C143.498 238.216 145.137 234.674 146.776 231.132C147.746 232.386 148.695 233.64 149.665 234.894Z" fill="black"/>
<path d="M154.711 164.758C153.891 170.676 152.943 176.704 151.908 182.82C148.846 200.772 145.116 217.778 140.954 233.772C141.558 234.454 143.132 236.016 145.719 236.742C148.975 237.644 151.671 236.654 152.447 236.346C157.32 218.966 162.171 201.564 167.045 184.184C173.449 177.056 172.22 167.838 167.325 164.494C164.091 162.294 159.088 162.602 154.711 164.758Z" fill="#EC615B"/>
<path opacity="0.15" d="M154.97 165.132C155.595 165.198 155.207 175.076 154.711 183.964C153.59 204.138 149.902 221.848 145.525 236.61C145.051 236.478 144.49 236.28 143.93 235.994C142.55 235.29 141.622 234.366 141.083 233.706C142.399 228.91 144.296 221.694 146.258 212.85C152.404 185.152 154.086 165.066 154.97 165.132Z" fill="#353535"/>
<path opacity="0.13" d="M151.326 188.21C150.851 194.018 150.161 200.134 149.191 206.514C147.617 217.008 145.525 226.644 143.218 235.378C142.959 235.334 142.571 235.224 142.14 234.938C141.558 234.542 141.277 234.036 141.17 233.794C142.895 226.468 144.577 219.076 146.258 211.618C148.005 203.742 149.687 195.932 151.326 188.21Z" fill="#353535"/>
<path d="M190.957 234.234C190.009 233.134 189.427 232.628 189.211 232.76C188.672 233.068 190.612 237.512 195.054 246.114C205.987 246.598 211.507 246.356 211.657 245.366C211.787 244.508 207.733 243.078 199.496 241.098C197.685 237.556 195.895 234.014 194.084 230.472C193.049 231.726 192.014 232.98 190.957 234.234Z" fill="black"/>
<path d="M162.991 170.016C162.193 173.932 164.004 177.166 164.673 178.244C171.788 197.648 178.882 217.074 185.998 236.478C187.206 236.654 189.707 236.83 192.596 235.796C195.852 234.63 197.75 232.54 198.483 231.616C194.235 222.376 191.561 214.632 189.922 209.374C185.631 195.624 179.853 182.336 175.756 168.52C175.066 166.21 173.901 162.162 171.271 161.656C168.209 161.084 163.918 165.396 162.991 170.016Z" fill="#EC615B"/>
<path opacity="0.1" d="M169.675 161.788C168.187 162.888 170.947 168.762 172.263 171.688C175.432 178.75 177.071 186.428 180.112 193.556C183.389 201.234 188.197 213.664 194.99 234.52C195.464 234.278 196.068 233.948 196.671 233.442C197.469 232.782 198.008 232.1 198.353 231.572C196.65 227.81 194.192 222.112 191.604 215.006C190.677 212.476 190.569 212.014 189.556 208.846C188.478 205.48 186.796 200.376 186.451 199.342C184.834 194.59 184.834 195.228 181.793 186.802C181.146 185.02 180.262 182.556 179.206 179.344C178.688 177.782 178.3 176.528 178.02 175.626C177.977 175.494 176.554 170.984 174.548 165.638C174.031 164.23 173.47 162.844 172.069 162.118C171.982 162.052 170.408 161.238 169.675 161.788Z" fill="#353535"/>
<path opacity="0.12" d="M180.198 182.27C180.068 182.314 182.958 191.488 196.779 233.332C197.34 232.782 197.901 232.232 198.461 231.66C197.62 229.746 196.305 226.71 194.796 222.926C191.324 214.28 189.836 209.242 185.955 198.132C183.799 191.95 180.327 182.226 180.198 182.27Z" fill="#353535"/>
<path d="M186.3 100.342C185.804 100.386 185.459 98.8901 184.92 98.9121C184.489 98.9341 184.187 99.9241 184.165 100.056C183.907 100.958 184.036 101.882 184.92 104.302C185.179 105.006 185.524 105.908 185.977 106.942C185.739 108.658 185.308 111.034 184.532 113.828C183.562 117.282 181.923 122.958 177.589 128.81C176.252 130.614 174.247 133.012 171.336 135.476C170.365 137.852 170.236 139.832 170.279 141.064C170.301 141.79 170.387 145.068 171.573 145.376C172.371 145.574 173.319 144.386 173.794 143.792C178.624 137.566 181.06 134.464 182.031 132.66C184.295 128.524 186.128 125.158 187.68 120.098C188.823 116.402 189.362 113.168 189.664 110.792C190.16 109.956 190.85 108.768 191.648 107.316C193.825 103.356 194.602 101.574 195.076 99.5941C195.572 97.5481 195.658 95.7881 195.162 95.5901C194.796 95.4581 194.343 96.1401 193.933 95.9641C193.329 95.7001 193.976 93.8741 193.329 93.4781C193.092 93.3241 192.618 93.3461 191.648 94.0061C190.979 92.5761 190.548 92.3121 190.268 92.3341C189.685 92.4221 189.405 94.0501 189.276 95.8981C189.103 94.9961 188.672 93.1041 188.133 93.1041C187.68 93.1041 187.206 94.4901 187.076 95.5901C186.882 97.1081 187.313 98.2081 186.774 99.7481C186.667 99.9681 186.516 100.298 186.3 100.342Z" fill="white"/>
<path d="M185.545 106.656C185.481 109.56 184.575 112.354 183.712 115.104C182.872 117.7 181.923 120.274 180.758 122.738C178.602 127.314 175.691 131.494 171.875 134.772C171.551 135.036 172.026 135.52 172.327 135.234C176.295 131.846 179.271 127.468 181.47 122.716C182.613 120.252 183.562 117.7 184.381 115.104C185.243 112.376 186.128 109.582 186.171 106.678C186.214 106.238 185.567 106.238 185.545 106.656Z" fill="#161616"/>
<path d="M189.383 110.484C188.801 117.436 185.826 123.97 182.807 130.13C180.047 135.762 176.705 141.24 171.724 145.09C171.4 145.354 171.724 145.926 172.047 145.662C177.136 141.724 180.564 136.202 183.368 130.46C186.451 124.19 189.427 117.546 190.03 110.484C190.052 110.066 189.405 110.066 189.383 110.484Z" fill="#161616"/>
<path d="M186.084 106.304C185.351 104.698 184.661 102.828 184.553 101.046C184.532 100.804 184.489 99.77 184.661 99.638C185.2 99.264 185.351 99.902 185.481 100.166C185.718 100.628 185.89 100.958 186.343 101.222C186.71 101.42 187.033 100.87 186.667 100.65C185.912 100.21 185.977 99 185.114 98.67C184.381 98.384 184.122 99 183.971 99.638C183.454 101.904 184.575 104.61 185.481 106.634C185.718 107.03 186.257 106.678 186.084 106.304Z" fill="#161616"/>
<path d="M186.818 101.024C187.551 99.308 187.378 97.548 187.443 95.722C187.464 95.304 187.378 94.336 187.615 94.006C188.047 93.456 188.37 94.622 188.478 94.996C188.78 96.184 188.844 97.372 188.758 98.582C188.715 99 189.362 99 189.405 98.582C189.47 97.746 189.383 91.916 187.551 92.862C186.796 93.258 186.839 94.82 186.818 95.502C186.753 97.24 186.99 99.022 186.278 100.672C186.106 101.068 186.667 101.42 186.818 101.024Z" fill="#161616"/>
<path d="M189.47 98.6261C189.599 97.8341 189.707 97.0421 189.772 96.2281C189.836 95.3261 189.707 94.3141 189.987 93.4561C190.224 92.6641 190.354 92.5101 190.677 93.2141C190.914 93.7201 191.001 94.2481 191.065 94.7761C191.173 95.7661 191.259 96.9321 190.958 97.9001C190.828 98.3181 191.453 98.4721 191.583 98.0761C191.928 96.9101 191.842 95.4801 191.648 94.2921C191.54 93.6541 191.195 91.9821 190.354 91.9821C189.621 91.9821 189.319 93.2361 189.254 93.7641C189.038 95.3041 189.082 96.8881 188.844 98.4281C188.78 98.8681 189.405 99.0441 189.47 98.6261Z" fill="#161616"/>
<path d="M191.82 98.0541C191.906 97.3721 191.906 96.6681 191.906 95.9861C191.928 95.3921 191.885 93.8081 192.618 93.8741C193.157 93.9181 193.114 94.3801 193.157 94.8641C193.178 95.1941 193.178 95.5461 193.178 95.8761C193.178 96.6901 193.135 97.4821 192.984 98.2961C192.898 98.7141 193.523 98.8901 193.61 98.4721C193.825 97.3941 194.558 92.9721 192.618 92.9281C190.828 92.8841 191.302 97.0641 191.173 98.0761C191.13 98.4721 191.777 98.4721 191.82 98.0541Z" fill="#161616"/>
<path d="M194.127 96.1181C194.386 96.0961 194.623 96.0741 194.882 96.0521C194.925 96.2501 194.968 96.4481 194.99 96.6681C195.033 97.0641 195.054 97.4381 195.054 97.8341C195.033 98.5381 194.925 99.2641 194.731 99.9461C194.386 101.288 193.804 102.564 193.157 103.796C191.971 106.084 190.699 108.35 189.47 110.616C189.276 110.99 189.836 111.32 190.03 110.946C191.065 109.032 192.122 107.118 193.157 105.204C194.127 103.422 195.097 101.552 195.507 99.5281C195.723 98.4281 196.176 95.8981 195.054 95.1281C194.343 94.6221 193.416 95.3041 193.502 96.1401C193.523 96.5361 194.17 96.5361 194.127 96.1181Z" fill="#161616"/>
<path opacity="0.08" d="M193.028 93.632C192.704 93.654 192.618 95.018 192.402 96.646C192.057 99.506 191.669 102.718 190.332 105.402C189.901 106.282 189.125 107.58 187.723 108.988C187.508 110.55 187.098 112.794 186.408 115.434C185.2 120.054 183.432 126.61 178.43 132.748C177.071 134.398 174.98 136.686 171.896 138.908C171.81 141.064 171.724 143.198 171.616 145.354C172.953 144.32 174.893 142.67 176.899 140.316C179.529 137.214 181.233 133.694 184.532 126.786C187.163 121.264 187.874 119.13 188.305 117.59C189.125 114.774 189.534 112.332 189.75 110.572C191.216 108.218 192.294 106.128 193.049 104.478C194.364 101.618 196.478 96.998 195.184 95.854C194.817 95.546 194.278 95.568 193.868 95.634C193.674 94.71 193.329 93.61 193.028 93.632Z" fill="#353535"/>
<path opacity="0.1" d="M192.208 106.524C191.065 107.756 189.922 109.01 188.78 110.242C188.672 111.298 188.478 112.86 188.025 114.73C187.162 118.25 185.912 120.714 185.416 121.748C184.144 124.344 182.483 128.304 180.888 134.222C181.599 132.968 185.373 126.28 187.486 120.56C188.284 118.36 188.715 117.216 189.06 115.434C189.491 113.3 189.383 112.31 189.944 110.594C190.569 108.724 191.518 107.36 192.208 106.524Z" fill="#353535"/>
<path d="M132.307 95.5241C131.617 95.7221 131.596 97.6361 131.704 98.7141C131.876 100.628 132.609 102.058 132.933 102.674C134.313 105.27 135.65 107.712 137.008 110.066C137.181 111.65 137.482 113.806 138.086 116.314C139.143 120.714 140.501 123.706 142.377 127.82C145.353 134.31 147.121 138.028 150.894 141.988C152.317 143.462 153.611 144.562 154.495 145.266C154.819 144.892 156.802 142.56 156.414 139.238C156.112 136.532 154.431 134.882 153.956 134.442C152.921 133.562 151.347 132.132 149.73 130.108C146.323 125.796 144.9 121.484 142.83 115.016C142.269 113.256 141.515 110.77 140.76 107.712C141.17 106.348 141.515 105.27 141.752 104.588C142.463 102.498 142.916 101.442 142.593 100.1C142.507 99.7481 142.334 99.0881 141.903 98.9561C141.407 98.8241 140.652 99.4401 140.07 100.562C139.747 98.7581 139.596 97.2621 139.531 96.1401C139.445 94.5121 139.488 93.3241 139.143 93.2361C138.776 93.1481 138.216 94.4681 138.151 94.6001C137.612 95.8321 137.612 96.9981 137.698 97.7241C137.871 93.6321 137.418 92.5981 136.922 92.4661C136.512 92.3561 135.995 92.9061 135.844 93.0821C134.83 94.1821 135.348 95.7881 135.391 95.8981C134.938 93.4561 134.464 93.3021 134.313 93.3021C133.925 93.2801 133.537 94.1601 133.386 94.6661C133.213 95.2821 133.321 95.8321 133.386 96.1181C133.041 95.7881 132.631 95.4361 132.307 95.5241Z" fill="white"/>
<path d="M140.566 106.7C140.631 109.516 141.428 112.244 142.248 114.928C143.067 117.59 143.994 120.208 145.137 122.738C147.272 127.468 150.161 131.846 154.021 135.256C154.344 135.542 154.797 135.058 154.474 134.794C150.743 131.494 147.94 127.314 145.849 122.76C144.706 120.296 143.779 117.722 142.981 115.126C142.118 112.376 141.256 109.582 141.191 106.678C141.191 106.282 140.544 106.282 140.566 106.7Z" fill="#161616"/>
<path d="M136.857 110.55C137.418 117.502 140.264 124.036 143.197 130.262C145.913 136.048 149.256 141.68 154.258 145.684C154.582 145.948 155.034 145.486 154.711 145.222C149.816 141.328 146.582 135.872 143.887 130.262C140.932 124.058 138.043 117.502 137.482 110.572C137.461 110.132 136.814 110.132 136.857 110.55Z" fill="#161616"/>
<path d="M141.234 106.7C142.14 104.632 143.283 101.838 142.657 99.5281C142.507 98.9561 142.226 98.4941 141.579 98.7581C140.738 99.0881 140.825 100.298 140.07 100.738C139.703 100.958 140.027 101.53 140.393 101.31C140.738 101.112 140.932 100.848 141.127 100.496C141.213 100.32 141.299 99.9241 141.45 99.7921C142.291 99.1541 142.14 100.54 142.14 100.936C142.097 102.784 141.385 104.72 140.652 106.392C140.501 106.744 141.062 107.074 141.234 106.7Z" fill="#161616"/>
<path d="M140.501 100.738C139.833 99.1541 140.027 97.4381 139.984 95.7661C139.962 95.0621 140.048 93.3461 139.251 92.9281C137.461 91.9821 137.353 97.8341 137.418 98.6481C137.461 99.0661 138.108 99.0661 138.065 98.6481C137.978 97.5041 138.022 96.3601 138.28 95.2381C138.345 94.9521 138.582 93.6321 139.121 93.8741C139.358 93.9841 139.337 95.5021 139.337 95.7661C139.38 97.5921 139.229 99.3521 139.941 101.068C140.113 101.464 140.674 101.134 140.501 100.738Z" fill="#161616"/>
<path d="M138 98.4941C137.763 96.9541 137.806 95.3921 137.59 93.8741C137.526 93.3241 137.245 92.0701 136.491 92.0481C135.714 92.0261 135.369 93.6101 135.262 94.1821C135.024 95.4361 134.938 96.9101 135.283 98.1421C135.391 98.5381 136.016 98.3841 135.908 97.9661C135.65 97.0861 135.714 96.0741 135.779 95.1501C135.822 94.6001 135.908 94.0281 136.102 93.5001C136.426 92.6641 136.555 92.4881 136.857 93.5001C137.094 94.3141 136.987 95.2601 137.051 96.0961C137.116 96.9541 137.224 97.8121 137.375 98.6701C137.439 99.0881 138.065 98.9121 138 98.4941Z" fill="#161616"/>
<path d="M135.736 98.0981C135.606 97.1081 136.081 92.8841 134.313 92.9501C132.415 93.0161 133.148 97.4381 133.342 98.4941C133.429 98.9121 134.054 98.7361 133.968 98.3181C133.817 97.5261 133.774 96.7121 133.774 95.8981C133.774 95.3041 133.601 93.9621 134.291 93.8961C135.003 93.8301 134.96 95.4361 134.981 96.0081C135.003 96.7121 134.981 97.3941 135.067 98.0761C135.132 98.5161 135.801 98.5381 135.736 98.0981Z" fill="#161616"/>
<path d="M133.515 96.162C133.601 95.348 132.717 94.644 132.006 95.15C130.949 95.898 131.337 98.296 131.531 99.352C131.876 101.31 132.739 103.114 133.666 104.874C134.722 106.92 135.822 108.944 136.879 110.968C137.073 111.342 137.633 111.012 137.439 110.638C136.21 108.306 134.938 105.996 133.752 103.642C133.17 102.476 132.631 101.266 132.329 99.968C132.157 99.286 132.049 98.582 132.027 97.856C132.027 97.592 132.027 97.328 132.049 97.042C132.049 96.756 132.092 96.47 132.157 96.206C132.178 95.876 132.437 95.854 132.89 96.14C132.825 96.58 133.472 96.58 133.515 96.162Z" fill="#161616"/>
<path opacity="0.09" d="M134.485 93.5001C135.089 93.7201 134.658 96.3601 134.55 97.3501C134.313 99.6161 134.809 103.048 138.323 107.932C139.251 112.64 141.019 119.064 144.641 126.016C147.703 131.912 151.175 136.4 154.064 139.612C154.28 141.548 154.474 143.484 154.689 145.442C153.352 144.496 151.498 143 149.665 140.822C148.07 138.908 147.121 137.236 145.741 134.574C142.183 127.688 140.393 124.234 139.143 120.054C138.453 117.766 137.633 114.466 137.159 110.374C135.456 108.13 134.291 106.062 133.515 104.478C132.006 101.42 131.617 99.4841 131.661 97.7461C131.704 95.7661 132.049 95.5021 132.2 95.4361C132.523 95.3041 132.954 95.5681 133.235 95.7881C133.213 95.6781 132.997 94.6881 133.644 93.9621C133.752 93.8741 134.183 93.3901 134.485 93.5001Z" fill="#353535"/>
<path opacity="0.09" d="M132.76 101.354C132.976 101.244 134.291 103.136 135.24 104.72C137.461 108.438 138.366 111.76 138.604 112.574C140.027 117.612 141.86 121.88 145.547 130.394C146.668 132.968 148.371 136.708 150.765 141.13C150.075 140.47 149.083 139.48 148.026 138.182C147.099 137.06 144.059 133.254 140.889 124.52C139.66 121.11 138.216 116.512 137.181 110.858C136.447 109.582 135.434 107.756 134.356 105.468C133.881 104.434 132.523 101.486 132.76 101.354Z" fill="#353535"/>
<path d="M163.379 132.528C162.624 132.462 161.287 132.352 159.541 132.528C157.514 132.748 155.703 132.924 154.344 134.134C153.331 135.036 153.029 136.158 152.468 138.38C152.145 139.678 151.714 141.438 151.757 143.814C151.843 148.214 153.482 148.786 154.344 154.11C154.776 156.684 154.732 158.686 154.711 161.084C154.668 164.274 154.344 166.98 153.999 169.07C154.926 169.818 156.35 170.83 158.29 171.622C159.476 172.106 162.84 173.404 167.152 172.634C171.681 171.842 174.462 169.246 175.389 168.3C173.88 164.142 173.729 160.798 173.858 158.532C174.031 155.782 174.591 155.188 175.389 149.27C175.993 144.87 175.971 143.044 175.928 142.054C175.777 138.094 175.691 136.092 174.397 134.75C173.125 133.43 169.869 133.122 163.379 132.528Z" fill="white"/>
<path d="M162.301 132.374C160.705 132.264 159.11 132.352 157.536 132.638C156.199 132.88 154.819 133.122 153.935 134.244C152.317 136.268 151.627 139.062 151.498 141.614C151.175 148.126 154.344 154.066 155.422 160.358C155.487 160.776 156.112 160.6 156.048 160.182C155.077 154.506 152.404 149.204 152.145 143.396C152.037 140.734 152.425 138.006 153.762 135.674C154.215 134.882 154.711 134.112 155.595 133.782C156.199 133.562 156.867 133.43 157.492 133.298C159.066 132.99 160.684 132.924 162.279 133.012C162.711 133.056 162.711 132.396 162.301 132.374Z" fill="#161616"/>
<path d="M153.935 154.022C154.56 158.862 154.495 163.746 153.719 168.564C153.654 168.982 154.28 169.158 154.344 168.74C155.142 163.856 155.228 158.928 154.581 154.022C154.517 153.604 153.87 153.604 153.935 154.022Z" fill="#161616"/>
<path d="M164.953 132.968C167.842 132.792 171.4 133.144 173.858 134.904C175.346 135.982 175.411 137.786 175.562 139.48C175.713 140.998 175.777 142.516 175.67 144.056C175.238 150.062 172.867 155.76 172.888 161.832C172.888 162.25 173.535 162.25 173.535 161.832C173.513 154.99 176.575 148.544 176.36 141.68C176.273 139.062 176.36 135.696 173.902 134.156C171.336 132.55 167.907 132.132 164.953 132.308C164.522 132.33 164.522 132.99 164.953 132.968Z" fill="#161616"/>
<path d="M173.556 155.232C173.513 159.544 174.031 163.812 175.066 167.992C175.174 168.41 175.799 168.234 175.691 167.816C174.678 163.702 174.16 159.478 174.203 155.232C174.203 154.814 173.556 154.814 173.556 155.232Z" fill="#161616"/>
<path d="M153.762 169.18C156.695 171.666 160.425 173.162 164.263 173.184C168.597 173.206 172.22 171.05 175.562 168.432C175.885 168.168 175.562 167.596 175.238 167.86C172.069 170.324 168.683 172.436 164.608 172.502C160.835 172.568 157.126 171.138 154.236 168.696C153.891 168.432 153.439 168.894 153.762 169.18Z" fill="#161616"/>
<path opacity="0.11" d="M170.085 132.814C170.753 134.464 171.616 136.95 172.047 140.052C172.888 146.278 171.465 151.052 169.761 156.574C168.489 160.688 166.355 166.364 162.603 172.722C163.789 172.832 165.255 172.832 166.894 172.524C171.163 171.732 174.009 169.356 175.281 168.146C175.13 167.046 174.872 165.33 174.505 163.262C173.923 160.028 173.729 159.786 173.664 158.62C173.578 157.19 173.815 157.366 175.087 151.316C175.583 148.94 175.95 146.784 176.165 143.968C176.187 143.726 176.187 143.484 176.209 143.242C176.316 139.612 176.36 137.39 174.85 135.498C173.405 133.694 171.314 133.056 170.085 132.814Z" fill="#353535"/>
<path opacity="0.08" d="M176.316 143.352C176.165 143.308 175.411 144.518 173.643 149.336C171.702 154.638 169.309 162.272 167.454 172.15C168.403 172.018 169.718 171.732 171.163 171.072C173.104 170.17 174.397 168.96 175.13 168.146C174.484 165.836 173.75 162.404 173.772 158.224C173.794 149.996 176.661 143.462 176.316 143.352Z" fill="#353535"/>
<path d="M155.595 116.512C154.754 118.272 154.991 120.054 155.185 120.89C155.099 120.89 154.086 120.846 153.547 121.594C152.9 122.474 153.503 123.574 153.611 123.75C153.762 124.014 153.956 124.388 154.366 124.498C155.013 124.696 155.617 124.124 155.66 124.08C155.983 124.916 156.522 125.972 157.363 127.05C158.657 128.722 160.102 129.712 161.072 130.262C161.115 131.318 161.158 132.352 161.18 133.408C161.417 133.628 161.913 134.024 162.646 134.156C164.091 134.442 165.212 133.474 165.341 133.342C165.32 132.022 165.298 130.702 165.277 129.382C165.837 128.942 166.484 128.326 167.109 127.512C168.36 125.84 168.813 124.146 168.985 123.134C169.223 123.222 169.611 123.31 170.107 123.31C170.581 123.31 171.185 123.288 171.465 122.892C171.767 122.452 171.443 121.814 171.12 121.132C170.797 120.494 170.559 120.406 170.473 120.384C170.107 120.274 169.762 120.494 169.654 120.56C169.74 119.856 169.783 118.536 169.244 117.062C169.093 116.644 168.231 114.4 166.139 113.212C162.711 111.32 157.32 112.926 155.595 116.512Z" fill="white"/>
<path d="M155.207 116.556C153.935 122.254 156.005 129.602 162.344 130.834C162.754 130.922 162.926 130.284 162.517 130.196C156.522 129.03 154.646 122.1 155.832 116.732C155.918 116.314 155.293 116.138 155.207 116.556Z" fill="#161616"/>
<path d="M162.43 130.812C163.314 131.076 164.522 130.218 165.233 129.734C166.182 129.096 167.023 128.282 167.692 127.336C169.352 125.07 169.977 122.21 169.718 119.438C169.675 119.02 169.028 119.02 169.072 119.438C169.309 121.836 168.877 124.278 167.605 126.324C167.066 127.182 166.398 127.952 165.622 128.612C164.996 129.14 163.465 130.416 162.603 130.174C162.193 130.064 162.021 130.702 162.43 130.812Z" fill="#161616"/>
<path d="M160.533 130.284C160.856 131.186 160.942 132.132 160.792 133.078C160.727 133.496 161.352 133.672 161.417 133.254C161.589 132.176 161.525 131.142 161.158 130.108C161.029 129.712 160.403 129.866 160.533 130.284Z" fill="#161616"/>
<path d="M164.996 129.536C164.888 130.658 164.975 131.758 165.255 132.858C165.363 133.276 165.988 133.1 165.88 132.682C165.622 131.648 165.557 130.592 165.643 129.536C165.686 129.118 165.039 129.118 164.996 129.536Z" fill="#161616"/>
<path d="M160.813 133.496C162.301 135.19 165.406 135.146 165.945 132.572C166.031 132.154 165.406 131.978 165.32 132.396C164.867 134.486 162.452 134.354 161.266 133.034C160.986 132.726 160.533 133.188 160.813 133.496Z" fill="#161616"/>
<path d="M160.943 130.724C162.193 131.89 164.155 131.626 164.953 130.064C165.147 129.69 164.587 129.36 164.393 129.734C163.789 130.9 162.344 131.164 161.395 130.262C161.094 129.976 160.641 130.438 160.943 130.724Z" fill="#161616"/>
<path d="M162.236 131.208C162.538 131.186 162.818 131.208 163.099 131.296C163.508 131.406 163.681 130.768 163.271 130.658C162.926 130.57 162.581 130.526 162.236 130.548C161.827 130.57 161.827 131.23 162.236 131.208Z" fill="#161616"/>
<path d="M155.272 124.146C154.387 124.872 153.611 123.86 153.525 123.002C153.417 122.166 154.129 121.132 155.034 121.704C155.379 121.924 155.703 121.352 155.358 121.132C154.021 120.274 152.727 121.726 152.878 123.09C153.051 124.542 154.452 125.664 155.724 124.608C156.048 124.344 155.595 123.882 155.272 124.146Z" fill="#161616"/>
<path d="M169.826 120.934C170.516 120.274 171.185 121.528 171.163 122.1C171.163 122.452 170.991 122.804 170.689 123.002C170.452 123.156 169.891 123.354 169.697 123.046C169.481 122.694 168.921 123.024 169.136 123.376C169.46 123.926 170.193 123.948 170.732 123.728C171.357 123.464 171.767 122.87 171.788 122.188C171.853 120.978 170.495 119.372 169.352 120.472C169.072 120.758 169.524 121.242 169.826 120.934Z" fill="#161616"/>
<path d="M161.158 116.49C161.331 118.03 161.244 119.482 161.093 121.022C161.007 122.056 161.546 122.496 162.344 123.156C162.667 123.42 163.12 122.958 162.797 122.694C162.236 122.21 161.74 121.88 161.762 121C161.762 120.582 161.87 120.12 161.913 119.702C161.999 118.624 161.956 117.546 161.827 116.49C161.762 116.072 161.115 116.072 161.158 116.49Z" fill="#161616"/>
<path d="M157.557 119.614C157.536 119.13 158.226 118.822 158.614 118.844C159.067 118.844 159.304 119.218 159.541 119.57C159.778 119.922 160.339 119.592 160.102 119.24C159.67 118.602 159.174 118.074 158.355 118.206C157.665 118.338 156.867 118.844 156.889 119.636C156.91 120.054 157.557 120.054 157.557 119.614Z" fill="#161616"/>
<path d="M164.953 119.02C165.535 117.898 167.109 118.074 167.39 119.328C167.476 119.746 168.101 119.57 168.015 119.152C167.627 117.348 165.234 117.062 164.393 118.668C164.22 119.042 164.759 119.394 164.953 119.02Z" fill="#161616"/>
<path d="M156.932 117.282C157.298 116.71 157.924 116.336 158.592 116.248C159.002 116.204 159.002 115.544 158.592 115.588C157.665 115.698 156.889 116.16 156.371 116.952C156.134 117.304 156.695 117.634 156.932 117.282Z" fill="#161616"/>
<path d="M164.953 116.05C165.729 116.006 166.441 116.248 167.002 116.776C167.303 117.062 167.778 116.6 167.454 116.314C166.764 115.676 165.88 115.346 164.932 115.39C164.522 115.412 164.522 116.072 164.953 116.05Z" fill="#161616"/>
<path d="M157.73 121.308C157.73 121.286 157.73 121.286 157.73 121.264C157.73 121.088 157.579 120.934 157.406 120.934C157.234 120.934 157.083 121.088 157.083 121.264C157.083 121.286 157.083 121.286 157.083 121.308C157.083 121.484 157.234 121.638 157.406 121.638C157.579 121.638 157.73 121.506 157.73 121.308Z" fill="#161616"/>
<path d="M158.722 121.154C158.743 121.154 158.765 121.154 158.765 121.154C158.937 121.154 159.088 121 159.088 120.824C159.088 120.648 158.937 120.494 158.765 120.494C158.743 120.494 158.722 120.494 158.722 120.494C158.549 120.494 158.398 120.648 158.398 120.824C158.42 121 158.549 121.154 158.722 121.154Z" fill="#161616"/>
<path d="M158.678 122.606C158.7 122.606 158.722 122.606 158.722 122.606C158.894 122.606 159.045 122.452 159.045 122.276C159.045 122.1 158.894 121.946 158.722 121.946C158.7 121.946 158.678 121.946 158.678 121.946C158.506 121.946 158.355 122.1 158.355 122.276C158.355 122.452 158.506 122.606 158.678 122.606Z" fill="#161616"/>
<path d="M165.665 120.67C165.686 120.67 165.708 120.67 165.708 120.67C165.88 120.67 166.031 120.516 166.031 120.34C166.031 120.164 165.88 120.01 165.708 120.01C165.686 120.01 165.665 120.01 165.665 120.01C165.492 120.01 165.341 120.164 165.341 120.34C165.363 120.516 165.492 120.67 165.665 120.67Z" fill="#161616"/>
<path d="M167.562 120.626C167.972 120.626 167.972 119.966 167.562 119.966C167.152 119.966 167.152 120.626 167.562 120.626Z" fill="#161616"/>
<path d="M166.851 121.682C167.26 121.682 167.26 121.022 166.851 121.022C166.419 121.022 166.419 121.682 166.851 121.682Z" fill="#161616"/>
<path d="M159.713 124.564C161.029 126.984 164.479 126.632 165.32 124.014C165.449 123.618 164.824 123.442 164.694 123.838C164.026 125.95 161.309 126.126 160.274 124.234C160.08 123.86 159.519 124.19 159.713 124.564Z" fill="#161616"/>
<path d="M152.016 119.174C151.218 120.384 150.075 122.474 149.622 125.268C149.299 127.27 148.738 130.768 150.894 133.54C151.477 134.288 153.611 136.73 156.544 136.334C158.506 136.07 160.597 134.574 160.986 132.484C161.18 131.516 160.964 130.68 160.77 130.196C159.843 129.734 158.182 128.766 156.889 126.874C156.242 125.95 155.854 125.048 155.638 124.344C155.53 124.432 155.185 124.696 154.711 124.674C154.15 124.652 153.805 124.256 153.719 124.146C153.051 123.376 153.115 121.792 153.999 121.264C154.452 121 154.97 121.088 155.25 121.154C155.121 120.34 154.991 118.602 155.897 116.776C156.501 115.544 157.428 114.642 159.562 113.278C161.331 112.156 162.107 112.244 162.387 112.288C163.336 112.464 163.918 113.234 164.22 113.63C165.578 115.39 167.347 117.656 169.46 120.45C169.546 120.406 170.128 120.12 170.71 120.384C171.12 120.582 171.314 120.956 171.443 121.242C171.551 121.484 171.724 121.836 171.637 122.254C171.551 122.782 171.142 123.266 170.581 123.442C169.891 123.662 169.33 123.288 169.244 123.222C169.072 124.058 168.727 125.312 167.907 126.654C167.066 128.018 166.096 128.92 165.427 129.448C165.341 129.976 165.233 130.944 165.643 132.044C166.29 133.848 167.972 134.992 169.524 135.344C172.435 135.982 174.786 133.76 175.389 133.166C177.459 131.186 178.71 127.864 177.653 124.674C176.856 122.298 175.087 121 174.397 120.538C173.557 118.558 172.694 117.018 172.004 115.918C170.063 112.816 168.727 110.726 166.29 109.956C164.802 109.494 163.444 109.67 162.538 109.89C161.072 109.56 159.929 109.692 159.153 109.89C155.573 110.792 152.857 114.444 152.016 119.174Z" fill="#5222D0"/>
<path opacity="0.08" d="M166.808 116.732C166.635 116.798 166.98 117.942 167.153 119.086C167.174 119.24 167.541 122.078 166.506 124.784C165.341 127.82 162.926 129.448 161.87 130.064C162.538 130.218 163.228 130.372 163.897 130.548C164.091 131.736 164.263 132.946 164.457 134.134C164.889 133.606 165.341 133.078 165.773 132.55C165.967 132.924 166.312 133.474 166.851 133.98C167.023 134.156 168.274 135.3 170.128 135.454C172.198 135.652 173.729 134.508 174.592 133.87C175.174 133.452 176.899 132.132 177.697 129.602C178.559 126.852 177.718 124.542 177.459 123.904C177.179 125.004 176.597 126.654 175.346 128.26C175.044 128.656 172.328 132.11 170.646 131.516C169.201 131.01 168.705 127.534 169.417 122.98C169.46 123.024 169.805 123.442 170.301 123.42C170.926 123.398 171.206 122.76 171.249 122.694C171.551 122.034 171.185 121.308 170.818 120.912C170.344 120.384 169.697 120.296 169.503 120.296C169.223 120.01 168.813 119.57 168.382 118.998C167.347 117.7 166.958 116.688 166.808 116.732Z" fill="#353535"/>
<path opacity="0.09" d="M161.589 121.616C161.762 121.33 162.711 121.264 162.991 121.858C163.207 122.32 162.926 122.936 162.624 123.002C162.15 123.134 161.352 121.99 161.589 121.616Z" fill="#353535"/>
<path opacity="0.09" d="M156.608 130.922C156.156 131.714 155.25 132.44 154.344 132.352C153.805 132.308 153.202 131.978 151.11 128.568C150.42 127.446 149.881 126.478 149.514 125.84C149.32 126.566 149.062 127.864 149.277 129.426C149.363 130.042 149.579 131.098 150.161 132.242C150.528 132.968 151.39 134.574 153.223 135.586C153.762 135.894 154.711 136.4 155.983 136.4C158.118 136.378 159.498 134.926 159.778 134.618C160.274 134.112 160.986 133.342 161.093 132.132C161.201 130.966 160.662 130.064 160.533 129.888C159.886 128.876 159.196 128.986 158.096 128.018C156.695 126.786 156.307 125.268 156.134 125.334C155.875 125.488 157.838 128.766 156.608 130.922Z" fill="#353535"/>
<path opacity="0.13" d="M169.33 121.66C169.201 121.616 168.813 123.002 167.692 124.872C166.096 127.534 164.134 129.272 162.711 130.328C163.702 130.042 165.471 129.382 166.937 127.754C169.266 125.202 169.524 121.726 169.33 121.66Z" fill="#353535"/>
</svg>
