<svg xmlns="http://www.w3.org/2000/svg" viewBox="0 0 506.96 491.6"><title>testimonial 2</title><g id="background"><path d="M57.76,482H263.15a.75.75,0,0,0,0-1.5H57.76a.75.75,0,0,0,0,1.5Z" transform="translate(-57.03 -66.21)" style="fill:#e8e8e8"/><path d="M159.73,474H452.64a.75.75,0,0,0,0-1.5H159.73a.75.75,0,0,0,0,1.5Z" transform="translate(-57.03 -66.21)" style="fill:#e8e8e8"/><path d="M364.41,487h193.1a.75.75,0,0,0,0-1.5H364.41a.75.75,0,0,0,0,1.5Z" transform="translate(-57.03 -66.21)" style="fill:#e8e8e8"/><path d="M466.47,423.11a333.93,333.93,0,0,0,3.58,44c.14.95,1.59.54,1.45-.4A329.55,329.55,0,0,1,468,423.11a.75.75,0,0,0-1.5,0Z" transform="translate(-57.03 -66.21)" style="fill:#e8e8e8"/><path d="M469.18,422.51a233.81,233.81,0,0,1,55.33-.36c1,.11,1-1.4,0-1.5a233.81,233.81,0,0,0-55.33.36c-.94.12-1,1.62,0,1.5Z" transform="translate(-57.03 -66.21)" style="fill:#e8e8e8"/><path d="M524.31,425.4l-2.86,38.27c-.07,1,1.43,1,1.5,0l2.86-38.27c.07-1-1.43-1-1.5,0Z" transform="translate(-57.03 -66.21)" style="fill:#e8e8e8"/><path d="M472.09,468.88a48.77,48.77,0,0,0,49.27-1.44c.81-.51.06-1.81-.76-1.3a47.22,47.22,0,0,1-47.76,1.45c-.84-.47-1.6.83-.75,1.29Z" transform="translate(-57.03 -66.21)" style="fill:#e8e8e8"/><path d="M472,419.91A17.42,17.42,0,0,1,467.7,412c-.25-.9-.46-1.82-.68-2.73-.15-.68-.31-1.36-.46-2.05A1.94,1.94,0,0,1,467,405c.34.78,1.63.22,1.37-.58-.87-2.65-.71-5.38-1.55-8,.29.91,1.74.52,1.45-.4l-.1-.29a.76.76,0,0,0-.72-.55l-.35,0a.71.71,0,0,0-.65.37c-1.38,2.77-.44,6.51.47,9.3l1.37-.58c-1.08-2.46-3.35-.77-3.57,1.24-.28,2.54,1.31,6.5,2.16,8.88A16.91,16.91,0,0,0,471,421a.75.75,0,0,0,1.06-1.06Z" transform="translate(-57.03 -66.21)" style="fill:#e8e8e8"/><path d="M468,395.54c-.26-1.46-2.66-22.94,1.13-22.14.94.2,1.34-1.25.4-1.45-7.22-1.51-3.65,20.22-3,24,.17.95,1.61.55,1.44-.4Z" transform="translate(-57.03 -66.21)" style="fill:#e8e8e8"/><path d="M471.61,373.51c-.24-1.4-1.31-8.15,2-8.11a.75.75,0,0,0,.73-.55c.74-4,2.53-11.32,6.34-13.72,7.63-4.8,6.85,12.49,7,15.65.55,10.6.73,21.2.62,31.81a.75.75,0,0,0,1.5,0c.11-10.94-.09-21.88-.68-32.8-.23-4.3,1-16.11-5.39-17.24-5.12-.9-8.49,7.6-9.72,11.24-.51,1.51-.74,2.95-1.66,4.13-.52.67-1.17.8-1.65,1.53-1.56,2.38-1,5.83-.57,8.46.16.95,1.61.55,1.44-.4Z" transform="translate(-57.03 -66.21)" style="fill:#e8e8e8"/><path d="M489.78,375.85c.34-1.08,1.12-8,3.59-6a.76.76,0,0,0,1.28-.53,19.28,19.28,0,0,1,2.85-8.65c2.47-3.84,2.46-1.81,3.4.69.24.64,1.27.79,1.45,0a10.79,10.79,0,0,1,1.47-4q6.23-3.5,5.79,1.74a65.4,65.4,0,0,1,0,7.54,135,135,0,0,1-1.53,16.67c-.15.95,1.3,1.35,1.44.4a135.64,135.64,0,0,0,1.52-15.19c.16-3.84,1.27-10-.9-13.45-3.62-5.84-8.52,2.58-9.27,5.9h1.45c-.74-2-.1-5.61-3.33-4.38-3.89,1.48-5.51,9.28-5.87,12.74l1.28-.53c-4.61-3.85-5.28,4-6.09,6.61-.3.92,1.15,1.32,1.44.4Z" transform="translate(-57.03 -66.21)" style="fill:#e8e8e8"/><path d="M510.06,380.65c-.51,1.08,1-2.32,1.12-2.08a.75.75,0,0,0,1.44,0q.75-4.67,4.93-2.54V378c.56,1.84-.11,4.86-.23,6.79A142.67,142.67,0,0,1,515.71,399c-.16.94,1.29,1.35,1.44.39.74-4.53,1.31-9.09,1.62-13.68.19-2.88,1.68-9.66-.3-12.12-2.69-3.33-6.52,2.21-7.29,4.56h1.44l-.24-.62a.82.82,0,0,0-.73-.55c-1.91-.25-2.15,1.35-2.88,2.89-.42.87.88,1.63,1.29.76Z" transform="translate(-57.03 -66.21)" style="fill:#e8e8e8"/><path d="M517.78,394.84q1.26-1.77,3.63-.88c-.17,1.56-.38,3.12-.62,4.67-.32,2.27-.66,4.54-1,6.8L517.67,420c-.14.94,1.31,1.35,1.45.4l2.27-15.55c.48-3.35,2.15-8,1.47-11.39-.91-4.52-4.09-1.64-6.14.31-.7.67.36,1.73,1.06,1.06Z" transform="translate(-57.03 -66.21)" style="fill:#e8e8e8"/><path d="M66.63,388.35c32.09-3.26,62.62,8.35,92.38,18.72,30,10.44,60.57,17.94,92.28,20.61a349,349,0,0,0,55.72.16c1-.08,1-1.58,0-1.5a345.94,345.94,0,0,1-99.44-6.7c-31-6.71-59.93-19.72-90.51-27.78-16.48-4.34-33.39-6.74-50.43-5-.95.1-1,1.6,0,1.5Z" transform="translate(-57.03 -66.21)" style="fill:#e8e8e8"/><path d="M196.48,387.63c80.82,18.66,161.57-8.79,239.46-28.07,22.51-5.57,45.19-10.48,68.18-13.62.95-.13.54-1.58-.4-1.45-80.06,10.94-156,44.12-237.24,47.59-23.37,1-46.78-.63-69.6-5.9-.94-.22-1.34,1.23-.4,1.45Z" transform="translate(-57.03 -66.21)" style="fill:#e8e8e8"/><path d="M68.09,449.16c40.9-19.94,87.06-9.23,129,1.12.94.23,1.34-1.22.4-1.45-42.37-10.46-88.85-21.11-130.15-1-.87.42-.11,1.71.76,1.29Z" transform="translate(-57.03 -66.21)" style="fill:#e8e8e8"/><path d="M74.35,256.94c13.75,5.93,28.47,8.3,43.3,9.63a372.79,372.79,0,0,0,46.19,1.11c30.12-1.07,60-5.34,89.63-10.92,61.22-11.54,121.37-28.82,183.28-36.59,34-4.26,68.35-5.43,102.38-1.12,1,.12,1-1.38,0-1.5-59.68-7.55-119.52,2-177.87,14.44-59.64,12.71-119,28.69-180,33.23a405.25,405.25,0,0,1-50.5.76c-18.83-1-38.15-2.79-55.63-10.34-.88-.37-1.64.92-.76,1.3Z" transform="translate(-57.03 -66.21)" style="fill:#e8e8e8"/><path d="M112.23,190.74a668.16,668.16,0,0,0,91.89,7,.75.75,0,0,0,0-1.5,665.58,665.58,0,0,1-91.49-7c-.94-.14-1.35,1.31-.4,1.45Z" transform="translate(-57.03 -66.21)" style="fill:#e8e8e8"/><path d="M353.29,150.57a646,646,0,0,1,210-35.09.75.75,0,0,0,0-1.5,647.15,647.15,0,0,0-210.37,35.15c-.91.31-.52,1.76.4,1.44Z" transform="translate(-57.03 -66.21)" style="fill:#e8e8e8"/><path d="M71,134.94l38.92,16.13c.89.37,1.28-1.08.4-1.45L71.35,133.49c-.89-.37-1.28,1.08-.4,1.45Z" transform="translate(-57.03 -66.21)" style="fill:#e8e8e8"/><circle cx="60.09" cy="254.57" r="7.05" style="fill:#ec615b"/><circle cx="384.69" cy="259.86" r="3.93" style="fill:#ec615b"/><circle cx="276.97" cy="36.79" r="8.57" style="fill:none;stroke:#ec615b;stroke-miterlimit:10"/><circle cx="37.33" cy="362.95" r="3.75" style="fill:none;stroke:#ec615b;stroke-miterlimit:10"/><circle cx="419.11" cy="19.71" r="3.68" style="fill:none;stroke:#ec615b;stroke-miterlimit:10"/><circle cx="68.33" cy="165.09" r="3.89" style="fill:none;stroke:#461eb8;stroke-miterlimit:10"/><circle cx="389.75" cy="284.14" r="1.13" style="fill:none;stroke:#461eb8;stroke-miterlimit:10"/><circle cx="385.25" cy="341.29" r="4.5" style="fill:#461eb8"/><circle cx="359.68" cy="134.22" r="3.63" style="fill:#461eb8"/><path d="M416.23,201.49a1.5,1.5,0,0,0,0-3,1.5,1.5,0,0,0,0,3Z" transform="translate(-57.03 -66.21)" style="fill:#461eb8"/><path d="M140.2,281.53c1.79-1.68,4-.27,4.85,1.55a3.16,3.16,0,0,1,.43,1.61c.22.54,0,.72-.6.53-1.08.13-.89-.05.54-.56,2.79-.64,5.47,2.38,5,5-.15.95,1.29,1.35,1.45.4a6,6,0,0,0-5-6.89,4.28,4.28,0,0,0-4.2,1.51,2.24,2.24,0,0,0,.28,3.22c2.89,2.06,4.36-2.32,3.8-4.42-.9-3.4-4.74-5.76-7.66-3-.71.66.36,1.72,1.06,1.06Z" transform="translate(-57.03 -66.21)" style="fill:#461eb8"/><path d="M287,155.87a3.28,3.28,0,0,0,4.39-3.37.75.75,0,0,0-.75-.75,4.08,4.08,0,0,0-2.91,6.84c3,3.33,7.51,1.23,9.62-1.91.47-.7-.63-1.56-1.18-.91-4.32,5.11,1,10.32,6.12,11.45.94.21,1.34-1.24.4-1.45-3.79-.84-9-4.73-5.46-8.94l-1.18-.9c-1.07,1.6-2.43,2.78-4.43,2.75a2.88,2.88,0,0,1-2.58-.88c-1.64-2.17-1.1-3.68,1.6-4.55l-.75-.75-2.49,1.93c-.92-.3-1.31,1.14-.4,1.44Z" transform="translate(-57.03 -66.21)" style="fill:#461eb8"/><path d="M406,270.4q1.1-2.41,3.63-.21c.15,2.13-.45,2.6-1.82,1.42-.43-.81.71-3.08,1.09-3.69a7.21,7.21,0,0,1,8.33-3,.8.8,0,0,0,.85-.35l1.76-2.39c.57-.78-.73-1.53-1.3-.76l-1.75,2.39.84-.34a8.79,8.79,0,0,0-9.82,3.33c-1.1,1.62-3.1,7.29.44,7.32,2.54,0,3.66-3.47,2.36-5.32-1.54-2.2-4.86-1.39-5.9.81-.42.87.88,1.63,1.29.76Z" transform="translate(-57.03 -66.21)" style="fill:#461eb8"/><path d="M434.52,110.43c-1.94,2.16-2.95,5.51.5,6.78,2,.73,4.07,0,6,.93a4.41,4.41,0,0,1,2.08,1.75,6.16,6.16,0,0,1,1,3.35,10.6,10.6,0,0,1,6.82-.86c1.89.31,2.7-2.58.8-2.89-2.72-.45-9.09-.74-10.47,2.53-.94,2.25,1.9,4.21,3.88,3.22,3-1.48,1.64-5.65,0-7.6a8.6,8.6,0,0,0-4-2.73c-1.46-.46-6.89.29-4.52-2.36,1.28-1.43-.83-3.56-2.12-2.12Z" transform="translate(-57.03 -66.21)" style="fill:#ec615b"/><path d="M101.29,527.22H355a.75.75,0,0,0,0-1.5H101.29a.75.75,0,0,0,0,1.5Z" transform="translate(-57.03 -66.21)" style="fill:#e8e8e8"/><path d="M308.75,546.24H497.2a.75.75,0,0,0,0-1.5H308.75a.75.75,0,0,0,0,1.5Z" transform="translate(-57.03 -66.21)" style="fill:#e8e8e8"/></g><g id="character"><g id="leg_left" data-name="leg left"><path d="M336.18,498.69c-2.3,1.57-3.45,3.68-5.74,7.9-3.1,5.69-2.32,7.11-5.67,15.72-2.65,6.81-4.06,8.33-3.13,10.57,1.16,2.8,4.79,3.8,9.67,4.82,15.27,3.21,23.26,3.21,23.26,3.21,9.45,0,20.31-.23,32.37-.89a14.53,14.53,0,0,0-3.7-10.63,13.84,13.84,0,0,0-6.15-3.64c-4.2-1.19-6.93.16-12,1.12-5.21,1-14.59,2.74-17.65-1.13-2.09-2.64-.53-7.17,1.14-12a40.83,40.83,0,0,1,7.87-13.54C354.65,499.27,343.46,493.71,336.18,498.69Z" transform="translate(-57.03 -66.21)"/><path d="M298.61,439.33c4.34-3.82,10.9-9.66,18.78-16.9,22-20.22,31.55-30.58,49.59-44.71,17.65-13.83,27-18.43,37.62-18.27,3.2.05,13.11.21,17.84,6.86,2.76,3.9,2.57,8.36,2.26,13.81-.48,8.53-3,13.9-6.71,23.75-4,10.57-1.56,5.52-7.41,21.43-2.88,7.83-8,21.71-15.84,39.73-5.45,12.57-11.95,26.52-19.65,41.5a53.94,53.94,0,0,1-22.76,3.7,54.77,54.77,0,0,1-30.05-11.35l15-30.62a84.11,84.11,0,0,1-39.44,9,34.81,34.81,0,0,1,.75-37.95Z" transform="translate(-57.03 -66.21)" style="fill:#fff"/><path d="M314.38,460.67a110.84,110.84,0,0,1,25.87-23.78c11.39-7.87,27.39-21.71,47.16-47.94-2,4.91-4.9,12.41-8.25,21.61-13.37,36.68-20.48,56.16-14.94,60.52,3.06,2.4,11.3,1.22,35.8-18.53l-24.93,54a51.84,51.84,0,0,1-12.44,3.05c-18.63,2.17-33.38-6.52-39.2-10.45q5.64-14.81,11.3-29.62l-31.19,8.09A106.78,106.78,0,0,1,314.38,460.67Z" transform="translate(-57.03 -66.21)" style="fill:#919191;opacity:0.21"/><path d="M307.17,435.49a331.38,331.38,0,0,1,38.07-39.43c13.67-12,28.85-25,45.71-32.17,8.32-3.56,22.38-7.29,29.36.69,6.64,7.61,3.35,18.69.74,27.19q-8.35,27.15-18.9,53.56-12.4,31.05-27.71,60.82c-.44.86.86,1.62,1.3.76,19.41-37.88,36.45-77.86,48-118.88,2-7.21,3.34-15.44-.73-22.23-3.74-6.23-10.69-7.64-17.5-7.17-18.62,1.28-35.08,15.09-49.09,26.18a328.77,328.77,0,0,0-50.31,49.62c-.6.74.45,1.8,1.06,1.06Z" transform="translate(-57.03 -66.21)"/><path d="M386.42,391A493.76,493.76,0,0,0,321.63,498.5c-.38.87.91,1.64,1.3.75A492,492,0,0,1,387.48,392c.59-.75-.46-1.82-1.06-1.06Z" transform="translate(-57.03 -66.21)"/><path d="M322.92,499.66c5.55,6.95,15.33,9.75,23.82,10.87a56.32,56.32,0,0,0,27.36-3.28c.9-.33.51-1.78-.39-1.44a55.33,55.33,0,0,1-25.06,3.44c-8.71-.86-19-3.56-24.67-10.65-.61-.75-1.66.32-1.06,1.06Z" transform="translate(-57.03 -66.21)"/><path d="M329.72,506.39c-1.75,4.55-3.43,9.12-5,13.73-1.24,3.62-3.44,7.88-3.72,11.68-.42,5.66,7.13,5.84,11.28,6.94,17.48,4.64,35.64,2.54,53.51,2a.75.75,0,0,0,0-1.5c-15,.45-31.06,2.59-45.89-.27-3.34-.64-6.63-1.5-9.9-2.42-1.27-.35-4.29-.79-5.35-1.55-3.16-2.24-1.59-5-.78-7.56,2.23-7,4.68-13.84,7.29-20.66.35-.9-1.1-1.29-1.44-.4Z" transform="translate(-57.03 -66.21)"/><path d="M350,510.32a45.12,45.12,0,0,0-6.55,13.22c-.28.93,1.16,1.32,1.45.4a44,44,0,0,1,6.4-12.87c.56-.78-.74-1.53-1.3-.75Z" transform="translate(-57.03 -66.21)"/><path d="M343.79,524.73A32.71,32.71,0,0,0,363.64,528c5.16-.81,10.53-3.13,15.61-.62A12.78,12.78,0,0,1,386.19,540c-.08,1,1.42,1,1.5,0a14.25,14.25,0,0,0-10.37-15c-4.13-1-8.28.38-12.32,1.14a31.51,31.51,0,0,1-20.45-2.74c-.86-.42-1.62.87-.76,1.3Z" transform="translate(-57.03 -66.21)"/><path d="M291,492.39c11.58,2.31,23.14.76,34.68-1,.95-.15.55-1.59-.4-1.45-11.28,1.72-22.56,3.25-33.88,1-.94-.19-1.34,1.25-.4,1.44Z" transform="translate(-57.03 -66.21)"/></g><g id="leg_right" data-name="leg right"><path d="M290.31,503.39c4.28.19,7.9.47,10.68.71,5.68.5,7.15.84,8.6,1.93.74.55,2.47,2.05,4,7.49,1.24,4.55,1.21,7.87,1.25,14.21,0,8.12.09,12.23.36,14.55.52,4.48,1.55,13.35,5.08,14,1.78.35,3.51-1.5,4.11-2.13,3.75-4,3.1-9.71,2.84-16.25-.56-14,1.51-11.14.78-24.75a145.21,145.21,0,0,0-2.82-21.83l-33.93.31Z" transform="translate(-57.03 -66.21)"/><path d="M262.84,422.49a233.83,233.83,0,0,0-23.61-1.42c-20.36-.21-35.55,2.31-47.16,4.29-17.79,3-26.92,4.67-38.58,10.29-15.14,7.3-20.63,14.6-22.89,18.07a35,35,0,0,0-6.35,19.2,29.18,29.18,0,0,0,3,13.73c3.78,7.37,10.24,11.23,16,14.1,17.57,8.67,35,11.14,40.38,11.87,26.58,3.57,48,4.84,78.05,6.83,10.16.67,18.33,1.23,23,1.54a101.86,101.86,0,0,0,8-40.42,21.57,21.57,0,0,0,9.24-2.26c14.4-7.38,14.25-29.92,14.18-33.32-.16-6.85-.54-23.71-13.07-31.2C291.94,407.1,275.06,410.26,262.84,422.49Z" transform="translate(-57.03 -66.21)" style="fill:#fff"/><path d="M147.94,438.43c-6.33,7.47-8.42,13.83-7.39,19.26,3.24,17.19,38.94,32.3,150.51,36A69.72,69.72,0,0,1,284.73,521c-18.55-1.29-33.2-2.24-41.87-2.79A621.78,621.78,0,0,1,165.39,509c-11.5-2.18-23.88-4.92-32.82-15.29-1.82-2.11-7.09-8.38-8.19-17.16C122.62,462.51,132.15,447.61,147.94,438.43Z" transform="translate(-57.03 -66.21)" style="fill:#919191;opacity:0.18"/><path d="M254.89,420.53a306,306,0,0,0-72.35,5.86c-19.73,4-41.95,10.08-53.42,28.2-9.77,15.43-6.44,35.1,9.57,44.57,9,5.34,19.73,8.18,29.8,10.78a276.49,276.49,0,0,0,33,6.34c27.22,3.64,54.73,4,82.15,4.17a.75.75,0,0,0,0-1.5c-42.67-.31-86.28-.88-127.29-14.07-9.19-3-19.27-6.45-25.59-14.2-7.11-8.74-7.3-21.38-2.62-31.28,9.37-19.79,32.23-26.76,52-31A304.12,304.12,0,0,1,254.89,422c1,0,1-1.47,0-1.5Z" transform="translate(-57.03 -66.21)"/><path d="M196.92,462.65q45.92,6.77,92,12c1,.11,1-1.39,0-1.5q-45.91-5.17-91.65-11.9c-.94-.14-1.35,1.3-.39,1.44Z" transform="translate(-57.03 -66.21)"/><path d="M290.53,475a88.79,88.79,0,0,1-6.45,45.65c-.37.87.92,1.64,1.3.75A90.15,90.15,0,0,0,292,475c-.12-.94-1.62-1-1.5,0Z" transform="translate(-57.03 -66.21)"/><path d="M290.31,504.14c7.3.49,19-1,21.88,7.36,2.19,6.32,1.86,13.37,1.84,20,0,5.67,0,11.46,1.49,17,.73,2.66,2.4,8.81,5.84,9.32,3.09.46,3.6-3,4.12-5.19a138.16,138.16,0,0,0,3-20.45,149.36,149.36,0,0,0-2.64-41c-.19-1-1.64-.55-1.45.4a147.83,147.83,0,0,1,2.72,38.7,143,143,0,0,1-2.71,20.09c-.41,2-.55,6.81-4.8,4-.89-.58-1.62-3.22-1.95-4.11a36.78,36.78,0,0,1-1.94-9.85c-.76-10,1.42-21.15-2.59-30.68-3.56-8.48-15.29-6.62-22.83-7.12-1-.06-1,1.44,0,1.5Z" transform="translate(-57.03 -66.21)"/><path d="M292.76,481.32a33,33,0,0,0,11.18-3.07c.87-.41.11-1.71-.76-1.3a30.75,30.75,0,0,1-10.42,2.87c-.95.09-1,1.59,0,1.5Z" transform="translate(-57.03 -66.21)"/></g><g id="hand_right" data-name="hand right"><path d="M183.92,186.44c-.76,4.23-1.58,7.6-2.2,9.92-1,3.91-1.71,5.63-1.12,8.17a9.31,9.31,0,0,0,3.2,5.33,8.6,8.6,0,0,0,2.07,1.19q-.17,10.66-.34,21.34l7.15-.32q-1.4-30.69.14-30.83.9-.09,2.82,10.42,1,10.16,2.49,20.91a458,458,0,0,0,9,46.21q2.7,6,5.87,12.15a254.9,254.9,0,0,0,35.24,51.44c2.24-2.48,8.69-10.28,8.58-21.3a29,29,0,0,0-1.55-9c-3.7-4.5-7.44-9.29-11.17-14.39-6.42-8.77-12-17.32-16.86-25.44-.44-2.12-1.15-5.31-2.21-9.13-3.47-12.46-6.4-16.46-12.35-32.14-3.89-10.25-5.84-15.38-6.73-20.47-1-6-2.42-12-3.2-18.05-.62-4.77-.92-8.56-3.85-10.78-2.35-1.78-5.37-1.76-7.4-1.49q.6-19.85,1.18-39.7c8.55-.4,17.52-.55,26.87-.38q6.53.12,12.78.44-.81-5.55-1.31-11.48a187.38,187.38,0,0,1,4.64-58.71c-5.87-1-12-1.84-18.45-2.42a235.41,235.41,0,0,0-78.7,6.44c-.83,5.48-1.47,11.31-1.83,17.45a193,193,0,0,0,5.23,56.9l44.81-7.8Q185.34,163.69,183.92,186.44Z" transform="translate(-57.03 -66.21)" style="fill:#fff"/><path d="M183.63,188a13.06,13.06,0,0,0,.74,8c3,6.88,11.25,7.86,11.67,7.9a466.85,466.85,0,0,0,11.33,49.43c4.75,16.51,7.55,26.08,13.39,37.77A147.67,147.67,0,0,0,249,329.88l2.34,21.61c-3-5.18-7.25-12.26-12.85-20.41-6.21-9.06-9.28-12.49-14.32-20.28a157.49,157.49,0,0,1-12-21.63,147.12,147.12,0,0,1-8.24-24.27,421,421,0,0,1-10.3-54.51q-.66,11-1.31,21.93l-6.8-.51-.47-19.36a21,21,0,0,1-4.34-9.37A21.89,21.89,0,0,1,183.63,188Z" transform="translate(-57.03 -66.21)" style="fill:#919191;opacity:0.36"/><path d="M138.55,74.4a54.36,54.36,0,0,0,4.23,22.73c11.74,27.43,47.42,43.48,90,42.71A394.14,394.14,0,0,0,142,148.75a232.75,232.75,0,0,1-3.4-74.35Z" transform="translate(-57.03 -66.21)" style="fill:#919191;opacity:0.22"/><path d="M185.55,131.07c-20.07-8.28-31.8-22.31-29.87-33.8,1.09-6.47,7.1-15.61,14.71-15,5.42.43,10.48,5.74,12.34,13.15,1.7-7.06,6.66-12.13,12.08-12.61,7.18-.65,12.72,6.93,14.32,12.11C212.45,105.65,203.25,120.4,185.55,131.07Z" transform="translate(-57.03 -66.21)" style="fill:#ec615b"/><path d="M255.84,311.57a305.14,305.14,0,0,1-28.52-40.48.75.75,0,0,0-1.29.76,308.79,308.79,0,0,0,28.74,40.78c.62.74,1.68-.33,1.07-1.06Z" transform="translate(-57.03 -66.21)"/><path d="M226.65,273.59c1.49-12.53-6.42-25.82-11-37.12-5.15-12.83-9.86-25.86-11.38-39.67-.1-1-1.6-1-1.5,0,1.41,12.76,5.42,24.86,10.11,36.75,2.4,6.09,5,12.12,7.33,18.21,2.74,7,5.82,14.15,4.91,21.83-.11,1,1.39,1,1.5,0Z" transform="translate(-57.03 -66.21)"/><path d="M194.89,211.66a448.66,448.66,0,0,0,11.43,66.11.75.75,0,0,0,1.45-.4,445.91,445.91,0,0,1-11.38-65.71c-.09-.95-1.59-1-1.5,0Z" transform="translate(-57.03 -66.21)"/><path d="M207.75,281.32a232.15,232.15,0,0,0,35.9,57.22c.63.74,1.68-.33,1.06-1.06a230.74,230.74,0,0,1-35.66-56.91c-.39-.89-1.68-.12-1.3.75Z" transform="translate(-57.03 -66.21)"/><path d="M203.89,193.62a80.8,80.8,0,0,0-3.06-9.89c-.71-1.65-1.25-2.85-3-3.57-4.52-1.88-10.73.46-14.61,2.77a.74.74,0,0,0-.37.65c.14,4.92,6.9,4.6,10.27,3.78.94-.23.54-1.68-.4-1.45a12.87,12.87,0,0,1-4.37.4c-1.36-.13-3.89-.69-3.22-2.77.51-1.56,7.19-2.36,8.59-2.38a9,9,0,0,1,3.23.25c2,.84,2.52,3.05,3.11,4.82.86,2.57,1.63,5.17,2.35,7.79a.75.75,0,0,0,1.45-.4Z" transform="translate(-57.03 -66.21)"/><path d="M183.2,186.24A105.83,105.83,0,0,0,180,203.08c-.37,4.08,1.19,6.52,5,8.16,2,.88,4.09,1.32,5-1.24,1.08-3.12-3.16-5.54-4.27-7.83-.42-.87-1.71-.11-1.29.76s2.07,2.26,2.3,3.07q-.12,5.26-2.81,3a8.15,8.15,0,0,1-2.16-7.66c.18-4.86,1.72-10,2.93-14.67a.75.75,0,0,0-1.44-.4Z" transform="translate(-57.03 -66.21)"/><path d="M181,199.1c2.11,2.5,6.92,7.53,10.57,5,1.6-1.1,2.4-3.44,3-5.19a12.29,12.29,0,0,0,.48-7.34.75.75,0,0,0-1.44.4c.74,2.92.05,7.72-2.16,10-.81.85-3,1-4.13.56a9.87,9.87,0,0,1-2.29-1.56,22.23,22.23,0,0,1-3-3c-.63-.74-1.68.32-1.06,1.06Z" transform="translate(-57.03 -66.21)"/><path d="M190.43,187.29a5.1,5.1,0,0,0,2.2,1.43c.75.32,2.12.92,1.7,2-.36.89,1.09,1.28,1.45.39a2.62,2.62,0,0,0-1.13-3c-1-.75-2.37-.86-3.16-1.87-.6-.76-1.66.31-1.06,1.06Z" transform="translate(-57.03 -66.21)"/><path d="M185.37,210.74a151.93,151.93,0,0,0-.59,21.65c0,1,1.54,1,1.5,0a151.93,151.93,0,0,1,.59-21.65c.09-1-1.41-1-1.5,0Z" transform="translate(-57.03 -66.21)"/><path d="M185.27,233.08a17.09,17.09,0,0,0,7.26,0c.95-.21.55-1.66-.39-1.45a15,15,0,0,1-6.47,0c-.94-.2-1.34,1.24-.4,1.45Z" transform="translate(-57.03 -66.21)"/><path d="M191.93,202.53v29.54a.75.75,0,0,0,1.5,0V202.53a.75.75,0,0,0-1.5,0Z" transform="translate(-57.03 -66.21)"/><path d="M185.37,141.16q-.17,20.35-1,40.7c0,1,1.46,1,1.5,0q.83-20.34,1-40.7a.75.75,0,0,0-1.5,0Z" transform="translate(-57.03 -66.21)"/><path d="M192,140.51q-.24,19.86-1.18,39.7c0,1,1.46,1,1.5,0q.94-19.85,1.18-39.7a.75.75,0,0,0-1.5,0Z" transform="translate(-57.03 -66.21)"/><path d="M143.23,149.37a315.59,315.59,0,0,1,89.14-8.05c1,.05,1-1.45,0-1.5a316.92,316.92,0,0,0-89.54,8.1c-.94.23-.54,1.67.4,1.45Z" transform="translate(-57.03 -66.21)"/><path d="M136.52,75.86a299,299,0,0,0,4.7,73.09c.18,1,1.63.54,1.45-.4A297.24,297.24,0,0,1,138,75.86c0-1-1.45-1-1.5,0Z" transform="translate(-57.03 -66.21)"/><path d="M141.4,74.14a228,228,0,0,1,93.13-3c.94.16,1.35-1.28.4-1.45a230,230,0,0,0-93.93,3c-.94.23-.54,1.68.4,1.45Z" transform="translate(-57.03 -66.21)"/><path d="M235,70.18c-1.76,11.79-3.1,23.64-3.92,35.53-.79,11.36-2,23.19,1,34.33a.75.75,0,0,0,1.44-.4c-2.87-11-1.69-22.73-.91-33.93q1.22-17.64,3.87-35.13c.14-1-1.3-1.35-1.45-.4Z" transform="translate(-57.03 -66.21)"/></g><g id="torso"><path d="M280.63,308.4a98.28,98.28,0,0,0-25.32,3.7A86.3,86.3,0,0,0,247,341.47a107.48,107.48,0,0,0,4.67,41.12c3.1,8.78,7,15.16,6.27,25.66a40.83,40.83,0,0,1-3.09,13,35,35,0,0,0,10.75,13.21c15.14,11.1,39.73,8.49,62-6.2q.12-21,.56-42.52.68-33,2-65A102,102,0,0,0,280.63,308.4Z" transform="translate(-57.03 -66.21)" style="fill:#ec615b"/></g><g id="hand_left" data-name="hand left"><path d="M323,323.56a5.51,5.51,0,0,0-1.08,4.1c.67,9.41-4.49,15.09-2.17,43.72A223.39,223.39,0,0,0,324.61,403c-.43,3.43-1.11,9.06-1.8,16-1.21,12.29-1.54,19.54-2.84,37.5-.32,4.52-.83,11.4-1.5,19.89-1.62,3.15-4,7.84-6.58,13.65-2.92,6.44-7.27,16.07-6.23,16.66.41.24,1.85-.9,6.65-7.61-.15,3.2-.49,8.07-1.34,14-1.62,11.21-3.93,18.07-3,18.46.52.2,2-1.41,6.6-10.35q-1.69,12.55.16,13.09,2.45.72,11.1-19.71c.62,11.32,1.47,13.52,2.12,13.55,1.12.06,2.94-6.52,2.7-13.24-.15-4.38-1.06-5.31-2.2-11.27a83.31,83.31,0,0,1-1.3-18.41c.34-6.3,1.59-10.6,3-15.73,4.9-18.13,2.58-13.69,8.26-35.16,5.08-19.19,6.63-21.62,6.88-30.15.15-4.93-.2-9.94-.67-16.69s-.91-13-2.14-20.77c-3.88-24.58-9.81-28-10.72-38.51-.09-1-.28-3.87-2.26-5.23A5.44,5.44,0,0,0,323,323.56Z" transform="translate(-57.03 -66.21)" style="fill:#fff"/><path d="M327.92,324.45c-1.25.36,3.78,13.66,6.05,36.28,2.4,23.89.13,42.35-3.94,73.87-1.58,12.2-4.09,29.16-8.15,49.42a66.37,66.37,0,0,1,1.57,15.11c-.25,19-8.81,33.64-7.17,34.43.74.35,2.77-2.5,3.76-3.89a31.47,31.47,0,0,0,5.67-16.95c1.88,12.78,2.91,15.43,3.51,15.39,1-.07,1.67-7.65,1.3-14.78-.65-12.55-4.15-16.05-3.91-26.15.1-4.43.85-7.07,2.76-14.35,0,0,6.33-24.14,11.48-47.42,4-17.89,4.32-23.83,4.44-26.84a115.61,115.61,0,0,0-1.69-23.66C339.33,348.36,329.63,324,327.92,324.45Z" transform="translate(-57.03 -66.21)" style="fill:#919191;opacity:0.22"/><path d="M322.26,323.36c-7.27,26.28-3.44,53.54,1.63,79.84.18.95,1.63.55,1.44-.4-5-26-8.82-53-1.62-79a.75.75,0,0,0-1.45-.4Z" transform="translate(-57.03 -66.21)"/><path d="M325.71,400.29c-2.64,4.25-2.9,9-3.28,13.86q-.78,10.22-1.54,20.44l-3.17,41.84c-.07,1,1.43,1,1.5,0l2.87-37.95,1.4-18.49c.48-6.25.11-13.45,3.52-18.94.51-.82-.79-1.58-1.3-.76Z" transform="translate(-57.03 -66.21)"/><path d="M328.88,323.34a181.51,181.51,0,0,1,15.17,73.9.75.75,0,0,0,1.5,0,183.18,183.18,0,0,0-15.38-74.66c-.38-.88-1.68-.12-1.29.76Z" transform="translate(-57.03 -66.21)"/><path d="M345.27,400.92q-9.22,41.06-19.09,82c-.22.94,1.22,1.34,1.45.4q9.87-40.92,19.09-82c.21-.94-1.24-1.34-1.45-.4Z" transform="translate(-57.03 -66.21)"/><path d="M317.07,476.86c-1.83,5.66-4.8,10.73-7.5,16-1.81,3.54-5,8.8-4.75,12.87.41,7.28,7.54-4.75,8.21-6.4.37-.9-1.08-1.29-1.44-.4-.17.4-1.86,4.76-2.78,5.18-2.42,1.12-1.86-1.25-1.43-2.55a64.88,64.88,0,0,1,4.24-9.39c2.56-4.88,5.19-9.65,6.9-14.91.3-.92-1.15-1.31-1.45-.4Z" transform="translate(-57.03 -66.21)"/><path d="M326.74,483.29c-2.18,13.93,4.74,27.18,3.19,41.09-.11,1,1.39,1,1.5,0,1.54-13.78-5.4-26.93-3.25-40.69.15-.95-1.29-1.35-1.44-.4Z" transform="translate(-57.03 -66.21)"/><path d="M311.89,498.82c-.09,7.35-1.73,14.43-3.28,21.58-.46,2.14-3.45,9.69-1.18,11.59,4.55,3.82,9-16.82,9.35-18.8.18-.94-1.26-1.34-1.45-.39a72.59,72.59,0,0,1-3.39,12.09c-.29.74-1.94,7.44-3.32,3.15-.45-1.43.93-4.84,1.25-6.34,1.62-7.6,3.43-15.08,3.52-22.88a.75.75,0,0,0-1.5,0Z" transform="translate(-57.03 -66.21)"/><path d="M315.61,515c-.51,2.37-5.05,20.31,1,19.29,2.81-.47,5.32-6.66,6.23-8.79a31.46,31.46,0,0,0,2.43-13.38c0-1-1.53-1-1.5,0a29.74,29.74,0,0,1-4.5,17l-.78,1.17c-.92,2.5-1.73,2.76-2.43.76-1.17-1.37-.88-2.89-.78-4.54a74.07,74.07,0,0,1,1.82-11.07c.2-.94-1.25-1.34-1.45-.4Z" transform="translate(-57.03 -66.21)"/><path d="M316.89,532.55a50.83,50.83,0,0,0,4.64-21.5.75.75,0,0,0-1.5,0,49,49,0,0,1-4.43,20.74c-.4.87.89,1.64,1.29.76Z" transform="translate(-57.03 -66.21)"/><path d="M325,512.72l1,10.27c.14,1.57-.21,4.32,1.18,5.49a2.67,2.67,0,0,0,2.92.07c1.73-1,1.77-3.09,1.7-4.85,0-1-1.54-1-1.5,0q.48,2.22-2.48,2.71l-.22-2.28-.32-3.42-.74-8c-.09-1-1.59-1-1.5,0Z" transform="translate(-57.03 -66.21)"/></g><g id="head"><path d="M285.53,310.14c-3.26.37-14.45,1.65-20.14-3.07-7.71-6.38-3.63-22.31-3.08-24.35-1.72-2.21-7.33-10-6.17-20,1.41-12.19,12.2-22.74,26.82-25.29,2.13-2.73,7.61-8.94,15.73-9.86,12.05-1.38,25.8,9.35,30.21,27.13,9,3.46,22.7,10.41,33,24,3.9,5.16,8,10.75,8.32,18.5.29,7-2.85,8.45-4.93,19.42-2.37,12.48,1.34,17.29-2.47,21.59-5.09,5.73-16.56,3.2-17.53,3-16.21-3.78-24.67-22-39.06-29.18a27.87,27.87,0,0,0-6.58-2.35C293.85,308.42,290,309.63,285.53,310.14Z" transform="translate(-57.03 -66.21)" style="fill:#461eb8"/><path d="M271.66,256.52a30,30,0,0,0-4,9.91,9.07,9.07,0,0,0-3.62,1.27c-2,1.25-4.74,4.11-4.17,7.25s4.22,5.74,8.64,5.28a36.38,36.38,0,0,0,14.4,19.95l.89,11.37a9.56,9.56,0,0,0,4,2c4.86,1.08,8.79-2.28,9.31-2.74L298,300a40.9,40.9,0,0,0,5.7-5.33A41.5,41.5,0,0,0,312,280.1a7.35,7.35,0,0,0,5.46,1.12c3.73-.89,6.37-5.44,5.22-9.44a8,8,0,0,0-6.9-5.49A41.39,41.39,0,0,0,306,254.16c-4.15-3.48-12.95-10.88-22.12-8.35C277.26,247.63,273.42,253.72,271.66,256.52Z" transform="translate(-57.03 -66.21)" style="fill:#fff"/><path d="M277.05,250.32A42,42,0,0,0,273.9,261c-1.81,11.69.49,30.22,12.34,35.57,2.1.94,6.38,2.33,13.06.72a17.89,17.89,0,0,1-10,11.42c-.13,1.65-.25,3.3-.37,4.94l-4.89-2.09q-.29-5.59-.55-11.18a34.63,34.63,0,0,1-7.12-6,35.2,35.2,0,0,1-7.67-13.68c-5.85-.2-9.34-4.71-8.74-7.92.45-2.36,3.2-4.43,6.65-4.91a23.7,23.7,0,0,1,10.41-17.54Z" transform="translate(-57.03 -66.21)" style="fill:#919191;opacity:0.36"/><path d="M269.3,257.46a36,36,0,0,0,19.26,46.37c.87.39,1.64-.91.76-1.29a34.57,34.57,0,0,1-18.57-44.69c.34-.9-1.1-1.29-1.45-.39Z" transform="translate(-57.03 -66.21)"/><path d="M289.6,304.09c18.93-5,25.23-25.06,24.27-42.66-.05-1-1.55-1-1.5,0,.92,16.91-4.85,36.4-23.17,41.21a.75.75,0,0,0,.4,1.45Z" transform="translate(-57.03 -66.21)"/><path d="M282.18,300.18l.89,11.37c.08,1,1.58,1,1.5,0l-.89-11.37c-.08-1-1.58-1-1.5,0Z" transform="translate(-57.03 -66.21)"/><path d="M283.54,312.05c3.52,4,10.57,2.45,14.1-.74.72-.65-.35-1.71-1.06-1.06-2.93,2.65-9,4.07-12,.74-.64-.73-1.7.33-1.06,1.06Z" transform="translate(-57.03 -66.21)"/><path d="M297.2,300l-.27,9.93c0,1,1.47,1,1.5,0l.27-9.93a.75.75,0,0,0-1.5,0Z" transform="translate(-57.03 -66.21)"/><path d="M268.33,279.5a6.14,6.14,0,0,1-7.55-4c-.91-3.15,1-7.28,4.6-7.15,1,0,1-1.47,0-1.5-4.35-.15-6.95,4.4-6.21,8.35a7.63,7.63,0,0,0,9.56,5.72.75.75,0,0,0-.4-1.45Z" transform="translate(-57.03 -66.21)"/><path d="M311.43,280.63c4,4.58,9.81-.29,11.33-4.63,1.6-4.58-.24-12.16-6.44-10.7-.94.22-.55,1.67.39,1.45,5.17-1.22,5.79,5.55,4.6,8.85s-5.57,7.68-8.82,4c-.63-.73-1.69.34-1.06,1.06Z" transform="translate(-57.03 -66.21)"/><path d="M288.8,257.65c-.51,7.19-2,15.31-.58,22.43.14.7,1,.64,1.37.18a34,34,0,0,0,2.87-4.44c.46-.85-.83-1.61-1.29-.76a35.05,35.05,0,0,1-2.87,4.44l1.37.18c-1.39-6.95.13-15,.63-22,.07-1-1.43-1-1.5,0Z" transform="translate(-57.03 -66.21)"/><path d="M282.24,283a13,13,0,0,0,17.12-3.67c.59-.77-.71-1.52-1.29-.76A11.47,11.47,0,0,1,283,281.65c-.84-.47-1.6.83-.76,1.3Z" transform="translate(-57.03 -66.21)"/><path d="M275.85,272.41a.75.75,0,0,0,0-1.5.75.75,0,0,0,0,1.5Z" transform="translate(-57.03 -66.21)"/><path d="M280.65,272.61a.75.75,0,0,0,0-1.5.75.75,0,0,0,0,1.5Z" transform="translate(-57.03 -66.21)"/><path d="M279.05,277.2a.75.75,0,0,0,0-1.5.75.75,0,0,0,0,1.5Z" transform="translate(-57.03 -66.21)"/><path d="M297.45,272a.75.75,0,0,0,0-1.5.75.75,0,0,0,0,1.5Z" transform="translate(-57.03 -66.21)"/><path d="M303.44,271a.75.75,0,0,0,0-1.5.75.75,0,0,0,0,1.5Z" transform="translate(-57.03 -66.21)"/><path d="M300.84,274.8a.75.75,0,0,0,0-1.5.75.75,0,0,0,0,1.5Z" transform="translate(-57.03 -66.21)"/><path d="M277.91,252.09c1.58-2.4,4.92-4,7.12-1.33.62.74,1.67-.33,1.06-1.06-2.84-3.39-7.4-1.52-9.47,1.64-.53.81.77,1.56,1.29.75Z" transform="translate(-57.03 -66.21)"/><path d="M298.09,251.26c1.91-3.88,6.22-1.09,7.76,1.41.51.82,1.81.07,1.3-.76-1.19-1.92-2.94-3.7-5.29-4a4.9,4.9,0,0,0-5.06,2.59c-.43.87.87,1.63,1.29.76Z" transform="translate(-57.03 -66.21)"/><ellipse cx="224.76" cy="195.93" rx="1.14" ry="3.68"/><ellipse cx="241.69" cy="195.93" rx="1.14" ry="3.68"/><path d="M290,239c-1.68,1.84-.67,5.24,0,7.51,4,13.44,20.65,23.49,25.79,19.82,3.5-2.51,1.95-11.59-1.54-17.32C308.05,238.86,293.46,235.12,290,239Z" transform="translate(-57.03 -66.21)" style="fill:#461eb8"/><path d="M295.15,242.81a31.13,31.13,0,0,0-13.28,4c-11.34,6.55-14.55,18.31-15.21,21a9.69,9.69,0,0,1-2.88-3.85c-2.81-7.12,4.06-18.15,13.28-21.94C285.18,238.7,293,241.86,295.15,242.81Z" transform="translate(-57.03 -66.21)" style="fill:#461eb8"/></g></g></svg>