<svg width="305" height="264" viewBox="0 0 305 264" fill="none" xmlns="http://www.w3.org/2000/svg">
<g clip-path="url(#clip0_964_6)">
<path d="M0.43889 223.288H124.007C124.126 223.288 124.241 223.246 124.326 223.17C124.41 223.095 124.458 222.992 124.458 222.886C124.458 222.779 124.41 222.676 124.326 222.601C124.241 222.525 124.126 222.483 124.007 222.483H0.43889C0.319219 222.483 0.204452 222.525 0.119832 222.601C0.0352119 222.676 -0.0123291 222.779 -0.0123291 222.886C-0.0123291 222.992 0.0352119 223.095 0.119832 223.17C0.204452 223.246 0.319219 223.288 0.43889 223.288V223.288Z" fill="#E8E8E8"/>
<path d="M61.7869 218.992H238.009C238.129 218.992 238.243 218.95 238.328 218.874C238.413 218.799 238.46 218.696 238.46 218.59C238.46 218.483 238.413 218.38 238.328 218.305C238.243 218.229 238.129 218.187 238.009 218.187H61.7869C61.6672 218.187 61.5525 218.229 61.4679 218.305C61.3832 218.38 61.3357 218.483 61.3357 218.59C61.3357 218.696 61.3832 218.799 61.4679 218.874C61.5525 218.95 61.6672 218.992 61.7869 218.992V218.992Z" fill="#E8E8E8"/>
<path d="M184.928 225.974H301.101C301.221 225.974 301.336 225.931 301.42 225.856C301.505 225.78 301.553 225.678 301.553 225.571C301.553 225.464 301.505 225.361 301.42 225.286C301.336 225.21 301.221 225.168 301.101 225.168H184.928C184.808 225.168 184.693 225.21 184.608 225.286C184.524 225.361 184.476 225.464 184.476 225.571C184.476 225.678 184.524 225.78 184.608 225.856C184.693 225.931 184.808 225.974 184.928 225.974V225.974Z" fill="#E8E8E8"/>
<path d="M246.329 191.663C246.463 199.573 247.182 207.467 248.483 215.292C248.568 215.802 249.44 215.582 249.356 215.077C248.074 207.323 247.37 199.501 247.25 191.663C247.25 191.556 247.202 191.454 247.118 191.378C247.033 191.303 246.918 191.26 246.799 191.26C246.679 191.26 246.564 191.303 246.48 191.378C246.395 191.454 246.348 191.556 246.348 191.663H246.329Z" fill="#E8E8E8"/>
<path d="M247.96 191.341C259.008 190.101 270.182 190.036 281.248 191.148C281.849 191.207 281.849 190.396 281.248 190.342C270.182 189.23 259.008 189.295 247.96 190.535C247.394 190.6 247.358 191.405 247.96 191.341Z" fill="#E8E8E8"/>
<path d="M281.127 192.893L279.407 213.445C279.365 213.982 280.267 213.982 280.309 213.445L282.03 192.893C282.072 192.356 281.17 192.356 281.127 192.893Z" fill="#E8E8E8"/>
<path d="M249.711 216.243C254.283 218.475 259.439 219.581 264.649 219.445C269.859 219.309 274.934 217.937 279.353 215.469C279.84 215.196 279.389 214.497 278.895 214.771C274.616 217.17 269.698 218.507 264.647 218.644C259.596 218.781 254.596 217.713 250.162 215.55C249.656 215.298 249.199 215.996 249.711 216.243V216.243Z" fill="#E8E8E8"/>
<path d="M249.656 189.945C248.392 188.756 247.5 187.291 247.069 185.697C246.919 185.214 246.793 184.72 246.66 184.231C246.57 183.866 246.474 183.5 246.384 183.13C246.282 182.932 246.254 182.71 246.301 182.496C246.348 182.282 246.47 182.087 246.648 181.938C246.853 182.357 247.629 182.056 247.473 181.626C246.949 180.203 247.045 178.737 246.54 177.33C246.714 177.819 247.587 177.609 247.412 177.115L247.352 176.96C247.325 176.875 247.268 176.801 247.19 176.748C247.112 176.695 247.017 176.665 246.919 176.664H246.708C246.629 176.662 246.55 176.679 246.481 176.714C246.412 176.749 246.355 176.801 246.317 176.863C245.487 178.35 246.053 180.359 246.6 181.857L247.424 181.546C246.775 180.225 245.409 181.132 245.277 182.212C245.108 183.576 246.065 185.702 246.576 186.98C247.082 188.32 247.93 189.535 249.055 190.53C249.14 190.601 249.253 190.64 249.37 190.638C249.487 190.636 249.599 190.594 249.681 190.52C249.764 190.446 249.811 190.347 249.814 190.243C249.816 190.138 249.772 190.037 249.693 189.961L249.656 189.945Z" fill="#E8E8E8"/>
<path d="M247.25 176.857C247.093 176.073 245.65 164.538 247.93 164.968C248.495 165.075 248.736 164.297 248.17 164.189C243.827 163.378 245.974 175.048 246.366 177.078C246.468 177.588 247.334 177.373 247.232 176.863L247.25 176.857Z" fill="#E8E8E8"/>
<path d="M249.422 165.027C249.277 164.275 248.634 160.65 250.625 160.672C250.724 160.673 250.821 160.644 250.901 160.591C250.98 160.537 251.038 160.462 251.064 160.376C251.509 158.228 252.586 154.297 254.879 153.008C259.469 150.431 259 159.716 259.09 161.413C259.421 167.105 259.529 172.798 259.463 178.495C259.463 178.602 259.51 178.705 259.595 178.78C259.68 178.856 259.794 178.898 259.914 178.898C260.034 178.898 260.149 178.856 260.233 178.78C260.318 178.705 260.365 178.602 260.365 178.495C260.432 172.62 260.311 166.745 259.956 160.881C259.818 158.572 260.558 152.23 256.714 151.623C253.633 151.14 251.606 155.704 250.866 157.659C250.559 158.47 250.421 159.243 249.867 159.877C249.554 160.237 249.163 160.307 248.874 160.699C247.936 161.977 248.273 163.829 248.531 165.242C248.628 165.752 249.5 165.537 249.398 165.027H249.422Z" fill="#E8E8E8"/>
<path d="M260.353 166.283C260.558 165.704 261.027 161.987 262.513 163.061C262.577 163.115 262.657 163.151 262.744 163.165C262.831 163.18 262.92 163.171 263.001 163.141C263.082 163.111 263.152 163.061 263.202 162.996C263.252 162.931 263.28 162.855 263.283 162.777C263.431 161.128 264.019 159.535 264.998 158.132C266.484 156.069 266.478 157.159 267.043 158.502C267.188 158.846 267.807 158.926 267.916 158.502C268.048 157.741 268.348 157.01 268.8 156.354C271.299 155.101 272.46 155.412 272.284 157.288C272.371 158.637 272.371 159.989 272.284 161.338C272.184 164.336 271.877 167.325 271.363 170.29C271.273 170.8 272.145 171.015 272.229 170.504C272.706 167.803 273.011 165.079 273.144 162.347C273.24 160.285 273.908 156.977 272.602 155.124C270.425 151.988 267.477 156.51 267.025 158.293H267.898C267.452 157.219 267.838 155.28 265.894 155.94C263.554 156.735 262.579 160.924 262.363 162.782L263.133 162.497C260.359 160.43 259.956 164.646 259.469 166.047C259.288 166.541 260.161 166.756 260.335 166.262L260.353 166.283Z" fill="#E8E8E8"/>
<path d="M272.554 168.861C272.247 169.441 273.156 167.615 273.228 167.744C273.255 167.828 273.312 167.901 273.391 167.954C273.469 168.006 273.564 168.034 273.661 168.034C273.759 168.034 273.854 168.006 273.932 167.954C274.01 167.901 274.067 167.828 274.094 167.744C274.395 166.072 275.384 165.618 277.06 166.38V167.438C277.397 168.426 276.994 170.048 276.922 171.085C276.742 173.641 276.419 176.188 275.953 178.716C275.857 179.22 276.73 179.441 276.82 178.925C277.265 176.492 277.608 174.044 277.794 171.579C277.909 170.032 278.805 166.391 277.614 165.07C275.996 163.282 273.691 166.257 273.228 167.519H274.094L273.95 167.186C273.918 167.103 273.859 167.031 273.781 166.978C273.703 166.926 273.609 166.895 273.511 166.89C272.362 166.756 272.217 167.615 271.778 168.442C271.525 168.91 272.308 169.318 272.554 168.851V168.861Z" fill="#E8E8E8"/>
<path d="M277.199 176.482C277.704 175.848 278.432 175.69 279.383 176.009C279.281 176.847 279.154 177.685 279.01 178.517C278.817 179.736 278.613 180.955 278.408 182.169L277.133 189.993C277.048 190.498 277.921 190.718 278.005 190.208L279.371 181.857C279.66 180.058 280.664 177.561 280.255 175.741C279.708 173.313 277.794 174.86 276.561 175.907C276.14 176.267 276.778 176.836 277.199 176.476V176.482Z" fill="#E8E8E8"/>
<path d="M5.77558 172.996C25.0817 171.246 43.4494 177.481 61.3537 183.049C79.4025 188.656 97.7942 192.684 116.872 194.117C128.026 194.944 139.235 194.972 150.394 194.203C150.996 194.16 150.996 193.355 150.394 193.398C130.362 194.782 110.211 193.57 90.5687 189.8C71.9183 186.196 54.5133 179.21 36.1156 174.881C26.2008 172.551 16.0273 171.262 5.77558 172.196C5.20404 172.25 5.17396 173.055 5.77558 173.002V172.996Z" fill="#E8E8E8"/>
<path d="M83.8966 172.61C132.52 182.63 181.101 167.889 227.962 157.535C241.504 154.544 255.149 151.907 268.981 150.221C269.552 150.151 269.305 149.373 268.74 149.443C220.574 155.318 174.886 173.136 126.01 174.999C111.95 175.536 97.8663 174.661 84.1372 171.831C83.5717 171.713 83.331 172.492 83.8966 172.61V172.61Z" fill="#E8E8E8"/>
<path d="M6.65396 205.653C31.2604 194.944 59.0315 200.696 84.2636 206.254C84.8292 206.378 85.0698 205.599 84.5043 205.475C59.0134 199.858 31.0499 194.139 6.20274 204.938C5.67933 205.164 6.13657 205.857 6.65998 205.631L6.65396 205.653Z" fill="#E8E8E8"/>
<path d="M10.4201 102.426C18.6924 105.611 27.5483 106.884 36.4704 107.598C45.7107 108.309 54.9916 108.508 64.2595 108.194C82.3805 107.619 100.357 105.326 118.183 102.33C155.015 96.1324 191.202 86.8527 228.449 82.68C248.904 80.3923 269.57 79.764 290.044 82.0786C290.645 82.143 290.645 81.3375 290.044 81.273C254.139 77.2185 218.137 82.3471 183.032 89.0276C147.151 95.8532 111.439 104.435 74.7398 106.873C64.6318 107.573 54.4848 107.709 44.3577 107.281C33.0291 106.744 21.4057 105.783 10.8893 101.728C10.3599 101.529 9.90266 102.222 10.4321 102.426H10.4201Z" fill="#E8E8E8"/>
<path d="M33.2096 66.8755C51.5185 69.2627 69.9902 70.5188 88.493 70.6346C88.6126 70.6346 88.7274 70.5922 88.812 70.5166C88.8966 70.4411 88.9442 70.3387 88.9442 70.2318C88.9442 70.125 88.8966 70.0226 88.812 69.947C88.7274 69.8715 88.6126 69.8291 88.493 69.8291C70.0704 69.7078 51.6791 68.4517 33.4503 66.0699C32.8847 65.9947 32.6381 66.7734 33.2096 66.8486V66.8755Z" fill="#E8E8E8"/>
<path d="M178.237 45.3032C218.894 32.8276 261.587 26.4598 304.579 26.4591C304.698 26.4591 304.813 26.4167 304.898 26.3411C304.982 26.2656 305.03 26.1632 305.03 26.0563C305.03 25.9495 304.982 25.8471 304.898 25.7715C304.813 25.696 304.698 25.6536 304.579 25.6536C261.512 25.6541 218.743 32.0328 178.015 44.5299C177.467 44.6964 177.702 45.475 178.255 45.3032H178.237Z" fill="#E8E8E8"/>
<path d="M8.40467 36.9096L31.8199 45.5718C32.3554 45.7705 32.59 44.9918 32.0606 44.7931L8.61524 36.1309C8.07979 35.9322 7.84515 36.7109 8.37458 36.9096H8.40467Z" fill="#E8E8E8"/>
<path d="M36.1516 140.496C38.4941 140.496 40.3931 138.801 40.3931 136.71C40.3931 134.619 38.4941 132.924 36.1516 132.924C33.8091 132.924 31.9102 134.619 31.9102 136.71C31.9102 138.801 33.8091 140.496 36.1516 140.496Z" fill="#EC615B"/>
<path d="M231.439 141.661C232.745 141.661 233.804 140.716 233.804 139.551C233.804 138.385 232.745 137.44 231.439 137.44C230.133 137.44 229.075 138.385 229.075 139.551C229.075 140.716 230.133 141.661 231.439 141.661Z" fill="#EC615B"/>
<path d="M166.632 24.3593C169.48 24.3593 171.788 22.2988 171.788 19.7571C171.788 17.2153 169.48 15.1548 166.632 15.1548C163.785 15.1548 161.476 17.2153 161.476 19.7571C161.476 22.2988 163.785 24.3593 166.632 24.3593Z" stroke="#EC615B" stroke-miterlimit="10"/>
<path d="M22.4586 196.926C23.7046 196.926 24.7147 196.024 24.7147 194.912C24.7147 193.8 23.7046 192.898 22.4586 192.898C21.2126 192.898 20.2025 193.8 20.2025 194.912C20.2025 196.024 21.2126 196.926 22.4586 196.926Z" stroke="#EC615B" stroke-miterlimit="10"/>
<path d="M252.147 12.561C253.37 12.561 254.361 11.6762 254.361 10.5848C254.361 9.49331 253.37 8.60852 252.147 8.60852C250.924 8.60852 249.933 9.49331 249.933 10.5848C249.933 11.6762 250.924 12.561 252.147 12.561Z" stroke="#EC615B" stroke-miterlimit="10"/>
<path d="M41.109 90.746C42.4015 90.746 43.4493 89.8107 43.4493 88.657C43.4493 87.5033 42.4015 86.568 41.109 86.568C39.8165 86.568 38.7687 87.5033 38.7687 88.657C38.7687 89.8107 39.8165 90.746 41.109 90.746Z" stroke="#461EB8" stroke-miterlimit="10"/>
<path d="M234.483 153.196C234.859 153.196 235.163 152.925 235.163 152.59C235.163 152.254 234.859 151.983 234.483 151.983C234.108 151.983 233.804 152.254 233.804 152.59C233.804 152.925 234.108 153.196 234.483 153.196Z" stroke="#461EB8" stroke-miterlimit="10"/>
<path d="M231.776 185.697C233.271 185.697 234.483 184.615 234.483 183.28C234.483 181.946 233.271 180.864 231.776 180.864C230.281 180.864 229.069 181.946 229.069 183.28C229.069 184.615 230.281 185.697 231.776 185.697Z" fill="#461EB8"/>
<path d="M216.393 74.0285C217.599 74.0285 218.576 73.1558 218.576 72.0792C218.576 71.0025 217.599 70.1298 216.393 70.1298C215.186 70.1298 214.209 71.0025 214.209 72.0792C214.209 73.1558 215.186 74.0285 216.393 74.0285Z" fill="#461EB8"/>
<path d="M216.104 72.6484C216.343 72.6484 216.573 72.5635 216.742 72.4125C216.911 72.2614 217.006 72.0565 217.006 71.8429C217.006 71.6292 216.911 71.4244 216.742 71.2733C216.573 71.1222 216.343 71.0374 216.104 71.0374C215.864 71.0374 215.635 71.1222 215.466 71.2733C215.296 71.4244 215.201 71.6292 215.201 71.8429C215.201 72.0565 215.296 72.2614 215.466 72.4125C215.635 72.5635 215.864 72.6484 216.104 72.6484V72.6484Z" fill="#461EB8"/>
<path d="M50.0371 115.632C51.114 114.729 52.4436 115.487 52.955 116.464C53.1263 116.726 53.2157 117.025 53.2137 117.329C53.346 117.619 53.2137 117.715 52.8527 117.613C52.203 117.683 52.3173 117.586 53.1776 117.313C54.8561 116.969 56.4685 118.591 56.1857 119.998C56.0955 120.508 56.9618 120.723 57.0581 120.212C57.1343 119.793 57.1169 119.364 57.0068 118.951C56.8967 118.538 56.6961 118.148 56.4165 117.804C56.1369 117.46 55.7839 117.169 55.3777 116.947C54.9716 116.725 54.5203 116.578 54.0499 116.512C53.5859 116.427 53.1046 116.457 52.6587 116.601C52.2129 116.744 51.82 116.994 51.5231 117.323C51.4035 117.445 51.3127 117.588 51.2562 117.742C51.1997 117.896 51.1787 118.058 51.1944 118.22C51.2102 118.381 51.2623 118.538 51.3478 118.682C51.4332 118.825 51.5501 118.951 51.6916 119.052C53.4303 120.159 54.3147 117.807 53.9777 116.679C53.4363 114.853 51.126 113.586 49.3693 115.068C48.9421 115.422 49.5859 115.991 50.007 115.637L50.0371 115.632Z" fill="#461EB8"/>
<path d="M138.356 48.1494C138.668 48.2508 139.003 48.2804 139.331 48.2353C139.659 48.1903 139.97 48.072 140.233 47.8916C140.496 47.7112 140.704 47.4743 140.838 47.2031C140.971 46.9318 141.026 46.6348 140.997 46.3397C140.997 46.2328 140.949 46.1304 140.865 46.0549C140.78 45.9793 140.665 45.9369 140.546 45.9369C140.074 45.9466 139.615 46.0774 139.225 46.3138C138.834 46.5502 138.528 46.882 138.343 47.2696C138.159 47.6572 138.103 48.0841 138.183 48.4992C138.263 48.9143 138.476 49.3 138.795 49.6101C140.6 51.3984 143.313 50.2707 144.583 48.5844C144.865 48.2085 144.204 47.7467 143.873 48.0957C141.274 50.8399 144.474 53.6378 147.555 54.2446C148.12 54.3574 148.361 53.5787 147.795 53.4659C145.515 53.0148 142.381 50.9258 144.51 48.665L143.8 48.1816C143.157 49.0409 142.339 49.6746 141.135 49.6584C140.853 49.7002 140.563 49.6789 140.293 49.5965C140.022 49.514 139.778 49.3729 139.583 49.1859C138.596 48.0205 138.921 47.2096 140.546 46.7424L140.094 46.3397L138.596 47.3761C138.043 47.215 137.808 47.9883 138.356 48.1494Z" fill="#461EB8"/>
<path d="M209.949 109.655C210.39 108.792 211.118 108.754 212.133 109.542C212.223 110.686 211.862 110.938 211.038 110.304C210.779 109.869 211.465 108.65 211.694 108.323C212.21 107.595 212.982 107.041 213.89 106.75C214.798 106.458 215.788 106.445 216.705 106.712C216.802 106.731 216.903 106.723 216.994 106.69C217.086 106.656 217.164 106.598 217.217 106.524L218.276 105.24C218.619 104.821 217.836 104.419 217.494 104.832L216.441 106.116L216.946 105.933C215.876 105.633 214.727 105.645 213.665 105.967C212.603 106.288 211.683 106.903 211.038 107.721C210.376 108.591 209.173 111.636 211.303 111.652C212.831 111.652 213.505 109.789 212.723 108.795C211.796 107.614 209.799 108.049 209.173 109.23C208.92 109.697 209.702 110.106 209.949 109.638V109.655Z" fill="#461EB8"/>
<path d="M227.108 23.7472C225.94 24.9072 225.333 26.7062 227.408 27.3882C228.612 27.7802 229.857 27.3882 231.018 27.8876C231.536 28.0755 231.974 28.4044 232.269 28.8274C232.66 29.3626 232.869 29.9875 232.871 30.6264C234.143 30.0699 235.587 29.9074 236.974 30.1646C238.111 30.3311 238.599 28.7791 237.455 28.6126C235.819 28.3709 231.987 28.2152 231.156 29.9713C230.591 31.1796 232.3 32.2321 233.491 31.7005C235.296 30.9057 234.477 28.6663 233.491 27.6191C232.862 26.9347 232.027 26.4259 231.084 26.153C230.206 25.906 226.939 26.3088 228.365 24.8857C229.135 24.1177 227.866 22.9739 227.089 23.7472H227.108Z" fill="#EC615B"/>
<path d="M26.6279 247.573H179.266C179.386 247.573 179.501 247.53 179.585 247.455C179.67 247.379 179.717 247.277 179.717 247.17C179.717 247.063 179.67 246.96 179.585 246.885C179.501 246.809 179.386 246.767 179.266 246.767H26.6279C26.5082 246.767 26.3934 246.809 26.3088 246.885C26.2242 246.96 26.1766 247.063 26.1766 247.17C26.1766 247.277 26.2242 247.379 26.3088 247.455C26.3934 247.53 26.5082 247.573 26.6279 247.573Z" fill="#E8E8E8"/>
<path d="M151.441 257.787H264.817C264.937 257.787 265.052 257.744 265.136 257.669C265.221 257.593 265.269 257.491 265.269 257.384C265.269 257.277 265.221 257.175 265.136 257.099C265.052 257.024 264.937 256.981 264.817 256.981H151.441C151.321 256.981 151.207 257.024 151.122 257.099C151.037 257.175 150.99 257.277 150.99 257.384C150.99 257.491 151.037 257.593 151.122 257.669C151.207 257.744 151.321 257.787 151.441 257.787Z" fill="#E8E8E8"/>
<path d="M167.944 232.251C166.56 233.094 165.868 234.227 164.49 236.494C162.625 239.549 163.095 240.312 161.079 244.936C159.485 248.593 158.637 249.409 159.196 250.612C159.894 252.116 162.078 252.653 165.014 253.2C174.201 254.924 179.008 254.924 179.008 254.924C184.693 254.924 191.227 254.801 198.482 254.446C198.555 253.411 198.396 252.372 198.014 251.392C197.631 250.412 197.034 249.509 196.256 248.738C195.236 247.808 193.96 247.134 192.556 246.783C190.029 246.144 188.387 246.869 185.337 247.385C182.202 247.922 176.559 248.856 174.718 246.778C173.461 245.36 174.399 242.927 175.404 240.333C176.442 237.66 178.05 235.19 180.139 233.062C179.056 232.563 172.324 229.577 167.944 232.251Z" fill="black"/>
<path d="M145.341 200.374C147.952 198.322 151.898 195.186 156.639 191.298C169.875 180.439 175.62 174.876 186.474 167.288C197.092 159.861 202.718 157.39 209.107 157.476C211.032 157.503 216.994 157.589 219.84 161.16C221.5 163.255 221.386 165.65 221.2 168.577C220.911 173.157 219.395 176.041 217.163 181.331C214.756 187.007 216.224 184.295 212.705 192.839C210.972 197.044 207.892 204.498 203.175 214.175C199.896 220.925 195.985 228.417 191.353 236.461C187.002 237.997 182.331 238.675 177.66 238.448C171.087 238.075 164.789 235.952 159.581 232.353L168.605 215.91C161.254 219.22 153.109 220.879 144.877 220.743C142.735 217.671 141.637 214.111 141.717 210.493C141.797 206.876 143.052 203.356 145.329 200.363L145.341 200.374Z" fill="white"/>
<path opacity="0.21" d="M154.828 211.834C159.223 206.865 164.477 202.554 170.392 199.063C177.245 194.837 186.871 187.405 198.765 173.318C197.562 175.955 195.817 179.983 193.802 184.924C185.758 204.621 181.48 215.083 184.813 217.424C186.654 218.713 191.612 218.079 206.352 207.473L191.353 236.472C188.944 237.292 186.43 237.842 183.869 238.11C172.66 239.276 163.787 234.609 160.285 232.498C162.547 227.196 164.813 221.894 167.083 216.592L148.319 220.936C150.163 217.726 152.343 214.678 154.828 211.834V211.834Z" fill="#919191"/>
<path d="M150.491 198.311C157.457 190.701 165.118 183.618 173.394 177.137C181.619 170.692 190.751 163.711 200.895 159.861C205.9 157.949 214.359 155.946 218.558 160.231C222.553 164.318 220.574 170.268 219.004 174.833C215.655 184.553 211.864 194.141 207.633 203.596C202.66 214.712 197.103 225.599 190.962 236.257C190.697 236.719 191.479 237.127 191.744 236.666C203.422 216.323 213.673 194.853 220.622 172.824C221.825 168.952 222.631 164.533 220.183 160.886C217.933 157.541 213.751 156.784 209.654 157.036C198.452 157.723 188.549 165.14 180.121 171.095C168.988 178.981 158.84 187.915 149.853 197.742C149.492 198.14 150.124 198.709 150.491 198.311V198.311Z" fill="black"/>
<path d="M198.169 174.419C182.478 192.104 169.379 211.504 159.19 232.149C158.961 232.616 159.738 233.03 159.972 232.552C170.117 211.956 183.168 192.601 198.807 174.956C199.162 174.554 198.53 173.979 198.169 174.387V174.419Z" fill="black"/>
<path d="M159.966 232.772C163.305 236.505 169.189 238.008 174.297 238.61C179.863 239.248 185.519 238.643 190.757 236.848C191.299 236.671 191.064 235.892 190.523 236.075C185.724 237.722 180.564 238.354 175.446 237.922C170.206 237.46 164.015 236.01 160.604 232.203C160.237 231.8 159.605 232.375 159.966 232.772V232.772Z" fill="black"/>
<path d="M164.057 236.386C163.004 238.83 161.994 241.284 161.049 243.76C160.303 245.704 158.979 247.991 158.811 250.032C158.558 253.072 163.101 253.168 165.597 253.759C176.114 256.251 187.039 255.123 197.79 254.833C197.91 254.833 198.025 254.791 198.109 254.715C198.194 254.64 198.242 254.537 198.242 254.43C198.242 254.323 198.194 254.221 198.109 254.145C198.025 254.07 197.91 254.027 197.79 254.027C188.766 254.269 179.104 255.418 170.182 253.882C168.172 253.539 166.193 253.077 164.226 252.583C163.462 252.395 161.645 252.159 161.007 251.751C159.106 250.548 160.05 249.065 160.538 247.691C161.879 243.931 163.353 240.258 164.924 236.596C165.134 236.112 164.262 235.903 164.057 236.381V236.386Z" fill="black"/>
<path d="M176.258 238.497C174.517 240.654 173.186 243.053 172.318 245.596C172.149 246.096 173.015 246.305 173.19 245.811C174.04 243.334 175.341 240.999 177.04 238.9C177.377 238.481 176.595 238.078 176.258 238.497V238.497Z" fill="black"/>
<path d="M172.522 246.235C176.197 247.926 180.376 248.54 184.464 247.991C187.569 247.556 190.799 246.311 193.856 247.658C195.234 248.283 196.37 249.263 197.115 250.472C197.86 251.681 198.179 253.062 198.031 254.436C197.983 254.973 198.885 254.973 198.933 254.436C199.112 252.654 198.586 250.872 197.447 249.401C196.307 247.929 194.625 246.86 192.695 246.38C190.21 245.843 187.713 246.584 185.283 246.993C181.113 247.748 176.779 247.23 172.979 245.521C172.462 245.296 172.005 245.988 172.522 246.219V246.235Z" fill="black"/>
<path d="M140.762 228.868C147.729 230.108 154.684 229.276 161.627 228.331C162.198 228.25 161.958 227.477 161.386 227.552C154.6 228.476 147.813 229.298 141.003 228.089C140.437 227.987 140.197 228.761 140.762 228.863V228.868Z" fill="black"/>
<path d="M140.347 234.775C142.922 234.877 145.1 235.028 146.773 235.157C150.19 235.425 151.074 235.608 151.947 236.193C152.392 236.488 153.433 237.294 154.353 240.215C155.099 242.659 155.081 244.442 155.105 247.846C155.105 252.207 155.159 254.414 155.322 255.66C155.634 258.066 156.254 262.829 158.378 263.178C159.449 263.366 160.49 262.373 160.851 262.035C163.107 259.886 162.716 256.82 162.559 253.308C162.222 245.79 163.468 247.326 163.028 240.017C162.796 236.076 162.229 232.157 161.332 228.293L140.919 228.46L140.347 234.775Z" fill="black"/>
<path d="M123.821 191.33C119.103 190.862 114.362 190.608 109.616 190.568C97.367 190.455 88.2284 191.808 81.2435 192.871C70.5406 194.483 65.0477 195.379 58.0328 198.397C48.9242 202.318 45.6212 206.238 44.2616 208.101C41.8793 211.128 40.5503 214.715 40.4413 218.412C40.3609 220.965 40.9805 223.496 42.2461 225.786C44.5203 229.743 48.4068 231.816 51.8721 233.358C62.4427 238.014 72.929 239.34 76.1658 239.732C92.157 241.649 105.044 242.331 123.123 243.4C129.235 243.76 134.15 244.06 136.96 244.227C140.204 237.36 141.842 229.973 141.773 222.52C143.704 222.49 145.603 222.076 147.332 221.307C155.995 217.344 155.905 205.239 155.863 203.413C155.767 199.735 155.538 190.68 148 186.658C141.328 183.065 131.172 184.762 123.821 191.33Z" fill="white"/>
<path opacity="0.18" d="M54.6939 199.89C50.8856 203.902 49.6282 207.317 50.2478 210.233C52.1971 219.465 73.6751 227.579 140.798 229.566C140.655 234.635 139.359 239.624 136.99 244.232C125.83 243.539 117.016 243.029 111.8 242.734C96.1635 241.958 80.5969 240.306 65.1922 237.788C58.2735 236.617 50.8254 235.146 45.4469 229.577C44.3519 228.444 41.1813 225.077 40.5196 220.362C39.4607 212.822 45.1942 204.82 54.6939 199.89Z" fill="#919191"/>
<path d="M119.038 190.278C104.44 189.781 89.828 190.838 75.51 193.425C63.64 195.573 50.2719 198.838 43.3712 208.569C37.4933 216.855 39.4967 227.418 49.1288 232.504C54.5434 235.371 60.9988 236.897 67.0572 238.293C73.5916 239.786 80.2218 240.923 86.9108 241.697C103.287 243.652 119.838 243.846 136.334 243.937C136.454 243.937 136.569 243.894 136.653 243.819C136.738 243.743 136.786 243.641 136.786 243.534C136.786 243.427 136.738 243.325 136.653 243.249C136.569 243.174 136.454 243.131 136.334 243.131C110.663 242.965 84.4261 242.659 59.7535 235.575C54.2245 233.964 48.1601 232.112 44.3579 227.95C40.0803 223.256 39.966 216.468 42.7816 211.152C48.4188 200.524 62.172 196.781 74.0661 194.504C88.8403 191.706 103.946 190.552 119.038 191.067C119.639 191.067 119.639 190.278 119.038 190.262V190.278Z" fill="black"/>
<path d="M84.1615 212.897C102.579 215.321 121.029 217.469 139.511 219.341C140.113 219.4 140.113 218.595 139.511 218.536C121.097 216.685 102.718 214.555 84.372 212.145C83.8065 212.07 83.5598 212.843 84.1374 212.918L84.1615 212.897Z" fill="black"/>
<path d="M140.48 219.529C141.627 227.863 140.288 236.32 136.599 244.044C136.376 244.511 137.153 244.925 137.381 244.447C141.147 236.6 142.521 228.003 141.364 219.529C141.292 219.024 140.389 218.992 140.461 219.529H140.48Z" fill="black"/>
<path d="M140.347 235.178C144.739 235.441 151.778 234.641 153.511 239.131C154.828 242.525 154.63 246.311 154.618 249.871C154.618 252.916 154.618 256.025 155.514 259C155.953 260.429 156.958 263.732 159.028 264.005C160.887 264.252 161.193 262.394 161.506 261.218C162.414 257.603 163.018 253.932 163.311 250.236C163.921 242.867 163.386 235.457 161.723 228.218C161.609 227.681 160.736 227.923 160.851 228.433C162.416 235.266 162.967 242.254 162.487 249.216C162.23 252.842 161.685 256.447 160.857 260.005C160.61 261.079 160.526 263.662 157.969 262.153C157.433 261.841 156.994 260.423 156.796 259.946C156.138 258.238 155.745 256.458 155.628 254.656C155.171 249.286 156.483 243.298 154.07 238.18C151.928 233.626 144.871 234.625 140.335 234.356C139.734 234.324 139.734 235.13 140.335 235.162L140.347 235.178Z" fill="black"/>
<path d="M141.821 222.923C144.155 222.732 146.432 222.174 148.547 221.275C149.071 221.054 148.614 220.356 148.09 220.576C146.119 221.417 143.996 221.938 141.821 222.118C141.25 222.166 141.22 222.972 141.821 222.923Z" fill="black"/>
<path d="M76.3403 64.5661C75.883 66.8377 75.3897 68.6475 75.0167 69.8934C74.4151 71.9931 73.9879 72.9168 74.3429 74.2808C74.5982 75.4037 75.2779 76.4141 76.2681 77.1432C76.6479 77.4068 77.067 77.6219 77.5134 77.7822C77.4453 81.5987 77.3771 85.4187 77.3089 89.2423L81.6105 89.0704C81.049 78.083 81.0771 72.5642 81.6947 72.514C82.0557 72.4818 82.6212 74.3471 83.3913 78.1098C83.7924 81.7472 84.2918 85.4903 84.8894 89.3389C86.2165 97.6883 88.0237 105.971 90.304 114.155C91.3869 116.303 92.5641 118.478 93.8355 120.68C99.6095 130.627 106.73 139.905 115.037 148.304C116.384 146.972 120.265 142.783 120.199 136.865C120.176 135.22 119.861 133.589 119.266 132.032C117.04 129.616 114.79 127.043 112.546 124.304C108.684 119.595 105.327 115.003 102.403 110.643C102.138 109.504 101.711 107.791 101.073 105.74C98.9855 99.0483 97.2227 96.9002 93.643 88.4797C91.3027 82.9752 90.1295 80.2203 89.5941 77.4869C88.9925 74.2647 88.1381 71.0426 87.6689 67.7936C87.2959 65.232 87.1154 63.1967 85.3526 62.0045C83.9388 61.0486 82.1219 61.0594 80.9006 61.2044C81.1412 54.0978 81.3779 46.9912 81.6105 39.8846C86.7544 39.6698 92.151 39.5892 97.7762 39.6805C100.395 39.7235 102.958 39.8022 105.465 39.9168C105.14 37.9298 104.877 35.8748 104.677 33.7518C103.74 23.1766 104.682 12.5357 107.468 2.22324C103.937 1.68622 100.249 1.23512 96.3684 0.92365C80.4802 -0.31135 64.4724 0.857904 49.0205 4.38207C48.5211 7.32495 48.1361 10.4558 47.9195 13.7531C47.264 24.0216 48.3245 34.3199 51.066 44.3097L78.0248 40.1209C77.4713 48.2729 76.9098 56.4213 76.3403 64.5661Z" fill="white"/>
<path opacity="0.36" d="M76.1658 65.4038C75.8048 66.842 75.9605 68.3453 76.611 69.7C78.4159 73.3947 83.3793 73.921 83.632 73.9425C85.3636 82.8945 87.6391 91.7559 90.4484 100.487C93.3061 109.354 94.9906 114.493 98.5041 120.771C102.858 128.493 108.597 135.528 115.494 141.596L116.902 153.202C115.097 150.42 112.54 146.618 109.171 142.241C105.435 137.375 103.588 135.533 100.556 131.35C97.8117 127.653 95.3978 123.769 93.3362 119.734C91.2621 115.527 89.6033 111.166 88.3788 106.701C85.5944 97.0753 83.5244 87.2964 82.182 77.4277C81.9173 81.3659 81.6546 85.2915 81.3939 89.2046L77.3029 88.9307L77.0201 78.534C75.6941 77.0768 74.7966 75.3472 74.409 73.5021C73.8796 70.7019 74.5036 67.8252 76.1658 65.4038V65.4038Z" fill="#919191"/>
<path opacity="0.22" d="M49.0445 4.39819C48.9024 8.58285 49.7703 12.7458 51.5894 16.6047C58.6525 31.3352 80.1185 39.9544 105.736 39.5409C87.3844 39.2437 69.0565 40.8494 51.1201 44.3258C48.0433 31.2007 47.3526 17.7192 49.0746 4.39819H49.0445Z" fill="#919191"/>
<path d="M77.3209 34.8311C65.2463 30.3846 58.1893 22.8502 59.3504 16.6798C60.0062 13.2053 63.6219 8.29689 68.2003 8.62447C71.4611 8.85539 74.5053 11.707 75.6244 15.6863C76.6471 11.8949 79.6312 9.17223 82.892 8.91446C87.2117 8.5654 90.5447 12.636 91.5073 15.4178C93.5047 21.18 87.9697 29.1011 77.3209 34.8311Z" fill="#EC615B"/>
<path d="M119.609 131.764C113.239 124.944 107.501 117.674 102.451 110.025C102.387 109.94 102.288 109.88 102.176 109.857C102.064 109.835 101.947 109.851 101.848 109.903C101.749 109.955 101.676 110.039 101.643 110.138C101.611 110.236 101.623 110.342 101.675 110.433C106.767 118.137 112.55 125.461 118.965 132.333C119.338 132.73 119.976 132.156 119.609 131.764Z" fill="black"/>
<path d="M102.048 111.368C102.944 104.639 98.1852 97.5017 95.4298 91.4334C92.3314 84.5434 89.4978 77.546 88.5833 70.1297C88.5231 69.5927 87.6207 69.5927 87.6809 70.1297C88.5291 76.9821 90.9417 83.4801 93.7633 89.8653C95.2072 93.1357 96.7714 96.374 98.1732 99.6444C99.8217 103.404 101.675 107.243 101.127 111.368C101.061 111.905 101.963 111.905 102.03 111.368H102.048Z" fill="black"/>
<path d="M82.9401 78.1098C84.2364 90.0806 86.535 101.948 89.8167 113.612C89.8325 113.663 89.8594 113.711 89.8959 113.753C89.9324 113.795 89.9778 113.83 90.0295 113.856C90.0812 113.882 90.1381 113.899 90.1971 113.906C90.2561 113.912 90.3159 113.908 90.3732 113.894C90.4304 113.88 90.4841 113.856 90.5309 113.824C90.5778 113.791 90.617 113.75 90.6463 113.704C90.6757 113.658 90.6945 113.607 90.7019 113.555C90.7092 113.502 90.7048 113.449 90.689 113.398C87.4233 101.804 85.1347 90.0084 83.8425 78.1098C83.7884 77.5996 82.8859 77.5728 82.9401 78.1098V78.1098Z" fill="black"/>
<path d="M90.677 115.519C96.1596 126.647 103.436 136.999 112.275 146.247C112.654 146.645 113.286 146.07 112.913 145.678C104.13 136.479 96.9024 126.183 91.4591 115.116C91.2245 114.638 90.4484 115.052 90.677 115.519V115.519Z" fill="black"/>
<path d="M88.3548 68.422C87.8689 66.6183 87.254 64.8443 86.5138 63.1108C86.0866 62.2247 85.7618 61.5803 84.7089 61.1937C81.9896 60.1841 78.2535 61.4407 75.9192 62.6812C75.8507 62.7165 75.7939 62.7675 75.7548 62.8288C75.7157 62.8902 75.6956 62.9597 75.6966 63.0303C75.7808 65.6724 79.8478 65.5006 81.8753 65.0602C82.4408 64.9367 82.2001 64.158 81.6346 64.2815C80.7785 64.487 79.8892 64.5596 79.0055 64.4964C78.1873 64.4265 76.6652 64.1258 77.0683 63.0088C77.3751 62.171 81.394 61.7414 82.2362 61.7307C82.8877 61.6702 83.5462 61.7156 84.1795 61.8649C85.3827 62.316 85.6956 63.5029 86.0505 64.4534C86.5679 65.8335 87.0312 67.2298 87.4644 68.6368C87.4963 68.7401 87.5728 68.8278 87.6772 68.8806C87.7816 68.9335 87.9052 68.9472 88.0209 68.9187C88.1365 68.8902 88.2348 68.8219 88.294 68.7288C88.3533 68.6356 88.3686 68.5252 88.3367 68.422H88.3548Z" fill="black"/>
<path d="M75.9071 64.4586C74.9925 67.4217 74.3486 70.4461 73.9819 73.5021C73.7593 75.6931 74.6978 77.0035 76.99 77.8842C78.1933 78.3568 79.4507 78.5931 79.9982 77.2183C80.6479 75.5428 78.097 74.2432 77.4292 73.0134C77.1765 72.5462 76.4004 72.9543 76.6531 73.4215C76.9058 73.8887 77.8985 74.6352 78.0369 75.0702C77.9887 76.9534 77.4252 77.4904 76.3463 76.6813C75.7538 76.1519 75.3233 75.4959 75.0958 74.7757C74.8683 74.0555 74.8514 73.2953 75.0468 72.5677C75.1551 69.9577 76.0816 67.1975 76.8095 64.6896C76.8304 64.5904 76.8088 64.4879 76.749 64.4023C76.6893 64.3167 76.5957 64.2542 76.4868 64.2272C76.378 64.2002 76.2617 64.2107 76.161 64.2565C76.0604 64.3023 75.9826 64.3802 75.9432 64.4748L75.9071 64.4586Z" fill="black"/>
<path d="M74.5835 71.3648C75.8529 72.7074 78.7467 75.4086 80.9427 74.05C81.9053 73.4592 82.3866 72.2026 82.7475 71.2628C83.2924 70.006 83.3931 68.6305 83.0363 67.3211C82.9969 67.2265 82.9191 67.1487 82.8185 67.1028C82.7178 67.057 82.6016 67.0465 82.4927 67.0735C82.3838 67.1005 82.2902 67.163 82.2305 67.2486C82.1707 67.3342 82.1491 67.4367 82.17 67.5359C82.6152 69.104 82.2 71.6817 80.8705 72.9061C80.3831 73.3626 79.0656 73.4431 78.3857 73.2068C77.8847 72.9868 77.4208 72.7048 77.008 72.3691C76.3502 71.8846 75.7458 71.3452 75.2031 70.758C74.8241 70.3606 74.1924 70.9299 74.5654 71.3273L74.5835 71.3648Z" fill="black"/>
<path d="M80.2569 65.0226C80.6155 65.3772 81.0718 65.642 81.5805 65.7905C82.0317 65.9624 82.8559 66.2846 82.6032 66.8646C82.3866 67.3425 83.259 67.552 83.4756 67.074C83.5781 66.7762 83.567 66.4564 83.4439 66.1649C83.3209 65.8733 83.0929 65.6264 82.7957 65.463C82.1941 65.0602 81.3699 65.0011 80.8946 64.4587C80.5336 64.0506 79.8959 64.6252 80.2569 65.028V65.0226Z" fill="black"/>
<path d="M77.2126 77.6158C76.7846 81.4788 76.6659 85.3642 76.8576 89.2423C76.8576 89.7793 77.7841 89.7793 77.7601 89.2423C77.5684 85.3642 77.687 81.4788 78.115 77.6158C78.1692 77.0788 77.2667 77.0788 77.2126 77.6158Z" fill="black"/>
<path d="M77.1524 89.6128C78.5916 89.892 80.0811 89.892 81.5202 89.6128C82.0918 89.5 81.8511 88.7214 81.2856 88.8341C80.0035 89.0869 78.6751 89.0869 77.3931 88.8341C76.8276 88.7267 76.5869 89.5 77.1524 89.6128Z" fill="black"/>
<path d="M81.1593 73.2067V89.0704C81.1593 89.1772 81.2068 89.2796 81.2915 89.3551C81.3761 89.4307 81.4909 89.4731 81.6105 89.4731C81.7302 89.4731 81.845 89.4307 81.9296 89.3551C82.0142 89.2796 82.0617 89.1772 82.0617 89.0704V73.2067C82.0617 73.0999 82.0142 72.9975 81.9296 72.9219C81.845 72.8464 81.7302 72.804 81.6105 72.804C81.4909 72.804 81.3761 72.8464 81.2915 72.9219C81.2068 72.9975 81.1593 73.0999 81.1593 73.2067Z" fill="black"/>
<path d="M77.2126 40.2498C77.1444 47.5354 76.9439 54.821 76.611 62.1066C76.611 62.6436 77.4893 62.6436 77.5134 62.1066C77.8463 54.8246 78.0468 47.539 78.115 40.2498C78.115 40.143 78.0675 40.0405 77.9829 39.965C77.8982 39.8895 77.7835 39.847 77.6638 39.847C77.5441 39.847 77.4294 39.8895 77.3448 39.965C77.2601 40.0405 77.2126 40.143 77.2126 40.2498V40.2498Z" fill="black"/>
<path d="M81.2014 39.9007C81.1051 47.0109 80.8685 54.1175 80.4915 61.2205C80.4915 61.7575 81.3698 61.7575 81.3939 61.2205C81.7709 54.1139 82.0075 47.0073 82.1038 39.9007C82.1038 39.7939 82.0563 39.6914 81.9717 39.6159C81.887 39.5404 81.7723 39.4979 81.6526 39.4979C81.5329 39.4979 81.4181 39.5404 81.3335 39.6159C81.2489 39.6914 81.2014 39.7939 81.2014 39.9007Z" fill="black"/>
<path d="M51.8601 44.6587C69.4156 40.9509 87.4734 39.4952 105.489 40.3357C106.091 40.3626 106.091 39.557 105.489 39.5302C87.3922 38.6877 69.2532 40.1524 51.6195 43.8801C51.0539 44.0036 51.2946 44.7769 51.8601 44.6587V44.6587Z" fill="black"/>
<path d="M47.8232 5.18219C46.9602 18.3198 47.9099 31.5023 50.6509 44.4331C50.7591 44.9701 51.6315 44.7231 51.5232 44.2183C48.7973 31.3583 47.8537 18.2478 48.7136 5.18219C48.7136 4.64516 47.8413 4.64516 47.8112 5.18219H47.8232Z" fill="black"/>
<path d="M50.7592 4.25854C69.1122 0.284406 88.187 -0.264068 106.789 2.64747C107.354 2.7334 107.601 1.96009 107.029 1.86879C88.2688 -1.07165 69.0304 -0.523181 50.5185 3.47986C49.953 3.60337 50.1936 4.38205 50.7592 4.25854Z" fill="black"/>
<path d="M107.071 2.13192C106.012 8.46341 105.206 14.8271 104.713 21.2123C104.238 27.3129 103.51 33.6658 105.314 39.6483C105.354 39.7428 105.432 39.8207 105.532 39.8665C105.633 39.9123 105.749 39.9228 105.858 39.8958C105.967 39.8688 106.061 39.8063 106.12 39.7207C106.18 39.6351 106.202 39.5326 106.181 39.4335C104.454 33.5262 105.164 27.2269 105.633 21.2123C106.123 14.8969 106.899 8.6084 107.962 2.34673C108.046 1.8097 107.18 1.62175 107.089 2.13192H107.071Z" fill="black"/>
<path d="M134.524 130.061C129.37 130.128 124.249 130.796 119.29 132.048C116.587 136.999 114.894 142.34 114.291 147.821C113.616 155.274 114.57 162.774 117.1 169.903C118.965 174.618 121.312 178.044 120.873 183.683C120.687 186.085 120.059 188.444 119.014 190.664C120.482 193.468 122.704 195.905 125.481 197.758C134.59 203.719 149.384 202.318 162.782 194.429C162.83 186.91 162.942 179.299 163.119 171.595C163.392 159.78 163.793 148.145 164.322 136.688C155.179 132.261 144.925 129.98 134.524 130.061V130.061Z" fill="#EC615B"/>
<path d="M160.014 138.203C159.749 138.513 159.554 138.868 159.443 139.245C159.331 139.623 159.305 140.017 159.365 140.404C159.768 145.458 156.663 148.508 158.059 163.883C158.578 169.598 159.555 175.273 160.983 180.864C160.724 182.706 160.315 185.729 159.9 189.456C159.172 196.056 158.974 199.949 158.191 209.594C157.999 212.022 157.692 215.716 157.289 220.276C156.314 221.967 154.882 224.486 153.33 227.606C151.574 231.064 148.956 236.236 149.582 236.553C149.829 236.682 150.695 236.069 153.583 232.466C153.493 234.184 153.288 236.8 152.777 239.984C151.802 246.004 150.412 249.688 150.972 249.898C151.285 250.005 152.175 249.141 154.943 244.34C154.265 248.833 154.297 251.176 155.039 251.369C156.022 251.627 158.248 248.099 161.717 240.785C162.09 246.864 162.601 248.045 162.992 248.061C163.666 248.093 164.761 244.56 164.617 240.951C164.527 238.599 163.979 238.099 163.293 234.899C162.623 231.639 162.361 228.323 162.511 225.012C162.716 221.629 163.468 219.32 164.316 216.565C167.264 206.829 165.868 209.213 169.285 197.683C172.342 187.378 173.274 186.073 173.425 181.492C173.515 178.844 173.304 176.154 173.021 172.529C172.739 168.904 172.474 165.548 171.734 161.375C169.4 148.175 165.832 146.338 165.285 140.694C165.23 140.157 165.116 138.616 163.925 137.886C163.322 137.554 162.616 137.405 161.91 137.463C161.205 137.52 160.54 137.779 160.014 138.203V138.203Z" fill="white"/>
<path opacity="0.22" d="M162.974 138.681C162.222 138.874 165.249 146.016 166.614 158.164C168.058 170.993 166.692 180.907 164.244 197.834C163.293 204.385 161.783 213.493 159.341 224.373C160.002 227.037 160.319 229.759 160.285 232.488C160.135 242.691 154.985 250.553 155.971 250.977C156.417 251.165 157.638 249.635 158.234 248.888C160.332 246.212 161.517 243.05 161.645 239.786C162.776 246.649 163.396 248.072 163.756 248.05C164.358 248.013 164.761 243.942 164.539 240.113C164.148 233.374 162.042 231.494 162.186 226.07C162.246 223.691 162.698 222.273 163.847 218.364C163.847 218.364 167.655 205.4 170.753 192.898C173.16 183.291 173.352 180.101 173.425 178.485C173.575 174.229 173.234 169.972 172.408 165.779C169.839 151.521 164.003 138.439 162.974 138.681Z" fill="#919191"/>
<path d="M159.569 138.095C155.195 152.208 157.5 166.847 160.55 180.971C160.658 181.481 161.53 181.266 161.416 180.756C158.408 166.794 156.11 152.294 160.442 138.331C160.473 138.228 160.458 138.118 160.399 138.025C160.34 137.932 160.241 137.863 160.126 137.835C160.01 137.806 159.886 137.82 159.782 137.873C159.678 137.926 159.601 138.013 159.569 138.117V138.095Z" fill="black"/>
<path d="M161.645 179.408C160.056 181.691 159.9 184.241 159.671 186.851C159.359 190.51 159.05 194.169 158.745 197.828L156.838 220.297C156.796 220.834 157.698 220.834 157.74 220.297L159.467 199.917L160.309 189.988C160.598 186.631 160.375 182.765 162.427 179.816C162.734 179.376 161.952 178.968 161.645 179.408V179.408Z" fill="black"/>
<path d="M163.552 138.084C169.674 150.596 172.784 164.117 172.679 177.77C172.679 177.877 172.726 177.98 172.811 178.055C172.895 178.131 173.01 178.173 173.13 178.173C173.249 178.173 173.364 178.131 173.449 178.055C173.534 177.98 173.581 177.877 173.581 177.77C173.681 163.974 170.528 150.314 164.328 137.676C164.099 137.204 163.317 137.612 163.552 138.084V138.084Z" fill="black"/>
<path d="M173.413 179.747C169.715 194.447 165.886 209.125 161.928 223.782C161.795 224.287 162.662 224.502 162.8 223.997C166.759 209.347 170.587 194.669 174.285 179.961C174.411 179.457 173.539 179.242 173.413 179.747Z" fill="black"/>
<path d="M156.447 220.528C155.346 223.568 153.559 226.29 151.935 229.12C150.846 231.021 148.926 233.846 149.077 236.032C149.323 239.941 153.613 233.481 154.016 232.595C154.239 232.112 153.366 231.902 153.15 232.38C153.048 232.595 152.031 234.936 151.477 235.162C150.021 235.763 150.358 234.491 150.617 233.792C151.316 232.054 152.169 230.368 153.168 228.75C154.708 226.129 156.29 223.568 157.319 220.743C157.5 220.249 156.627 220.039 156.447 220.528V220.528Z" fill="black"/>
<path d="M162.264 223.981C160.953 231.462 165.116 238.577 164.184 246.047C164.117 246.584 165.02 246.584 165.086 246.047C166.013 238.647 161.837 231.585 163.131 224.196C163.221 223.686 162.355 223.471 162.264 223.981Z" fill="black"/>
<path d="M153.33 232.321C153.276 236.268 152.289 240.07 151.357 243.91C151.08 245.059 149.281 249.114 150.647 250.134C153.384 252.186 156.062 241.101 156.272 240.038C156.38 239.533 155.514 239.318 155.4 239.829C154.931 242.041 154.249 244.214 153.36 246.321C153.186 246.719 152.193 250.317 151.363 248.013C151.092 247.245 151.922 245.414 152.115 244.608C153.09 240.527 154.179 236.51 154.233 232.321C154.233 232.214 154.185 232.112 154.101 232.036C154.016 231.961 153.901 231.918 153.781 231.918C153.662 231.918 153.547 231.961 153.462 232.036C153.378 232.112 153.33 232.214 153.33 232.321V232.321Z" fill="black"/>
<path d="M155.568 241.01C155.261 242.283 152.53 251.917 156.17 251.369C157.861 251.117 159.371 247.793 159.918 246.649C160.986 244.377 161.485 241.925 161.38 239.463C161.38 238.926 160.46 238.926 160.478 239.463C160.627 242.681 159.683 245.863 157.77 248.593L157.301 249.221C156.748 250.564 156.26 250.703 155.839 249.629C155.135 248.894 155.31 248.077 155.37 247.191C155.566 245.188 155.932 243.2 156.465 241.246C156.585 240.742 155.713 240.527 155.592 241.032L155.568 241.01Z" fill="black"/>
<path d="M156.338 250.435C158.202 246.814 159.155 242.873 159.13 238.889C159.13 238.782 159.082 238.68 158.998 238.604C158.913 238.529 158.798 238.486 158.679 238.486C158.559 238.486 158.444 238.529 158.36 238.604C158.275 238.68 158.228 238.782 158.228 238.889C158.261 242.731 157.351 246.532 155.562 250.027C155.322 250.494 156.098 250.907 156.338 250.435Z" fill="black"/>
<path d="M161.218 239.786L161.819 245.301C161.904 246.144 161.693 247.621 162.529 248.249C162.786 248.407 163.089 248.495 163.401 248.501C163.713 248.508 164.021 248.433 164.286 248.287C165.327 247.75 165.351 246.627 165.309 245.682C165.309 245.145 164.382 245.145 164.406 245.682C164.599 246.477 164.101 246.962 162.914 247.138L162.782 245.913L162.589 244.077L162.144 239.78C162.09 239.243 161.188 239.243 161.242 239.78L161.218 239.786Z" fill="black"/>
<path d="M137.472 130.996C135.51 131.194 128.778 131.882 125.355 129.347C120.716 125.921 123.171 117.366 123.502 116.271C122.467 115.084 119.092 110.9 119.79 105.53C120.638 98.9838 127.13 93.3183 135.925 91.9488C137.207 90.4828 140.504 87.1479 145.389 86.6538C152.638 85.9127 160.911 91.675 163.564 101.223C168.979 103.081 177.221 106.814 183.418 114.112C185.764 116.883 188.231 119.885 188.423 124.047C188.598 127.806 186.709 128.584 185.457 134.476C184.031 141.178 186.263 143.761 183.971 146.07C180.909 149.147 174.008 147.788 173.425 147.681C163.672 145.651 158.583 135.867 149.925 132.011C148.67 131.443 147.34 131.019 145.966 130.749C142.477 130.072 140.161 130.722 137.472 130.996Z" fill="#461EB8"/>
<path d="M129.127 102.201C127.974 103.832 127.159 105.634 126.72 107.523C125.948 107.609 125.206 107.841 124.543 108.205C123.339 108.876 121.691 110.412 122.034 112.098C122.377 113.784 124.573 115.18 127.232 114.933C128.638 119.294 131.701 123.082 135.895 125.647L136.431 131.753C137.126 132.276 137.951 132.644 138.837 132.827C141.761 133.407 144.125 131.603 144.438 131.356L144.974 125.55C146.216 124.696 147.365 123.738 148.403 122.688C150.647 120.41 152.346 117.748 153.397 114.864C154.361 115.441 155.54 115.657 156.681 115.465C158.925 114.987 160.514 112.544 159.822 110.396C159.53 109.595 158.98 108.889 158.242 108.365C157.504 107.841 156.61 107.522 155.671 107.447C154.189 104.963 152.192 102.753 149.787 100.933C147.29 99.0644 141.996 95.0905 136.479 96.4491C132.496 97.4265 130.186 100.697 129.127 102.201Z" fill="white"/>
<path opacity="0.36" d="M132.37 98.8711C131.456 100.699 130.818 102.628 130.475 104.606C129.386 110.884 130.769 120.835 137.899 123.708C139.162 124.213 141.737 124.96 145.756 124.095C145.318 125.448 144.552 126.699 143.513 127.759C142.473 128.819 141.185 129.662 139.74 130.228C139.661 131.114 139.589 132 139.517 132.881L136.575 131.758C136.459 129.757 136.349 127.756 136.244 125.754C134.66 124.857 133.22 123.774 131.961 122.532C129.823 120.424 128.246 117.913 127.346 115.186C123.827 115.078 121.727 112.656 122.088 110.933C122.359 109.665 124.013 108.554 126.089 108.296C126.281 106.409 126.943 104.584 128.027 102.954C129.111 101.324 130.588 99.9313 132.352 98.8765L132.37 98.8711Z" fill="#919191"/>
<path d="M127.707 102.705C125.625 107.386 125.67 112.606 127.834 117.257C129.999 121.908 134.11 125.621 139.294 127.607C139.818 127.817 140.281 127.118 139.752 126.914C134.741 125.015 130.765 121.438 128.676 116.951C126.588 112.464 126.553 107.425 128.579 102.915C128.784 102.432 127.918 102.222 127.707 102.705Z" fill="black"/>
<path d="M139.92 127.747C151.309 125.062 155.099 114.289 154.522 104.837C154.491 104.3 153.589 104.3 153.619 104.837C154.173 113.918 150.701 124.385 139.679 126.968C139.622 126.982 139.569 127.006 139.522 127.039C139.475 127.071 139.436 127.112 139.406 127.158C139.377 127.204 139.358 127.255 139.351 127.308C139.343 127.36 139.348 127.414 139.364 127.465C139.379 127.516 139.406 127.564 139.443 127.606C139.479 127.647 139.525 127.682 139.576 127.709C139.628 127.735 139.685 127.752 139.744 127.758C139.803 127.765 139.863 127.761 139.92 127.747V127.747Z" fill="black"/>
<path d="M135.456 125.647L135.992 131.753C136.04 132.29 136.942 132.29 136.894 131.753L136.359 125.647C136.31 125.11 135.408 125.11 135.456 125.647Z" fill="black"/>
<path d="M136.274 132.021C138.392 134.17 142.634 133.337 144.757 131.624C145.19 131.275 144.547 130.706 144.12 131.055C142.357 132.478 138.705 133.241 136.9 131.452C136.515 131.06 135.877 131.629 136.262 132.021H136.274Z" fill="black"/>
<path d="M144.493 125.55L144.33 130.883C144.33 131.42 145.214 131.42 145.233 130.883L145.395 125.55C145.395 125.444 145.347 125.341 145.263 125.266C145.178 125.19 145.063 125.148 144.944 125.148C144.824 125.148 144.709 125.19 144.625 125.266C144.54 125.341 144.493 125.444 144.493 125.55Z" fill="black"/>
<path d="M127.124 114.541C126.202 114.78 125.213 114.689 124.365 114.288C123.517 113.887 122.878 113.208 122.581 112.393C122.034 110.702 123.183 108.484 125.349 108.554C125.95 108.554 125.95 107.764 125.349 107.748C122.732 107.667 121.167 110.111 121.613 112.232C121.746 112.78 122.003 113.298 122.37 113.754C122.736 114.21 123.203 114.593 123.742 114.881C124.281 115.169 124.881 115.355 125.504 115.428C126.127 115.501 126.76 115.459 127.364 115.304C127.48 115.275 127.578 115.207 127.637 115.114C127.697 115.021 127.712 114.91 127.68 114.807C127.648 114.704 127.572 114.616 127.467 114.563C127.363 114.51 127.239 114.497 127.124 114.525V114.541Z" fill="black"/>
<path d="M153.054 115.148C155.46 117.608 158.956 114.993 159.87 112.662C160.833 110.202 159.726 106.132 155.996 106.916C155.43 107.034 155.665 107.813 156.23 107.694C159.341 107.039 159.714 110.675 158.998 112.447C158.282 114.219 155.647 116.571 153.691 114.595C153.312 114.203 152.675 114.778 153.054 115.164V115.148Z" fill="black"/>
<path d="M139.439 102.807C139.132 106.669 138.236 111.029 139.09 114.853C139.174 115.229 139.691 115.197 139.914 114.95C140.558 114.196 141.135 113.399 141.641 112.565C141.918 112.109 141.141 111.701 140.865 112.157C140.357 112.989 139.78 113.787 139.138 114.541L139.962 114.638C139.126 110.906 140.04 106.583 140.341 102.824C140.383 102.287 139.481 102.287 139.439 102.824V102.807Z" fill="black"/>
<path d="M135.492 116.421C137.176 117.297 139.164 117.58 141.07 117.215C142.975 116.851 144.659 115.865 145.792 114.45C146.147 114.037 145.365 113.634 145.016 114.042C144.003 115.271 142.514 116.121 140.839 116.427C139.164 116.732 137.422 116.472 135.949 115.696C135.444 115.444 134.987 116.142 135.492 116.394V116.421Z" fill="black"/>
<path d="M131.648 110.734C131.767 110.734 131.882 110.691 131.967 110.616C132.051 110.54 132.099 110.438 132.099 110.331C132.099 110.224 132.051 110.122 131.967 110.046C131.882 109.971 131.767 109.928 131.648 109.928C131.528 109.928 131.413 109.971 131.329 110.046C131.244 110.122 131.197 110.224 131.197 110.331C131.197 110.438 131.244 110.54 131.329 110.616C131.413 110.691 131.528 110.734 131.648 110.734Z" fill="black"/>
<path d="M134.536 110.841C134.655 110.841 134.77 110.799 134.855 110.723C134.939 110.648 134.987 110.545 134.987 110.439C134.987 110.332 134.939 110.229 134.855 110.154C134.77 110.078 134.655 110.036 134.536 110.036C134.416 110.036 134.301 110.078 134.217 110.154C134.132 110.229 134.084 110.332 134.084 110.439C134.084 110.545 134.132 110.648 134.217 110.723C134.301 110.799 134.416 110.841 134.536 110.841Z" fill="black"/>
<path d="M133.573 113.306C133.693 113.306 133.807 113.264 133.892 113.188C133.977 113.113 134.024 113.01 134.024 112.903C134.024 112.797 133.977 112.694 133.892 112.619C133.807 112.543 133.693 112.501 133.573 112.501C133.453 112.501 133.338 112.543 133.254 112.619C133.169 112.694 133.122 112.797 133.122 112.903C133.122 113.01 133.169 113.113 133.254 113.188C133.338 113.264 133.453 113.306 133.573 113.306Z" fill="black"/>
<path d="M144.643 110.514C144.763 110.514 144.877 110.471 144.962 110.396C145.047 110.32 145.094 110.218 145.094 110.111C145.094 110.004 145.047 109.902 144.962 109.826C144.877 109.751 144.763 109.708 144.643 109.708C144.523 109.708 144.408 109.751 144.324 109.826C144.239 109.902 144.192 110.004 144.192 110.111C144.192 110.218 144.239 110.32 144.324 110.396C144.408 110.471 144.523 110.514 144.643 110.514Z" fill="black"/>
<path d="M148.247 109.977C148.366 109.977 148.481 109.934 148.566 109.859C148.65 109.783 148.698 109.681 148.698 109.574C148.698 109.467 148.65 109.365 148.566 109.289C148.481 109.214 148.366 109.171 148.247 109.171C148.127 109.171 148.012 109.214 147.928 109.289C147.843 109.365 147.795 109.467 147.795 109.574C147.795 109.681 147.843 109.783 147.928 109.859C148.012 109.934 148.127 109.977 148.247 109.977Z" fill="black"/>
<path d="M146.682 112.017C146.802 112.017 146.917 111.975 147.001 111.899C147.086 111.824 147.134 111.721 147.134 111.615C147.134 111.508 147.086 111.405 147.001 111.33C146.917 111.254 146.802 111.212 146.682 111.212C146.563 111.212 146.448 111.254 146.363 111.33C146.279 111.405 146.231 111.508 146.231 111.615C146.231 111.721 146.279 111.824 146.363 111.899C146.448 111.975 146.563 112.017 146.682 112.017V112.017Z" fill="black"/>
<path d="M132.887 99.8216C133.838 98.5328 135.847 97.6735 137.171 99.1074C137.544 99.5048 138.175 98.9302 137.808 98.5381C136.1 96.7176 133.356 97.7219 132.111 99.4189C131.792 99.8539 132.574 100.257 132.887 99.8216V99.8216Z" fill="black"/>
<path d="M145.028 99.3758C146.177 97.2922 148.77 98.7905 149.697 100.133C150.003 100.573 150.785 100.171 150.479 99.7249C149.763 98.6938 148.71 97.7379 147.296 97.5768C146.69 97.4974 146.071 97.5887 145.525 97.838C144.979 98.0873 144.534 98.4822 144.252 98.9677C143.993 99.4349 144.775 99.8431 145.028 99.3758Z" fill="black"/>
<path d="M135.221 107.195C135.6 107.195 135.907 106.31 135.907 105.219C135.907 104.127 135.6 103.242 135.221 103.242C134.843 103.242 134.536 104.127 134.536 105.219C134.536 106.31 134.843 107.195 135.221 107.195Z" fill="black"/>
<path d="M145.407 107.195C145.786 107.195 146.093 106.31 146.093 105.219C146.093 104.127 145.786 103.242 145.407 103.242C145.028 103.242 144.721 104.127 144.721 105.219C144.721 106.31 145.028 107.195 145.407 107.195Z" fill="black"/>
<path d="M140.161 92.792C139.15 93.7801 139.758 95.606 140.161 96.825C142.567 104.043 152.584 109.44 155.677 107.469C157.782 106.121 156.85 101.245 154.75 98.1676C151.02 92.7168 142.242 90.7084 140.161 92.792Z" fill="#461EB8"/>
<path d="M143.259 94.838C140.449 95.0086 137.718 95.7428 135.269 96.9861C128.447 100.504 126.516 106.819 126.119 108.264C125.356 107.715 124.76 107.004 124.386 106.196C122.696 102.372 126.829 96.449 132.376 94.4137C137.261 92.6308 141.966 94.3278 143.259 94.838Z" fill="#461EB8"/>
</g>
<defs>
<clipPath id="clip0_964_6">
<rect width="305" height="264" fill="white"/>
</clipPath>
</defs>
</svg>
